<svg width="2390" height="234" viewBox="0 0 2390 234" fill="none" xmlns="http://www.w3.org/2000/svg">
<g clip-path="url(#clip0_5477_35901)">
<mask id="path-1-outside-1_5477_35901" maskUnits="userSpaceOnUse" x="-37" y="25" width="2473" height="167" fill="black">
<rect fill="white" x="-37" y="25" width="2473" height="167"/>
<path d="M48.72 190V76.32H8.12V190H48.72ZM64.96 157.52H97.44L146.16 108.8L97.44 60.08H0L-31.784 27.6H113.68L194.88 108.8L113.68 190H64.96V157.52ZM357.244 60.08L389.724 27.6H163.524L194.844 60.08H357.244ZM202.964 76.32H243.564V92.56H316.644L284.164 125.04H243.564V157.52H316.644L349.124 190H202.964V76.32ZM406.045 157.52H438.525L454.765 141.28L389.805 76.32H438.525L503.485 141.28L454.765 190H373.565L406.045 157.52ZM511.605 60.08L544.085 27.6H406.045L373.565 60.08H511.605ZM665.822 60.08L698.302 27.6H472.102L503.422 60.08H665.822ZM511.542 76.32H552.142V92.56H625.222L592.742 125.04H552.142V157.52H625.222L657.702 190H511.542V76.32ZM706.431 190H665.831V76.32H706.431V190ZM657.711 60.08L626.623 27.6H747.031L795.751 76.32L771.391 100.68H722.671L747.031 76.32L730.791 60.08H657.711ZM722.671 116.92V149.4H755.151L795.751 190H844.471L771.391 116.92H722.671ZM893.128 190H852.528V76.32H893.128V190ZM949.968 60.08H795.688L764.135 27.6H982.448L949.968 60.08ZM1155.26 157.52H1130.9L1106.54 133.16V27.6H1065.94V141.28L1114.66 190H1187.74L1155.26 157.52ZM1155.26 27.6H1195.86V133.16L1220.22 157.52H1244.58V27.6H1285.18V190H1203.98L1155.26 141.28V27.6ZM1334.01 60.08H1285.29L1253.74 27.6H1350.25L1512.65 190H1463.93L1334.01 60.08ZM1293.41 76.32V190H1334.01V149.4H1407.09L1374.61 116.92H1334.01V76.32H1293.41ZM1512.99 190H1472.39V76.32H1512.99V190ZM1464.27 60.08L1433.19 27.6H1553.59L1602.31 76.32L1577.95 100.68H1529.23L1553.59 76.32L1537.35 60.08H1464.27ZM1529.23 116.92V149.4H1561.71L1602.31 190H1651.03L1577.95 116.92H1529.23ZM1650.97 190H1610.37V76.32H1650.97V190ZM1602.25 60.08L1571.16 27.6H1691.57L1740.29 76.32L1715.93 100.68H1667.21L1691.57 76.32L1675.33 60.08H1602.25ZM1667.21 116.92V149.4H1699.69L1740.29 190H1789.01L1715.93 116.92H1667.21ZM1959.47 60.08H1740.23L1709.14 27.6H1991.95L1959.47 60.08ZM1813.31 157.52V190H1748.35L1780.83 157.52H1813.31ZM1829.55 76.32V190H1951.35L1918.87 157.52H1870.15V76.32H1829.55ZM1975.75 60.08L2008.23 27.6H2073.19L2121.91 76.32V190H1975.75L1910.79 125.04L1959.51 76.32H2008.23L1959.51 125.04L1991.99 157.52H2081.31V84.44L2056.95 60.08H1975.75ZM2170.7 190H2130.1V76.32H2170.7V190ZM2121.98 60.08L2090.9 27.6H2211.3L2260.02 76.32L2235.66 100.68H2186.94L2211.3 76.32L2195.06 60.08H2121.98ZM2186.94 116.92V149.4H2219.42L2260.02 190H2308.74L2235.66 116.92H2186.94ZM2292.4 157.52H2324.88L2341.12 141.28L2276.16 76.32H2324.88L2389.84 141.28L2341.12 190H2259.92L2292.4 157.52ZM2397.96 60.08L2430.44 27.6H2292.4L2259.92 60.08H2397.96Z"/>
</mask>
<path d="M48.72 190V192H50.72V190H48.72ZM48.72 76.32H50.72V74.32H48.72V76.32ZM8.12 76.32V74.32H6.12V76.32H8.12ZM8.12 190H6.12V192H8.12V190ZM64.96 157.52V155.52H62.96V157.52H64.96ZM97.44 157.52V159.52H98.2684L98.8542 158.934L97.44 157.52ZM146.16 108.8L147.574 110.214L148.988 108.8L147.574 107.386L146.16 108.8ZM97.44 60.08L98.8542 58.6658L98.2684 58.08H97.44V60.08ZM0 60.08L-1.42945 61.4788L-0.841144 62.08H0V60.08ZM-31.784 27.6V25.6H-36.5394L-33.2134 28.9988L-31.784 27.6ZM113.68 27.6L115.094 26.1858L114.508 25.6H113.68V27.6ZM194.88 108.8L196.294 110.214L197.708 108.8L196.294 107.386L194.88 108.8ZM113.68 190V192H114.508L115.094 191.414L113.68 190ZM64.96 190H62.96V192H64.96V190ZM50.72 190V76.32H46.72V190H50.72ZM48.72 74.32H8.12V78.32H48.72V74.32ZM6.12 76.32V190H10.12V76.32H6.12ZM8.12 192H48.72V188H8.12V192ZM64.96 159.52H97.44V155.52H64.96V159.52ZM98.8542 158.934L147.574 110.214L144.746 107.386L96.0258 156.106L98.8542 158.934ZM147.574 107.386L98.8542 58.6658L96.0258 61.4942L144.746 110.214L147.574 107.386ZM97.44 58.08H0V62.08H97.44V58.08ZM1.42945 58.6812L-30.3546 26.2012L-33.2134 28.9988L-1.42945 61.4788L1.42945 58.6812ZM-31.784 29.6H113.68V25.6H-31.784V29.6ZM112.266 29.0142L193.466 110.214L196.294 107.386L115.094 26.1858L112.266 29.0142ZM193.466 107.386L112.266 188.586L115.094 191.414L196.294 110.214L193.466 107.386ZM113.68 188H64.96V192H113.68V188ZM66.96 190V157.52H62.96V190H66.96ZM357.244 60.08V62.08H358.072L358.658 61.4942L357.244 60.08ZM389.724 27.6L391.138 29.0142L394.552 25.6H389.724V27.6ZM163.524 27.6V25.6H158.817L162.084 28.9883L163.524 27.6ZM194.844 60.08L193.404 61.4683L193.994 62.08H194.844V60.08ZM202.964 76.32V74.32H200.964V76.32H202.964ZM243.564 76.32H245.564V74.32H243.564V76.32ZM243.564 92.56H241.564V94.56H243.564V92.56ZM316.644 92.56L318.058 93.9742L321.472 90.56H316.644V92.56ZM284.164 125.04V127.04H284.992L285.578 126.454L284.164 125.04ZM243.564 125.04V123.04H241.564V125.04H243.564ZM243.564 157.52H241.564V159.52H243.564V157.52ZM316.644 157.52L318.058 156.106L317.472 155.52H316.644V157.52ZM349.124 190V192H353.952L350.538 188.586L349.124 190ZM202.964 190H200.964V192H202.964V190ZM358.658 61.4942L391.138 29.0142L388.31 26.1858L355.83 58.6658L358.658 61.4942ZM389.724 25.6H163.524V29.6H389.724V25.6ZM162.084 28.9883L193.404 61.4683L196.283 58.6917L164.963 26.2117L162.084 28.9883ZM194.844 62.08H357.244V58.08H194.844V62.08ZM202.964 78.32H243.564V74.32H202.964V78.32ZM241.564 76.32V92.56H245.564V76.32H241.564ZM243.564 94.56H316.644V90.56H243.564V94.56ZM315.23 91.1458L282.75 123.626L285.578 126.454L318.058 93.9742L315.23 91.1458ZM284.164 123.04H243.564V127.04H284.164V123.04ZM241.564 125.04V157.52H245.564V125.04H241.564ZM243.564 159.52H316.644V155.52H243.564V159.52ZM315.23 158.934L347.71 191.414L350.538 188.586L318.058 156.106L315.23 158.934ZM349.124 188H202.964V192H349.124V188ZM204.964 190V76.32H200.964V190H204.964ZM406.045 157.52V155.52H405.217L404.631 156.106L406.045 157.52ZM438.525 157.52V159.52H439.354L439.94 158.934L438.525 157.52ZM454.765 141.28L456.18 142.694L457.594 141.28L456.18 139.866L454.765 141.28ZM389.805 76.32V74.32H384.977L388.391 77.7342L389.805 76.32ZM438.525 76.32L439.94 74.9058L439.354 74.32H438.525V76.32ZM503.485 141.28L504.9 142.694L506.314 141.28L504.9 139.866L503.485 141.28ZM454.765 190V192H455.594L456.18 191.414L454.765 190ZM373.565 190L372.151 188.586L368.737 192H373.565V190ZM511.605 60.08V62.08H512.434L513.02 61.4942L511.605 60.08ZM544.085 27.6L545.5 29.0142L548.914 25.6H544.085V27.6ZM406.045 27.6V25.6H405.217L404.631 26.1858L406.045 27.6ZM373.565 60.08L372.151 58.6658L368.737 62.08H373.565V60.08ZM406.045 159.52H438.525V155.52H406.045V159.52ZM439.94 158.934L456.18 142.694L453.351 139.866L437.111 156.106L439.94 158.934ZM456.18 139.866L391.22 74.9058L388.391 77.7342L453.351 142.694L456.18 139.866ZM389.805 78.32H438.525V74.32H389.805V78.32ZM437.111 77.7342L502.071 142.694L504.9 139.866L439.94 74.9058L437.111 77.7342ZM502.071 139.866L453.351 188.586L456.18 191.414L504.9 142.694L502.071 139.866ZM454.765 188H373.565V192H454.765V188ZM374.98 191.414L407.46 158.934L404.631 156.106L372.151 188.586L374.98 191.414ZM513.02 61.4942L545.5 29.0142L542.671 26.1858L510.191 58.6658L513.02 61.4942ZM544.085 25.6H406.045V29.6H544.085V25.6ZM404.631 26.1858L372.151 58.6658L374.98 61.4942L407.46 29.0142L404.631 26.1858ZM373.565 62.08H511.605V58.08H373.565V62.08ZM665.822 60.08V62.08H666.65L667.236 61.4942L665.822 60.08ZM698.302 27.6L699.716 29.0142L703.13 25.6H698.302V27.6ZM472.102 27.6V25.6H467.395L470.662 28.9883L472.102 27.6ZM503.422 60.08L501.982 61.4683L502.572 62.08H503.422V60.08ZM511.542 76.32V74.32H509.542V76.32H511.542ZM552.142 76.32H554.142V74.32H552.142V76.32ZM552.142 92.56H550.142V94.56H552.142V92.56ZM625.222 92.56L626.636 93.9742L630.05 90.56H625.222V92.56ZM592.742 125.04V127.04H593.57L594.156 126.454L592.742 125.04ZM552.142 125.04V123.04H550.142V125.04H552.142ZM552.142 157.52H550.142V159.52H552.142V157.52ZM625.222 157.52L626.636 156.106L626.05 155.52H625.222V157.52ZM657.702 190V192H662.53L659.116 188.586L657.702 190ZM511.542 190H509.542V192H511.542V190ZM667.236 61.4942L699.716 29.0142L696.888 26.1858L664.408 58.6658L667.236 61.4942ZM698.302 25.6H472.102V29.6H698.302V25.6ZM470.662 28.9883L501.982 61.4683L504.862 58.6917L473.542 26.2117L470.662 28.9883ZM503.422 62.08H665.822V58.08H503.422V62.08ZM511.542 78.32H552.142V74.32H511.542V78.32ZM550.142 76.32V92.56H554.142V76.32H550.142ZM552.142 94.56H625.222V90.56H552.142V94.56ZM623.808 91.1458L591.328 123.626L594.156 126.454L626.636 93.9742L623.808 91.1458ZM592.742 123.04H552.142V127.04H592.742V123.04ZM550.142 125.04V157.52H554.142V125.04H550.142ZM552.142 159.52H625.222V155.52H552.142V159.52ZM623.808 158.934L656.288 191.414L659.116 188.586L626.636 156.106L623.808 158.934ZM657.702 188H511.542V192H657.702V188ZM513.542 190V76.32H509.542V190H513.542ZM706.431 190V192H708.431V190H706.431ZM665.831 190H663.831V192H665.831V190ZM665.831 76.32V74.32H663.831V76.32H665.831ZM706.431 76.32H708.431V74.32H706.431V76.32ZM657.711 60.08L656.266 61.4629L656.857 62.08H657.711V60.08ZM626.623 27.6V25.6H621.94L625.178 28.9829L626.623 27.6ZM747.031 27.6L748.445 26.1858L747.859 25.6H747.031V27.6ZM795.751 76.32L797.165 77.7342L798.579 76.32L797.165 74.9058L795.751 76.32ZM771.391 100.68V102.68H772.219L772.805 102.094L771.391 100.68ZM722.671 100.68L721.257 99.2658L717.843 102.68H722.671V100.68ZM747.031 76.32L748.445 77.7342L749.859 76.32L748.445 74.9058L747.031 76.32ZM730.791 60.08L732.205 58.6658L731.619 58.08H730.791V60.08ZM722.671 116.92V114.92H720.671V116.92H722.671ZM722.671 149.4H720.671V151.4H722.671V149.4ZM755.151 149.4L756.565 147.986L755.979 147.4H755.151V149.4ZM795.751 190L794.337 191.414L794.923 192H795.751V190ZM844.471 190V192H849.299L845.885 188.586L844.471 190ZM771.391 116.92L772.805 115.506L772.219 114.92H771.391V116.92ZM706.431 188H665.831V192H706.431V188ZM667.831 190V76.32H663.831V190H667.831ZM665.831 78.32H706.431V74.32H665.831V78.32ZM704.431 76.32V190H708.431V76.32H704.431ZM659.156 58.6971L628.068 26.2171L625.178 28.9829L656.266 61.4629L659.156 58.6971ZM626.623 29.6H747.031V25.6H626.623V29.6ZM745.617 29.0142L794.337 77.7342L797.165 74.9058L748.445 26.1858L745.617 29.0142ZM794.337 74.9058L769.977 99.2658L772.805 102.094L797.165 77.7342L794.337 74.9058ZM771.391 98.68H722.671V102.68H771.391V98.68ZM724.085 102.094L748.445 77.7342L745.617 74.9058L721.257 99.2658L724.085 102.094ZM748.445 74.9058L732.205 58.6658L729.377 61.4942L745.617 77.7342L748.445 74.9058ZM730.791 58.08H657.711V62.08H730.791V58.08ZM720.671 116.92V149.4H724.671V116.92H720.671ZM722.671 151.4H755.151V147.4H722.671V151.4ZM753.737 150.814L794.337 191.414L797.165 188.586L756.565 147.986L753.737 150.814ZM795.751 192H844.471V188H795.751V192ZM845.885 188.586L772.805 115.506L769.977 118.334L843.057 191.414L845.885 188.586ZM771.391 114.92H722.671V118.92H771.391V114.92ZM893.128 190V192H895.128V190H893.128ZM852.528 190H850.528V192H852.528V190ZM852.528 76.32V74.32H850.528V76.32H852.528ZM893.128 76.32H895.128V74.32H893.128V76.32ZM949.968 60.08V62.08H950.796L951.382 61.4942L949.968 60.08ZM795.688 60.08L794.253 61.4736L794.842 62.08H795.688V60.08ZM764.135 27.6V25.6H759.404L762.701 28.9936L764.135 27.6ZM982.448 27.6L983.862 29.0142L987.276 25.6H982.448V27.6ZM893.128 188H852.528V192H893.128V188ZM854.528 190V76.32H850.528V190H854.528ZM852.528 78.32H893.128V74.32H852.528V78.32ZM891.128 76.32V190H895.128V76.32H891.128ZM949.968 58.08H795.688V62.08H949.968V58.08ZM797.122 58.6864L765.57 26.2064L762.701 28.9936L794.253 61.4736L797.122 58.6864ZM764.135 29.6H982.448V25.6H764.135V29.6ZM981.033 26.1858L948.553 58.6658L951.382 61.4942L983.862 29.0142L981.033 26.1858ZM1155.26 157.52L1156.67 156.106L1156.09 155.52H1155.26V157.52ZM1130.9 157.52L1129.49 158.934L1130.07 159.52H1130.9V157.52ZM1106.54 133.16H1104.54V133.988L1105.13 134.574L1106.54 133.16ZM1106.54 27.6H1108.54V25.6H1106.54V27.6ZM1065.94 27.6V25.6H1063.94V27.6H1065.94ZM1065.94 141.28H1063.94V142.108L1064.53 142.694L1065.94 141.28ZM1114.66 190L1113.25 191.414L1113.83 192H1114.66V190ZM1187.74 190V192H1192.57L1189.15 188.586L1187.74 190ZM1155.26 27.6V25.6H1153.26V27.6H1155.26ZM1195.86 27.6H1197.86V25.6H1195.86V27.6ZM1195.86 133.16H1193.86V133.988L1194.45 134.574L1195.86 133.16ZM1220.22 157.52L1218.81 158.934L1219.39 159.52H1220.22V157.52ZM1244.58 157.52V159.52H1246.58V157.52H1244.58ZM1244.58 27.6V25.6H1242.58V27.6H1244.58ZM1285.18 27.6H1287.18V25.6H1285.18V27.6ZM1285.18 190V192H1287.18V190H1285.18ZM1203.98 190L1202.57 191.414L1203.15 192H1203.98V190ZM1155.26 141.28H1153.26V142.108L1153.85 142.694L1155.26 141.28ZM1155.26 155.52H1130.9V159.52H1155.26V155.52ZM1132.31 156.106L1107.95 131.746L1105.13 134.574L1129.49 158.934L1132.31 156.106ZM1108.54 133.16V27.6H1104.54V133.16H1108.54ZM1106.54 25.6H1065.94V29.6H1106.54V25.6ZM1063.94 27.6V141.28H1067.94V27.6H1063.94ZM1064.53 142.694L1113.25 191.414L1116.07 188.586L1067.35 139.866L1064.53 142.694ZM1114.66 192H1187.74V188H1114.66V192ZM1189.15 188.586L1156.67 156.106L1153.85 158.934L1186.33 191.414L1189.15 188.586ZM1155.26 29.6H1195.86V25.6H1155.26V29.6ZM1193.86 27.6V133.16H1197.86V27.6H1193.86ZM1194.45 134.574L1218.81 158.934L1221.63 156.106L1197.27 131.746L1194.45 134.574ZM1220.22 159.52H1244.58V155.52H1220.22V159.52ZM1246.58 157.52V27.6H1242.58V157.52H1246.58ZM1244.58 29.6H1285.18V25.6H1244.58V29.6ZM1283.18 27.6V190H1287.18V27.6H1283.18ZM1285.18 188H1203.98V192H1285.18V188ZM1205.39 188.586L1156.67 139.866L1153.85 142.694L1202.57 191.414L1205.39 188.586ZM1157.26 141.28V27.6H1153.26V141.28H1157.26ZM1334.01 60.08L1335.42 58.6658L1334.84 58.08H1334.01V60.08ZM1285.29 60.08L1283.85 61.4736L1284.44 62.08H1285.29V60.08ZM1253.74 27.6V25.6H1249.01L1252.3 28.9936L1253.74 27.6ZM1350.25 27.6L1351.66 26.1858L1351.08 25.6H1350.25V27.6ZM1512.65 190V192H1517.48L1514.06 188.586L1512.65 190ZM1463.93 190L1462.51 191.414L1463.1 192H1463.93V190ZM1293.41 76.32V74.32H1291.41V76.32H1293.41ZM1293.41 190H1291.41V192H1293.41V190ZM1334.01 190V192H1336.01V190H1334.01ZM1334.01 149.4V147.4H1332.01V149.4H1334.01ZM1407.09 149.4V151.4H1411.92L1408.5 147.986L1407.09 149.4ZM1374.61 116.92L1376.02 115.506L1375.44 114.92H1374.61V116.92ZM1334.01 116.92H1332.01V118.92H1334.01V116.92ZM1334.01 76.32H1336.01V74.32H1334.01V76.32ZM1334.01 58.08H1285.29V62.08H1334.01V58.08ZM1286.72 58.6864L1255.17 26.2064L1252.3 28.9936L1283.85 61.4736L1286.72 58.6864ZM1253.74 29.6H1350.25V25.6H1253.74V29.6ZM1348.83 29.0142L1511.23 191.414L1514.06 188.586L1351.66 26.1858L1348.83 29.0142ZM1512.65 188H1463.93V192H1512.65V188ZM1465.34 188.586L1335.42 58.6658L1332.59 61.4942L1462.51 191.414L1465.34 188.586ZM1291.41 76.32V190H1295.41V76.32H1291.41ZM1293.41 192H1334.01V188H1293.41V192ZM1336.01 190V149.4H1332.01V190H1336.01ZM1334.01 151.4H1407.09V147.4H1334.01V151.4ZM1408.5 147.986L1376.02 115.506L1373.19 118.334L1405.67 150.814L1408.5 147.986ZM1374.61 114.92H1334.01V118.92H1374.61V114.92ZM1336.01 116.92V76.32H1332.01V116.92H1336.01ZM1334.01 74.32H1293.41V78.32H1334.01V74.32ZM1512.99 190V192H1514.99V190H1512.99ZM1472.39 190H1470.39V192H1472.39V190ZM1472.39 76.32V74.32H1470.39V76.32H1472.39ZM1512.99 76.32H1514.99V74.32H1512.99V76.32ZM1464.27 60.08L1462.83 61.4629L1463.42 62.08H1464.27V60.08ZM1433.19 27.6V25.6H1428.5L1431.74 28.9829L1433.19 27.6ZM1553.59 27.6L1555.01 26.1858L1554.42 25.6H1553.59V27.6ZM1602.31 76.32L1603.73 77.7342L1605.14 76.32L1603.73 74.9058L1602.31 76.32ZM1577.95 100.68V102.68H1578.78L1579.37 102.094L1577.95 100.68ZM1529.23 100.68L1527.82 99.2658L1524.41 102.68H1529.23V100.68ZM1553.59 76.32L1555.01 77.7342L1556.42 76.32L1555.01 74.9058L1553.59 76.32ZM1537.35 60.08L1538.77 58.6658L1538.18 58.08H1537.35V60.08ZM1529.23 116.92V114.92H1527.23V116.92H1529.23ZM1529.23 149.4H1527.23V151.4H1529.23V149.4ZM1561.71 149.4L1563.13 147.986L1562.54 147.4H1561.71V149.4ZM1602.31 190L1600.9 191.414L1601.49 192H1602.31V190ZM1651.03 190V192H1655.86L1652.45 188.586L1651.03 190ZM1577.95 116.92L1579.37 115.506L1578.78 114.92H1577.95V116.92ZM1512.99 188H1472.39V192H1512.99V188ZM1474.39 190V76.32H1470.39V190H1474.39ZM1472.39 78.32H1512.99V74.32H1472.39V78.32ZM1510.99 76.32V190H1514.99V76.32H1510.99ZM1465.72 58.6971L1434.63 26.2171L1431.74 28.9829L1462.83 61.4629L1465.72 58.6971ZM1433.19 29.6H1553.59V25.6H1433.19V29.6ZM1552.18 29.0142L1600.9 77.7342L1603.73 74.9058L1555.01 26.1858L1552.18 29.0142ZM1600.9 74.9058L1576.54 99.2658L1579.37 102.094L1603.73 77.7342L1600.9 74.9058ZM1577.95 98.68H1529.23V102.68H1577.95V98.68ZM1530.65 102.094L1555.01 77.7342L1552.18 74.9058L1527.82 99.2658L1530.65 102.094ZM1555.01 74.9058L1538.77 58.6658L1535.94 61.4942L1552.18 77.7342L1555.01 74.9058ZM1537.35 58.08H1464.27V62.08H1537.35V58.08ZM1527.23 116.92V149.4H1531.23V116.92H1527.23ZM1529.23 151.4H1561.71V147.4H1529.23V151.4ZM1560.3 150.814L1600.9 191.414L1603.73 188.586L1563.13 147.986L1560.3 150.814ZM1602.31 192H1651.03V188H1602.31V192ZM1652.45 188.586L1579.37 115.506L1576.54 118.334L1649.62 191.414L1652.45 188.586ZM1577.95 114.92H1529.23V118.92H1577.95V114.92ZM1650.97 190V192H1652.97V190H1650.97ZM1610.37 190H1608.37V192H1610.37V190ZM1610.37 76.32V74.32H1608.37V76.32H1610.37ZM1650.97 76.32H1652.97V74.32H1650.97V76.32ZM1602.25 60.08L1600.81 61.4629L1601.4 62.08H1602.25V60.08ZM1571.16 27.6V25.6H1566.48L1569.72 28.9829L1571.16 27.6ZM1691.57 27.6L1692.98 26.1858L1692.4 25.6H1691.57V27.6ZM1740.29 76.32L1741.7 77.7342L1743.12 76.32L1741.7 74.9058L1740.29 76.32ZM1715.93 100.68V102.68H1716.76L1717.34 102.094L1715.93 100.68ZM1667.21 100.68L1665.8 99.2658L1662.38 102.68H1667.21V100.68ZM1691.57 76.32L1692.98 77.7342L1694.4 76.32L1692.98 74.9058L1691.57 76.32ZM1675.33 60.08L1676.74 58.6658L1676.16 58.08H1675.33V60.08ZM1667.21 116.92V114.92H1665.21V116.92H1667.21ZM1667.21 149.4H1665.21V151.4H1667.21V149.4ZM1699.69 149.4L1701.1 147.986L1700.52 147.4H1699.69V149.4ZM1740.29 190L1738.88 191.414L1739.46 192H1740.29V190ZM1789.01 190V192H1793.84L1790.42 188.586L1789.01 190ZM1715.93 116.92L1717.34 115.506L1716.76 114.92H1715.93V116.92ZM1650.97 188H1610.37V192H1650.97V188ZM1612.37 190V76.32H1608.37V190H1612.37ZM1610.37 78.32H1650.97V74.32H1610.37V78.32ZM1648.97 76.32V190H1652.97V76.32H1648.97ZM1603.69 58.6971L1572.61 26.2171L1569.72 28.9829L1600.81 61.4629L1603.69 58.6971ZM1571.16 29.6H1691.57V25.6H1571.16V29.6ZM1690.16 29.0142L1738.88 77.7342L1741.7 74.9058L1692.98 26.1858L1690.16 29.0142ZM1738.88 74.9058L1714.52 99.2658L1717.34 102.094L1741.7 77.7342L1738.88 74.9058ZM1715.93 98.68H1667.21V102.68H1715.93V98.68ZM1668.62 102.094L1692.98 77.7342L1690.16 74.9058L1665.8 99.2658L1668.62 102.094ZM1692.98 74.9058L1676.74 58.6658L1673.92 61.4942L1690.16 77.7342L1692.98 74.9058ZM1675.33 58.08H1602.25V62.08H1675.33V58.08ZM1665.21 116.92V149.4H1669.21V116.92H1665.21ZM1667.21 151.4H1699.69V147.4H1667.21V151.4ZM1698.28 150.814L1738.88 191.414L1741.7 188.586L1701.1 147.986L1698.28 150.814ZM1740.29 192H1789.01V188H1740.29V192ZM1790.42 188.586L1717.34 115.506L1714.52 118.334L1787.6 191.414L1790.42 188.586ZM1715.93 114.92H1667.21V118.92H1715.93V114.92ZM1959.47 60.08V62.08H1960.3L1960.88 61.4942L1959.47 60.08ZM1740.23 60.08L1738.78 61.4629L1739.37 62.08H1740.23V60.08ZM1709.14 27.6V25.6H1704.46L1707.69 28.9829L1709.14 27.6ZM1991.95 27.6L1993.36 29.0142L1996.77 25.6H1991.95V27.6ZM1813.31 157.52H1815.31V155.52H1813.31V157.52ZM1813.31 190V192H1815.31V190H1813.31ZM1748.35 190L1746.93 188.586L1743.52 192H1748.35V190ZM1780.83 157.52V155.52H1780L1779.41 156.106L1780.83 157.52ZM1829.55 76.32V74.32H1827.55V76.32H1829.55ZM1829.55 190H1827.55V192H1829.55V190ZM1951.35 190V192H1956.17L1952.76 188.586L1951.35 190ZM1918.87 157.52L1920.28 156.106L1919.69 155.52H1918.87V157.52ZM1870.15 157.52H1868.15V159.52H1870.15V157.52ZM1870.15 76.32H1872.15V74.32H1870.15V76.32ZM1959.47 58.08H1740.23V62.08H1959.47V58.08ZM1741.67 58.6971L1710.58 26.2171L1707.69 28.9829L1738.78 61.4629L1741.67 58.6971ZM1709.14 29.6H1991.95V25.6H1709.14V29.6ZM1990.53 26.1858L1958.05 58.6658L1960.88 61.4942L1993.36 29.0142L1990.53 26.1858ZM1811.31 157.52V190H1815.31V157.52H1811.31ZM1813.31 188H1748.35V192H1813.31V188ZM1749.76 191.414L1782.24 158.934L1779.41 156.106L1746.93 188.586L1749.76 191.414ZM1780.83 159.52H1813.31V155.52H1780.83V159.52ZM1827.55 76.32V190H1831.55V76.32H1827.55ZM1829.55 192H1951.35V188H1829.55V192ZM1952.76 188.586L1920.28 156.106L1917.45 158.934L1949.93 191.414L1952.76 188.586ZM1918.87 155.52H1870.15V159.52H1918.87V155.52ZM1872.15 157.52V76.32H1868.15V157.52H1872.15ZM1870.15 74.32H1829.55V78.32H1870.15V74.32ZM1975.75 60.08L1974.34 58.6658L1970.92 62.08H1975.75V60.08ZM2008.23 27.6V25.6H2007.4L2006.82 26.1858L2008.23 27.6ZM2073.19 27.6L2074.61 26.1858L2074.02 25.6H2073.19V27.6ZM2121.91 76.32H2123.91V75.4916L2123.33 74.9058L2121.91 76.32ZM2121.91 190V192H2123.91V190H2121.91ZM1975.75 190L1974.34 191.414L1974.92 192H1975.75V190ZM1910.79 125.04L1909.38 123.626L1907.96 125.04L1909.38 126.454L1910.79 125.04ZM1959.51 76.32V74.32H1958.68L1958.1 74.9058L1959.51 76.32ZM2008.23 76.32L2009.65 77.7342L2013.06 74.32H2008.23V76.32ZM1959.51 125.04L1958.1 123.626L1956.68 125.04L1958.1 126.454L1959.51 125.04ZM1991.99 157.52L1990.58 158.934L1991.16 159.52H1991.99V157.52ZM2081.31 157.52V159.52H2083.31V157.52H2081.31ZM2081.31 84.44H2083.31V83.6116L2082.73 83.0258L2081.31 84.44ZM2056.95 60.08L2058.37 58.6658L2057.78 58.08H2056.95V60.08ZM1977.17 61.4942L2009.65 29.0142L2006.82 26.1858L1974.34 58.6658L1977.17 61.4942ZM2008.23 29.6H2073.19V25.6H2008.23V29.6ZM2071.78 29.0142L2120.5 77.7342L2123.33 74.9058L2074.61 26.1858L2071.78 29.0142ZM2119.91 76.32V190H2123.91V76.32H2119.91ZM2121.91 188H1975.75V192H2121.91V188ZM1977.17 188.586L1912.21 123.626L1909.38 126.454L1974.34 191.414L1977.17 188.586ZM1912.21 126.454L1960.93 77.7342L1958.1 74.9058L1909.38 123.626L1912.21 126.454ZM1959.51 78.32H2008.23V74.32H1959.51V78.32ZM2006.82 74.9058L1958.1 123.626L1960.93 126.454L2009.65 77.7342L2006.82 74.9058ZM1958.1 126.454L1990.58 158.934L1993.41 156.106L1960.93 123.626L1958.1 126.454ZM1991.99 159.52H2081.31V155.52H1991.99V159.52ZM2083.31 157.52V84.44H2079.31V157.52H2083.31ZM2082.73 83.0258L2058.37 58.6658L2055.54 61.4942L2079.9 85.8542L2082.73 83.0258ZM2056.95 58.08H1975.75V62.08H2056.95V58.08ZM2170.7 190V192H2172.7V190H2170.7ZM2130.1 190H2128.1V192H2130.1V190ZM2130.1 76.32V74.32H2128.1V76.32H2130.1ZM2170.7 76.32H2172.7V74.32H2170.7V76.32ZM2121.98 60.08L2120.54 61.4629L2121.13 62.08H2121.98V60.08ZM2090.9 27.6V25.6H2086.21L2089.45 28.9829L2090.9 27.6ZM2211.3 27.6L2212.72 26.1858L2212.13 25.6H2211.3V27.6ZM2260.02 76.32L2261.44 77.7342L2262.85 76.32L2261.44 74.9058L2260.02 76.32ZM2235.66 100.68V102.68H2236.49L2237.08 102.094L2235.66 100.68ZM2186.94 100.68L2185.53 99.2658L2182.12 102.68H2186.94V100.68ZM2211.3 76.32L2212.72 77.7342L2214.13 76.32L2212.72 74.9058L2211.3 76.32ZM2195.06 60.08L2196.48 58.6658L2195.89 58.08H2195.06V60.08ZM2186.94 116.92V114.92H2184.94V116.92H2186.94ZM2186.94 149.4H2184.94V151.4H2186.94V149.4ZM2219.42 149.4L2220.84 147.986L2220.25 147.4H2219.42V149.4ZM2260.02 190L2258.61 191.414L2259.2 192H2260.02V190ZM2308.74 190V192H2313.57L2310.16 188.586L2308.74 190ZM2235.66 116.92L2237.08 115.506L2236.49 114.92H2235.66V116.92ZM2170.7 188H2130.1V192H2170.7V188ZM2132.1 190V76.32H2128.1V190H2132.1ZM2130.1 78.32H2170.7V74.32H2130.1V78.32ZM2168.7 76.32V190H2172.7V76.32H2168.7ZM2123.43 58.6971L2092.34 26.2171L2089.45 28.9829L2120.54 61.4629L2123.43 58.6971ZM2090.9 29.6H2211.3V25.6H2090.9V29.6ZM2209.89 29.0142L2258.61 77.7342L2261.44 74.9058L2212.72 26.1858L2209.89 29.0142ZM2258.61 74.9058L2234.25 99.2658L2237.08 102.094L2261.44 77.7342L2258.61 74.9058ZM2235.66 98.68H2186.94V102.68H2235.66V98.68ZM2188.36 102.094L2212.72 77.7342L2209.89 74.9058L2185.53 99.2658L2188.36 102.094ZM2212.72 74.9058L2196.48 58.6658L2193.65 61.4942L2209.89 77.7342L2212.72 74.9058ZM2195.06 58.08H2121.98V62.08H2195.06V58.08ZM2184.94 116.92V149.4H2188.94V116.92H2184.94ZM2186.94 151.4H2219.42V147.4H2186.94V151.4ZM2218.01 150.814L2258.61 191.414L2261.44 188.586L2220.84 147.986L2218.01 150.814ZM2260.02 192H2308.74V188H2260.02V192ZM2310.16 188.586L2237.08 115.506L2234.25 118.334L2307.33 191.414L2310.16 188.586ZM2235.66 114.92H2186.94V118.92H2235.66V114.92ZM2292.4 157.52V155.52H2291.58L2290.99 156.106L2292.4 157.52ZM2324.88 157.52V159.52H2325.71L2326.3 158.934L2324.88 157.52ZM2341.12 141.28L2342.54 142.694L2343.95 141.28L2342.54 139.866L2341.12 141.28ZM2276.16 76.32V74.32H2271.34L2274.75 77.7342L2276.16 76.32ZM2324.88 76.32L2326.3 74.9058L2325.71 74.32H2324.88V76.32ZM2389.84 141.28L2391.26 142.694L2392.67 141.28L2391.26 139.866L2389.84 141.28ZM2341.12 190V192H2341.95L2342.54 191.414L2341.12 190ZM2259.92 190L2258.51 188.586L2255.1 192H2259.92V190ZM2397.96 60.08V62.08H2398.79L2399.38 61.4942L2397.96 60.08ZM2430.44 27.6L2431.86 29.0142L2435.27 25.6H2430.44V27.6ZM2292.4 27.6V25.6H2291.58L2290.99 26.1858L2292.4 27.6ZM2259.92 60.08L2258.51 58.6658L2255.1 62.08H2259.92V60.08ZM2292.4 159.52H2324.88V155.52H2292.4V159.52ZM2326.3 158.934L2342.54 142.694L2339.71 139.866L2323.47 156.106L2326.3 158.934ZM2342.54 139.866L2277.58 74.9058L2274.75 77.7342L2339.71 142.694L2342.54 139.866ZM2276.16 78.32H2324.88V74.32H2276.16V78.32ZM2323.47 77.7342L2388.43 142.694L2391.26 139.866L2326.3 74.9058L2323.47 77.7342ZM2388.43 139.866L2339.71 188.586L2342.54 191.414L2391.26 142.694L2388.43 139.866ZM2341.12 188H2259.92V192H2341.12V188ZM2261.34 191.414L2293.82 158.934L2290.99 156.106L2258.51 188.586L2261.34 191.414ZM2399.38 61.4942L2431.86 29.0142L2429.03 26.1858L2396.55 58.6658L2399.38 61.4942ZM2430.44 25.6H2292.4V29.6H2430.44V25.6ZM2290.99 26.1858L2258.51 58.6658L2261.34 61.4942L2293.82 29.0142L2290.99 26.1858ZM2259.92 62.08H2397.96V58.08H2259.92V62.08Z" fill="#B38539" fill-opacity="0.16" mask="url(#path-1-outside-1_5477_35901)"/>
<mask id="path-3-outside-2_5477_35901" maskUnits="userSpaceOnUse" x="2353" y="25" width="2473" height="167" fill="black">
<rect fill="white" x="2353" y="25" width="2473" height="167"/>
<path d="M2438.72 190V76.32H2398.12V190H2438.72ZM2454.96 157.52H2487.44L2536.16 108.8L2487.44 60.08H2390L2358.22 27.6H2503.68L2584.88 108.8L2503.68 190H2454.96V157.52ZM2747.24 60.08L2779.72 27.6H2553.52L2584.84 60.08H2747.24ZM2592.96 76.32H2633.56V92.56H2706.64L2674.16 125.04H2633.56V157.52H2706.64L2739.12 190H2592.96V76.32ZM2796.05 157.52H2828.53L2844.77 141.28L2779.81 76.32H2828.53L2893.49 141.28L2844.77 190H2763.57L2796.05 157.52ZM2901.61 60.08L2934.09 27.6H2796.05L2763.57 60.08H2901.61ZM3055.82 60.08L3088.3 27.6H2862.1L2893.42 60.08H3055.82ZM2901.54 76.32H2942.14V92.56H3015.22L2982.74 125.04H2942.14V157.52H3015.22L3047.7 190H2901.54V76.32ZM3096.43 190H3055.83V76.32H3096.43V190ZM3047.71 60.08L3016.62 27.6H3137.03L3185.75 76.32L3161.39 100.68H3112.67L3137.03 76.32L3120.79 60.08H3047.71ZM3112.67 116.92V149.4H3145.15L3185.75 190H3234.47L3161.39 116.92H3112.67ZM3283.13 190H3242.53V76.32H3283.13V190ZM3339.97 60.08H3185.69L3154.14 27.6H3372.45L3339.97 60.08ZM3545.26 157.52H3520.9L3496.54 133.16V27.6H3455.94V141.28L3504.66 190H3577.74L3545.26 157.52ZM3545.26 27.6H3585.86V133.16L3610.22 157.52H3634.58V27.6H3675.18V190H3593.98L3545.26 141.28V27.6ZM3724.01 60.08H3675.29L3643.74 27.6H3740.25L3902.65 190H3853.93L3724.01 60.08ZM3683.41 76.32V190H3724.01V149.4H3797.09L3764.61 116.92H3724.01V76.32H3683.41ZM3902.99 190H3862.39V76.32H3902.99V190ZM3854.27 60.08L3823.19 27.6H3943.59L3992.31 76.32L3967.95 100.68H3919.23L3943.59 76.32L3927.35 60.08H3854.27ZM3919.23 116.92V149.4H3951.71L3992.31 190H4041.03L3967.95 116.92H3919.23ZM4040.97 190H4000.37V76.32H4040.97V190ZM3992.25 60.08L3961.16 27.6H4081.57L4130.29 76.32L4105.93 100.68H4057.21L4081.57 76.32L4065.33 60.08H3992.25ZM4057.21 116.92V149.4H4089.69L4130.29 190H4179.01L4105.93 116.92H4057.21ZM4349.47 60.08H4130.23L4099.14 27.6H4381.95L4349.47 60.08ZM4203.31 157.52V190H4138.35L4170.83 157.52H4203.31ZM4219.55 76.32V190H4341.35L4308.87 157.52H4260.15V76.32H4219.55ZM4365.75 60.08L4398.23 27.6H4463.19L4511.91 76.32V190H4365.75L4300.79 125.04L4349.51 76.32H4398.23L4349.51 125.04L4381.99 157.52H4471.31V84.44L4446.95 60.08H4365.75ZM4560.7 190H4520.1V76.32H4560.7V190ZM4511.98 60.08L4480.9 27.6H4601.3L4650.02 76.32L4625.66 100.68H4576.94L4601.3 76.32L4585.06 60.08H4511.98ZM4576.94 116.92V149.4H4609.42L4650.02 190H4698.74L4625.66 116.92H4576.94ZM4682.4 157.52H4714.88L4731.12 141.28L4666.16 76.32H4714.88L4779.84 141.28L4731.12 190H4649.92L4682.4 157.52ZM4787.96 60.08L4820.44 27.6H4682.4L4649.92 60.08H4787.96Z"/>
</mask>
<path d="M2438.72 190V192H2440.72V190H2438.72ZM2438.72 76.32H2440.72V74.32H2438.72V76.32ZM2398.12 76.32V74.32H2396.12V76.32H2398.12ZM2398.12 190H2396.12V192H2398.12V190ZM2454.96 157.52V155.52H2452.96V157.52H2454.96ZM2487.44 157.52V159.52H2488.27L2488.85 158.934L2487.44 157.52ZM2536.16 108.8L2537.57 110.214L2538.99 108.8L2537.57 107.386L2536.16 108.8ZM2487.44 60.08L2488.85 58.6658L2488.27 58.08H2487.44V60.08ZM2390 60.08L2388.57 61.4788L2389.16 62.08H2390V60.08ZM2358.22 27.6V25.6H2353.46L2356.79 28.9988L2358.22 27.6ZM2503.68 27.6L2505.09 26.1858L2504.51 25.6H2503.68V27.6ZM2584.88 108.8L2586.29 110.214L2587.71 108.8L2586.29 107.386L2584.88 108.8ZM2503.68 190V192H2504.51L2505.09 191.414L2503.68 190ZM2454.96 190H2452.96V192H2454.96V190ZM2440.72 190V76.32H2436.72V190H2440.72ZM2438.72 74.32H2398.12V78.32H2438.72V74.32ZM2396.12 76.32V190H2400.12V76.32H2396.12ZM2398.12 192H2438.72V188H2398.12V192ZM2454.96 159.52H2487.44V155.52H2454.96V159.52ZM2488.85 158.934L2537.57 110.214L2534.75 107.386L2486.03 156.106L2488.85 158.934ZM2537.57 107.386L2488.85 58.6658L2486.03 61.4942L2534.75 110.214L2537.57 107.386ZM2487.44 58.08H2390V62.08H2487.44V58.08ZM2391.43 58.6812L2359.65 26.2012L2356.79 28.9988L2388.57 61.4788L2391.43 58.6812ZM2358.22 29.6H2503.68V25.6H2358.22V29.6ZM2502.27 29.0142L2583.47 110.214L2586.29 107.386L2505.09 26.1858L2502.27 29.0142ZM2583.47 107.386L2502.27 188.586L2505.09 191.414L2586.29 110.214L2583.47 107.386ZM2503.68 188H2454.96V192H2503.68V188ZM2456.96 190V157.52H2452.96V190H2456.96ZM2747.24 60.08V62.08H2748.07L2748.66 61.4942L2747.24 60.08ZM2779.72 27.6L2781.14 29.0142L2784.55 25.6H2779.72V27.6ZM2553.52 27.6V25.6H2548.82L2552.08 28.9883L2553.52 27.6ZM2584.84 60.08L2583.4 61.4683L2583.99 62.08H2584.84V60.08ZM2592.96 76.32V74.32H2590.96V76.32H2592.96ZM2633.56 76.32H2635.56V74.32H2633.56V76.32ZM2633.56 92.56H2631.56V94.56H2633.56V92.56ZM2706.64 92.56L2708.06 93.9742L2711.47 90.56H2706.64V92.56ZM2674.16 125.04V127.04H2674.99L2675.58 126.454L2674.16 125.04ZM2633.56 125.04V123.04H2631.56V125.04H2633.56ZM2633.56 157.52H2631.56V159.52H2633.56V157.52ZM2706.64 157.52L2708.06 156.106L2707.47 155.52H2706.64V157.52ZM2739.12 190V192H2743.95L2740.54 188.586L2739.12 190ZM2592.96 190H2590.96V192H2592.96V190ZM2748.66 61.4942L2781.14 29.0142L2778.31 26.1858L2745.83 58.6658L2748.66 61.4942ZM2779.72 25.6H2553.52V29.6H2779.72V25.6ZM2552.08 28.9883L2583.4 61.4683L2586.28 58.6917L2554.96 26.2117L2552.08 28.9883ZM2584.84 62.08H2747.24V58.08H2584.84V62.08ZM2592.96 78.32H2633.56V74.32H2592.96V78.32ZM2631.56 76.32V92.56H2635.56V76.32H2631.56ZM2633.56 94.56H2706.64V90.56H2633.56V94.56ZM2705.23 91.1458L2672.75 123.626L2675.58 126.454L2708.06 93.9742L2705.23 91.1458ZM2674.16 123.04H2633.56V127.04H2674.16V123.04ZM2631.56 125.04V157.52H2635.56V125.04H2631.56ZM2633.56 159.52H2706.64V155.52H2633.56V159.52ZM2705.23 158.934L2737.71 191.414L2740.54 188.586L2708.06 156.106L2705.23 158.934ZM2739.12 188H2592.96V192H2739.12V188ZM2594.96 190V76.32H2590.96V190H2594.96ZM2796.05 157.52V155.52H2795.22L2794.63 156.106L2796.05 157.52ZM2828.53 157.52V159.52H2829.35L2829.94 158.934L2828.53 157.52ZM2844.77 141.28L2846.18 142.694L2847.59 141.28L2846.18 139.866L2844.77 141.28ZM2779.81 76.32V74.32H2774.98L2778.39 77.7342L2779.81 76.32ZM2828.53 76.32L2829.94 74.9058L2829.35 74.32H2828.53V76.32ZM2893.49 141.28L2894.9 142.694L2896.31 141.28L2894.9 139.866L2893.49 141.28ZM2844.77 190V192H2845.59L2846.18 191.414L2844.77 190ZM2763.57 190L2762.15 188.586L2758.74 192H2763.57V190ZM2901.61 60.08V62.08H2902.43L2903.02 61.4942L2901.61 60.08ZM2934.09 27.6L2935.5 29.0142L2938.91 25.6H2934.09V27.6ZM2796.05 27.6V25.6H2795.22L2794.63 26.1858L2796.05 27.6ZM2763.57 60.08L2762.15 58.6658L2758.74 62.08H2763.57V60.08ZM2796.05 159.52H2828.53V155.52H2796.05V159.52ZM2829.94 158.934L2846.18 142.694L2843.35 139.866L2827.11 156.106L2829.94 158.934ZM2846.18 139.866L2781.22 74.9058L2778.39 77.7342L2843.35 142.694L2846.18 139.866ZM2779.81 78.32H2828.53V74.32H2779.81V78.32ZM2827.11 77.7342L2892.07 142.694L2894.9 139.866L2829.94 74.9058L2827.11 77.7342ZM2892.07 139.866L2843.35 188.586L2846.18 191.414L2894.9 142.694L2892.07 139.866ZM2844.77 188H2763.57V192H2844.77V188ZM2764.98 191.414L2797.46 158.934L2794.63 156.106L2762.15 188.586L2764.98 191.414ZM2903.02 61.4942L2935.5 29.0142L2932.67 26.1858L2900.19 58.6658L2903.02 61.4942ZM2934.09 25.6H2796.05V29.6H2934.09V25.6ZM2794.63 26.1858L2762.15 58.6658L2764.98 61.4942L2797.46 29.0142L2794.63 26.1858ZM2763.57 62.08H2901.61V58.08H2763.57V62.08ZM3055.82 60.08V62.08H3056.65L3057.24 61.4942L3055.82 60.08ZM3088.3 27.6L3089.72 29.0142L3093.13 25.6H3088.3V27.6ZM2862.1 27.6V25.6H2857.39L2860.66 28.9883L2862.1 27.6ZM2893.42 60.08L2891.98 61.4683L2892.57 62.08H2893.42V60.08ZM2901.54 76.32V74.32H2899.54V76.32H2901.54ZM2942.14 76.32H2944.14V74.32H2942.14V76.32ZM2942.14 92.56H2940.14V94.56H2942.14V92.56ZM3015.22 92.56L3016.64 93.9742L3020.05 90.56H3015.22V92.56ZM2982.74 125.04V127.04H2983.57L2984.16 126.454L2982.74 125.04ZM2942.14 125.04V123.04H2940.14V125.04H2942.14ZM2942.14 157.52H2940.14V159.52H2942.14V157.52ZM3015.22 157.52L3016.64 156.106L3016.05 155.52H3015.22V157.52ZM3047.7 190V192H3052.53L3049.12 188.586L3047.7 190ZM2901.54 190H2899.54V192H2901.54V190ZM3057.24 61.4942L3089.72 29.0142L3086.89 26.1858L3054.41 58.6658L3057.24 61.4942ZM3088.3 25.6H2862.1V29.6H3088.3V25.6ZM2860.66 28.9883L2891.98 61.4683L2894.86 58.6917L2863.54 26.2117L2860.66 28.9883ZM2893.42 62.08H3055.82V58.08H2893.42V62.08ZM2901.54 78.32H2942.14V74.32H2901.54V78.32ZM2940.14 76.32V92.56H2944.14V76.32H2940.14ZM2942.14 94.56H3015.22V90.56H2942.14V94.56ZM3013.81 91.1458L2981.33 123.626L2984.16 126.454L3016.64 93.9742L3013.81 91.1458ZM2982.74 123.04H2942.14V127.04H2982.74V123.04ZM2940.14 125.04V157.52H2944.14V125.04H2940.14ZM2942.14 159.52H3015.22V155.52H2942.14V159.52ZM3013.81 158.934L3046.29 191.414L3049.12 188.586L3016.64 156.106L3013.81 158.934ZM3047.7 188H2901.54V192H3047.7V188ZM2903.54 190V76.32H2899.54V190H2903.54ZM3096.43 190V192H3098.43V190H3096.43ZM3055.83 190H3053.83V192H3055.83V190ZM3055.83 76.32V74.32H3053.83V76.32H3055.83ZM3096.43 76.32H3098.43V74.32H3096.43V76.32ZM3047.71 60.08L3046.27 61.4629L3046.86 62.08H3047.71V60.08ZM3016.62 27.6V25.6H3011.94L3015.18 28.9829L3016.62 27.6ZM3137.03 27.6L3138.45 26.1858L3137.86 25.6H3137.03V27.6ZM3185.75 76.32L3187.17 77.7342L3188.58 76.32L3187.17 74.9058L3185.75 76.32ZM3161.39 100.68V102.68H3162.22L3162.81 102.094L3161.39 100.68ZM3112.67 100.68L3111.26 99.2658L3107.84 102.68H3112.67V100.68ZM3137.03 76.32L3138.45 77.7342L3139.86 76.32L3138.45 74.9058L3137.03 76.32ZM3120.79 60.08L3122.21 58.6658L3121.62 58.08H3120.79V60.08ZM3112.67 116.92V114.92H3110.67V116.92H3112.67ZM3112.67 149.4H3110.67V151.4H3112.67V149.4ZM3145.15 149.4L3146.57 147.986L3145.98 147.4H3145.15V149.4ZM3185.75 190L3184.34 191.414L3184.92 192H3185.75V190ZM3234.47 190V192H3239.3L3235.89 188.586L3234.47 190ZM3161.39 116.92L3162.81 115.506L3162.22 114.92H3161.39V116.92ZM3096.43 188H3055.83V192H3096.43V188ZM3057.83 190V76.32H3053.83V190H3057.83ZM3055.83 78.32H3096.43V74.32H3055.83V78.32ZM3094.43 76.32V190H3098.43V76.32H3094.43ZM3049.16 58.6971L3018.07 26.2171L3015.18 28.9829L3046.27 61.4629L3049.16 58.6971ZM3016.62 29.6H3137.03V25.6H3016.62V29.6ZM3135.62 29.0142L3184.34 77.7342L3187.17 74.9058L3138.45 26.1858L3135.62 29.0142ZM3184.34 74.9058L3159.98 99.2658L3162.81 102.094L3187.17 77.7342L3184.34 74.9058ZM3161.39 98.68H3112.67V102.68H3161.39V98.68ZM3114.09 102.094L3138.45 77.7342L3135.62 74.9058L3111.26 99.2658L3114.09 102.094ZM3138.45 74.9058L3122.21 58.6658L3119.38 61.4942L3135.62 77.7342L3138.45 74.9058ZM3120.79 58.08H3047.71V62.08H3120.79V58.08ZM3110.67 116.92V149.4H3114.67V116.92H3110.67ZM3112.67 151.4H3145.15V147.4H3112.67V151.4ZM3143.74 150.814L3184.34 191.414L3187.17 188.586L3146.57 147.986L3143.74 150.814ZM3185.75 192H3234.47V188H3185.75V192ZM3235.89 188.586L3162.81 115.506L3159.98 118.334L3233.06 191.414L3235.89 188.586ZM3161.39 114.92H3112.67V118.92H3161.39V114.92ZM3283.13 190V192H3285.13V190H3283.13ZM3242.53 190H3240.53V192H3242.53V190ZM3242.53 76.32V74.32H3240.53V76.32H3242.53ZM3283.13 76.32H3285.13V74.32H3283.13V76.32ZM3339.97 60.08V62.08H3340.8L3341.38 61.4942L3339.97 60.08ZM3185.69 60.08L3184.25 61.4736L3184.84 62.08H3185.69V60.08ZM3154.14 27.6V25.6H3149.4L3152.7 28.9936L3154.14 27.6ZM3372.45 27.6L3373.86 29.0142L3377.28 25.6H3372.45V27.6ZM3283.13 188H3242.53V192H3283.13V188ZM3244.53 190V76.32H3240.53V190H3244.53ZM3242.53 78.32H3283.13V74.32H3242.53V78.32ZM3281.13 76.32V190H3285.13V76.32H3281.13ZM3339.97 58.08H3185.69V62.08H3339.97V58.08ZM3187.12 58.6864L3155.57 26.2064L3152.7 28.9936L3184.25 61.4736L3187.12 58.6864ZM3154.14 29.6H3372.45V25.6H3154.14V29.6ZM3371.03 26.1858L3338.55 58.6658L3341.38 61.4942L3373.86 29.0142L3371.03 26.1858ZM3545.26 157.52L3546.67 156.106L3546.09 155.52H3545.26V157.52ZM3520.9 157.52L3519.49 158.934L3520.07 159.52H3520.9V157.52ZM3496.54 133.16H3494.54V133.988L3495.13 134.574L3496.54 133.16ZM3496.54 27.6H3498.54V25.6H3496.54V27.6ZM3455.94 27.6V25.6H3453.94V27.6H3455.94ZM3455.94 141.28H3453.94V142.108L3454.53 142.694L3455.94 141.28ZM3504.66 190L3503.25 191.414L3503.83 192H3504.66V190ZM3577.74 190V192H3582.57L3579.15 188.586L3577.74 190ZM3545.26 27.6V25.6H3543.26V27.6H3545.26ZM3585.86 27.6H3587.86V25.6H3585.86V27.6ZM3585.86 133.16H3583.86V133.988L3584.45 134.574L3585.86 133.16ZM3610.22 157.52L3608.81 158.934L3609.39 159.52H3610.22V157.52ZM3634.58 157.52V159.52H3636.58V157.52H3634.58ZM3634.58 27.6V25.6H3632.58V27.6H3634.58ZM3675.18 27.6H3677.18V25.6H3675.18V27.6ZM3675.18 190V192H3677.18V190H3675.18ZM3593.98 190L3592.57 191.414L3593.15 192H3593.98V190ZM3545.26 141.28H3543.26V142.108L3543.85 142.694L3545.26 141.28ZM3545.26 155.52H3520.9V159.52H3545.26V155.52ZM3522.31 156.106L3497.95 131.746L3495.13 134.574L3519.49 158.934L3522.31 156.106ZM3498.54 133.16V27.6H3494.54V133.16H3498.54ZM3496.54 25.6H3455.94V29.6H3496.54V25.6ZM3453.94 27.6V141.28H3457.94V27.6H3453.94ZM3454.53 142.694L3503.25 191.414L3506.07 188.586L3457.35 139.866L3454.53 142.694ZM3504.66 192H3577.74V188H3504.66V192ZM3579.15 188.586L3546.67 156.106L3543.85 158.934L3576.33 191.414L3579.15 188.586ZM3545.26 29.6H3585.86V25.6H3545.26V29.6ZM3583.86 27.6V133.16H3587.86V27.6H3583.86ZM3584.45 134.574L3608.81 158.934L3611.63 156.106L3587.27 131.746L3584.45 134.574ZM3610.22 159.52H3634.58V155.52H3610.22V159.52ZM3636.58 157.52V27.6H3632.58V157.52H3636.58ZM3634.58 29.6H3675.18V25.6H3634.58V29.6ZM3673.18 27.6V190H3677.18V27.6H3673.18ZM3675.18 188H3593.98V192H3675.18V188ZM3595.39 188.586L3546.67 139.866L3543.85 142.694L3592.57 191.414L3595.39 188.586ZM3547.26 141.28V27.6H3543.26V141.28H3547.26ZM3724.01 60.08L3725.42 58.6658L3724.84 58.08H3724.01V60.08ZM3675.29 60.08L3673.85 61.4736L3674.44 62.08H3675.29V60.08ZM3643.74 27.6V25.6H3639.01L3642.3 28.9936L3643.74 27.6ZM3740.25 27.6L3741.66 26.1858L3741.08 25.6H3740.25V27.6ZM3902.65 190V192H3907.48L3904.06 188.586L3902.65 190ZM3853.93 190L3852.51 191.414L3853.1 192H3853.93V190ZM3683.41 76.32V74.32H3681.41V76.32H3683.41ZM3683.41 190H3681.41V192H3683.41V190ZM3724.01 190V192H3726.01V190H3724.01ZM3724.01 149.4V147.4H3722.01V149.4H3724.01ZM3797.09 149.4V151.4H3801.92L3798.5 147.986L3797.09 149.4ZM3764.61 116.92L3766.02 115.506L3765.44 114.92H3764.61V116.92ZM3724.01 116.92H3722.01V118.92H3724.01V116.92ZM3724.01 76.32H3726.01V74.32H3724.01V76.32ZM3724.01 58.08H3675.29V62.08H3724.01V58.08ZM3676.72 58.6864L3645.17 26.2064L3642.3 28.9936L3673.85 61.4736L3676.72 58.6864ZM3643.74 29.6H3740.25V25.6H3643.74V29.6ZM3738.83 29.0142L3901.23 191.414L3904.06 188.586L3741.66 26.1858L3738.83 29.0142ZM3902.65 188H3853.93V192H3902.65V188ZM3855.34 188.586L3725.42 58.6658L3722.59 61.4942L3852.51 191.414L3855.34 188.586ZM3681.41 76.32V190H3685.41V76.32H3681.41ZM3683.41 192H3724.01V188H3683.41V192ZM3726.01 190V149.4H3722.01V190H3726.01ZM3724.01 151.4H3797.09V147.4H3724.01V151.4ZM3798.5 147.986L3766.02 115.506L3763.19 118.334L3795.67 150.814L3798.5 147.986ZM3764.61 114.92H3724.01V118.92H3764.61V114.92ZM3726.01 116.92V76.32H3722.01V116.92H3726.01ZM3724.01 74.32H3683.41V78.32H3724.01V74.32ZM3902.99 190V192H3904.99V190H3902.99ZM3862.39 190H3860.39V192H3862.39V190ZM3862.39 76.32V74.32H3860.39V76.32H3862.39ZM3902.99 76.32H3904.99V74.32H3902.99V76.32ZM3854.27 60.08L3852.83 61.4629L3853.42 62.08H3854.27V60.08ZM3823.19 27.6V25.6H3818.5L3821.74 28.9829L3823.19 27.6ZM3943.59 27.6L3945.01 26.1858L3944.42 25.6H3943.59V27.6ZM3992.31 76.32L3993.73 77.7342L3995.14 76.32L3993.73 74.9058L3992.31 76.32ZM3967.95 100.68V102.68H3968.78L3969.37 102.094L3967.95 100.68ZM3919.23 100.68L3917.82 99.2658L3914.41 102.68H3919.23V100.68ZM3943.59 76.32L3945.01 77.7342L3946.42 76.32L3945.01 74.9058L3943.59 76.32ZM3927.35 60.08L3928.77 58.6658L3928.18 58.08H3927.35V60.08ZM3919.23 116.92V114.92H3917.23V116.92H3919.23ZM3919.23 149.4H3917.23V151.4H3919.23V149.4ZM3951.71 149.4L3953.13 147.986L3952.54 147.4H3951.71V149.4ZM3992.31 190L3990.9 191.414L3991.49 192H3992.31V190ZM4041.03 190V192H4045.86L4042.45 188.586L4041.03 190ZM3967.95 116.92L3969.37 115.506L3968.78 114.92H3967.95V116.92ZM3902.99 188H3862.39V192H3902.99V188ZM3864.39 190V76.32H3860.39V190H3864.39ZM3862.39 78.32H3902.99V74.32H3862.39V78.32ZM3900.99 76.32V190H3904.99V76.32H3900.99ZM3855.72 58.6971L3824.63 26.2171L3821.74 28.9829L3852.83 61.4629L3855.72 58.6971ZM3823.19 29.6H3943.59V25.6H3823.19V29.6ZM3942.18 29.0142L3990.9 77.7342L3993.73 74.9058L3945.01 26.1858L3942.18 29.0142ZM3990.9 74.9058L3966.54 99.2658L3969.37 102.094L3993.73 77.7342L3990.9 74.9058ZM3967.95 98.68H3919.23V102.68H3967.95V98.68ZM3920.65 102.094L3945.01 77.7342L3942.18 74.9058L3917.82 99.2658L3920.65 102.094ZM3945.01 74.9058L3928.77 58.6658L3925.94 61.4942L3942.18 77.7342L3945.01 74.9058ZM3927.35 58.08H3854.27V62.08H3927.35V58.08ZM3917.23 116.92V149.4H3921.23V116.92H3917.23ZM3919.23 151.4H3951.71V147.4H3919.23V151.4ZM3950.3 150.814L3990.9 191.414L3993.73 188.586L3953.13 147.986L3950.3 150.814ZM3992.31 192H4041.03V188H3992.31V192ZM4042.45 188.586L3969.37 115.506L3966.54 118.334L4039.62 191.414L4042.45 188.586ZM3967.95 114.92H3919.23V118.92H3967.95V114.92ZM4040.97 190V192H4042.97V190H4040.97ZM4000.37 190H3998.37V192H4000.37V190ZM4000.37 76.32V74.32H3998.37V76.32H4000.37ZM4040.97 76.32H4042.97V74.32H4040.97V76.32ZM3992.25 60.08L3990.81 61.4629L3991.4 62.08H3992.25V60.08ZM3961.16 27.6V25.6H3956.48L3959.72 28.9829L3961.16 27.6ZM4081.57 27.6L4082.98 26.1858L4082.4 25.6H4081.57V27.6ZM4130.29 76.32L4131.7 77.7342L4133.12 76.32L4131.7 74.9058L4130.29 76.32ZM4105.93 100.68V102.68H4106.76L4107.34 102.094L4105.93 100.68ZM4057.21 100.68L4055.8 99.2658L4052.38 102.68H4057.21V100.68ZM4081.57 76.32L4082.98 77.7342L4084.4 76.32L4082.98 74.9058L4081.57 76.32ZM4065.33 60.08L4066.74 58.6658L4066.16 58.08H4065.33V60.08ZM4057.21 116.92V114.92H4055.21V116.92H4057.21ZM4057.21 149.4H4055.21V151.4H4057.21V149.4ZM4089.69 149.4L4091.1 147.986L4090.52 147.4H4089.69V149.4ZM4130.29 190L4128.88 191.414L4129.46 192H4130.29V190ZM4179.01 190V192H4183.84L4180.42 188.586L4179.01 190ZM4105.93 116.92L4107.34 115.506L4106.76 114.92H4105.93V116.92ZM4040.97 188H4000.37V192H4040.97V188ZM4002.37 190V76.32H3998.37V190H4002.37ZM4000.37 78.32H4040.97V74.32H4000.37V78.32ZM4038.97 76.32V190H4042.97V76.32H4038.97ZM3993.69 58.6971L3962.61 26.2171L3959.72 28.9829L3990.81 61.4629L3993.69 58.6971ZM3961.16 29.6H4081.57V25.6H3961.16V29.6ZM4080.16 29.0142L4128.88 77.7342L4131.7 74.9058L4082.98 26.1858L4080.16 29.0142ZM4128.88 74.9058L4104.52 99.2658L4107.34 102.094L4131.7 77.7342L4128.88 74.9058ZM4105.93 98.68H4057.21V102.68H4105.93V98.68ZM4058.62 102.094L4082.98 77.7342L4080.16 74.9058L4055.8 99.2658L4058.62 102.094ZM4082.98 74.9058L4066.74 58.6658L4063.92 61.4942L4080.16 77.7342L4082.98 74.9058ZM4065.33 58.08H3992.25V62.08H4065.33V58.08ZM4055.21 116.92V149.4H4059.21V116.92H4055.21ZM4057.21 151.4H4089.69V147.4H4057.21V151.4ZM4088.28 150.814L4128.88 191.414L4131.7 188.586L4091.1 147.986L4088.28 150.814ZM4130.29 192H4179.01V188H4130.29V192ZM4180.42 188.586L4107.34 115.506L4104.52 118.334L4177.6 191.414L4180.42 188.586ZM4105.93 114.92H4057.21V118.92H4105.93V114.92ZM4349.47 60.08V62.08H4350.3L4350.88 61.4942L4349.47 60.08ZM4130.23 60.08L4128.78 61.4629L4129.37 62.08H4130.23V60.08ZM4099.14 27.6V25.6H4094.46L4097.69 28.9829L4099.14 27.6ZM4381.95 27.6L4383.36 29.0142L4386.77 25.6H4381.95V27.6ZM4203.31 157.52H4205.31V155.52H4203.31V157.52ZM4203.31 190V192H4205.31V190H4203.31ZM4138.35 190L4136.93 188.586L4133.52 192H4138.35V190ZM4170.83 157.52V155.52H4170L4169.41 156.106L4170.83 157.52ZM4219.55 76.32V74.32H4217.55V76.32H4219.55ZM4219.55 190H4217.55V192H4219.55V190ZM4341.35 190V192H4346.17L4342.76 188.586L4341.35 190ZM4308.87 157.52L4310.28 156.106L4309.69 155.52H4308.87V157.52ZM4260.15 157.52H4258.15V159.52H4260.15V157.52ZM4260.15 76.32H4262.15V74.32H4260.15V76.32ZM4349.47 58.08H4130.23V62.08H4349.47V58.08ZM4131.67 58.6971L4100.58 26.2171L4097.69 28.9829L4128.78 61.4629L4131.67 58.6971ZM4099.14 29.6H4381.95V25.6H4099.14V29.6ZM4380.53 26.1858L4348.05 58.6658L4350.88 61.4942L4383.36 29.0142L4380.53 26.1858ZM4201.31 157.52V190H4205.31V157.52H4201.31ZM4203.31 188H4138.35V192H4203.31V188ZM4139.76 191.414L4172.24 158.934L4169.41 156.106L4136.93 188.586L4139.76 191.414ZM4170.83 159.52H4203.31V155.52H4170.83V159.52ZM4217.55 76.32V190H4221.55V76.32H4217.55ZM4219.55 192H4341.35V188H4219.55V192ZM4342.76 188.586L4310.28 156.106L4307.45 158.934L4339.93 191.414L4342.76 188.586ZM4308.87 155.52H4260.15V159.52H4308.87V155.52ZM4262.15 157.52V76.32H4258.15V157.52H4262.15ZM4260.15 74.32H4219.55V78.32H4260.15V74.32ZM4365.75 60.08L4364.34 58.6658L4360.92 62.08H4365.75V60.08ZM4398.23 27.6V25.6H4397.4L4396.82 26.1858L4398.23 27.6ZM4463.19 27.6L4464.61 26.1858L4464.02 25.6H4463.19V27.6ZM4511.91 76.32H4513.91V75.4916L4513.33 74.9058L4511.91 76.32ZM4511.91 190V192H4513.91V190H4511.91ZM4365.75 190L4364.34 191.414L4364.92 192H4365.75V190ZM4300.79 125.04L4299.38 123.626L4297.96 125.04L4299.38 126.454L4300.79 125.04ZM4349.51 76.32V74.32H4348.68L4348.1 74.9058L4349.51 76.32ZM4398.23 76.32L4399.65 77.7342L4403.06 74.32H4398.23V76.32ZM4349.51 125.04L4348.1 123.626L4346.68 125.04L4348.1 126.454L4349.51 125.04ZM4381.99 157.52L4380.58 158.934L4381.16 159.52H4381.99V157.52ZM4471.31 157.52V159.52H4473.31V157.52H4471.31ZM4471.31 84.44H4473.31V83.6116L4472.73 83.0258L4471.31 84.44ZM4446.95 60.08L4448.37 58.6658L4447.78 58.08H4446.95V60.08ZM4367.17 61.4942L4399.65 29.0142L4396.82 26.1858L4364.34 58.6658L4367.17 61.4942ZM4398.23 29.6H4463.19V25.6H4398.23V29.6ZM4461.78 29.0142L4510.5 77.7342L4513.33 74.9058L4464.61 26.1858L4461.78 29.0142ZM4509.91 76.32V190H4513.91V76.32H4509.91ZM4511.91 188H4365.75V192H4511.91V188ZM4367.17 188.586L4302.21 123.626L4299.38 126.454L4364.34 191.414L4367.17 188.586ZM4302.21 126.454L4350.93 77.7342L4348.1 74.9058L4299.38 123.626L4302.21 126.454ZM4349.51 78.32H4398.23V74.32H4349.51V78.32ZM4396.82 74.9058L4348.1 123.626L4350.93 126.454L4399.65 77.7342L4396.82 74.9058ZM4348.1 126.454L4380.58 158.934L4383.41 156.106L4350.93 123.626L4348.1 126.454ZM4381.99 159.52H4471.31V155.52H4381.99V159.52ZM4473.31 157.52V84.44H4469.31V157.52H4473.31ZM4472.73 83.0258L4448.37 58.6658L4445.54 61.4942L4469.9 85.8542L4472.73 83.0258ZM4446.95 58.08H4365.75V62.08H4446.95V58.08ZM4560.7 190V192H4562.7V190H4560.7ZM4520.1 190H4518.1V192H4520.1V190ZM4520.1 76.32V74.32H4518.1V76.32H4520.1ZM4560.7 76.32H4562.7V74.32H4560.7V76.32ZM4511.98 60.08L4510.54 61.4629L4511.13 62.08H4511.98V60.08ZM4480.9 27.6V25.6H4476.21L4479.45 28.9829L4480.9 27.6ZM4601.3 27.6L4602.72 26.1858L4602.13 25.6H4601.3V27.6ZM4650.02 76.32L4651.44 77.7342L4652.85 76.32L4651.44 74.9058L4650.02 76.32ZM4625.66 100.68V102.68H4626.49L4627.08 102.094L4625.66 100.68ZM4576.94 100.68L4575.53 99.2658L4572.12 102.68H4576.94V100.68ZM4601.3 76.32L4602.72 77.7342L4604.13 76.32L4602.72 74.9058L4601.3 76.32ZM4585.06 60.08L4586.48 58.6658L4585.89 58.08H4585.06V60.08ZM4576.94 116.92V114.92H4574.94V116.92H4576.94ZM4576.94 149.4H4574.94V151.4H4576.94V149.4ZM4609.42 149.4L4610.84 147.986L4610.25 147.4H4609.42V149.4ZM4650.02 190L4648.61 191.414L4649.2 192H4650.02V190ZM4698.74 190V192H4703.57L4700.16 188.586L4698.74 190ZM4625.66 116.92L4627.08 115.506L4626.49 114.92H4625.66V116.92ZM4560.7 188H4520.1V192H4560.7V188ZM4522.1 190V76.32H4518.1V190H4522.1ZM4520.1 78.32H4560.7V74.32H4520.1V78.32ZM4558.7 76.32V190H4562.7V76.32H4558.7ZM4513.43 58.6971L4482.34 26.2171L4479.45 28.9829L4510.54 61.4629L4513.43 58.6971ZM4480.9 29.6H4601.3V25.6H4480.9V29.6ZM4599.89 29.0142L4648.61 77.7342L4651.44 74.9058L4602.72 26.1858L4599.89 29.0142ZM4648.61 74.9058L4624.25 99.2658L4627.08 102.094L4651.44 77.7342L4648.61 74.9058ZM4625.66 98.68H4576.94V102.68H4625.66V98.68ZM4578.36 102.094L4602.72 77.7342L4599.89 74.9058L4575.53 99.2658L4578.36 102.094ZM4602.72 74.9058L4586.48 58.6658L4583.65 61.4942L4599.89 77.7342L4602.72 74.9058ZM4585.06 58.08H4511.98V62.08H4585.06V58.08ZM4574.94 116.92V149.4H4578.94V116.92H4574.94ZM4576.94 151.4H4609.42V147.4H4576.94V151.4ZM4608.01 150.814L4648.61 191.414L4651.44 188.586L4610.84 147.986L4608.01 150.814ZM4650.02 192H4698.74V188H4650.02V192ZM4700.16 188.586L4627.08 115.506L4624.25 118.334L4697.33 191.414L4700.16 188.586ZM4625.66 114.92H4576.94V118.92H4625.66V114.92ZM4682.4 157.52V155.52H4681.58L4680.99 156.106L4682.4 157.52ZM4714.88 157.52V159.52H4715.71L4716.3 158.934L4714.88 157.52ZM4731.12 141.28L4732.54 142.694L4733.95 141.28L4732.54 139.866L4731.12 141.28ZM4666.16 76.32V74.32H4661.34L4664.75 77.7342L4666.16 76.32ZM4714.88 76.32L4716.3 74.9058L4715.71 74.32H4714.88V76.32ZM4779.84 141.28L4781.26 142.694L4782.67 141.28L4781.26 139.866L4779.84 141.28ZM4731.12 190V192H4731.95L4732.54 191.414L4731.12 190ZM4649.92 190L4648.51 188.586L4645.1 192H4649.92V190ZM4787.96 60.08V62.08H4788.79L4789.38 61.4942L4787.96 60.08ZM4820.44 27.6L4821.86 29.0142L4825.27 25.6H4820.44V27.6ZM4682.4 27.6V25.6H4681.58L4680.99 26.1858L4682.4 27.6ZM4649.92 60.08L4648.51 58.6658L4645.1 62.08H4649.92V60.08ZM4682.4 159.52H4714.88V155.52H4682.4V159.52ZM4716.3 158.934L4732.54 142.694L4729.71 139.866L4713.47 156.106L4716.3 158.934ZM4732.54 139.866L4667.58 74.9058L4664.75 77.7342L4729.71 142.694L4732.54 139.866ZM4666.16 78.32H4714.88V74.32H4666.16V78.32ZM4713.47 77.7342L4778.43 142.694L4781.26 139.866L4716.3 74.9058L4713.47 77.7342ZM4778.43 139.866L4729.71 188.586L4732.54 191.414L4781.26 142.694L4778.43 139.866ZM4731.12 188H4649.92V192H4731.12V188ZM4651.34 191.414L4683.82 158.934L4680.99 156.106L4648.51 188.586L4651.34 191.414ZM4789.38 61.4942L4821.86 29.0142L4819.03 26.1858L4786.55 58.6658L4789.38 61.4942ZM4820.44 25.6H4682.4V29.6H4820.44V25.6ZM4680.99 26.1858L4648.51 58.6658L4651.34 61.4942L4683.82 29.0142L4680.99 26.1858ZM4649.92 62.08H4787.96V58.08H4649.92V62.08Z" fill="#B38539" fill-opacity="0.16" mask="url(#path-3-outside-2_5477_35901)"/>
</g>
<defs>
<clipPath id="clip0_5477_35901">
<rect width="2390" height="234" fill="white"/>
</clipPath>
</defs>
</svg>
