<svg width="738" height="45" viewBox="0 0 738 45" fill="none" xmlns="http://www.w3.org/2000/svg">
<path d="M31.4762 0.0959978V4.072H35.4522V22.888C35.3402 22.9253 35.0602 22.9813 34.6122 23.056C34.1642 23.1307 33.8842 23.2053 33.7722 23.28C33.6229 23.3173 33.4175 23.3733 33.1562 23.448C32.8949 23.5227 32.7455 23.5787 32.7082 23.616L32.6522 23.728V23.896C32.6522 23.9333 32.6709 23.952 32.7082 23.952C32.7455 24.0267 32.8015 24.1013 32.8762 24.176C32.9509 24.2507 33.0069 24.288 33.0442 24.288C33.1189 24.3253 33.3429 24.3253 33.7162 24.288C34.1269 24.2507 34.3695 24.2507 34.4442 24.288C34.5935 24.3627 34.7989 24.5493 35.0602 24.848C35.3215 25.1093 35.4522 25.2773 35.4522 25.352V40.024H31.4762V44H12.3242C12.2869 43.8133 12.2309 43.4773 12.1562 42.992C12.0815 42.4693 12.0255 42.1147 11.9882 41.928C11.9509 41.8533 11.8949 41.648 11.8202 41.312C11.7455 40.9387 11.6895 40.6773 11.6522 40.528C11.5775 40.3787 11.5029 40.1733 11.4282 39.912C11.3535 39.6507 11.2975 39.52 11.2602 39.52C11.2602 39.52 11.2229 39.5013 11.1482 39.464C11.1109 39.464 11.0922 39.4827 11.0922 39.52C11.0922 39.52 11.0735 39.52 11.0362 39.52H10.9242C10.8869 39.52 10.8309 39.576 10.7562 39.688C10.6815 39.7627 10.6255 39.8187 10.5882 39.856C10.5882 39.968 10.5695 40.1547 10.5322 40.416C10.4949 40.6773 10.4575 40.9573 10.4202 41.256C10.3829 41.5173 10.3455 41.7787 10.3082 42.04C10.2709 42.3013 10.2522 42.488 10.2522 42.6C10.2522 42.6747 10.2149 42.8053 10.1402 42.992C10.0655 43.1413 9.99085 43.2533 9.91619 43.328C9.87885 43.3653 9.82285 43.4213 9.74819 43.496C9.67352 43.5707 9.59885 43.6267 9.52419 43.664C9.44952 43.7387 9.31885 43.8133 9.13219 43.888C8.98285 43.9627 8.88952 44 8.85219 44H0.564188V0.0959978H31.4762ZM15.0682 32.24H21.1162V18.744C21.1535 18.6693 21.2095 18.576 21.2842 18.464C21.3589 18.3893 21.4149 18.3333 21.4522 18.296C21.5269 18.2213 21.6015 18.1467 21.6762 18.072C21.7509 17.96 21.9189 17.7733 22.1802 17.512C22.4415 17.2507 22.6095 17.1013 22.6842 17.064C22.7589 16.9893 22.8709 16.9147 23.0202 16.84C23.2069 16.7653 23.3189 16.7093 23.3562 16.672C23.5802 16.672 23.9349 16.6533 24.4202 16.616C24.9055 16.5787 25.4282 16.5413 25.9882 16.504C26.5482 16.4667 27.0709 16.4293 27.5562 16.392C28.0415 16.3547 28.3775 16.336 28.5642 16.336C28.7135 16.336 29.0495 16.2987 29.5722 16.224C30.0949 16.112 30.4495 16.0373 30.6362 16C30.7109 15.9627 30.8789 15.9067 31.1402 15.832C31.4389 15.7573 31.6255 15.7013 31.7002 15.664L32.0362 15.328C32.0362 15.2533 32.0362 15.216 32.0362 15.216C32.0735 15.1787 32.0922 15.1413 32.0922 15.104C31.8682 15.104 31.4762 15.104 30.9162 15.104C30.3562 15.0667 29.7589 15.048 29.1242 15.048C28.4895 15.0107 27.8922 14.992 27.3322 14.992C26.7722 14.9547 26.3802 14.936 26.1562 14.936C26.0815 14.936 25.9322 14.9173 25.7082 14.88C25.5215 14.8427 25.3162 14.8053 25.0922 14.768C24.8682 14.7307 24.6442 14.6933 24.4202 14.656C24.2335 14.6187 24.1215 14.6 24.0842 14.6H23.4682H23.0202C22.9829 14.6373 22.8895 14.712 22.7402 14.824C22.6282 14.936 22.4975 15.048 22.3482 15.16C22.1989 15.272 22.0495 15.384 21.9002 15.496C21.7882 15.608 21.7135 15.664 21.6762 15.664C21.6015 15.664 21.5082 15.6453 21.3962 15.608C21.2842 15.5333 21.1909 15.496 21.1162 15.496V11.856H15.0682V32.24ZM53.8259 0.0959978V9.448C53.8259 9.48533 53.7325 9.54133 53.5459 9.616C53.3592 9.69066 53.2285 9.74666 53.1539 9.784C53.0792 9.784 52.8925 9.80267 52.5939 9.84C52.3325 9.87733 52.0525 9.91466 51.7539 9.952C51.4552 9.98933 51.1565 10.0267 50.8579 10.064C50.5965 10.1013 50.4285 10.12 50.3539 10.12C50.2792 10.1573 50.0739 10.2693 49.7379 10.456C49.4019 10.6053 49.1405 10.7173 48.9539 10.792C48.9165 10.8293 48.8605 10.8853 48.7859 10.96C48.7112 11.0347 48.6552 11.1093 48.6179 11.184V11.352V11.52C48.7672 11.52 49.0285 11.5387 49.4019 11.576C49.8125 11.576 50.2419 11.5947 50.6899 11.632C51.1379 11.6693 51.5485 11.7067 51.9219 11.744C52.3325 11.7813 52.6125 11.8187 52.7619 11.856C52.8365 11.856 52.9485 11.8933 53.0979 11.968C53.2845 12.0427 53.4152 12.1173 53.4899 12.192C53.5272 12.2293 53.5645 12.2667 53.6019 12.304C53.6392 12.304 53.6765 12.3227 53.7139 12.36C53.7512 12.3973 53.7885 12.4533 53.8259 12.528V44H50.0179C49.9805 44 49.8685 43.9627 49.6819 43.888C49.5325 43.8133 49.4205 43.7387 49.3459 43.664C49.3085 43.6267 49.2525 43.5707 49.1779 43.496C49.1032 43.4213 49.0285 43.3653 48.9539 43.328C48.9165 43.2907 48.8045 43.16 48.6179 42.936C48.4685 42.712 48.3005 42.488 48.1139 42.264C47.9272 42.04 47.7405 41.8347 47.5539 41.648C47.4045 41.424 47.3112 41.2933 47.2739 41.256C47.1992 41.1813 47.1245 41.1067 47.0499 41.032C46.9752 40.92 46.9192 40.864 46.8819 40.864L46.6579 40.976C46.6579 41.0507 46.6392 41.1627 46.6019 41.312C46.5645 41.424 46.5459 41.5173 46.5459 41.592C46.5832 41.7413 46.6392 41.984 46.7139 42.32C46.7885 42.656 46.8445 42.8613 46.8819 42.936L47.2739 43.328V43.496V43.664C47.1992 43.7387 47.0685 43.8133 46.8819 43.888C46.7325 43.9627 46.6205 44 46.5459 44H39.9939V0.0959978H53.8259ZM78.6982 32.408V27.928H58.3142V13.928C58.3142 13.8907 58.3515 13.8347 58.4262 13.76C58.5009 13.648 58.5755 13.592 58.6502 13.592C58.7249 13.5547 58.9302 13.4987 59.2662 13.424C59.6022 13.3493 59.8635 13.2933 60.0502 13.256C60.1995 13.1813 60.5355 13.1067 61.0582 13.032C61.5809 12.9573 61.9355 12.9013 62.1222 12.864C62.1969 12.864 62.3835 12.864 62.6822 12.864C62.9809 12.8267 63.2982 12.7893 63.6342 12.752C64.0075 12.7147 64.3435 12.6773 64.6422 12.64C64.9409 12.6027 65.1275 12.5653 65.2022 12.528C65.2769 12.528 65.4075 12.4907 65.5942 12.416C65.7809 12.304 65.8929 12.2293 65.9302 12.192C66.0422 12.1547 66.3222 12.0987 66.7702 12.024C67.2182 11.9493 67.5169 11.8933 67.6662 11.856V11.52C67.6662 11.52 67.5915 11.5013 67.4422 11.464C67.2929 11.4267 67.1062 11.3893 66.8822 11.352C66.6582 11.3147 66.4155 11.2773 66.1542 11.24C65.9302 11.2027 65.7435 11.184 65.5942 11.184C65.3702 11.184 64.9782 11.184 64.4182 11.184C63.8582 11.1467 63.2609 11.128 62.6262 11.128C62.0289 11.128 61.4502 11.1467 60.8902 11.184C60.3302 11.184 59.9382 11.184 59.7142 11.184C59.6395 11.1467 59.5089 11.0907 59.3222 11.016C59.1729 10.9413 59.0609 10.8667 58.9862 10.792C58.9489 10.792 58.8929 10.7547 58.8182 10.68C58.7435 10.568 58.6875 10.4933 58.6502 10.456C58.5755 10.3813 58.5009 10.2693 58.4262 10.12C58.3515 9.93333 58.3142 9.82133 58.3142 9.784V0.0959978H92.8662V11.688H72.4822V16.168H81.8342C81.8342 16.2427 81.8715 16.392 81.9462 16.616C82.0582 16.84 82.1329 16.9893 82.1702 17.064C82.2075 17.064 82.2635 17.12 82.3382 17.232C82.4502 17.3067 82.5062 17.3627 82.5062 17.4C82.5435 17.512 82.5995 17.6987 82.6742 17.96C82.7489 18.2213 82.8235 18.5013 82.8982 18.8C82.9729 19.0613 83.0289 19.3227 83.0662 19.584C83.1409 19.8453 83.1782 20.032 83.1782 20.144C83.2155 20.032 83.2715 19.8453 83.3462 19.584C83.4582 19.3227 83.5702 19.0427 83.6822 18.744C83.7942 18.4453 83.8875 18.1653 83.9622 17.904C84.0742 17.6427 84.1675 17.4747 84.2422 17.4C84.3169 17.2133 84.4849 16.9893 84.7462 16.728C85.0075 16.4667 85.1755 16.336 85.2502 16.336H92.8662V44H85.6422C85.6049 44 85.5489 43.9627 85.4742 43.888C85.3995 43.8133 85.3249 43.7387 85.2502 43.664C85.2129 43.5893 85.1569 43.4773 85.0822 43.328C85.0075 43.1413 84.9515 43.0107 84.9142 42.936C84.9142 42.8987 84.8582 42.6187 84.7462 42.096C84.6715 41.5733 84.6155 41.1627 84.5782 40.864C84.5782 40.7893 84.5595 40.64 84.5222 40.416C84.4849 40.192 84.4475 39.9493 84.4102 39.688C84.3729 39.4267 84.3355 39.184 84.2982 38.96C84.2609 38.736 84.2422 38.568 84.2422 38.456C84.2049 38.4933 84.1302 38.5493 84.0182 38.624C83.9435 38.6987 83.9062 38.7547 83.9062 38.792C83.8689 38.8667 83.7942 39.0907 83.6822 39.464C83.6075 39.8373 83.5702 40.08 83.5702 40.192C83.5329 40.3413 83.4955 40.6027 83.4582 40.976C83.4209 41.312 83.3835 41.6853 83.3462 42.096C83.3089 42.5067 83.2715 42.8987 83.2342 43.272C83.1969 43.608 83.1782 43.8507 83.1782 44H69.7382C69.7009 44 69.5515 43.9067 69.2902 43.72C69.0289 43.5333 68.8235 43.4027 68.6742 43.328C68.6742 43.2907 68.6182 43.2347 68.5062 43.16C68.4315 43.0853 68.3755 43.0107 68.3382 42.936C68.2262 42.7867 68.0395 42.544 67.7782 42.208C67.5169 41.872 67.3489 41.6667 67.2742 41.592C67.1995 41.48 67.1062 41.312 66.9942 41.088C66.9195 40.864 66.8262 40.64 66.7142 40.416C66.6022 40.192 66.4902 40.0053 66.3782 39.856C66.3035 39.6693 66.2662 39.5573 66.2662 39.52C66.2289 39.3333 66.1915 39.016 66.1542 38.568C66.1169 38.0827 66.0795 37.5973 66.0422 37.112C66.0049 36.5893 65.9675 36.104 65.9302 35.656C65.9302 35.1707 65.9302 34.8347 65.9302 34.648C65.8929 34.7973 65.8369 35.0773 65.7622 35.488C65.6875 35.8613 65.6129 36.272 65.5382 36.72C65.4635 37.168 65.3889 37.5973 65.3142 38.008C65.2769 38.3813 65.2395 38.6427 65.2022 38.792V42.936L64.1942 44H58.3142V32.408H78.6982ZM99.7769 23.616C99.7023 23.616 99.5343 23.5787 99.2729 23.504C99.0489 23.4293 98.8063 23.3547 98.5449 23.28C98.3209 23.2053 98.0783 23.1307 97.8169 23.056C97.5929 22.9813 97.4436 22.9253 97.3689 22.888C97.2943 22.888 97.2196 22.8507 97.1449 22.776C97.0703 22.7013 97.0329 22.6267 97.0329 22.552V0.0959978H132.985V11.688H111.369V15.664C111.22 15.5893 110.902 15.4213 110.417 15.16C109.969 14.8613 109.652 14.6747 109.465 14.6H109.185H108.793C108.718 14.6 108.588 14.6187 108.401 14.656C108.214 14.6933 107.99 14.7307 107.729 14.768C107.505 14.8053 107.281 14.8427 107.057 14.88C106.87 14.9173 106.758 14.936 106.721 14.936C106.609 14.9733 106.422 15.0107 106.161 15.048C105.937 15.0853 105.694 15.1227 105.433 15.16C105.209 15.1973 104.985 15.2347 104.761 15.272C104.537 15.3093 104.388 15.328 104.313 15.328H104.145H103.921C103.809 15.328 103.604 15.3093 103.305 15.272C103.006 15.2347 102.689 15.1973 102.353 15.16C102.054 15.1227 101.756 15.0853 101.457 15.048C101.158 15.0107 100.953 14.9733 100.841 14.936L100.505 15.328C100.505 15.3653 100.542 15.4213 100.617 15.496C100.729 15.5707 100.804 15.6267 100.841 15.664C100.916 15.664 101.121 15.72 101.457 15.832C101.793 15.9067 102.054 15.9627 102.241 16C102.353 16 102.502 16.0187 102.689 16.056C102.913 16.0933 103.137 16.1307 103.361 16.168C103.585 16.2053 103.772 16.2427 103.921 16.28C104.108 16.3173 104.238 16.336 104.313 16.336C104.5 16.336 104.836 16.3547 105.321 16.392C105.806 16.4293 106.31 16.4667 106.833 16.504C107.393 16.5413 107.916 16.5787 108.401 16.616C108.924 16.6533 109.278 16.672 109.465 16.672L111.369 18.408V32.408H132.985V44H123.969C123.932 44 123.82 43.9627 123.633 43.888C123.484 43.8133 123.372 43.7387 123.297 43.664C123.222 43.5893 123.11 43.4773 122.961 43.328C122.812 43.1413 122.7 43.0107 122.625 42.936C122.625 42.824 122.606 42.656 122.569 42.432C122.532 42.1707 122.494 41.8907 122.457 41.592C122.42 41.2933 122.382 41.0133 122.345 40.752C122.308 40.4907 122.289 40.304 122.289 40.192C122.252 40.1173 122.196 39.9867 122.121 39.8C122.046 39.6133 121.972 39.52 121.897 39.52C121.897 39.4827 121.841 39.464 121.729 39.464C121.654 39.4267 121.58 39.408 121.505 39.408C121.468 39.408 121.412 39.4267 121.337 39.464C121.262 39.464 121.225 39.4827 121.225 39.52L120.217 44H97.0329V26.024C97.0329 25.9867 97.1263 25.8 97.3129 25.464C97.4996 25.0907 97.6303 24.8107 97.7049 24.624C97.7796 24.5493 97.8356 24.4747 97.8729 24.4C97.9476 24.3253 98.0223 24.288 98.0969 24.288C98.2089 24.2507 98.4703 24.1947 98.8809 24.12C99.3289 24.0453 99.6276 23.9893 99.7769 23.952V23.616ZM139.199 37.784C139.199 37.784 139.217 37.7467 139.255 37.672V37.616C139.255 37.504 139.236 37.448 139.199 37.448C139.199 37.4107 139.068 37.3547 138.807 37.28C138.545 37.2053 138.34 37.1493 138.191 37.112C138.079 37.0373 137.836 36.9627 137.463 36.888C137.127 36.8133 136.903 36.7573 136.791 36.72V0.0959978H153.367C153.441 0.0959978 153.553 0.189331 153.703 0.375998C153.889 0.562664 154.02 0.693331 154.095 0.767999C154.132 0.842665 154.188 1.01066 154.263 1.272C154.337 1.53333 154.393 1.72 154.431 1.832C154.431 1.90666 154.449 2.056 154.487 2.28C154.524 2.504 154.561 2.76533 154.599 3.064C154.636 3.32533 154.673 3.58667 154.711 3.848C154.748 4.072 154.767 4.20267 154.767 4.24C154.767 4.27733 154.804 4.352 154.879 4.464C154.953 4.53866 155.028 4.576 155.103 4.576L155.271 4.632H155.383C155.42 4.632 155.439 4.61333 155.439 4.576C155.476 4.464 155.513 4.27733 155.551 4.016C155.625 3.75467 155.7 3.49333 155.775 3.232C155.887 2.93333 155.961 2.65333 155.999 2.392C156.073 2.13066 156.129 1.944 156.167 1.832C156.204 1.72 156.26 1.44 156.335 0.992C156.409 0.543999 156.465 0.245331 156.503 0.0959978H161.655L164.455 2.504C164.492 2.54133 164.641 2.54133 164.903 2.504C165.201 2.42933 165.537 2.336 165.911 2.224C166.284 2.112 166.657 2 167.031 1.888C167.404 1.73866 167.703 1.608 167.927 1.496C167.964 1.45866 168.057 1.384 168.207 1.272C168.356 1.12267 168.505 0.973332 168.655 0.823998C168.804 0.674665 168.935 0.543998 169.047 0.431997C169.159 0.282663 169.233 0.170664 169.271 0.0959978H174.815V19.136L174.479 19.472C174.404 19.5467 174.273 19.6213 174.087 19.696C173.937 19.7707 173.825 19.808 173.751 19.808C173.713 19.8453 173.545 19.8453 173.247 19.808C172.985 19.7707 172.817 19.7707 172.743 19.808C172.705 19.8453 172.631 19.9013 172.519 19.976C172.444 20.0507 172.407 20.1067 172.407 20.144C172.481 20.1813 172.593 20.256 172.743 20.368C172.892 20.4427 173.004 20.48 173.079 20.48C173.153 20.5173 173.377 20.5733 173.751 20.648C174.161 20.7227 174.404 20.7787 174.479 20.816C174.553 20.8533 174.628 20.9093 174.703 20.984C174.777 21.0587 174.815 21.1333 174.815 21.208V44H136.791V38.792C136.791 38.7547 136.884 38.6613 137.071 38.512C137.257 38.3253 137.388 38.1947 137.463 38.12C137.612 38.0453 137.892 37.9707 138.303 37.896C138.751 37.8213 139.049 37.784 139.199 37.784ZM150.959 32.24H160.815V28.544C160.852 28.544 160.927 28.5253 161.039 28.488C161.188 28.4507 161.281 28.432 161.319 28.432C161.393 28.4693 161.617 28.6 161.991 28.824C162.401 29.0107 162.644 29.1227 162.719 29.16H163.335H164.119C164.156 29.16 164.268 29.1413 164.455 29.104C164.679 29.0293 164.903 28.9733 165.127 28.936C165.351 28.8987 165.556 28.8613 165.743 28.824C165.967 28.7867 166.116 28.768 166.191 28.768C166.415 28.768 166.788 28.768 167.311 28.768C167.833 28.7307 168.393 28.712 168.991 28.712C169.625 28.712 170.204 28.712 170.727 28.712C171.249 28.6747 171.623 28.656 171.847 28.656C171.847 28.5813 171.791 28.5067 171.679 28.432C171.641 28.3947 171.529 28.3387 171.343 28.264C171.193 28.1893 171.081 28.1333 171.007 28.096C170.857 28.0587 170.559 28.0027 170.111 27.928C169.663 27.816 169.383 27.76 169.271 27.76C169.047 27.76 168.636 27.7413 168.039 27.704C167.479 27.6667 166.863 27.6293 166.191 27.592C165.519 27.5547 164.884 27.5173 164.287 27.48C163.689 27.4427 163.279 27.424 163.055 27.424L160.815 25.352V11.856H150.959V32.24ZM182.251 37.28V29.328H178.947V23.952H179.731C179.731 23.8773 179.787 23.7653 179.899 23.616C180.011 23.4293 180.048 23.3173 180.011 23.28C179.936 23.2053 179.75 23.1307 179.451 23.056C179.19 22.944 179.022 22.888 178.947 22.888V0.0959978H192.947V32.24H199.163V0.0959978H204.539C204.614 0.0959978 204.782 0.226665 205.043 0.487999C205.304 0.749332 205.472 0.973331 205.547 1.16C205.622 1.272 205.715 1.44 205.827 1.664C205.939 1.85066 206.051 2.056 206.163 2.28C206.275 2.504 206.368 2.70933 206.443 2.896C206.555 3.08266 206.611 3.19466 206.611 3.232C206.648 3.41866 206.686 3.736 206.723 4.184C206.76 4.632 206.798 5.11733 206.835 5.64C206.872 6.16267 206.891 6.648 206.891 7.096C206.928 7.544 206.947 7.86133 206.947 8.048C206.984 7.89867 207.022 7.63733 207.059 7.264C207.134 6.85333 207.208 6.424 207.283 5.976C207.358 5.528 207.432 5.11733 207.507 4.744C207.582 4.33333 207.619 4.05333 207.619 3.904C207.619 3.75467 207.619 3.512 207.619 3.176C207.656 2.80267 207.675 2.41066 207.675 2C207.712 1.58933 207.731 1.216 207.731 0.879998C207.768 0.506665 207.787 0.245331 207.787 0.0959978H213.163V8.384L208.011 9.448C208.123 9.448 208.291 9.46666 208.515 9.504C208.776 9.54133 209.056 9.57867 209.355 9.616C209.654 9.65333 209.934 9.69066 210.195 9.728C210.456 9.76533 210.643 9.784 210.755 9.784C210.942 9.82133 211.166 9.85867 211.427 9.896C211.688 9.93333 211.95 9.97066 212.211 10.008C212.51 10.0453 212.827 10.0827 213.163 10.12V29.328H209.859V37.28H205.043V44.112C204.856 44.112 204.52 44.112 204.035 44.112C203.55 44.112 203.046 44.0933 202.523 44.056C202 44.056 201.496 44.0373 201.011 44C200.563 44 200.246 44 200.059 44C199.984 44 199.816 43.9627 199.555 43.888C199.294 43.8133 199.107 43.7387 198.995 43.664L198.323 43.328C198.248 43.2533 198.062 43.1413 197.763 42.992C197.502 42.8053 197.334 42.6747 197.259 42.6C197.222 42.6 197.147 42.6187 197.035 42.656C196.923 42.6933 196.848 42.712 196.811 42.712C196.811 42.7867 196.83 42.9547 196.867 43.216C196.942 43.44 196.96 43.5893 196.923 43.664C196.886 43.7387 196.83 43.8133 196.755 43.888C196.68 43.9627 196.624 44 196.587 44H187.067V37.28H182.251ZM217.291 34.312C217.403 34.312 217.589 34.2933 217.851 34.256C218.112 34.2187 218.373 34.1813 218.635 34.144C218.933 34.1067 219.213 34.0693 219.475 34.032C219.736 33.9947 219.923 33.976 220.035 33.976C220.184 33.9387 220.52 33.8827 221.043 33.808C221.565 33.7333 221.92 33.6773 222.107 33.64C222.256 33.6027 222.555 33.5467 223.003 33.472C223.451 33.3973 223.731 33.3413 223.843 33.304L217.291 32.52V13.928C217.291 13.8907 217.328 13.8347 217.403 13.76C217.477 13.648 217.552 13.592 217.627 13.592C217.701 13.5547 217.907 13.4987 218.243 13.424C218.579 13.3493 218.84 13.2933 219.027 13.256C219.176 13.1813 219.512 13.1067 220.035 13.032C220.557 12.9573 220.912 12.9013 221.099 12.864C221.173 12.864 221.36 12.864 221.659 12.864C221.957 12.8267 222.275 12.7893 222.611 12.752C222.984 12.7147 223.32 12.6773 223.619 12.64C223.917 12.6027 224.104 12.5653 224.179 12.528C224.253 12.528 224.384 12.4907 224.571 12.416C224.757 12.304 224.869 12.2293 224.907 12.192C225.019 12.1547 225.299 12.0987 225.747 12.024C226.195 11.9493 226.493 11.8933 226.643 11.856V11.52C226.643 11.52 226.568 11.5013 226.419 11.464C226.269 11.4267 226.083 11.3893 225.859 11.352C225.635 11.3147 225.392 11.2773 225.131 11.24C224.907 11.2027 224.72 11.184 224.571 11.184C224.347 11.184 223.955 11.184 223.395 11.184C222.835 11.1467 222.237 11.128 221.603 11.128C221.005 11.128 220.427 11.1467 219.867 11.184C219.307 11.184 218.915 11.184 218.691 11.184C218.616 11.1467 218.485 11.0907 218.299 11.016C218.149 10.9413 218.037 10.8667 217.963 10.792C217.925 10.792 217.869 10.7547 217.795 10.68C217.72 10.568 217.664 10.4933 217.627 10.456C217.552 10.3813 217.477 10.2693 217.403 10.12C217.328 9.93333 217.291 9.82133 217.291 9.784V0.0959978H250.499V11.688H231.795V16.168H240.475C240.549 16.168 240.717 16.336 240.979 16.672C241.24 16.9707 241.408 17.2133 241.483 17.4C241.52 17.512 241.576 17.6987 241.651 17.96C241.725 18.184 241.8 18.4453 241.875 18.744C241.949 19.0427 242.005 19.3227 242.043 19.584C242.117 19.8453 242.155 20.032 242.155 20.144C242.192 20.032 242.248 19.8453 242.323 19.584C242.435 19.3227 242.547 19.0427 242.659 18.744C242.771 18.4453 242.864 18.1653 242.939 17.904C243.051 17.6427 243.144 17.4747 243.219 17.4C243.293 17.2133 243.461 16.9893 243.723 16.728C243.984 16.4667 244.152 16.336 244.227 16.336H250.499V27.928H231.795V32.408H250.499V44H244.619C244.581 44 244.525 43.9627 244.451 43.888C244.376 43.8133 244.301 43.7387 244.227 43.664C244.189 43.5893 244.133 43.4773 244.059 43.328C243.984 43.1413 243.928 43.0107 243.891 42.936C243.891 42.8987 243.835 42.6187 243.723 42.096C243.648 41.5733 243.592 41.1627 243.555 40.864C243.555 40.7893 243.536 40.64 243.499 40.416C243.461 40.192 243.424 39.9493 243.387 39.688C243.349 39.4267 243.312 39.184 243.275 38.96C243.237 38.736 243.219 38.568 243.219 38.456C243.181 38.4933 243.107 38.5493 242.995 38.624C242.92 38.6987 242.883 38.7547 242.883 38.792C242.845 38.8667 242.771 39.0907 242.659 39.464C242.584 39.8373 242.547 40.08 242.547 40.192C242.509 40.3413 242.472 40.6027 242.435 40.976C242.397 41.312 242.36 41.6853 242.323 42.096C242.285 42.5067 242.248 42.8987 242.211 43.272C242.173 43.608 242.155 43.8507 242.155 44H228.715C228.677 44 228.528 43.9067 228.267 43.72C228.005 43.5333 227.8 43.4027 227.651 43.328C227.651 43.2907 227.595 43.2347 227.483 43.16C227.408 43.0853 227.352 43.0107 227.315 42.936C227.203 42.7867 227.016 42.544 226.755 42.208C226.493 41.872 226.325 41.6667 226.251 41.592C226.176 41.48 226.083 41.312 225.971 41.088C225.896 40.864 225.803 40.64 225.691 40.416C225.579 40.192 225.467 40.0053 225.355 39.856C225.28 39.6693 225.243 39.5573 225.243 39.52C225.205 39.3333 225.168 39.016 225.131 38.568C225.093 38.0827 225.056 37.5973 225.019 37.112C224.981 36.5893 224.944 36.104 224.907 35.656C224.907 35.1707 224.907 34.8347 224.907 34.648C224.869 34.7973 224.813 35.0773 224.739 35.488C224.664 35.8613 224.589 36.272 224.515 36.72C224.44 37.168 224.365 37.5973 224.291 38.008C224.253 38.3813 224.216 38.6427 224.179 38.792V42.936L223.171 44H217.291V34.312ZM260.522 30.168C260.448 30.1307 260.28 30.0747 260.018 30C259.757 29.9253 259.57 29.8693 259.458 29.832C259.384 29.832 259.197 29.7947 258.898 29.72C258.6 29.6453 258.264 29.5707 257.89 29.496C257.554 29.4213 257.237 29.3653 256.938 29.328C256.64 29.2533 256.453 29.1973 256.378 29.16L254.978 27.76C254.904 27.6853 254.829 27.5733 254.754 27.424C254.68 27.2373 254.642 27.1253 254.642 27.088V0.0959978H288.186V25.184H284.378V27.256H288.186V44H273.85V28.096H268.978V44H263.546C263.546 43.9253 263.546 43.7573 263.546 43.496C263.584 43.2347 263.602 43.048 263.602 42.936C263.64 42.8987 263.714 42.7493 263.826 42.488C263.938 42.1893 263.994 42.0027 263.994 41.928V39.968V37.784C263.994 37.6347 263.976 37.336 263.938 36.888C263.901 36.44 263.864 35.992 263.826 35.544C263.789 35.0587 263.752 34.6107 263.714 34.2C263.677 33.752 263.64 33.4533 263.602 33.304C263.602 33.2293 263.565 33.0053 263.49 32.632C263.416 32.2587 263.341 32.016 263.266 31.904C263.266 31.8293 263.21 31.7173 263.098 31.568C263.024 31.3813 262.968 31.2693 262.93 31.232V40.192C262.93 40.2667 262.893 40.472 262.818 40.808C262.744 41.144 262.669 41.4053 262.594 41.592C262.557 41.6667 262.501 41.7973 262.426 41.984C262.352 42.1333 262.296 42.2267 262.258 42.264C262.146 42.376 261.997 42.544 261.81 42.768C261.624 42.9547 261.437 43.1413 261.25 43.328C261.064 43.5147 260.896 43.6827 260.746 43.832C260.597 43.944 260.522 44 260.522 44H254.642V31.568C254.642 31.5307 254.773 31.4747 255.034 31.4C255.296 31.3253 255.52 31.2693 255.706 31.232C255.744 31.232 255.856 31.2133 256.042 31.176C256.266 31.1387 256.49 31.1013 256.714 31.064C256.938 30.9893 257.144 30.9333 257.33 30.896C257.554 30.8587 257.704 30.84 257.778 30.84C257.89 30.84 258.077 30.8027 258.338 30.728C258.6 30.6533 258.861 30.5787 259.122 30.504C259.421 30.4293 259.701 30.3733 259.962 30.336C260.224 30.2613 260.41 30.2053 260.522 30.168ZM269.146 16H273.85V14.096H280.57C280.458 14.0213 280.178 13.928 279.73 13.816C279.282 13.6667 278.984 13.592 278.834 13.592C278.76 13.592 278.592 13.5733 278.33 13.536C278.069 13.4987 277.77 13.4613 277.434 13.424C277.136 13.3867 276.856 13.3493 276.594 13.312C276.333 13.2747 276.165 13.256 276.09 13.256C275.904 13.2187 275.68 13.2 275.418 13.2C275.157 13.1627 274.914 13.1067 274.69 13.032C274.429 12.9947 274.149 12.9387 273.85 12.864V11.856H269.146V16ZM320.65 38.624V25.352C320.65 25.2773 320.687 25.1653 320.762 25.016C320.837 24.8293 320.911 24.6987 320.986 24.624C320.986 24.5867 321.042 24.512 321.154 24.4C321.191 24.3627 321.247 24.3253 321.322 24.288C321.471 24.2507 321.751 24.1947 322.162 24.12C322.61 24.0453 322.909 23.9893 323.058 23.952V23.616L320.65 22.888V5.472H326.026V0.0959978H356.266V11.688H334.65V15.664C334.501 15.5893 334.183 15.4213 333.698 15.16C333.25 14.8613 332.933 14.6747 332.746 14.6H332.41H332.074C331.999 14.6 331.85 14.6187 331.626 14.656C331.439 14.6933 331.234 14.7307 331.01 14.768C330.786 14.8053 330.562 14.8427 330.338 14.88C330.151 14.9173 330.039 14.936 330.002 14.936C329.89 14.9733 329.703 15.0107 329.442 15.048C329.218 15.0853 328.975 15.1227 328.714 15.16C328.453 15.1973 328.21 15.2347 327.986 15.272C327.762 15.3093 327.613 15.328 327.538 15.328H327.37H327.202C327.09 15.328 326.885 15.3093 326.586 15.272C326.287 15.2347 325.97 15.1973 325.634 15.16C325.335 15.1227 325.037 15.0853 324.738 15.048C324.439 15.0107 324.234 14.9733 324.122 14.936L323.786 15.328C323.786 15.3653 323.823 15.4213 323.898 15.496C323.973 15.5707 324.047 15.6267 324.122 15.664C324.197 15.664 324.402 15.72 324.738 15.832C325.074 15.9067 325.317 15.9627 325.466 16C325.578 16 325.727 16.0187 325.914 16.056C326.138 16.0933 326.362 16.1307 326.586 16.168C326.81 16.2053 327.015 16.2427 327.202 16.28C327.389 16.3173 327.501 16.336 327.538 16.336C327.725 16.336 328.061 16.3547 328.546 16.392C329.069 16.4293 329.591 16.4667 330.114 16.504C330.674 16.5413 331.197 16.5787 331.682 16.616C332.205 16.6533 332.559 16.672 332.746 16.672L334.65 18.408V32.408H356.266V44H347.25C347.213 44 347.101 43.9627 346.914 43.888C346.765 43.8133 346.653 43.7387 346.578 43.664C346.503 43.5893 346.373 43.4773 346.186 43.328C346.037 43.1413 345.943 43.0107 345.906 42.936C345.906 42.824 345.887 42.656 345.85 42.432C345.813 42.1707 345.775 41.8907 345.738 41.592C345.701 41.2933 345.663 41.0133 345.626 40.752C345.589 40.4907 345.551 40.304 345.514 40.192C345.514 40.1173 345.477 39.9867 345.402 39.8C345.327 39.6133 345.253 39.52 345.178 39.52C345.178 39.4827 345.122 39.464 345.01 39.464C344.935 39.4267 344.861 39.408 344.786 39.408C344.749 39.408 344.693 39.4267 344.618 39.464C344.543 39.464 344.506 39.4827 344.506 39.52L343.442 44H326.026V38.624H320.65ZM365.96 30.168C365.885 30.1307 365.717 30.0747 365.456 30C365.194 29.9253 365.008 29.8693 364.896 29.832C364.821 29.832 364.634 29.7947 364.336 29.72C364.037 29.6453 363.701 29.5707 363.328 29.496C362.992 29.4213 362.674 29.3653 362.376 29.328C362.077 29.2533 361.89 29.1973 361.816 29.16L360.416 27.76C360.341 27.6853 360.266 27.5733 360.192 27.424C360.117 27.2373 360.08 27.1253 360.08 27.088V0.0959978H393.624V25.184H389.816V27.256H393.624V44H379.288V28.096H374.416V44H368.984C368.984 43.9253 368.984 43.7573 368.984 43.496C369.021 43.2347 369.04 43.048 369.04 42.936C369.077 42.8987 369.152 42.7493 369.264 42.488C369.376 42.1893 369.432 42.0027 369.432 41.928V39.968V37.784C369.432 37.6347 369.413 37.336 369.376 36.888C369.338 36.44 369.301 35.992 369.264 35.544C369.226 35.0587 369.189 34.6107 369.152 34.2C369.114 33.752 369.077 33.4533 369.04 33.304C369.04 33.2293 369.002 33.0053 368.928 32.632C368.853 32.2587 368.778 32.016 368.704 31.904C368.704 31.8293 368.648 31.7173 368.536 31.568C368.461 31.3813 368.405 31.2693 368.368 31.232V40.192C368.368 40.2667 368.33 40.472 368.256 40.808C368.181 41.144 368.106 41.4053 368.032 41.592C367.994 41.6667 367.938 41.7973 367.864 41.984C367.789 42.1333 367.733 42.2267 367.696 42.264C367.584 42.376 367.434 42.544 367.248 42.768C367.061 42.9547 366.874 43.1413 366.688 43.328C366.501 43.5147 366.333 43.6827 366.184 43.832C366.034 43.944 365.96 44 365.96 44H360.08V31.568C360.08 31.5307 360.21 31.4747 360.472 31.4C360.733 31.3253 360.957 31.2693 361.144 31.232C361.181 31.232 361.293 31.2133 361.48 31.176C361.704 31.1387 361.928 31.1013 362.152 31.064C362.376 30.9893 362.581 30.9333 362.768 30.896C362.992 30.8587 363.141 30.84 363.216 30.84C363.328 30.84 363.514 30.8027 363.776 30.728C364.037 30.6533 364.298 30.5787 364.56 30.504C364.858 30.4293 365.138 30.3733 365.4 30.336C365.661 30.2613 365.848 30.2053 365.96 30.168ZM374.584 16H379.288V14.096H386.008C385.896 14.0213 385.616 13.928 385.168 13.816C384.72 13.6667 384.421 13.592 384.272 13.592C384.197 13.592 384.029 13.5733 383.768 13.536C383.506 13.4987 383.208 13.4613 382.872 13.424C382.573 13.3867 382.293 13.3493 382.032 13.312C381.77 13.2747 381.602 13.256 381.528 13.256C381.341 13.2187 381.117 13.2 380.856 13.2C380.594 13.1627 380.352 13.1067 380.128 13.032C379.866 12.9947 379.586 12.9387 379.288 12.864V11.856H374.584V16ZM402.4 24.12V19.976H397.752V16.168H403.968C403.856 16.0933 403.576 16 403.128 15.888C402.68 15.7387 402.381 15.664 402.232 15.664C402.157 15.664 401.989 15.6453 401.728 15.608C401.466 15.5707 401.168 15.5333 400.832 15.496C400.533 15.4587 400.253 15.4213 399.992 15.384C399.73 15.3467 399.562 15.328 399.488 15.328C399.226 15.2533 398.872 15.1787 398.424 15.104C397.976 15.0293 397.752 14.9733 397.752 14.936V0.0959978H412.088V16H416.792C416.792 15.888 416.792 15.6827 416.792 15.384C416.829 15.0853 416.866 14.768 416.904 14.432C416.941 14.096 416.978 13.7787 417.016 13.48C417.053 13.1813 417.09 12.976 417.128 12.864C417.128 12.7893 417.165 12.6773 417.24 12.528C417.352 12.3413 417.426 12.2293 417.464 12.192C417.501 12.1547 417.594 12.0987 417.744 12.024C417.93 11.9493 418.061 11.8933 418.136 11.856C418.248 11.8187 418.472 11.8373 418.808 11.912C419.181 11.9493 419.424 11.968 419.536 11.968V11.184C419.424 11.1467 419.181 11.0907 418.808 11.016C418.472 10.9413 418.248 10.8667 418.136 10.792C418.061 10.792 417.968 10.7733 417.856 10.736C417.744 10.6987 417.632 10.6613 417.52 10.624C417.37 10.5867 417.24 10.5307 417.128 10.456V0.0959978H431.296V3.344C431.221 3.344 431.09 3.32533 430.904 3.288C430.754 3.25066 430.642 3.232 430.568 3.232C430.53 3.19466 430.362 3.08266 430.064 2.896C429.802 2.672 429.634 2.54133 429.56 2.504C429.485 2.46666 429.41 2.42933 429.336 2.392C429.298 2.35467 429.242 2.31733 429.168 2.28C429.056 2.24266 428.962 2.20533 428.888 2.168C428.813 2.168 428.664 2.18666 428.44 2.224C428.253 2.26133 428.048 2.29866 427.824 2.336C427.6 2.37333 427.376 2.41066 427.152 2.448C426.965 2.48533 426.853 2.504 426.816 2.504C426.629 2.54133 426.405 2.57867 426.144 2.616C425.882 2.65333 425.621 2.69066 425.36 2.728C425.098 2.76533 424.874 2.80266 424.688 2.84C424.501 2.84 424.389 2.84 424.352 2.84C424.202 2.84 423.922 2.85867 423.512 2.896C423.138 2.896 422.728 2.896 422.28 2.896C421.832 2.896 421.402 2.896 420.992 2.896C420.618 2.85867 420.357 2.84 420.208 2.84C420.245 2.91466 420.301 2.98933 420.376 3.064C420.45 3.13867 420.506 3.19466 420.544 3.232C420.618 3.26933 420.786 3.32533 421.048 3.4C421.309 3.47466 421.496 3.53066 421.608 3.568C421.682 3.60533 421.813 3.64267 422 3.68C422.186 3.71733 422.373 3.75466 422.56 3.792C422.746 3.82933 422.914 3.86667 423.064 3.904C423.213 3.904 423.306 3.904 423.344 3.904C423.568 3.904 423.941 3.92267 424.464 3.96C425.024 3.99733 425.621 4.03466 426.256 4.072C426.89 4.10933 427.488 4.14667 428.048 4.184C428.608 4.22133 429 4.24 429.224 4.24C429.298 4.31467 429.41 4.42667 429.56 4.576C429.746 4.72533 429.914 4.89333 430.064 5.08C430.25 5.26666 430.418 5.45333 430.568 5.64C430.754 5.78933 430.885 5.90133 430.96 5.976C430.997 6.05066 431.053 6.16266 431.128 6.312C431.24 6.46133 431.296 6.57333 431.296 6.648V19.976H426.592V24.12H422.112V44H417.464L417.128 43.664C417.09 43.6267 416.978 43.496 416.792 43.272C416.642 43.048 416.456 42.824 416.232 42.6C416.045 42.376 415.858 42.1707 415.672 41.984C415.522 41.76 415.429 41.6293 415.392 41.592C415.354 41.5547 415.317 41.5173 415.28 41.48C415.28 41.4427 415.261 41.4053 415.224 41.368C415.186 41.3307 415.13 41.2933 415.056 41.256H414.888C414.85 41.256 414.813 41.2747 414.776 41.312C414.776 41.3867 414.757 41.4987 414.72 41.648C414.682 41.76 414.664 41.8533 414.664 41.928C414.701 42.0773 414.757 42.3387 414.832 42.712C414.906 43.048 414.981 43.2533 415.056 43.328L415.392 43.664V43.832V43.944C415.392 43.9813 415.41 44 415.448 44H407.608V24.12H402.4ZM440.936 30.168C440.862 30.1307 440.694 30.0747 440.432 30C440.171 29.9253 439.984 29.8693 439.872 29.832C439.798 29.832 439.611 29.7947 439.312 29.72C439.014 29.6453 438.678 29.5707 438.304 29.496C437.968 29.4213 437.651 29.3653 437.352 29.328C437.054 29.2533 436.867 29.1973 436.792 29.16L435.392 27.76C435.318 27.6853 435.243 27.5733 435.168 27.424C435.094 27.2373 435.056 27.1253 435.056 27.088V0.0959978H468.6V31.4H449.392V44H443.96C443.96 43.9253 443.96 43.7573 443.96 43.496C443.998 43.2347 444.016 43.048 444.016 42.936C444.054 42.8987 444.128 42.7493 444.24 42.488C444.352 42.1893 444.408 42.0027 444.408 41.928V39.968V37.784C444.408 37.6347 444.39 37.336 444.352 36.888C444.315 36.44 444.278 35.992 444.24 35.544C444.203 35.0587 444.166 34.6107 444.128 34.2C444.091 33.752 444.054 33.4533 444.016 33.304C444.016 33.2293 443.979 33.0053 443.904 32.632C443.83 32.2587 443.755 32.016 443.68 31.904C443.68 31.8293 443.624 31.7173 443.512 31.568C443.438 31.3813 443.382 31.2693 443.344 31.232V40.192C443.344 40.2667 443.307 40.472 443.232 40.808C443.158 41.144 443.083 41.4053 443.008 41.592C442.971 41.6667 442.915 41.7973 442.84 41.984C442.766 42.1333 442.71 42.2267 442.672 42.264C442.56 42.376 442.411 42.544 442.224 42.768C442.038 42.9547 441.851 43.1413 441.664 43.328C441.478 43.5147 441.31 43.6827 441.16 43.832C441.011 43.944 440.936 44 440.936 44H435.056V31.568C435.056 31.5307 435.187 31.4747 435.448 31.4C435.71 31.3253 435.934 31.2693 436.12 31.232C436.158 31.232 436.27 31.2133 436.456 31.176C436.68 31.1387 436.904 31.1013 437.128 31.064C437.352 30.9893 437.558 30.9333 437.744 30.896C437.968 30.8587 438.118 30.84 438.192 30.84C438.304 30.84 438.491 30.8027 438.752 30.728C439.014 30.6533 439.275 30.5787 439.536 30.504C439.835 30.4293 440.115 30.3733 440.376 30.336C440.638 30.2613 440.824 30.2053 440.936 30.168ZM449.56 20.816H454.264V14.096H460.984C460.872 14.0213 460.592 13.928 460.144 13.816C459.696 13.6667 459.398 13.592 459.248 13.592C459.174 13.592 459.006 13.5733 458.744 13.536C458.483 13.4987 458.184 13.4613 457.848 13.424C457.55 13.3867 457.27 13.3493 457.008 13.312C456.747 13.2747 456.579 13.256 456.504 13.256C456.318 13.2187 456.094 13.2 455.832 13.2C455.571 13.1627 455.328 13.1067 455.104 13.032C454.843 12.9947 454.563 12.9387 454.264 12.864V10.456H449.56V20.816ZM484.168 18.744C484.205 18.744 484.224 18.688 484.224 18.576V18.52C484.224 18.4827 484.205 18.4453 484.168 18.408C484.131 18.408 483.981 18.3707 483.72 18.296C483.459 18.184 483.272 18.1093 483.16 18.072C483.011 18.0347 482.731 17.9787 482.32 17.904C481.947 17.792 481.704 17.736 481.592 17.736V11.688H472.072V0.0959978H505.616V11.52H502.144C502.107 11.52 502.032 11.3893 501.92 11.128C501.845 10.8667 501.808 10.6427 501.808 10.456C501.808 10.4187 501.808 10.3253 501.808 10.176C501.808 9.98933 501.808 9.80267 501.808 9.616C501.808 9.392 501.808 9.20533 501.808 9.056C501.808 8.86933 501.808 8.75733 501.808 8.72L501.64 8.552C501.528 8.51467 501.472 8.45867 501.472 8.384C501.435 8.34667 501.379 8.23467 501.304 8.048C501.229 7.86133 501.173 7.74933 501.136 7.712C501.061 7.67466 500.931 7.61866 500.744 7.544C500.557 7.46933 500.445 7.41333 500.408 7.376C500.371 7.30133 500.315 7.18933 500.24 7.04C500.165 6.85333 500.109 6.72266 500.072 6.648C500.035 6.648 499.96 6.61066 499.848 6.536C499.773 6.424 499.736 6.34933 499.736 6.312C499.699 6.23733 499.587 6.06933 499.4 5.808C499.213 5.50933 499.083 5.34133 499.008 5.304C498.933 5.192 498.84 5.06133 498.728 4.912C498.616 4.76267 498.504 4.61333 498.392 4.464C498.243 4.31466 498.112 4.128 498 3.904H497.664C497.664 4.016 497.701 4.25866 497.776 4.632C497.888 4.968 497.963 5.192 498 5.304C498.037 5.304 498.093 5.36 498.168 5.472C498.28 5.54666 498.336 5.60266 498.336 5.64C498.373 5.67733 498.429 5.78933 498.504 5.976C498.616 6.16267 498.672 6.27467 498.672 6.312L499.008 6.648C499.045 6.72266 499.045 6.90933 499.008 7.208C499.008 7.46933 499.008 7.63733 499.008 7.712C499.083 7.78667 499.251 7.97333 499.512 8.272C499.811 8.53333 499.997 8.68266 500.072 8.72C500.147 8.79466 500.221 8.92533 500.296 9.112C500.371 9.26133 500.408 9.37333 500.408 9.448C500.445 9.63466 500.483 10.008 500.52 10.568C500.557 11.128 500.576 11.5013 500.576 11.688H496.096V44H493.184C493.147 43.8133 493.091 43.4773 493.016 42.992C492.941 42.4693 492.867 42.1147 492.792 41.928C492.792 41.8533 492.736 41.648 492.624 41.312C492.549 40.9387 492.493 40.6773 492.456 40.528C492.419 40.3787 492.363 40.1733 492.288 39.912C492.213 39.6507 492.157 39.52 492.12 39.52L492.008 39.464C491.971 39.464 491.933 39.4827 491.896 39.52C491.896 39.52 491.877 39.52 491.84 39.52H491.784C491.747 39.52 491.672 39.576 491.56 39.688C491.485 39.7627 491.448 39.8187 491.448 39.856C491.448 39.968 491.429 40.1547 491.392 40.416C491.355 40.6773 491.317 40.9573 491.28 41.256C491.243 41.5173 491.205 41.7787 491.168 42.04C491.131 42.3013 491.112 42.488 491.112 42.6C491.112 42.6747 491.056 42.8053 490.944 42.992C490.869 43.1413 490.795 43.2533 490.72 43.328C490.72 43.3653 490.664 43.4213 490.552 43.496C490.477 43.5707 490.421 43.6267 490.384 43.664C490.309 43.7387 490.179 43.8133 489.992 43.888C489.843 43.9627 489.749 44 489.712 44H481.76V19.808C481.76 19.7333 481.835 19.6213 481.984 19.472C482.171 19.2853 482.32 19.1733 482.432 19.136C482.581 19.0613 482.861 18.9867 483.272 18.912C483.72 18.8 484.019 18.744 484.168 18.744ZM511.785 37.784C511.785 37.784 511.803 37.7467 511.841 37.672V37.616C511.841 37.504 511.822 37.448 511.785 37.448C511.785 37.4107 511.654 37.3547 511.393 37.28C511.131 37.2053 510.926 37.1493 510.777 37.112C510.665 37.0373 510.422 36.9627 510.049 36.888C509.713 36.8133 509.489 36.7573 509.377 36.72V0.0959978H525.953C526.027 0.0959978 526.139 0.189331 526.289 0.375998C526.475 0.562664 526.606 0.693331 526.681 0.767999C526.718 0.842665 526.774 1.01066 526.849 1.272C526.923 1.53333 526.979 1.72 527.017 1.832C527.017 1.90666 527.035 2.056 527.073 2.28C527.11 2.504 527.147 2.76533 527.185 3.064C527.222 3.32533 527.259 3.58667 527.297 3.848C527.334 4.072 527.353 4.20267 527.353 4.24C527.353 4.27733 527.39 4.352 527.465 4.464C527.539 4.53866 527.614 4.576 527.689 4.576L527.857 4.632H527.969C528.006 4.632 528.025 4.61333 528.025 4.576C528.062 4.464 528.099 4.27733 528.137 4.016C528.211 3.75467 528.286 3.49333 528.361 3.232C528.473 2.93333 528.547 2.65333 528.585 2.392C528.659 2.13066 528.715 1.944 528.753 1.832C528.79 1.72 528.846 1.44 528.921 0.992C528.995 0.543999 529.051 0.245331 529.089 0.0959978H534.241L537.041 2.504C537.078 2.54133 537.227 2.54133 537.489 2.504C537.787 2.42933 538.123 2.336 538.497 2.224C538.87 2.112 539.243 2 539.617 1.888C539.99 1.73866 540.289 1.608 540.513 1.496C540.55 1.45866 540.643 1.384 540.793 1.272C540.942 1.12267 541.091 0.973332 541.241 0.823998C541.39 0.674665 541.521 0.543998 541.633 0.431997C541.745 0.282663 541.819 0.170664 541.857 0.0959978H547.401V19.136L547.065 19.472C546.99 19.5467 546.859 19.6213 546.673 19.696C546.523 19.7707 546.411 19.808 546.337 19.808C546.299 19.8453 546.131 19.8453 545.833 19.808C545.571 19.7707 545.403 19.7707 545.329 19.808C545.291 19.8453 545.217 19.9013 545.105 19.976C545.03 20.0507 544.993 20.1067 544.993 20.144C545.067 20.1813 545.179 20.256 545.329 20.368C545.478 20.4427 545.59 20.48 545.665 20.48C545.739 20.5173 545.963 20.5733 546.337 20.648C546.747 20.7227 546.99 20.7787 547.065 20.816C547.139 20.8533 547.214 20.9093 547.289 20.984C547.363 21.0587 547.401 21.1333 547.401 21.208V44H509.377V38.792C509.377 38.7547 509.47 38.6613 509.657 38.512C509.843 38.3253 509.974 38.1947 510.049 38.12C510.198 38.0453 510.478 37.9707 510.889 37.896C511.337 37.8213 511.635 37.784 511.785 37.784ZM523.545 32.24H533.401V28.544C533.438 28.544 533.513 28.5253 533.625 28.488C533.774 28.4507 533.867 28.432 533.905 28.432C533.979 28.4693 534.203 28.6 534.577 28.824C534.987 29.0107 535.23 29.1227 535.305 29.16H535.921H536.705C536.742 29.16 536.854 29.1413 537.041 29.104C537.265 29.0293 537.489 28.9733 537.713 28.936C537.937 28.8987 538.142 28.8613 538.329 28.824C538.553 28.7867 538.702 28.768 538.777 28.768C539.001 28.768 539.374 28.768 539.897 28.768C540.419 28.7307 540.979 28.712 541.577 28.712C542.211 28.712 542.79 28.712 543.313 28.712C543.835 28.6747 544.209 28.656 544.433 28.656C544.433 28.5813 544.377 28.5067 544.265 28.432C544.227 28.3947 544.115 28.3387 543.929 28.264C543.779 28.1893 543.667 28.1333 543.593 28.096C543.443 28.0587 543.145 28.0027 542.697 27.928C542.249 27.816 541.969 27.76 541.857 27.76C541.633 27.76 541.222 27.7413 540.625 27.704C540.065 27.6667 539.449 27.6293 538.777 27.592C538.105 27.5547 537.47 27.5173 536.873 27.48C536.275 27.4427 535.865 27.424 535.641 27.424L533.401 25.352V11.856H523.545V32.24ZM554.613 23.616C554.538 23.616 554.37 23.5787 554.109 23.504C553.885 23.4293 553.642 23.3547 553.381 23.28C553.157 23.2053 552.914 23.1307 552.653 23.056C552.429 22.9813 552.28 22.9253 552.205 22.888C552.13 22.888 552.056 22.8507 551.981 22.776C551.906 22.7013 551.869 22.6267 551.869 22.552V0.0959978H587.821V11.688H566.205V15.664C566.056 15.5893 565.738 15.4213 565.253 15.16C564.805 14.8613 564.488 14.6747 564.301 14.6H564.021H563.629C563.554 14.6 563.424 14.6187 563.237 14.656C563.05 14.6933 562.826 14.7307 562.565 14.768C562.341 14.8053 562.117 14.8427 561.893 14.88C561.706 14.9173 561.594 14.936 561.557 14.936C561.445 14.9733 561.258 15.0107 560.997 15.048C560.773 15.0853 560.53 15.1227 560.269 15.16C560.045 15.1973 559.821 15.2347 559.597 15.272C559.373 15.3093 559.224 15.328 559.149 15.328H558.981H558.757C558.645 15.328 558.44 15.3093 558.141 15.272C557.842 15.2347 557.525 15.1973 557.189 15.16C556.89 15.1227 556.592 15.0853 556.293 15.048C555.994 15.0107 555.789 14.9733 555.677 14.936L555.341 15.328C555.341 15.3653 555.378 15.4213 555.453 15.496C555.565 15.5707 555.64 15.6267 555.677 15.664C555.752 15.664 555.957 15.72 556.293 15.832C556.629 15.9067 556.89 15.9627 557.077 16C557.189 16 557.338 16.0187 557.525 16.056C557.749 16.0933 557.973 16.1307 558.197 16.168C558.421 16.2053 558.608 16.2427 558.757 16.28C558.944 16.3173 559.074 16.336 559.149 16.336C559.336 16.336 559.672 16.3547 560.157 16.392C560.642 16.4293 561.146 16.4667 561.669 16.504C562.229 16.5413 562.752 16.5787 563.237 16.616C563.76 16.6533 564.114 16.672 564.301 16.672L566.205 18.408V32.408H587.821V44H578.805C578.768 44 578.656 43.9627 578.469 43.888C578.32 43.8133 578.208 43.7387 578.133 43.664C578.058 43.5893 577.946 43.4773 577.797 43.328C577.648 43.1413 577.536 43.0107 577.461 42.936C577.461 42.824 577.442 42.656 577.405 42.432C577.368 42.1707 577.33 41.8907 577.293 41.592C577.256 41.2933 577.218 41.0133 577.181 40.752C577.144 40.4907 577.125 40.304 577.125 40.192C577.088 40.1173 577.032 39.9867 576.957 39.8C576.882 39.6133 576.808 39.52 576.733 39.52C576.733 39.4827 576.677 39.464 576.565 39.464C576.49 39.4267 576.416 39.408 576.341 39.408C576.304 39.408 576.248 39.4267 576.173 39.464C576.098 39.464 576.061 39.4827 576.061 39.52L575.053 44H551.869V26.024C551.869 25.9867 551.962 25.8 552.149 25.464C552.336 25.0907 552.466 24.8107 552.541 24.624C552.616 24.5493 552.672 24.4747 552.709 24.4C552.784 24.3253 552.858 24.288 552.933 24.288C553.045 24.2507 553.306 24.1947 553.717 24.12C554.165 24.0453 554.464 23.9893 554.613 23.952V23.616ZM597.507 30.168C597.432 30.1307 597.264 30.0747 597.003 30C596.741 29.9253 596.555 29.8693 596.443 29.832C596.368 29.832 596.181 29.7947 595.883 29.72C595.584 29.6453 595.248 29.5707 594.875 29.496C594.539 29.4213 594.221 29.3653 593.923 29.328C593.624 29.2533 593.437 29.1973 593.363 29.16L591.963 27.76C591.888 27.6853 591.813 27.5733 591.739 27.424C591.664 27.2373 591.627 27.1253 591.627 27.088V0.0959978H625.171V25.184H621.363V27.256H625.171V44H610.835V28.096H605.963V44H600.531C600.531 43.9253 600.531 43.7573 600.531 43.496C600.568 43.2347 600.587 43.048 600.587 42.936C600.624 42.8987 600.699 42.7493 600.811 42.488C600.923 42.1893 600.979 42.0027 600.979 41.928V39.968V37.784C600.979 37.6347 600.96 37.336 600.923 36.888C600.885 36.44 600.848 35.992 600.811 35.544C600.773 35.0587 600.736 34.6107 600.699 34.2C600.661 33.752 600.624 33.4533 600.587 33.304C600.587 33.2293 600.549 33.0053 600.475 32.632C600.4 32.2587 600.325 32.016 600.251 31.904C600.251 31.8293 600.195 31.7173 600.083 31.568C600.008 31.3813 599.952 31.2693 599.915 31.232V40.192C599.915 40.2667 599.877 40.472 599.803 40.808C599.728 41.144 599.653 41.4053 599.579 41.592C599.541 41.6667 599.485 41.7973 599.411 41.984C599.336 42.1333 599.28 42.2267 599.243 42.264C599.131 42.376 598.981 42.544 598.795 42.768C598.608 42.9547 598.421 43.1413 598.235 43.328C598.048 43.5147 597.88 43.6827 597.731 43.832C597.581 43.944 597.507 44 597.507 44H591.627V31.568C591.627 31.5307 591.757 31.4747 592.019 31.4C592.28 31.3253 592.504 31.2693 592.691 31.232C592.728 31.232 592.84 31.2133 593.027 31.176C593.251 31.1387 593.475 31.1013 593.699 31.064C593.923 30.9893 594.128 30.9333 594.315 30.896C594.539 30.8587 594.688 30.84 594.763 30.84C594.875 30.84 595.061 30.8027 595.323 30.728C595.584 30.6533 595.845 30.5787 596.107 30.504C596.405 30.4293 596.685 30.3733 596.947 30.336C597.208 30.2613 597.395 30.2053 597.507 30.168ZM606.131 16H610.835V14.096H617.555C617.443 14.0213 617.163 13.928 616.715 13.816C616.267 13.6667 615.968 13.592 615.819 13.592C615.744 13.592 615.576 13.5733 615.315 13.536C615.053 13.4987 614.755 13.4613 614.419 13.424C614.12 13.3867 613.84 13.3493 613.579 13.312C613.317 13.2747 613.149 13.256 613.075 13.256C612.888 13.2187 612.664 13.2 612.403 13.2C612.141 13.1627 611.899 13.1067 611.675 13.032C611.413 12.9947 611.133 12.9387 610.835 12.864V11.856H606.131V16ZM653.491 0.0959978C653.565 0.207999 653.715 0.357332 653.939 0.543999C654.2 0.693332 654.387 0.767999 654.499 0.767999C654.648 0.767999 654.891 0.693332 655.227 0.543999C655.6 0.357332 655.824 0.207999 655.899 0.0959978H663.179V34.48C663.104 34.48 662.917 34.4613 662.619 34.424C662.357 34.3867 662.189 34.3493 662.115 34.312C662.04 34.312 661.816 34.2 661.443 33.976C661.069 33.752 660.845 33.64 660.771 33.64C660.659 33.64 660.435 33.6213 660.099 33.584C659.763 33.5467 659.389 33.5093 658.979 33.472C658.605 33.4347 658.213 33.3973 657.803 33.36C657.429 33.3227 657.149 33.304 656.963 33.304C656.925 33.304 656.795 33.304 656.571 33.304C656.384 33.304 656.16 33.304 655.899 33.304C655.675 33.2667 655.432 33.248 655.171 33.248C654.947 33.248 654.76 33.248 654.611 33.248C654.461 33.248 654.256 33.248 653.995 33.248C653.771 33.248 653.547 33.2667 653.323 33.304C653.099 33.304 652.893 33.304 652.707 33.304C652.557 33.304 652.464 33.304 652.427 33.304C652.389 33.304 652.24 33.3413 651.979 33.416C651.717 33.4907 651.531 33.5653 651.419 33.64C651.307 33.7147 651.064 33.8267 650.691 33.976C650.317 34.1253 650.093 34.2373 650.019 34.312L649.683 34.648C649.645 34.7227 649.627 34.7787 649.627 34.816V35.04C649.627 35.0773 649.627 35.1333 649.627 35.208C649.664 35.2827 649.683 35.3387 649.683 35.376C649.72 35.3013 649.776 35.2267 649.851 35.152C649.925 35.0773 649.981 35.04 650.019 35.04C650.093 34.9653 650.205 34.8907 650.355 34.816C650.541 34.7413 650.672 34.6853 650.747 34.648C650.859 34.5733 651.083 34.4987 651.419 34.424C651.792 34.3493 652.016 34.312 652.091 34.312H654.163H656.235C656.272 34.312 656.384 34.3307 656.571 34.368C656.757 34.368 656.963 34.3867 657.187 34.424C657.411 34.4613 657.616 34.4987 657.803 34.536C658.027 34.5733 658.195 34.6107 658.307 34.648C658.381 34.6853 658.549 34.7413 658.811 34.816C659.109 34.8907 659.296 34.9653 659.371 35.04C659.445 35.0773 659.613 35.1893 659.875 35.376C660.173 35.5627 660.341 35.6747 660.379 35.712C660.453 35.7493 660.677 35.8053 661.051 35.88C661.461 35.9547 661.704 36.0107 661.779 36.048C661.853 36.1227 661.965 36.1973 662.115 36.272C662.301 36.3093 662.469 36.3653 662.619 36.44C662.768 36.552 662.955 36.6453 663.179 36.72V44H648.843V32.24H643.971V44.112C643.821 44.112 643.579 44.112 643.243 44.112C642.907 44.112 642.533 44.0933 642.123 44.056C641.749 44.056 641.395 44.0373 641.059 44C640.723 44 640.48 44 640.331 44C640.144 43.9627 639.789 43.9067 639.267 43.832C638.744 43.7573 638.408 43.7013 638.259 43.664C638.184 43.6267 637.96 43.496 637.587 43.272C637.213 43.048 636.989 42.936 636.915 42.936C636.728 42.9733 636.467 43.1227 636.131 43.384C635.795 43.6453 635.589 43.8507 635.515 44H629.635V0.0959978H653.491ZM644.139 21.544H648.675V10.456H644.139V21.544ZM700.85 0.0959978V11.52H692.17V8.72C692.133 8.72 692.077 8.68266 692.002 8.608C691.928 8.496 691.872 8.42133 691.834 8.384C691.797 8.34667 691.741 8.23467 691.666 8.048C691.592 7.86133 691.536 7.74933 691.498 7.712C691.461 7.67466 691.349 7.61866 691.162 7.544C690.976 7.46933 690.864 7.41333 690.826 7.376C690.752 7.30133 690.677 7.18933 690.602 7.04C690.528 6.85333 690.472 6.72266 690.434 6.648L690.098 6.312C690.061 6.23733 689.949 6.06933 689.762 5.808C689.576 5.50933 689.464 5.34133 689.426 5.304C689.352 5.192 689.24 5.06133 689.09 4.912C688.978 4.76267 688.866 4.61333 688.754 4.464C688.605 4.31466 688.474 4.128 688.362 3.904H688.026C688.064 4.016 688.12 4.25866 688.194 4.632C688.269 4.968 688.325 5.192 688.362 5.304C688.4 5.304 688.456 5.36 688.53 5.472C688.642 5.54666 688.717 5.60266 688.754 5.64C688.754 5.67733 688.792 5.78933 688.866 5.976C688.978 6.16267 689.053 6.27467 689.09 6.312C689.09 6.38667 689.146 6.44267 689.258 6.48L689.426 6.648C689.464 6.72266 689.464 6.90933 689.426 7.208C689.389 7.46933 689.389 7.63733 689.426 7.712C689.464 7.78667 689.632 7.97333 689.93 8.272C690.229 8.53333 690.397 8.68266 690.434 8.72C690.509 8.79466 690.584 8.92533 690.658 9.112C690.77 9.26133 690.826 9.37333 690.826 9.448V10.456V11.184L690.098 11.688H682.146V16.168H700.85V27.76H690.378C690.378 27.6853 690.378 27.5733 690.378 27.424C690.416 27.2373 690.434 27.1253 690.434 27.088C690.472 26.976 690.528 26.7333 690.602 26.36C690.714 25.9867 690.826 25.5947 690.938 25.184C691.088 24.736 691.2 24.3253 691.274 23.952C691.386 23.5787 691.461 23.3547 691.498 23.28C691.498 23.2427 691.498 23.1867 691.498 23.112C691.536 23.0373 691.554 22.9627 691.554 22.888C691.554 22.8507 691.536 22.7947 691.498 22.72C691.498 22.6453 691.498 22.5893 691.498 22.552C691.386 22.6267 691.2 22.7947 690.938 23.056C690.677 23.3173 690.509 23.504 690.434 23.616C690.36 23.7653 690.21 24.0453 689.986 24.456C689.8 24.8667 689.594 25.296 689.37 25.744C689.146 26.192 688.941 26.64 688.754 27.088C688.568 27.4987 688.437 27.7787 688.362 27.928H681.978V44H667.642V0.0959978H700.85ZM716.371 18.744C716.408 18.744 716.427 18.688 716.427 18.576V18.52C716.427 18.4827 716.408 18.4453 716.371 18.408C716.334 18.408 716.184 18.3707 715.923 18.296C715.662 18.184 715.475 18.1093 715.363 18.072C715.214 18.0347 714.934 17.9787 714.523 17.904C714.15 17.792 713.907 17.736 713.795 17.736V11.688H704.275V0.0959978H737.819V11.52H734.347C734.31 11.52 734.235 11.3893 734.123 11.128C734.048 10.8667 734.011 10.6427 734.011 10.456C734.011 10.4187 734.011 10.3253 734.011 10.176C734.011 9.98933 734.011 9.80267 734.011 9.616C734.011 9.392 734.011 9.20533 734.011 9.056C734.011 8.86933 734.011 8.75733 734.011 8.72L733.843 8.552C733.731 8.51467 733.675 8.45867 733.675 8.384C733.638 8.34667 733.582 8.23467 733.507 8.048C733.432 7.86133 733.376 7.74933 733.339 7.712C733.264 7.67466 733.134 7.61866 732.947 7.544C732.76 7.46933 732.648 7.41333 732.611 7.376C732.574 7.30133 732.518 7.18933 732.443 7.04C732.368 6.85333 732.312 6.72266 732.275 6.648C732.238 6.648 732.163 6.61066 732.051 6.536C731.976 6.424 731.939 6.34933 731.939 6.312C731.902 6.23733 731.79 6.06933 731.603 5.808C731.416 5.50933 731.286 5.34133 731.211 5.304C731.136 5.192 731.043 5.06133 730.931 4.912C730.819 4.76267 730.707 4.61333 730.595 4.464C730.446 4.31466 730.315 4.128 730.203 3.904H729.867C729.867 4.016 729.904 4.25866 729.979 4.632C730.091 4.968 730.166 5.192 730.203 5.304C730.24 5.304 730.296 5.36 730.371 5.472C730.483 5.54666 730.539 5.60266 730.539 5.64C730.576 5.67733 730.632 5.78933 730.707 5.976C730.819 6.16267 730.875 6.27467 730.875 6.312L731.211 6.648C731.248 6.72266 731.248 6.90933 731.211 7.208C731.211 7.46933 731.211 7.63733 731.211 7.712C731.286 7.78667 731.454 7.97333 731.715 8.272C732.014 8.53333 732.2 8.68266 732.275 8.72C732.35 8.79466 732.424 8.92533 732.499 9.112C732.574 9.26133 732.611 9.37333 732.611 9.448C732.648 9.63466 732.686 10.008 732.723 10.568C732.76 11.128 732.779 11.5013 732.779 11.688H728.299V44H725.387C725.35 43.8133 725.294 43.4773 725.219 42.992C725.144 42.4693 725.07 42.1147 724.995 41.928C724.995 41.8533 724.939 41.648 724.827 41.312C724.752 40.9387 724.696 40.6773 724.659 40.528C724.622 40.3787 724.566 40.1733 724.491 39.912C724.416 39.6507 724.36 39.52 724.323 39.52L724.211 39.464C724.174 39.464 724.136 39.4827 724.099 39.52C724.099 39.52 724.08 39.52 724.043 39.52H723.987C723.95 39.52 723.875 39.576 723.763 39.688C723.688 39.7627 723.651 39.8187 723.651 39.856C723.651 39.968 723.632 40.1547 723.595 40.416C723.558 40.6773 723.52 40.9573 723.483 41.256C723.446 41.5173 723.408 41.7787 723.371 42.04C723.334 42.3013 723.315 42.488 723.315 42.6C723.315 42.6747 723.259 42.8053 723.147 42.992C723.072 43.1413 722.998 43.2533 722.923 43.328C722.923 43.3653 722.867 43.4213 722.755 43.496C722.68 43.5707 722.624 43.6267 722.587 43.664C722.512 43.7387 722.382 43.8133 722.195 43.888C722.046 43.9627 721.952 44 721.915 44H713.963V19.808C713.963 19.7333 714.038 19.6213 714.187 19.472C714.374 19.2853 714.523 19.1733 714.635 19.136C714.784 19.0613 715.064 18.9867 715.475 18.912C715.923 18.8 716.222 18.744 716.371 18.744Z" fill="#B38539"/>
</svg>
