<svg width="825" height="45" viewBox="0 0 825 45" fill="none" xmlns="http://www.w3.org/2000/svg">
<path d="M0.361063 38.624V23.952C0.361063 23.9147 0.454396 23.8587 0.641063 23.784C0.827729 23.672 0.958396 23.616 1.03306 23.616C1.14506 23.5787 1.36906 23.5973 1.70506 23.672C2.0784 23.7093 2.32106 23.728 2.43306 23.728V22.888C2.32106 22.888 2.0784 22.8507 1.70506 22.776C1.36906 22.7013 1.14506 22.6267 1.03306 22.552C0.958396 22.5147 0.827729 22.4587 0.641063 22.384C0.454396 22.3093 0.361063 22.2533 0.361063 22.216V0.0959978H14.1931V15.104C14.1184 15.104 13.9877 15.0853 13.8011 15.048C13.6517 15.0107 13.5584 14.9733 13.5211 14.936C13.4464 14.936 13.2597 14.8427 12.9611 14.656C12.6997 14.432 12.5317 14.3013 12.4571 14.264C12.3824 14.2267 12.3077 14.1893 12.2331 14.152C12.1957 14.1147 12.1397 14.0773 12.0651 14.04C11.9531 14.0027 11.8597 13.9653 11.7851 13.928C11.7104 13.928 11.5611 13.9467 11.3371 13.984C11.1504 14.0213 10.9451 14.0587 10.7211 14.096C10.4971 14.1333 10.2731 14.1707 10.0491 14.208C9.8624 14.2453 9.7504 14.264 9.71306 14.264C9.5264 14.3013 9.3024 14.3387 9.04106 14.376C8.77973 14.4133 8.5184 14.4507 8.25706 14.488C7.99573 14.5253 7.77173 14.5627 7.58506 14.6C7.3984 14.6 7.2864 14.6 7.24906 14.6C7.09973 14.6 6.81973 14.6187 6.40906 14.656C6.03573 14.656 5.62506 14.656 5.17706 14.656C4.72906 14.656 4.29973 14.656 3.88906 14.656C3.51573 14.6187 3.2544 14.6 3.10506 14.6C3.1424 14.6747 3.1984 14.7493 3.27306 14.824C3.34773 14.8987 3.4224 14.936 3.49706 14.936C3.5344 15.0107 3.68373 15.0853 3.94506 15.16C4.2064 15.1973 4.39306 15.2533 4.50506 15.328C4.57973 15.3653 4.7104 15.4027 4.89706 15.44C5.08373 15.4773 5.2704 15.5147 5.45706 15.552C5.64373 15.5893 5.81173 15.6267 5.96106 15.664C6.1104 15.664 6.20373 15.664 6.24106 15.664C6.46506 15.664 6.8384 15.6827 7.36106 15.72C7.92106 15.7573 8.5184 15.7947 9.15306 15.832C9.78773 15.8693 10.3851 15.9067 10.9451 15.944C11.5051 15.9813 11.8971 16 12.1211 16C12.1957 16.0747 12.3077 16.1867 12.4571 16.336C12.6437 16.4853 12.8117 16.6533 12.9611 16.84C13.1477 17.0267 13.3157 17.2133 13.4651 17.4C13.6517 17.5493 13.7824 17.6613 13.8571 17.736C13.8944 17.8107 13.9317 17.8853 13.9691 17.96C14.0437 17.9973 14.1184 18.0533 14.1931 18.128C14.2677 18.24 14.3237 18.3333 14.3611 18.408V32.24H21.9771V30.504H28.0251L28.3611 30.168H26.9611C26.7744 30.168 26.4944 30.1493 26.1211 30.112C25.7477 30.0747 25.3557 30.0373 24.9451 30C24.5344 29.9627 24.1611 29.9253 23.8251 29.888C23.4891 29.8507 23.2651 29.832 23.1531 29.832C23.0037 29.7947 22.7984 29.7387 22.5371 29.664C22.2757 29.5893 22.1451 29.5333 22.1451 29.496V0.0959978H35.9771V38.624H30.6011V44.336C30.4891 44.336 30.2837 44.3173 29.9851 44.28C29.7237 44.28 29.4437 44.2613 29.1451 44.224C28.8464 44.1867 28.5477 44.1493 28.2491 44.112C27.9877 44.0747 27.8011 44.0373 27.6891 44C27.6144 43.9627 27.3157 43.8133 26.7931 43.552C26.2704 43.2907 25.8784 43.0853 25.6171 42.936C25.5424 42.8987 25.3557 42.7867 25.0571 42.6C24.7957 42.4133 24.6277 42.3013 24.5531 42.264C24.5157 42.264 24.4411 42.2827 24.3291 42.32C24.2171 42.32 24.1424 42.32 24.1051 42.32C24.1051 42.3947 24.1237 42.5627 24.1611 42.824C24.2357 43.0853 24.2544 43.2533 24.2171 43.328C24.1797 43.4027 24.1237 43.5333 24.0491 43.72C23.9744 43.9067 23.9184 44 23.8811 44H5.73706V38.624H0.361063ZM42.5269 37.784C42.5269 37.784 42.5455 37.7467 42.5829 37.672V37.616C42.5829 37.504 42.5642 37.448 42.5269 37.448C42.5269 37.4107 42.3962 37.3547 42.1349 37.28C41.8735 37.2053 41.6682 37.1493 41.5189 37.112C41.4069 37.0373 41.1642 36.9627 40.7909 36.888C40.4549 36.8133 40.2309 36.7573 40.1189 36.72V0.0959978H54.4549V5.472H59.6629V10.624H65.2069V16H67.2789V8.72C67.4282 8.75733 67.7269 8.79467 68.1749 8.832C68.6229 8.86933 69.0895 8.90666 69.5749 8.944C70.0975 8.98133 70.5642 9.01867 70.9749 9.056C71.4229 9.09333 71.7402 9.112 71.9269 9.112C72.0762 9.112 72.3189 9.112 72.6549 9.112C72.9909 9.07467 73.3455 9.056 73.7189 9.056C74.0922 9.056 74.4469 9.056 74.7829 9.056C75.1562 9.01867 75.4175 9 75.5669 9C75.5669 8.96266 75.6042 8.92533 75.6789 8.888C75.7535 8.85067 75.7722 8.79466 75.7349 8.72C75.6975 8.72 75.5482 8.68266 75.2869 8.608C75.0255 8.496 74.8202 8.42133 74.6709 8.384C74.5215 8.34667 74.3162 8.29066 74.0549 8.216C73.7935 8.104 73.5322 8.02933 73.2709 7.992C73.0095 7.91733 72.7669 7.86133 72.5429 7.824C72.3562 7.74933 72.2629 7.712 72.2629 7.712C72.1882 7.712 71.9829 7.69333 71.6469 7.656C71.3109 7.61866 70.9375 7.58133 70.5269 7.544C70.1535 7.50667 69.7989 7.46933 69.4629 7.432C69.1269 7.39466 68.9029 7.376 68.7909 7.376C68.7162 7.33866 68.5482 7.28267 68.2869 7.208C68.0255 7.13333 67.8575 7.07733 67.7829 7.04C67.7082 6.96533 67.6335 6.90933 67.5589 6.872C67.4842 6.79733 67.4469 6.72266 67.4469 6.648V0.0959978H80.8869V44H72.9349C72.8975 44 72.7855 43.9067 72.5989 43.72C72.4495 43.5333 72.3375 43.4027 72.2629 43.328C72.2255 43.2533 72.1695 43.1413 72.0949 42.992C72.0202 42.8053 71.9642 42.6747 71.9269 42.6C71.8895 42.5253 71.8149 42.32 71.7029 41.984C71.6282 41.6107 71.5909 41.368 71.5909 41.256C71.5909 41.1813 71.5722 41.032 71.5349 40.808C71.4975 40.5467 71.4602 40.2853 71.4229 40.024C71.3855 39.7627 71.3482 39.52 71.3109 39.296C71.2735 39.0347 71.2549 38.8667 71.2549 38.792C71.1802 38.5307 71.1055 38.1947 71.0309 37.784C70.9562 37.336 70.9002 37.112 70.8629 37.112H70.5269C70.5269 37.2987 70.5082 37.6533 70.4709 38.176C70.4335 38.6987 70.3962 39.2587 70.3589 39.856C70.3215 40.416 70.2842 40.9573 70.2469 41.48C70.2095 42.0027 70.1909 42.376 70.1909 42.6C70.1535 42.824 70.0975 43.1227 70.0229 43.496C69.9482 43.832 69.8922 44 69.8549 44H67.2789V38.624H61.7349V33.472H56.1909V28.096H54.1189V44H40.1189V38.792C40.1189 38.7547 40.2122 38.6613 40.3989 38.512C40.5855 38.3253 40.7162 38.1947 40.7909 38.12C40.9402 38.0453 41.2202 37.9707 41.6309 37.896C42.0789 37.8213 42.3775 37.784 42.5269 37.784ZM90.2161 15.552C90.2161 15.5147 90.2348 15.496 90.2721 15.496C90.2721 15.496 90.2535 15.4587 90.2161 15.384V15.328C90.2161 15.2533 90.1601 15.1787 90.0481 15.104C89.9735 15.0293 89.9175 14.9733 89.8801 14.936C89.7308 14.8613 89.4695 14.7493 89.0961 14.6C88.7601 14.4133 88.5735 14.3013 88.5361 14.264C88.4241 14.2267 88.2375 14.1893 87.9761 14.152C87.7148 14.1147 87.4348 14.0773 87.1361 14.04C86.8375 14.0027 86.5575 13.984 86.2961 13.984C86.0348 13.9467 85.8481 13.928 85.7361 13.928L85.4001 13.592V0.0959978H99.4001V32.408H108.584C108.659 32.5947 108.715 32.7627 108.752 32.912C108.827 33.2853 108.883 33.528 108.92 33.64V34.032V34.312C108.883 34.3867 108.771 34.5173 108.584 34.704C108.397 34.8533 108.267 34.9653 108.192 35.04C108.192 35.0773 108.136 35.1893 108.024 35.376C107.912 35.5253 107.8 35.6933 107.688 35.88C107.576 36.0667 107.464 36.2533 107.352 36.44C107.277 36.5893 107.221 36.6827 107.184 36.72C107.109 36.8693 106.885 37.1307 106.512 37.504C106.176 37.84 105.933 38.0453 105.784 38.12C105.859 38.12 106.008 38.1387 106.232 38.176C106.456 38.176 106.605 38.176 106.68 38.176C106.755 38.176 106.904 38.176 107.128 38.176C107.352 38.1387 107.483 38.12 107.52 38.12C107.557 38.12 107.651 38.0267 107.8 37.84C107.987 37.6533 108.117 37.5227 108.192 37.448C108.341 37.2987 108.547 37.056 108.808 36.72C109.069 36.3467 109.219 36.1227 109.256 36.048C109.293 36.0107 109.349 35.8613 109.424 35.6C109.499 35.3387 109.555 35.152 109.592 35.04C109.629 34.928 109.667 34.76 109.704 34.536C109.779 34.312 109.853 34.0693 109.928 33.808C110.003 33.5467 110.077 33.304 110.152 33.08C110.227 32.856 110.264 32.688 110.264 32.576H118.216V44H85.4001V16.336C85.4001 16.2987 85.4935 16.2427 85.6801 16.168C85.8668 16.0933 85.9975 16.0373 86.0721 16C86.2215 15.9627 86.4828 15.9253 86.8561 15.888C87.2668 15.8507 87.6961 15.8133 88.1441 15.776C88.5921 15.7387 89.0028 15.72 89.3761 15.72C89.7868 15.6827 90.0668 15.664 90.2161 15.664V15.552ZM121.713 34.312C121.825 34.312 122.011 34.2933 122.273 34.256C122.534 34.2187 122.795 34.1813 123.057 34.144C123.355 34.1067 123.635 34.0693 123.897 34.032C124.158 33.9947 124.345 33.976 124.457 33.976C124.606 33.9387 124.942 33.8827 125.465 33.808C125.987 33.7333 126.342 33.6773 126.529 33.64C126.678 33.6027 126.977 33.5467 127.425 33.472C127.873 33.3973 128.153 33.3413 128.265 33.304L121.713 32.52V13.928C121.713 13.8907 121.75 13.8347 121.825 13.76C121.899 13.648 121.974 13.592 122.049 13.592C122.123 13.5547 122.329 13.4987 122.665 13.424C123.001 13.3493 123.262 13.2933 123.449 13.256C123.598 13.1813 123.934 13.1067 124.457 13.032C124.979 12.9573 125.334 12.9013 125.521 12.864C125.595 12.864 125.782 12.864 126.081 12.864C126.379 12.8267 126.697 12.7893 127.033 12.752C127.406 12.7147 127.742 12.6773 128.041 12.64C128.339 12.6027 128.526 12.5653 128.601 12.528C128.675 12.528 128.806 12.4907 128.993 12.416C129.179 12.304 129.291 12.2293 129.329 12.192C129.441 12.1547 129.721 12.0987 130.169 12.024C130.617 11.9493 130.915 11.8933 131.065 11.856V11.52C131.065 11.52 130.99 11.5013 130.841 11.464C130.691 11.4267 130.505 11.3893 130.281 11.352C130.057 11.3147 129.814 11.2773 129.553 11.24C129.329 11.2027 129.142 11.184 128.993 11.184C128.769 11.184 128.377 11.184 127.817 11.184C127.257 11.1467 126.659 11.128 126.025 11.128C125.427 11.128 124.849 11.1467 124.289 11.184C123.729 11.184 123.337 11.184 123.113 11.184C123.038 11.1467 122.907 11.0907 122.721 11.016C122.571 10.9413 122.459 10.8667 122.385 10.792C122.347 10.792 122.291 10.7547 122.217 10.68C122.142 10.568 122.086 10.4933 122.049 10.456C121.974 10.3813 121.899 10.2693 121.825 10.12C121.75 9.93333 121.713 9.82133 121.713 9.784V0.0959978H154.921V11.688H136.217V16.168H144.897C144.971 16.168 145.139 16.336 145.401 16.672C145.662 16.9707 145.83 17.2133 145.905 17.4C145.942 17.512 145.998 17.6987 146.073 17.96C146.147 18.184 146.222 18.4453 146.297 18.744C146.371 19.0427 146.427 19.3227 146.465 19.584C146.539 19.8453 146.577 20.032 146.577 20.144C146.614 20.032 146.67 19.8453 146.745 19.584C146.857 19.3227 146.969 19.0427 147.081 18.744C147.193 18.4453 147.286 18.1653 147.361 17.904C147.473 17.6427 147.566 17.4747 147.641 17.4C147.715 17.2133 147.883 16.9893 148.145 16.728C148.406 16.4667 148.574 16.336 148.649 16.336H154.921V27.928H136.217V32.408H154.921V44H149.041C149.003 44 148.947 43.9627 148.873 43.888C148.798 43.8133 148.723 43.7387 148.649 43.664C148.611 43.5893 148.555 43.4773 148.481 43.328C148.406 43.1413 148.35 43.0107 148.313 42.936C148.313 42.8987 148.257 42.6187 148.145 42.096C148.07 41.5733 148.014 41.1627 147.977 40.864C147.977 40.7893 147.958 40.64 147.921 40.416C147.883 40.192 147.846 39.9493 147.809 39.688C147.771 39.4267 147.734 39.184 147.697 38.96C147.659 38.736 147.641 38.568 147.641 38.456C147.603 38.4933 147.529 38.5493 147.417 38.624C147.342 38.6987 147.305 38.7547 147.305 38.792C147.267 38.8667 147.193 39.0907 147.081 39.464C147.006 39.8373 146.969 40.08 146.969 40.192C146.931 40.3413 146.894 40.6027 146.857 40.976C146.819 41.312 146.782 41.6853 146.745 42.096C146.707 42.5067 146.67 42.8987 146.633 43.272C146.595 43.608 146.577 43.8507 146.577 44H133.137C133.099 44 132.95 43.9067 132.689 43.72C132.427 43.5333 132.222 43.4027 132.073 43.328C132.073 43.2907 132.017 43.2347 131.905 43.16C131.83 43.0853 131.774 43.0107 131.737 42.936C131.625 42.7867 131.438 42.544 131.177 42.208C130.915 41.872 130.747 41.6667 130.673 41.592C130.598 41.48 130.505 41.312 130.393 41.088C130.318 40.864 130.225 40.64 130.113 40.416C130.001 40.192 129.889 40.0053 129.777 39.856C129.702 39.6693 129.665 39.5573 129.665 39.52C129.627 39.3333 129.59 39.016 129.553 38.568C129.515 38.0827 129.478 37.5973 129.441 37.112C129.403 36.5893 129.366 36.104 129.329 35.656C129.329 35.1707 129.329 34.8347 129.329 34.648C129.291 34.7973 129.235 35.0773 129.161 35.488C129.086 35.8613 129.011 36.272 128.937 36.72C128.862 37.168 128.787 37.5973 128.713 38.008C128.675 38.3813 128.638 38.6427 128.601 38.792V42.936L127.593 44H121.713V34.312ZM182.92 0.0959978C182.995 0.207999 183.144 0.357332 183.368 0.543999C183.63 0.693332 183.816 0.767999 183.928 0.767999C184.078 0.767999 184.32 0.693332 184.656 0.543999C185.03 0.357332 185.254 0.207999 185.328 0.0959978H192.608V34.48C192.534 34.48 192.347 34.4613 192.048 34.424C191.787 34.3867 191.619 34.3493 191.544 34.312C191.47 34.312 191.246 34.2 190.872 33.976C190.499 33.752 190.275 33.64 190.2 33.64C190.088 33.64 189.864 33.6213 189.528 33.584C189.192 33.5467 188.819 33.5093 188.408 33.472C188.035 33.4347 187.643 33.3973 187.232 33.36C186.859 33.3227 186.579 33.304 186.392 33.304C186.355 33.304 186.224 33.304 186 33.304C185.814 33.304 185.59 33.304 185.328 33.304C185.104 33.2667 184.862 33.248 184.6 33.248C184.376 33.248 184.19 33.248 184.04 33.248C183.891 33.248 183.686 33.248 183.424 33.248C183.2 33.248 182.976 33.2667 182.752 33.304C182.528 33.304 182.323 33.304 182.136 33.304C181.987 33.304 181.894 33.304 181.856 33.304C181.819 33.304 181.67 33.3413 181.408 33.416C181.147 33.4907 180.96 33.5653 180.848 33.64C180.736 33.7147 180.494 33.8267 180.12 33.976C179.747 34.1253 179.523 34.2373 179.448 34.312L179.112 34.648C179.075 34.7227 179.056 34.7787 179.056 34.816V35.04C179.056 35.0773 179.056 35.1333 179.056 35.208C179.094 35.2827 179.112 35.3387 179.112 35.376C179.15 35.3013 179.206 35.2267 179.28 35.152C179.355 35.0773 179.411 35.04 179.448 35.04C179.523 34.9653 179.635 34.8907 179.784 34.816C179.971 34.7413 180.102 34.6853 180.176 34.648C180.288 34.5733 180.512 34.4987 180.848 34.424C181.222 34.3493 181.446 34.312 181.52 34.312H183.592H185.664C185.702 34.312 185.814 34.3307 186 34.368C186.187 34.368 186.392 34.3867 186.616 34.424C186.84 34.4613 187.046 34.4987 187.232 34.536C187.456 34.5733 187.624 34.6107 187.736 34.648C187.811 34.6853 187.979 34.7413 188.24 34.816C188.539 34.8907 188.726 34.9653 188.8 35.04C188.875 35.0773 189.043 35.1893 189.304 35.376C189.603 35.5627 189.771 35.6747 189.808 35.712C189.883 35.7493 190.107 35.8053 190.48 35.88C190.891 35.9547 191.134 36.0107 191.208 36.048C191.283 36.1227 191.395 36.1973 191.544 36.272C191.731 36.3093 191.899 36.3653 192.048 36.44C192.198 36.552 192.384 36.6453 192.608 36.72V44H178.272V32.24H173.4V44.112C173.251 44.112 173.008 44.112 172.672 44.112C172.336 44.112 171.963 44.0933 171.552 44.056C171.179 44.056 170.824 44.0373 170.488 44C170.152 44 169.91 44 169.76 44C169.574 43.9627 169.219 43.9067 168.696 43.832C168.174 43.7573 167.838 43.7013 167.688 43.664C167.614 43.6267 167.39 43.496 167.016 43.272C166.643 43.048 166.419 42.936 166.344 42.936C166.158 42.9733 165.896 43.1227 165.56 43.384C165.224 43.6453 165.019 43.8507 164.944 44H159.064V0.0959978H182.92ZM173.568 21.544H178.104V10.456H173.568V21.544ZM217.456 32.408V27.928H197.072V13.928C197.072 13.8907 197.109 13.8347 197.184 13.76C197.259 13.648 197.333 13.592 197.408 13.592C197.483 13.5547 197.688 13.4987 198.024 13.424C198.36 13.3493 198.621 13.2933 198.808 13.256C198.957 13.1813 199.293 13.1067 199.816 13.032C200.339 12.9573 200.693 12.9013 200.88 12.864C200.955 12.864 201.141 12.864 201.44 12.864C201.739 12.8267 202.056 12.7893 202.392 12.752C202.765 12.7147 203.101 12.6773 203.4 12.64C203.699 12.6027 203.885 12.5653 203.96 12.528C204.035 12.528 204.165 12.4907 204.352 12.416C204.539 12.304 204.651 12.2293 204.688 12.192C204.8 12.1547 205.08 12.0987 205.528 12.024C205.976 11.9493 206.275 11.8933 206.424 11.856V11.52C206.424 11.52 206.349 11.5013 206.2 11.464C206.051 11.4267 205.864 11.3893 205.64 11.352C205.416 11.3147 205.173 11.2773 204.912 11.24C204.688 11.2027 204.501 11.184 204.352 11.184C204.128 11.184 203.736 11.184 203.176 11.184C202.616 11.1467 202.019 11.128 201.384 11.128C200.787 11.128 200.208 11.1467 199.648 11.184C199.088 11.184 198.696 11.184 198.472 11.184C198.397 11.1467 198.267 11.0907 198.08 11.016C197.931 10.9413 197.819 10.8667 197.744 10.792C197.707 10.792 197.651 10.7547 197.576 10.68C197.501 10.568 197.445 10.4933 197.408 10.456C197.333 10.3813 197.259 10.2693 197.184 10.12C197.109 9.93333 197.072 9.82133 197.072 9.784V0.0959978H231.624V11.688H211.24V16.168H220.592C220.592 16.2427 220.629 16.392 220.704 16.616C220.816 16.84 220.891 16.9893 220.928 17.064C220.965 17.064 221.021 17.12 221.096 17.232C221.208 17.3067 221.264 17.3627 221.264 17.4C221.301 17.512 221.357 17.6987 221.432 17.96C221.507 18.2213 221.581 18.5013 221.656 18.8C221.731 19.0613 221.787 19.3227 221.824 19.584C221.899 19.8453 221.936 20.032 221.936 20.144C221.973 20.032 222.029 19.8453 222.104 19.584C222.216 19.3227 222.328 19.0427 222.44 18.744C222.552 18.4453 222.645 18.1653 222.72 17.904C222.832 17.6427 222.925 17.4747 223 17.4C223.075 17.2133 223.243 16.9893 223.504 16.728C223.765 16.4667 223.933 16.336 224.008 16.336H231.624V44H224.4C224.363 44 224.307 43.9627 224.232 43.888C224.157 43.8133 224.083 43.7387 224.008 43.664C223.971 43.5893 223.915 43.4773 223.84 43.328C223.765 43.1413 223.709 43.0107 223.672 42.936C223.672 42.8987 223.616 42.6187 223.504 42.096C223.429 41.5733 223.373 41.1627 223.336 40.864C223.336 40.7893 223.317 40.64 223.28 40.416C223.243 40.192 223.205 39.9493 223.168 39.688C223.131 39.4267 223.093 39.184 223.056 38.96C223.019 38.736 223 38.568 223 38.456C222.963 38.4933 222.888 38.5493 222.776 38.624C222.701 38.6987 222.664 38.7547 222.664 38.792C222.627 38.8667 222.552 39.0907 222.44 39.464C222.365 39.8373 222.328 40.08 222.328 40.192C222.291 40.3413 222.253 40.6027 222.216 40.976C222.179 41.312 222.141 41.6853 222.104 42.096C222.067 42.5067 222.029 42.8987 221.992 43.272C221.955 43.608 221.936 43.8507 221.936 44H208.496C208.459 44 208.309 43.9067 208.048 43.72C207.787 43.5333 207.581 43.4027 207.432 43.328C207.432 43.2907 207.376 43.2347 207.264 43.16C207.189 43.0853 207.133 43.0107 207.096 42.936C206.984 42.7867 206.797 42.544 206.536 42.208C206.275 41.872 206.107 41.6667 206.032 41.592C205.957 41.48 205.864 41.312 205.752 41.088C205.677 40.864 205.584 40.64 205.472 40.416C205.36 40.192 205.248 40.0053 205.136 39.856C205.061 39.6693 205.024 39.5573 205.024 39.52C204.987 39.3333 204.949 39.016 204.912 38.568C204.875 38.0827 204.837 37.5973 204.8 37.112C204.763 36.5893 204.725 36.104 204.688 35.656C204.688 35.1707 204.688 34.8347 204.688 34.648C204.651 34.7973 204.595 35.0773 204.52 35.488C204.445 35.8613 204.371 36.272 204.296 36.72C204.221 37.168 204.147 37.5973 204.072 38.008C204.035 38.3813 203.997 38.6427 203.96 38.792V42.936L202.952 44H197.072V32.408H217.456ZM249.287 0.0959978L249.623 0.431997C249.66 0.506665 249.679 0.730665 249.679 1.104C249.716 1.44 249.735 1.70133 249.735 1.888C249.735 2 249.735 2.168 249.735 2.392C249.735 2.57866 249.716 2.784 249.679 3.008C249.679 3.232 249.66 3.43733 249.623 3.624C249.623 3.77333 249.623 3.86667 249.623 3.904C249.623 3.94133 249.585 4.03466 249.511 4.184C249.436 4.296 249.361 4.42667 249.287 4.576C249.212 4.72533 249.137 4.87466 249.063 5.024C248.988 5.17333 248.951 5.26666 248.951 5.304C248.913 5.304 248.895 5.32266 248.895 5.36V5.472V5.584C248.895 5.62133 248.913 5.64 248.951 5.64C248.988 5.71466 249.119 5.78933 249.343 5.864C249.567 5.93866 249.716 5.976 249.791 5.976V16H257.407V0.0959978H271.407V29.832H268.271C268.345 29.9067 268.513 30.0373 268.775 30.224C269.073 30.3733 269.26 30.4667 269.335 30.504C269.372 30.504 269.465 30.5413 269.615 30.616C269.801 30.6907 269.988 30.7653 270.175 30.84C270.399 30.9147 270.585 30.9893 270.735 31.064C270.921 31.1387 271.033 31.1947 271.071 31.232C271.108 31.2693 271.164 31.3253 271.239 31.4C271.351 31.4747 271.407 31.5307 271.407 31.568V44H265.191C265.191 43.888 265.097 43.7013 264.911 43.44C264.724 43.1787 264.575 43.0107 264.463 42.936H264.239C264.164 42.936 264.089 42.936 264.015 42.936C263.94 42.8987 263.884 42.88 263.847 42.88C263.772 42.88 263.697 42.8987 263.623 42.936C263.548 42.936 263.473 42.936 263.399 42.936H263.119C263.081 42.9733 262.969 43.048 262.783 43.16C262.633 43.272 262.447 43.384 262.223 43.496C262.036 43.608 261.849 43.72 261.663 43.832C261.513 43.944 261.42 44 261.383 44C261.233 44.0373 260.972 44.0747 260.599 44.112C260.225 44.1493 259.833 44.1867 259.423 44.224C259.049 44.2613 258.676 44.28 258.303 44.28C257.967 44.3173 257.724 44.336 257.575 44.336V35.376C257.575 35.3013 257.668 35.096 257.855 34.76C258.041 34.424 258.172 34.1627 258.247 33.976C258.284 33.9387 258.34 33.8827 258.415 33.808C258.489 33.696 258.545 33.64 258.583 33.64C258.732 33.5653 258.975 33.4347 259.311 33.248C259.684 33.0613 259.908 32.9493 259.983 32.912C260.132 32.8747 260.393 32.8187 260.767 32.744C261.177 32.632 261.607 32.52 262.055 32.408C262.503 32.296 262.913 32.2027 263.287 32.128C263.697 32.016 263.977 31.9413 264.127 31.904H258.247L257.407 31.232V28.096H249.791V44H239.599V39.184C239.561 39.184 239.487 39.24 239.375 39.352C239.3 39.4267 239.263 39.4827 239.263 39.52C239.188 39.5947 239.057 39.8187 238.871 40.192C238.721 40.528 238.609 40.752 238.535 40.864C238.497 40.9387 238.441 41.1253 238.367 41.424C238.292 41.6853 238.236 41.8533 238.199 41.928C238.199 41.9653 238.18 42.0773 238.143 42.264C238.105 42.4133 238.068 42.6 238.031 42.824C237.993 43.0107 237.956 43.1973 237.919 43.384C237.881 43.5333 237.863 43.6267 237.863 43.664C237.825 43.7013 237.713 43.7573 237.527 43.832C237.377 43.9067 237.265 43.9627 237.191 44C237.079 44.0373 236.836 44.056 236.463 44.056C236.127 44.0933 235.903 44.112 235.791 44.112V0.0959978H249.287ZM308.189 24.12V19.976H303.541V16.168H309.757C309.645 16.0933 309.365 16 308.917 15.888C308.469 15.7387 308.17 15.664 308.021 15.664C307.946 15.664 307.778 15.6453 307.517 15.608C307.255 15.5707 306.957 15.5333 306.621 15.496C306.322 15.4587 306.042 15.4213 305.781 15.384C305.519 15.3467 305.351 15.328 305.277 15.328C305.015 15.2533 304.661 15.1787 304.213 15.104C303.765 15.0293 303.541 14.9733 303.541 14.936V0.0959978H317.877V16H322.581C322.581 15.888 322.581 15.6827 322.581 15.384C322.618 15.0853 322.655 14.768 322.693 14.432C322.73 14.096 322.767 13.7787 322.805 13.48C322.842 13.1813 322.879 12.976 322.917 12.864C322.917 12.7893 322.954 12.6773 323.029 12.528C323.141 12.3413 323.215 12.2293 323.253 12.192C323.29 12.1547 323.383 12.0987 323.533 12.024C323.719 11.9493 323.85 11.8933 323.925 11.856C324.037 11.8187 324.261 11.8373 324.597 11.912C324.97 11.9493 325.213 11.968 325.325 11.968V11.184C325.213 11.1467 324.97 11.0907 324.597 11.016C324.261 10.9413 324.037 10.8667 323.925 10.792C323.85 10.792 323.757 10.7733 323.645 10.736C323.533 10.6987 323.421 10.6613 323.309 10.624C323.159 10.5867 323.029 10.5307 322.917 10.456V0.0959978H337.085V3.344C337.01 3.344 336.879 3.32533 336.693 3.288C336.543 3.25066 336.431 3.232 336.357 3.232C336.319 3.19466 336.151 3.08266 335.853 2.896C335.591 2.672 335.423 2.54133 335.349 2.504C335.274 2.46666 335.199 2.42933 335.125 2.392C335.087 2.35467 335.031 2.31733 334.957 2.28C334.845 2.24266 334.751 2.20533 334.677 2.168C334.602 2.168 334.453 2.18666 334.229 2.224C334.042 2.26133 333.837 2.29866 333.613 2.336C333.389 2.37333 333.165 2.41066 332.941 2.448C332.754 2.48533 332.642 2.504 332.605 2.504C332.418 2.54133 332.194 2.57867 331.933 2.616C331.671 2.65333 331.41 2.69066 331.149 2.728C330.887 2.76533 330.663 2.80266 330.477 2.84C330.29 2.84 330.178 2.84 330.141 2.84C329.991 2.84 329.711 2.85867 329.301 2.896C328.927 2.896 328.517 2.896 328.069 2.896C327.621 2.896 327.191 2.896 326.781 2.896C326.407 2.85867 326.146 2.84 325.997 2.84C326.034 2.91466 326.09 2.98933 326.165 3.064C326.239 3.13867 326.295 3.19466 326.333 3.232C326.407 3.26933 326.575 3.32533 326.837 3.4C327.098 3.47466 327.285 3.53066 327.397 3.568C327.471 3.60533 327.602 3.64267 327.789 3.68C327.975 3.71733 328.162 3.75466 328.349 3.792C328.535 3.82933 328.703 3.86667 328.853 3.904C329.002 3.904 329.095 3.904 329.133 3.904C329.357 3.904 329.73 3.92267 330.253 3.96C330.813 3.99733 331.41 4.03466 332.045 4.072C332.679 4.10933 333.277 4.14667 333.837 4.184C334.397 4.22133 334.789 4.24 335.013 4.24C335.087 4.31467 335.199 4.42667 335.349 4.576C335.535 4.72533 335.703 4.89333 335.853 5.08C336.039 5.26666 336.207 5.45333 336.357 5.64C336.543 5.78933 336.674 5.90133 336.749 5.976C336.786 6.05066 336.842 6.16266 336.917 6.312C337.029 6.46133 337.085 6.57333 337.085 6.648V19.976H332.381V24.12H327.901V44H323.253L322.917 43.664C322.879 43.6267 322.767 43.496 322.581 43.272C322.431 43.048 322.245 42.824 322.021 42.6C321.834 42.376 321.647 42.1707 321.461 41.984C321.311 41.76 321.218 41.6293 321.181 41.592C321.143 41.5547 321.106 41.5173 321.069 41.48C321.069 41.4427 321.05 41.4053 321.013 41.368C320.975 41.3307 320.919 41.2933 320.845 41.256H320.677C320.639 41.256 320.602 41.2747 320.565 41.312C320.565 41.3867 320.546 41.4987 320.509 41.648C320.471 41.76 320.453 41.8533 320.453 41.928C320.49 42.0773 320.546 42.3387 320.621 42.712C320.695 43.048 320.77 43.2533 320.845 43.328L321.181 43.664V43.832V43.944C321.181 43.9813 321.199 44 321.237 44H313.397V24.12H308.189ZM343.253 37.784C343.253 37.784 343.272 37.7467 343.309 37.672V37.616C343.309 37.504 343.291 37.448 343.253 37.448C343.253 37.4107 343.123 37.3547 342.861 37.28C342.6 37.2053 342.395 37.1493 342.245 37.112C342.133 37.0373 341.891 36.9627 341.517 36.888C341.181 36.8133 340.957 36.7573 340.845 36.72V0.0959978H357.421C357.496 0.0959978 357.608 0.189331 357.757 0.375998C357.944 0.562664 358.075 0.693331 358.149 0.767999C358.187 0.842665 358.243 1.01066 358.317 1.272C358.392 1.53333 358.448 1.72 358.485 1.832C358.485 1.90666 358.504 2.056 358.541 2.28C358.579 2.504 358.616 2.76533 358.653 3.064C358.691 3.32533 358.728 3.58667 358.765 3.848C358.803 4.072 358.821 4.20267 358.821 4.24C358.821 4.27733 358.859 4.352 358.933 4.464C359.008 4.53866 359.083 4.576 359.157 4.576L359.325 4.632H359.437C359.475 4.632 359.493 4.61333 359.493 4.576C359.531 4.464 359.568 4.27733 359.605 4.016C359.68 3.75467 359.755 3.49333 359.829 3.232C359.941 2.93333 360.016 2.65333 360.053 2.392C360.128 2.13066 360.184 1.944 360.221 1.832C360.259 1.72 360.315 1.44 360.389 0.992C360.464 0.543999 360.52 0.245331 360.557 0.0959978H365.709L368.509 2.504C368.547 2.54133 368.696 2.54133 368.957 2.504C369.256 2.42933 369.592 2.336 369.965 2.224C370.339 2.112 370.712 2 371.085 1.888C371.459 1.73866 371.757 1.608 371.981 1.496C372.019 1.45866 372.112 1.384 372.261 1.272C372.411 1.12267 372.56 0.973332 372.709 0.823998C372.859 0.674665 372.989 0.543998 373.101 0.431997C373.213 0.282663 373.288 0.170664 373.325 0.0959978H378.869V19.136L378.533 19.472C378.459 19.5467 378.328 19.6213 378.141 19.696C377.992 19.7707 377.88 19.808 377.805 19.808C377.768 19.8453 377.6 19.8453 377.301 19.808C377.04 19.7707 376.872 19.7707 376.797 19.808C376.76 19.8453 376.685 19.9013 376.573 19.976C376.499 20.0507 376.461 20.1067 376.461 20.144C376.536 20.1813 376.648 20.256 376.797 20.368C376.947 20.4427 377.059 20.48 377.133 20.48C377.208 20.5173 377.432 20.5733 377.805 20.648C378.216 20.7227 378.459 20.7787 378.533 20.816C378.608 20.8533 378.683 20.9093 378.757 20.984C378.832 21.0587 378.869 21.1333 378.869 21.208V44H340.845V38.792C340.845 38.7547 340.939 38.6613 341.125 38.512C341.312 38.3253 341.443 38.1947 341.517 38.12C341.667 38.0453 341.947 37.9707 342.357 37.896C342.805 37.8213 343.104 37.784 343.253 37.784ZM355.013 32.24H364.869V28.544C364.907 28.544 364.981 28.5253 365.093 28.488C365.243 28.4507 365.336 28.432 365.373 28.432C365.448 28.4693 365.672 28.6 366.045 28.824C366.456 29.0107 366.699 29.1227 366.773 29.16H367.389H368.173C368.211 29.16 368.323 29.1413 368.509 29.104C368.733 29.0293 368.957 28.9733 369.181 28.936C369.405 28.8987 369.611 28.8613 369.797 28.824C370.021 28.7867 370.171 28.768 370.245 28.768C370.469 28.768 370.843 28.768 371.365 28.768C371.888 28.7307 372.448 28.712 373.045 28.712C373.68 28.712 374.259 28.712 374.781 28.712C375.304 28.6747 375.677 28.656 375.901 28.656C375.901 28.5813 375.845 28.5067 375.733 28.432C375.696 28.3947 375.584 28.3387 375.397 28.264C375.248 28.1893 375.136 28.1333 375.061 28.096C374.912 28.0587 374.613 28.0027 374.165 27.928C373.717 27.816 373.437 27.76 373.325 27.76C373.101 27.76 372.691 27.7413 372.093 27.704C371.533 27.6667 370.917 27.6293 370.245 27.592C369.573 27.5547 368.939 27.5173 368.341 27.48C367.744 27.4427 367.333 27.424 367.109 27.424L364.869 25.352V11.856H355.013V32.24ZM385.41 22.888C385.298 22.888 385.055 22.8507 384.682 22.776C384.346 22.7013 384.122 22.6267 384.01 22.552C383.935 22.5147 383.804 22.4587 383.618 22.384C383.431 22.3093 383.338 22.2533 383.338 22.216V0.0959978H397.17V15.104C397.095 15.104 396.964 15.0853 396.778 15.048C396.628 15.0107 396.535 14.9733 396.498 14.936C396.423 14.936 396.236 14.8427 395.938 14.656C395.676 14.432 395.508 14.3013 395.434 14.264C395.359 14.2267 395.284 14.1893 395.21 14.152C395.172 14.1147 395.116 14.0773 395.042 14.04C394.93 14.0027 394.836 13.9653 394.762 13.928C394.687 13.928 394.538 13.9467 394.314 13.984C394.127 14.0213 393.922 14.0587 393.698 14.096C393.474 14.1333 393.25 14.1707 393.026 14.208C392.839 14.2453 392.727 14.264 392.69 14.264C392.503 14.3013 392.279 14.3387 392.018 14.376C391.756 14.4133 391.495 14.4507 391.234 14.488C390.972 14.5253 390.748 14.5627 390.562 14.6C390.375 14.6 390.263 14.6 390.226 14.6C390.076 14.6 389.796 14.6187 389.386 14.656C389.012 14.656 388.602 14.656 388.154 14.656C387.706 14.656 387.276 14.656 386.866 14.656C386.492 14.6187 386.231 14.6 386.082 14.6C386.119 14.6747 386.175 14.7493 386.25 14.824C386.324 14.8987 386.399 14.936 386.474 14.936C386.511 15.0107 386.66 15.0853 386.922 15.16C387.183 15.1973 387.37 15.2533 387.482 15.328C387.556 15.3653 387.687 15.4027 387.874 15.44C388.06 15.4773 388.247 15.5147 388.434 15.552C388.62 15.5893 388.788 15.6267 388.938 15.664C389.087 15.664 389.18 15.664 389.218 15.664C389.442 15.664 389.815 15.6827 390.338 15.72C390.898 15.7573 391.495 15.7947 392.13 15.832C392.764 15.8693 393.362 15.9067 393.922 15.944C394.482 15.9813 394.874 16 395.098 16C395.172 16.0747 395.284 16.1867 395.434 16.336C395.62 16.4853 395.788 16.6533 395.938 16.84C396.124 17.0267 396.292 17.2133 396.442 17.4C396.628 17.5493 396.759 17.6613 396.834 17.736C396.871 17.8107 396.908 17.8853 396.946 17.96C397.02 17.9973 397.095 18.0533 397.17 18.128C397.244 18.24 397.3 18.3333 397.338 18.408V32.24H404.954V30.504H411.002L411.338 30.168H409.938C409.751 30.168 409.471 30.1493 409.098 30.112C408.724 30.0747 408.332 30.0373 407.922 30C407.511 29.9627 407.138 29.9253 406.802 29.888C406.466 29.8507 406.242 29.832 406.13 29.832C405.98 29.7947 405.775 29.7387 405.514 29.664C405.252 29.5893 405.122 29.5333 405.122 29.496V0.0959978H418.954V44H410.666C410.591 44 410.292 43.8693 409.77 43.608C409.247 43.3467 408.855 43.1227 408.594 42.936C408.519 42.8987 408.332 42.7867 408.034 42.6C407.772 42.4133 407.604 42.3013 407.53 42.264C407.492 42.264 407.418 42.2827 407.306 42.32C407.194 42.32 407.119 42.32 407.082 42.32C407.082 42.3947 407.1 42.5627 407.138 42.824C407.212 43.0853 407.231 43.2533 407.194 43.328C407.156 43.4027 407.1 43.5333 407.026 43.72C406.951 43.9067 406.895 44 406.858 44H383.338V23.952C383.338 23.9147 383.431 23.8587 383.618 23.784C383.804 23.672 383.935 23.616 384.01 23.616C384.122 23.5787 384.346 23.5973 384.682 23.672C385.055 23.7093 385.298 23.728 385.41 23.728V22.888ZM429.304 30.168C429.229 30.1307 429.061 30.0747 428.8 30C428.538 29.9253 428.352 29.8693 428.24 29.832C428.165 29.832 427.978 29.7947 427.68 29.72C427.381 29.6453 427.045 29.5707 426.672 29.496C426.336 29.4213 426.018 29.3653 425.72 29.328C425.421 29.2533 425.234 29.1973 425.16 29.16L423.76 27.76C423.685 27.6853 423.61 27.5733 423.536 27.424C423.461 27.2373 423.424 27.1253 423.424 27.088V0.0959978H456.968V25.184H453.16V27.256H456.968V44H442.632V28.096H437.76V44H432.328C432.328 43.9253 432.328 43.7573 432.328 43.496C432.365 43.2347 432.384 43.048 432.384 42.936C432.421 42.8987 432.496 42.7493 432.608 42.488C432.72 42.1893 432.776 42.0027 432.776 41.928V39.968V37.784C432.776 37.6347 432.757 37.336 432.72 36.888C432.682 36.44 432.645 35.992 432.608 35.544C432.57 35.0587 432.533 34.6107 432.496 34.2C432.458 33.752 432.421 33.4533 432.384 33.304C432.384 33.2293 432.346 33.0053 432.272 32.632C432.197 32.2587 432.122 32.016 432.048 31.904C432.048 31.8293 431.992 31.7173 431.88 31.568C431.805 31.3813 431.749 31.2693 431.712 31.232V40.192C431.712 40.2667 431.674 40.472 431.6 40.808C431.525 41.144 431.45 41.4053 431.376 41.592C431.338 41.6667 431.282 41.7973 431.208 41.984C431.133 42.1333 431.077 42.2267 431.04 42.264C430.928 42.376 430.778 42.544 430.592 42.768C430.405 42.9547 430.218 43.1413 430.032 43.328C429.845 43.5147 429.677 43.6827 429.528 43.832C429.378 43.944 429.304 44 429.304 44H423.424V31.568C423.424 31.5307 423.554 31.4747 423.816 31.4C424.077 31.3253 424.301 31.2693 424.488 31.232C424.525 31.232 424.637 31.2133 424.824 31.176C425.048 31.1387 425.272 31.1013 425.496 31.064C425.72 30.9893 425.925 30.9333 426.112 30.896C426.336 30.8587 426.485 30.84 426.56 30.84C426.672 30.84 426.858 30.8027 427.12 30.728C427.381 30.6533 427.642 30.5787 427.904 30.504C428.202 30.4293 428.482 30.3733 428.744 30.336C429.005 30.2613 429.192 30.2053 429.304 30.168ZM437.928 16H442.632V14.096H449.352C449.24 14.0213 448.96 13.928 448.512 13.816C448.064 13.6667 447.765 13.592 447.616 13.592C447.541 13.592 447.373 13.5733 447.112 13.536C446.85 13.4987 446.552 13.4613 446.216 13.424C445.917 13.3867 445.637 13.3493 445.376 13.312C445.114 13.2747 444.946 13.256 444.872 13.256C444.685 13.2187 444.461 13.2 444.2 13.2C443.938 13.1627 443.696 13.1067 443.472 13.032C443.21 12.9947 442.93 12.9387 442.632 12.864V11.856H437.928V16ZM489.431 38.624V25.352C489.431 25.2773 489.469 25.1653 489.543 25.016C489.618 24.8293 489.693 24.6987 489.767 24.624C489.767 24.5867 489.823 24.512 489.935 24.4C489.973 24.3627 490.029 24.3253 490.103 24.288C490.253 24.2507 490.533 24.1947 490.943 24.12C491.391 24.0453 491.69 23.9893 491.839 23.952V23.616L489.431 22.888V5.472H494.807V0.0959978H525.047V11.688H503.431V15.664C503.282 15.5893 502.965 15.4213 502.479 15.16C502.031 14.8613 501.714 14.6747 501.527 14.6H501.191H500.855C500.781 14.6 500.631 14.6187 500.407 14.656C500.221 14.6933 500.015 14.7307 499.791 14.768C499.567 14.8053 499.343 14.8427 499.119 14.88C498.933 14.9173 498.821 14.936 498.783 14.936C498.671 14.9733 498.485 15.0107 498.223 15.048C497.999 15.0853 497.757 15.1227 497.495 15.16C497.234 15.1973 496.991 15.2347 496.767 15.272C496.543 15.3093 496.394 15.328 496.319 15.328H496.151H495.983C495.871 15.328 495.666 15.3093 495.367 15.272C495.069 15.2347 494.751 15.1973 494.415 15.16C494.117 15.1227 493.818 15.0853 493.519 15.048C493.221 15.0107 493.015 14.9733 492.903 14.936L492.567 15.328C492.567 15.3653 492.605 15.4213 492.679 15.496C492.754 15.5707 492.829 15.6267 492.903 15.664C492.978 15.664 493.183 15.72 493.519 15.832C493.855 15.9067 494.098 15.9627 494.247 16C494.359 16 494.509 16.0187 494.695 16.056C494.919 16.0933 495.143 16.1307 495.367 16.168C495.591 16.2053 495.797 16.2427 495.983 16.28C496.17 16.3173 496.282 16.336 496.319 16.336C496.506 16.336 496.842 16.3547 497.327 16.392C497.85 16.4293 498.373 16.4667 498.895 16.504C499.455 16.5413 499.978 16.5787 500.463 16.616C500.986 16.6533 501.341 16.672 501.527 16.672L503.431 18.408V32.408H525.047V44H516.031C515.994 44 515.882 43.9627 515.695 43.888C515.546 43.8133 515.434 43.7387 515.359 43.664C515.285 43.5893 515.154 43.4773 514.967 43.328C514.818 43.1413 514.725 43.0107 514.687 42.936C514.687 42.824 514.669 42.656 514.631 42.432C514.594 42.1707 514.557 41.8907 514.519 41.592C514.482 41.2933 514.445 41.0133 514.407 40.752C514.37 40.4907 514.333 40.304 514.295 40.192C514.295 40.1173 514.258 39.9867 514.183 39.8C514.109 39.6133 514.034 39.52 513.959 39.52C513.959 39.4827 513.903 39.464 513.791 39.464C513.717 39.4267 513.642 39.408 513.567 39.408C513.53 39.408 513.474 39.4267 513.399 39.464C513.325 39.464 513.287 39.4827 513.287 39.52L512.223 44H494.807V38.624H489.431ZM534.741 30.168C534.666 30.1307 534.498 30.0747 534.237 30C533.976 29.9253 533.789 29.8693 533.677 29.832C533.602 29.832 533.416 29.7947 533.117 29.72C532.818 29.6453 532.482 29.5707 532.109 29.496C531.773 29.4213 531.456 29.3653 531.157 29.328C530.858 29.2533 530.672 29.1973 530.597 29.16L529.197 27.76C529.122 27.6853 529.048 27.5733 528.973 27.424C528.898 27.2373 528.861 27.1253 528.861 27.088V0.0959978H562.405V25.184H558.597V27.256H562.405V44H548.069V28.096H543.197V44H537.765C537.765 43.9253 537.765 43.7573 537.765 43.496C537.802 43.2347 537.821 43.048 537.821 42.936C537.858 42.8987 537.933 42.7493 538.045 42.488C538.157 42.1893 538.213 42.0027 538.213 41.928V39.968V37.784C538.213 37.6347 538.194 37.336 538.157 36.888C538.12 36.44 538.082 35.992 538.045 35.544C538.008 35.0587 537.97 34.6107 537.933 34.2C537.896 33.752 537.858 33.4533 537.821 33.304C537.821 33.2293 537.784 33.0053 537.709 32.632C537.634 32.2587 537.56 32.016 537.485 31.904C537.485 31.8293 537.429 31.7173 537.317 31.568C537.242 31.3813 537.186 31.2693 537.149 31.232V40.192C537.149 40.2667 537.112 40.472 537.037 40.808C536.962 41.144 536.888 41.4053 536.813 41.592C536.776 41.6667 536.72 41.7973 536.645 41.984C536.57 42.1333 536.514 42.2267 536.477 42.264C536.365 42.376 536.216 42.544 536.029 42.768C535.842 42.9547 535.656 43.1413 535.469 43.328C535.282 43.5147 535.114 43.6827 534.965 43.832C534.816 43.944 534.741 44 534.741 44H528.861V31.568C528.861 31.5307 528.992 31.4747 529.253 31.4C529.514 31.3253 529.738 31.2693 529.925 31.232C529.962 31.232 530.074 31.2133 530.261 31.176C530.485 31.1387 530.709 31.1013 530.933 31.064C531.157 30.9893 531.362 30.9333 531.549 30.896C531.773 30.8587 531.922 30.84 531.997 30.84C532.109 30.84 532.296 30.8027 532.557 30.728C532.818 30.6533 533.08 30.5787 533.341 30.504C533.64 30.4293 533.92 30.3733 534.181 30.336C534.442 30.2613 534.629 30.2053 534.741 30.168ZM543.365 16H548.069V14.096H554.789C554.677 14.0213 554.397 13.928 553.949 13.816C553.501 13.6667 553.202 13.592 553.053 13.592C552.978 13.592 552.81 13.5733 552.549 13.536C552.288 13.4987 551.989 13.4613 551.653 13.424C551.354 13.3867 551.074 13.3493 550.813 13.312C550.552 13.2747 550.384 13.256 550.309 13.256C550.122 13.2187 549.898 13.2 549.637 13.2C549.376 13.1627 549.133 13.1067 548.909 13.032C548.648 12.9947 548.368 12.9387 548.069 12.864V11.856H543.365V16ZM566.869 34.312C566.981 34.312 567.168 34.2933 567.429 34.256C567.69 34.2187 567.952 34.1813 568.213 34.144C568.512 34.1067 568.792 34.0693 569.053 34.032C569.314 33.9947 569.501 33.976 569.613 33.976C569.762 33.9387 570.098 33.8827 570.621 33.808C571.144 33.7333 571.498 33.6773 571.685 33.64C571.834 33.6027 572.133 33.5467 572.581 33.472C573.029 33.3973 573.309 33.3413 573.421 33.304L566.869 32.52V13.928C566.869 13.8907 566.906 13.8347 566.981 13.76C567.056 13.648 567.13 13.592 567.205 13.592C567.28 13.5547 567.485 13.4987 567.821 13.424C568.157 13.3493 568.418 13.2933 568.605 13.256C568.754 13.1813 569.09 13.1067 569.613 13.032C570.136 12.9573 570.49 12.9013 570.677 12.864C570.752 12.864 570.938 12.864 571.237 12.864C571.536 12.8267 571.853 12.7893 572.189 12.752C572.562 12.7147 572.898 12.6773 573.197 12.64C573.496 12.6027 573.682 12.5653 573.757 12.528C573.832 12.528 573.962 12.4907 574.149 12.416C574.336 12.304 574.448 12.2293 574.485 12.192C574.597 12.1547 574.877 12.0987 575.325 12.024C575.773 11.9493 576.072 11.8933 576.221 11.856V11.52C576.221 11.52 576.146 11.5013 575.997 11.464C575.848 11.4267 575.661 11.3893 575.437 11.352C575.213 11.3147 574.97 11.2773 574.709 11.24C574.485 11.2027 574.298 11.184 574.149 11.184C573.925 11.184 573.533 11.184 572.973 11.184C572.413 11.1467 571.816 11.128 571.181 11.128C570.584 11.128 570.005 11.1467 569.445 11.184C568.885 11.184 568.493 11.184 568.269 11.184C568.194 11.1467 568.064 11.0907 567.877 11.016C567.728 10.9413 567.616 10.8667 567.541 10.792C567.504 10.792 567.448 10.7547 567.373 10.68C567.298 10.568 567.242 10.4933 567.205 10.456C567.13 10.3813 567.056 10.2693 566.981 10.12C566.906 9.93333 566.869 9.82133 566.869 9.784V0.0959978H600.077V11.688H581.373V16.168H590.053C590.128 16.168 590.296 16.336 590.557 16.672C590.818 16.9707 590.986 17.2133 591.061 17.4C591.098 17.512 591.154 17.6987 591.229 17.96C591.304 18.184 591.378 18.4453 591.453 18.744C591.528 19.0427 591.584 19.3227 591.621 19.584C591.696 19.8453 591.733 20.032 591.733 20.144C591.77 20.032 591.826 19.8453 591.901 19.584C592.013 19.3227 592.125 19.0427 592.237 18.744C592.349 18.4453 592.442 18.1653 592.517 17.904C592.629 17.6427 592.722 17.4747 592.797 17.4C592.872 17.2133 593.04 16.9893 593.301 16.728C593.562 16.4667 593.73 16.336 593.805 16.336H600.077V27.928H581.373V32.408H600.077V44H594.197C594.16 44 594.104 43.9627 594.029 43.888C593.954 43.8133 593.88 43.7387 593.805 43.664C593.768 43.5893 593.712 43.4773 593.637 43.328C593.562 43.1413 593.506 43.0107 593.469 42.936C593.469 42.8987 593.413 42.6187 593.301 42.096C593.226 41.5733 593.17 41.1627 593.133 40.864C593.133 40.7893 593.114 40.64 593.077 40.416C593.04 40.192 593.002 39.9493 592.965 39.688C592.928 39.4267 592.89 39.184 592.853 38.96C592.816 38.736 592.797 38.568 592.797 38.456C592.76 38.4933 592.685 38.5493 592.573 38.624C592.498 38.6987 592.461 38.7547 592.461 38.792C592.424 38.8667 592.349 39.0907 592.237 39.464C592.162 39.8373 592.125 40.08 592.125 40.192C592.088 40.3413 592.05 40.6027 592.013 40.976C591.976 41.312 591.938 41.6853 591.901 42.096C591.864 42.5067 591.826 42.8987 591.789 43.272C591.752 43.608 591.733 43.8507 591.733 44H578.293C578.256 44 578.106 43.9067 577.845 43.72C577.584 43.5333 577.378 43.4027 577.229 43.328C577.229 43.2907 577.173 43.2347 577.061 43.16C576.986 43.0853 576.93 43.0107 576.893 42.936C576.781 42.7867 576.594 42.544 576.333 42.208C576.072 41.872 575.904 41.6667 575.829 41.592C575.754 41.48 575.661 41.312 575.549 41.088C575.474 40.864 575.381 40.64 575.269 40.416C575.157 40.192 575.045 40.0053 574.933 39.856C574.858 39.6693 574.821 39.5573 574.821 39.52C574.784 39.3333 574.746 39.016 574.709 38.568C574.672 38.0827 574.634 37.5973 574.597 37.112C574.56 36.5893 574.522 36.104 574.485 35.656C574.485 35.1707 574.485 34.8347 574.485 34.648C574.448 34.7973 574.392 35.0773 574.317 35.488C574.242 35.8613 574.168 36.272 574.093 36.72C574.018 37.168 573.944 37.5973 573.869 38.008C573.832 38.3813 573.794 38.6427 573.757 38.792V42.936L572.749 44H566.869V34.312ZM628.076 0.0959978C628.151 0.207999 628.3 0.357332 628.524 0.543999C628.786 0.693332 628.972 0.767999 629.084 0.767999C629.234 0.767999 629.476 0.693332 629.812 0.543999C630.186 0.357332 630.41 0.207999 630.484 0.0959978H637.764V34.48C637.69 34.48 637.503 34.4613 637.204 34.424C636.943 34.3867 636.775 34.3493 636.7 34.312C636.626 34.312 636.402 34.2 636.028 33.976C635.655 33.752 635.431 33.64 635.356 33.64C635.244 33.64 635.02 33.6213 634.684 33.584C634.348 33.5467 633.975 33.5093 633.564 33.472C633.191 33.4347 632.799 33.3973 632.388 33.36C632.015 33.3227 631.735 33.304 631.548 33.304C631.511 33.304 631.38 33.304 631.156 33.304C630.97 33.304 630.746 33.304 630.484 33.304C630.26 33.2667 630.018 33.248 629.756 33.248C629.532 33.248 629.346 33.248 629.196 33.248C629.047 33.248 628.842 33.248 628.58 33.248C628.356 33.248 628.132 33.2667 627.908 33.304C627.684 33.304 627.479 33.304 627.292 33.304C627.143 33.304 627.05 33.304 627.012 33.304C626.975 33.304 626.826 33.3413 626.564 33.416C626.303 33.4907 626.116 33.5653 626.004 33.64C625.892 33.7147 625.65 33.8267 625.276 33.976C624.903 34.1253 624.679 34.2373 624.604 34.312L624.268 34.648C624.231 34.7227 624.212 34.7787 624.212 34.816V35.04C624.212 35.0773 624.212 35.1333 624.212 35.208C624.25 35.2827 624.268 35.3387 624.268 35.376C624.306 35.3013 624.362 35.2267 624.436 35.152C624.511 35.0773 624.567 35.04 624.604 35.04C624.679 34.9653 624.791 34.8907 624.94 34.816C625.127 34.7413 625.258 34.6853 625.332 34.648C625.444 34.5733 625.668 34.4987 626.004 34.424C626.378 34.3493 626.602 34.312 626.676 34.312H628.748H630.82C630.858 34.312 630.97 34.3307 631.156 34.368C631.343 34.368 631.548 34.3867 631.772 34.424C631.996 34.4613 632.202 34.4987 632.388 34.536C632.612 34.5733 632.78 34.6107 632.892 34.648C632.967 34.6853 633.135 34.7413 633.396 34.816C633.695 34.8907 633.882 34.9653 633.956 35.04C634.031 35.0773 634.199 35.1893 634.46 35.376C634.759 35.5627 634.927 35.6747 634.964 35.712C635.039 35.7493 635.263 35.8053 635.636 35.88C636.047 35.9547 636.29 36.0107 636.364 36.048C636.439 36.1227 636.551 36.1973 636.7 36.272C636.887 36.3093 637.055 36.3653 637.204 36.44C637.354 36.552 637.54 36.6453 637.764 36.72V44H623.428V32.24H618.556V44.112C618.407 44.112 618.164 44.112 617.828 44.112C617.492 44.112 617.119 44.0933 616.708 44.056C616.335 44.056 615.98 44.0373 615.644 44C615.308 44 615.066 44 614.916 44C614.73 43.9627 614.375 43.9067 613.852 43.832C613.33 43.7573 612.994 43.7013 612.844 43.664C612.77 43.6267 612.546 43.496 612.172 43.272C611.799 43.048 611.575 42.936 611.5 42.936C611.314 42.9733 611.052 43.1227 610.716 43.384C610.38 43.6453 610.175 43.8507 610.1 44H604.22V0.0959978H628.076ZM618.724 21.544H623.26V10.456H618.724V21.544ZM653.988 18.744C654.026 18.744 654.044 18.688 654.044 18.576V18.52C654.044 18.4827 654.026 18.4453 653.988 18.408C653.951 18.408 653.802 18.3707 653.54 18.296C653.279 18.184 653.092 18.1093 652.98 18.072C652.831 18.0347 652.551 17.9787 652.14 17.904C651.767 17.792 651.524 17.736 651.412 17.736V11.688H641.892V0.0959978H675.436V11.52H671.964C671.927 11.52 671.852 11.3893 671.74 11.128C671.666 10.8667 671.628 10.6427 671.628 10.456C671.628 10.4187 671.628 10.3253 671.628 10.176C671.628 9.98933 671.628 9.80267 671.628 9.616C671.628 9.392 671.628 9.20533 671.628 9.056C671.628 8.86933 671.628 8.75733 671.628 8.72L671.46 8.552C671.348 8.51467 671.292 8.45867 671.292 8.384C671.255 8.34667 671.199 8.23467 671.124 8.048C671.05 7.86133 670.994 7.74933 670.956 7.712C670.882 7.67466 670.751 7.61866 670.564 7.544C670.378 7.46933 670.266 7.41333 670.228 7.376C670.191 7.30133 670.135 7.18933 670.06 7.04C669.986 6.85333 669.93 6.72266 669.892 6.648C669.855 6.648 669.78 6.61066 669.668 6.536C669.594 6.424 669.556 6.34933 669.556 6.312C669.519 6.23733 669.407 6.06933 669.22 5.808C669.034 5.50933 668.903 5.34133 668.828 5.304C668.754 5.192 668.66 5.06133 668.548 4.912C668.436 4.76267 668.324 4.61333 668.212 4.464C668.063 4.31466 667.932 4.128 667.82 3.904H667.484C667.484 4.016 667.522 4.25866 667.596 4.632C667.708 4.968 667.783 5.192 667.82 5.304C667.858 5.304 667.914 5.36 667.988 5.472C668.1 5.54666 668.156 5.60266 668.156 5.64C668.194 5.67733 668.25 5.78933 668.324 5.976C668.436 6.16267 668.492 6.27467 668.492 6.312L668.828 6.648C668.866 6.72266 668.866 6.90933 668.828 7.208C668.828 7.46933 668.828 7.63733 668.828 7.712C668.903 7.78667 669.071 7.97333 669.332 8.272C669.631 8.53333 669.818 8.68266 669.892 8.72C669.967 8.79466 670.042 8.92533 670.116 9.112C670.191 9.26133 670.228 9.37333 670.228 9.448C670.266 9.63466 670.303 10.008 670.34 10.568C670.378 11.128 670.396 11.5013 670.396 11.688H665.916V44H663.004C662.967 43.8133 662.911 43.4773 662.836 42.992C662.762 42.4693 662.687 42.1147 662.612 41.928C662.612 41.8533 662.556 41.648 662.444 41.312C662.37 40.9387 662.314 40.6773 662.276 40.528C662.239 40.3787 662.183 40.1733 662.108 39.912C662.034 39.6507 661.978 39.52 661.94 39.52L661.828 39.464C661.791 39.464 661.754 39.4827 661.716 39.52C661.716 39.52 661.698 39.52 661.66 39.52H661.604C661.567 39.52 661.492 39.576 661.38 39.688C661.306 39.7627 661.268 39.8187 661.268 39.856C661.268 39.968 661.25 40.1547 661.212 40.416C661.175 40.6773 661.138 40.9573 661.1 41.256C661.063 41.5173 661.026 41.7787 660.988 42.04C660.951 42.3013 660.932 42.488 660.932 42.6C660.932 42.6747 660.876 42.8053 660.764 42.992C660.69 43.1413 660.615 43.2533 660.54 43.328C660.54 43.3653 660.484 43.4213 660.372 43.496C660.298 43.5707 660.242 43.6267 660.204 43.664C660.13 43.7387 659.999 43.8133 659.812 43.888C659.663 43.9627 659.57 44 659.532 44H651.58V19.808C651.58 19.7333 651.655 19.6213 651.804 19.472C651.991 19.2853 652.14 19.1733 652.252 19.136C652.402 19.0613 652.682 18.9867 653.092 18.912C653.54 18.8 653.839 18.744 653.988 18.744ZM693.029 0.0959978V9.448C693.029 9.48533 692.936 9.54133 692.749 9.616C692.562 9.69066 692.432 9.74666 692.357 9.784C692.282 9.784 692.096 9.80267 691.797 9.84C691.536 9.87733 691.256 9.91466 690.957 9.952C690.658 9.98933 690.36 10.0267 690.061 10.064C689.8 10.1013 689.632 10.12 689.557 10.12C689.482 10.1573 689.277 10.2693 688.941 10.456C688.605 10.6053 688.344 10.7173 688.157 10.792C688.12 10.8293 688.064 10.8853 687.989 10.96C687.914 11.0347 687.858 11.1093 687.821 11.184V11.352V11.52C687.97 11.52 688.232 11.5387 688.605 11.576C689.016 11.576 689.445 11.5947 689.893 11.632C690.341 11.6693 690.752 11.7067 691.125 11.744C691.536 11.7813 691.816 11.8187 691.965 11.856C692.04 11.856 692.152 11.8933 692.301 11.968C692.488 12.0427 692.618 12.1173 692.693 12.192C692.73 12.2293 692.768 12.2667 692.805 12.304C692.842 12.304 692.88 12.3227 692.917 12.36C692.954 12.3973 692.992 12.4533 693.029 12.528V44H689.221C689.184 44 689.072 43.9627 688.885 43.888C688.736 43.8133 688.624 43.7387 688.549 43.664C688.512 43.6267 688.456 43.5707 688.381 43.496C688.306 43.4213 688.232 43.3653 688.157 43.328C688.12 43.2907 688.008 43.16 687.821 42.936C687.672 42.712 687.504 42.488 687.317 42.264C687.13 42.04 686.944 41.8347 686.757 41.648C686.608 41.424 686.514 41.2933 686.477 41.256C686.402 41.1813 686.328 41.1067 686.253 41.032C686.178 40.92 686.122 40.864 686.085 40.864L685.861 40.976C685.861 41.0507 685.842 41.1627 685.805 41.312C685.768 41.424 685.749 41.5173 685.749 41.592C685.786 41.7413 685.842 41.984 685.917 42.32C685.992 42.656 686.048 42.8613 686.085 42.936L686.477 43.328V43.496V43.664C686.402 43.7387 686.272 43.8133 686.085 43.888C685.936 43.9627 685.824 44 685.749 44H679.197V0.0959978H693.029ZM700.485 37.28V29.328H697.181V23.952H697.965C697.965 23.8773 698.021 23.7653 698.133 23.616C698.245 23.4293 698.283 23.3173 698.245 23.28C698.171 23.2053 697.984 23.1307 697.685 23.056C697.424 22.944 697.256 22.888 697.181 22.888V0.0959978H711.181V32.24H717.397V0.0959978H722.773C722.848 0.0959978 723.016 0.226665 723.277 0.487999C723.539 0.749332 723.707 0.973331 723.781 1.16C723.856 1.272 723.949 1.44 724.061 1.664C724.173 1.85066 724.285 2.056 724.397 2.28C724.509 2.504 724.603 2.70933 724.677 2.896C724.789 3.08266 724.845 3.19466 724.845 3.232C724.883 3.41866 724.92 3.736 724.957 4.184C724.995 4.632 725.032 5.11733 725.069 5.64C725.107 6.16267 725.125 6.648 725.125 7.096C725.163 7.544 725.181 7.86133 725.181 8.048C725.219 7.89867 725.256 7.63733 725.293 7.264C725.368 6.85333 725.443 6.424 725.517 5.976C725.592 5.528 725.667 5.11733 725.741 4.744C725.816 4.33333 725.853 4.05333 725.853 3.904C725.853 3.75467 725.853 3.512 725.853 3.176C725.891 2.80267 725.909 2.41066 725.909 2C725.947 1.58933 725.965 1.216 725.965 0.879998C726.003 0.506665 726.021 0.245331 726.021 0.0959978H731.397V8.384L726.245 9.448C726.357 9.448 726.525 9.46666 726.749 9.504C727.011 9.54133 727.291 9.57867 727.589 9.616C727.888 9.65333 728.168 9.69066 728.429 9.728C728.691 9.76533 728.877 9.784 728.989 9.784C729.176 9.82133 729.4 9.85867 729.661 9.896C729.923 9.93333 730.184 9.97066 730.445 10.008C730.744 10.0453 731.061 10.0827 731.397 10.12V29.328H728.093V37.28H723.277V44.112C723.091 44.112 722.755 44.112 722.269 44.112C721.784 44.112 721.28 44.0933 720.757 44.056C720.235 44.056 719.731 44.0373 719.245 44C718.797 44 718.48 44 718.293 44C718.219 44 718.051 43.9627 717.789 43.888C717.528 43.8133 717.341 43.7387 717.229 43.664L716.557 43.328C716.483 43.2533 716.296 43.1413 715.997 42.992C715.736 42.8053 715.568 42.6747 715.493 42.6C715.456 42.6 715.381 42.6187 715.269 42.656C715.157 42.6933 715.083 42.712 715.045 42.712C715.045 42.7867 715.064 42.9547 715.101 43.216C715.176 43.44 715.195 43.5893 715.157 43.664C715.12 43.7387 715.064 43.8133 714.989 43.888C714.915 43.9627 714.859 44 714.821 44H705.301V37.28H700.485ZM749.357 0.0959978V9.448C749.357 9.48533 749.264 9.54133 749.077 9.616C748.89 9.69066 748.76 9.74666 748.685 9.784C748.61 9.784 748.424 9.80267 748.125 9.84C747.864 9.87733 747.584 9.91466 747.285 9.952C746.986 9.98933 746.688 10.0267 746.389 10.064C746.128 10.1013 745.96 10.12 745.885 10.12C745.81 10.1573 745.605 10.2693 745.269 10.456C744.933 10.6053 744.672 10.7173 744.485 10.792C744.448 10.8293 744.392 10.8853 744.317 10.96C744.242 11.0347 744.186 11.1093 744.149 11.184V11.352V11.52C744.298 11.52 744.56 11.5387 744.933 11.576C745.344 11.576 745.773 11.5947 746.221 11.632C746.669 11.6693 747.08 11.7067 747.453 11.744C747.864 11.7813 748.144 11.8187 748.293 11.856C748.368 11.856 748.48 11.8933 748.629 11.968C748.816 12.0427 748.946 12.1173 749.021 12.192C749.058 12.2293 749.096 12.2667 749.133 12.304C749.17 12.304 749.208 12.3227 749.245 12.36C749.282 12.3973 749.32 12.4533 749.357 12.528V44H745.549C745.512 44 745.4 43.9627 745.213 43.888C745.064 43.8133 744.952 43.7387 744.877 43.664C744.84 43.6267 744.784 43.5707 744.709 43.496C744.634 43.4213 744.56 43.3653 744.485 43.328C744.448 43.2907 744.336 43.16 744.149 42.936C744 42.712 743.832 42.488 743.645 42.264C743.458 42.04 743.272 41.8347 743.085 41.648C742.936 41.424 742.842 41.2933 742.805 41.256C742.73 41.1813 742.656 41.1067 742.581 41.032C742.506 40.92 742.45 40.864 742.413 40.864L742.189 40.976C742.189 41.0507 742.17 41.1627 742.133 41.312C742.096 41.424 742.077 41.5173 742.077 41.592C742.114 41.7413 742.17 41.984 742.245 42.32C742.32 42.656 742.376 42.8613 742.413 42.936L742.805 43.328V43.496V43.664C742.73 43.7387 742.6 43.8133 742.413 43.888C742.264 43.9627 742.152 44 742.077 44H735.525V0.0959978H749.357ZM765.605 18.744C765.643 18.744 765.661 18.688 765.661 18.576V18.52C765.661 18.4827 765.643 18.4453 765.605 18.408C765.568 18.408 765.419 18.3707 765.157 18.296C764.896 18.184 764.709 18.1093 764.597 18.072C764.448 18.0347 764.168 17.9787 763.757 17.904C763.384 17.792 763.141 17.736 763.029 17.736V11.688H753.509V0.0959978H787.053V11.52H783.581C783.544 11.52 783.469 11.3893 783.357 11.128C783.283 10.8667 783.245 10.6427 783.245 10.456C783.245 10.4187 783.245 10.3253 783.245 10.176C783.245 9.98933 783.245 9.80267 783.245 9.616C783.245 9.392 783.245 9.20533 783.245 9.056C783.245 8.86933 783.245 8.75733 783.245 8.72L783.077 8.552C782.965 8.51467 782.909 8.45867 782.909 8.384C782.872 8.34667 782.816 8.23467 782.741 8.048C782.667 7.86133 782.611 7.74933 782.573 7.712C782.499 7.67466 782.368 7.61866 782.181 7.544C781.995 7.46933 781.883 7.41333 781.845 7.376C781.808 7.30133 781.752 7.18933 781.677 7.04C781.603 6.85333 781.547 6.72266 781.509 6.648C781.472 6.648 781.397 6.61066 781.285 6.536C781.211 6.424 781.173 6.34933 781.173 6.312C781.136 6.23733 781.024 6.06933 780.837 5.808C780.651 5.50933 780.52 5.34133 780.445 5.304C780.371 5.192 780.277 5.06133 780.165 4.912C780.053 4.76267 779.941 4.61333 779.829 4.464C779.68 4.31466 779.549 4.128 779.437 3.904H779.101C779.101 4.016 779.139 4.25866 779.213 4.632C779.325 4.968 779.4 5.192 779.437 5.304C779.475 5.304 779.531 5.36 779.605 5.472C779.717 5.54666 779.773 5.60266 779.773 5.64C779.811 5.67733 779.867 5.78933 779.941 5.976C780.053 6.16267 780.109 6.27467 780.109 6.312L780.445 6.648C780.483 6.72266 780.483 6.90933 780.445 7.208C780.445 7.46933 780.445 7.63733 780.445 7.712C780.52 7.78667 780.688 7.97333 780.949 8.272C781.248 8.53333 781.435 8.68266 781.509 8.72C781.584 8.79466 781.659 8.92533 781.733 9.112C781.808 9.26133 781.845 9.37333 781.845 9.448C781.883 9.63466 781.92 10.008 781.957 10.568C781.995 11.128 782.013 11.5013 782.013 11.688H777.533V44H774.621C774.584 43.8133 774.528 43.4773 774.453 42.992C774.379 42.4693 774.304 42.1147 774.229 41.928C774.229 41.8533 774.173 41.648 774.061 41.312C773.987 40.9387 773.931 40.6773 773.893 40.528C773.856 40.3787 773.8 40.1733 773.725 39.912C773.651 39.6507 773.595 39.52 773.557 39.52L773.445 39.464C773.408 39.464 773.371 39.4827 773.333 39.52C773.333 39.52 773.315 39.52 773.277 39.52H773.221C773.184 39.52 773.109 39.576 772.997 39.688C772.923 39.7627 772.885 39.8187 772.885 39.856C772.885 39.968 772.867 40.1547 772.829 40.416C772.792 40.6773 772.755 40.9573 772.717 41.256C772.68 41.5173 772.643 41.7787 772.605 42.04C772.568 42.3013 772.549 42.488 772.549 42.6C772.549 42.6747 772.493 42.8053 772.381 42.992C772.307 43.1413 772.232 43.2533 772.157 43.328C772.157 43.3653 772.101 43.4213 771.989 43.496C771.915 43.5707 771.859 43.6267 771.821 43.664C771.747 43.7387 771.616 43.8133 771.429 43.888C771.28 43.9627 771.187 44 771.149 44H763.197V19.808C763.197 19.7333 763.272 19.6213 763.421 19.472C763.608 19.2853 763.757 19.1733 763.869 19.136C764.019 19.0613 764.299 18.9867 764.709 18.912C765.157 18.8 765.456 18.744 765.605 18.744ZM795.126 24.12V19.976H790.478V16.168H796.694C796.582 16.0933 796.302 16 795.854 15.888C795.406 15.7387 795.108 15.664 794.958 15.664C794.884 15.664 794.716 15.6453 794.454 15.608C794.193 15.5707 793.894 15.5333 793.558 15.496C793.26 15.4587 792.98 15.4213 792.718 15.384C792.457 15.3467 792.289 15.328 792.214 15.328C791.953 15.2533 791.598 15.1787 791.15 15.104C790.702 15.0293 790.478 14.9733 790.478 14.936V0.0959978H804.814V16H809.518C809.518 15.888 809.518 15.6827 809.518 15.384C809.556 15.0853 809.593 14.768 809.63 14.432C809.668 14.096 809.705 13.7787 809.742 13.48C809.78 13.1813 809.817 12.976 809.854 12.864C809.854 12.7893 809.892 12.6773 809.966 12.528C810.078 12.3413 810.153 12.2293 810.19 12.192C810.228 12.1547 810.321 12.0987 810.47 12.024C810.657 11.9493 810.788 11.8933 810.862 11.856C810.974 11.8187 811.198 11.8373 811.534 11.912C811.908 11.9493 812.15 11.968 812.262 11.968V11.184C812.15 11.1467 811.908 11.0907 811.534 11.016C811.198 10.9413 810.974 10.8667 810.862 10.792C810.788 10.792 810.694 10.7733 810.582 10.736C810.47 10.6987 810.358 10.6613 810.246 10.624C810.097 10.5867 809.966 10.5307 809.854 10.456V0.0959978H824.022V3.344C823.948 3.344 823.817 3.32533 823.63 3.288C823.481 3.25066 823.369 3.232 823.294 3.232C823.257 3.19466 823.089 3.08266 822.79 2.896C822.529 2.672 822.361 2.54133 822.286 2.504C822.212 2.46666 822.137 2.42933 822.062 2.392C822.025 2.35467 821.969 2.31733 821.894 2.28C821.782 2.24266 821.689 2.20533 821.614 2.168C821.54 2.168 821.39 2.18666 821.166 2.224C820.98 2.26133 820.774 2.29866 820.55 2.336C820.326 2.37333 820.102 2.41066 819.878 2.448C819.692 2.48533 819.58 2.504 819.542 2.504C819.356 2.54133 819.132 2.57867 818.87 2.616C818.609 2.65333 818.348 2.69066 818.086 2.728C817.825 2.76533 817.601 2.80266 817.414 2.84C817.228 2.84 817.116 2.84 817.078 2.84C816.929 2.84 816.649 2.85867 816.238 2.896C815.865 2.896 815.454 2.896 815.006 2.896C814.558 2.896 814.129 2.896 813.718 2.896C813.345 2.85867 813.084 2.84 812.934 2.84C812.972 2.91466 813.028 2.98933 813.102 3.064C813.177 3.13867 813.233 3.19466 813.27 3.232C813.345 3.26933 813.513 3.32533 813.774 3.4C814.036 3.47466 814.222 3.53066 814.334 3.568C814.409 3.60533 814.54 3.64267 814.726 3.68C814.913 3.71733 815.1 3.75466 815.286 3.792C815.473 3.82933 815.641 3.86667 815.79 3.904C815.94 3.904 816.033 3.904 816.07 3.904C816.294 3.904 816.668 3.92267 817.19 3.96C817.75 3.99733 818.348 4.03466 818.982 4.072C819.617 4.10933 820.214 4.14667 820.774 4.184C821.334 4.22133 821.726 4.24 821.95 4.24C822.025 4.31467 822.137 4.42667 822.286 4.576C822.473 4.72533 822.641 4.89333 822.79 5.08C822.977 5.26666 823.145 5.45333 823.294 5.64C823.481 5.78933 823.612 5.90133 823.686 5.976C823.724 6.05066 823.78 6.16266 823.854 6.312C823.966 6.46133 824.022 6.57333 824.022 6.648V19.976H819.318V24.12H814.838V44H810.19L809.854 43.664C809.817 43.6267 809.705 43.496 809.518 43.272C809.369 43.048 809.182 42.824 808.958 42.6C808.772 42.376 808.585 42.1707 808.398 41.984C808.249 41.76 808.156 41.6293 808.118 41.592C808.081 41.5547 808.044 41.5173 808.006 41.48C808.006 41.4427 807.988 41.4053 807.95 41.368C807.913 41.3307 807.857 41.2933 807.782 41.256H807.614C807.577 41.256 807.54 41.2747 807.502 41.312C807.502 41.3867 807.484 41.4987 807.446 41.648C807.409 41.76 807.39 41.8533 807.39 41.928C807.428 42.0773 807.484 42.3387 807.558 42.712C807.633 43.048 807.708 43.2533 807.782 43.328L808.118 43.664V43.832V43.944C808.118 43.9813 808.137 44 808.174 44H800.334V24.12H795.126Z" fill="#B38539"/>
</svg>
