<svg width="130" height="59" viewBox="0 0 130 59" fill="none" xmlns="http://www.w3.org/2000/svg">
<path d="M0.184 22.928V15.344C0.184 15.3013 0.205333 15.2373 0.248 15.152C0.290667 15.0453 0.333333 14.9707 0.376 14.928C0.376 14.9067 0.408 14.864 0.472 14.8C0.493333 14.7787 0.525333 14.7573 0.568 14.736C0.653333 14.7147 0.813333 14.6827 1.048 14.64C1.304 14.5973 1.47467 14.5653 1.56 14.544V14.352L0.184 13.936L0.184 3.984H3.256V0.911999L20.536 0.911999V7.536H8.184V9.808C8.09867 9.76533 7.91733 9.66933 7.64 9.52C7.384 9.34933 7.20267 9.24267 7.096 9.2H6.904H6.712C6.66933 9.2 6.584 9.21067 6.456 9.232C6.34933 9.25333 6.232 9.27467 6.104 9.296C5.976 9.31733 5.848 9.33867 5.72 9.36C5.61333 9.38133 5.54933 9.392 5.528 9.392C5.464 9.41333 5.35733 9.43467 5.208 9.456C5.08 9.47733 4.94133 9.49867 4.792 9.52C4.64267 9.54133 4.504 9.56267 4.376 9.584C4.248 9.60533 4.16267 9.616 4.12 9.616H4.024H3.928C3.864 9.616 3.74667 9.60533 3.576 9.584C3.40533 9.56267 3.224 9.54133 3.032 9.52C2.86133 9.49867 2.69067 9.47733 2.52 9.456C2.34933 9.43467 2.232 9.41333 2.168 9.392L1.976 9.616C1.976 9.63733 1.99733 9.66933 2.04 9.712C2.08267 9.75467 2.12533 9.78667 2.168 9.808C2.21067 9.808 2.328 9.84 2.52 9.904C2.712 9.94667 2.85067 9.97867 2.936 10C3 10 3.08533 10.0107 3.192 10.032C3.32 10.0533 3.448 10.0747 3.576 10.096C3.704 10.1173 3.82133 10.1387 3.928 10.16C4.03467 10.1813 4.09867 10.192 4.12 10.192C4.22667 10.192 4.41867 10.2027 4.696 10.224C4.99467 10.2453 5.29333 10.2667 5.592 10.288C5.912 10.3093 6.21067 10.3307 6.488 10.352C6.78667 10.3733 6.98933 10.384 7.096 10.384L8.184 11.376V19.376H20.536V26H15.384C15.3627 26 15.2987 25.9787 15.192 25.936C15.1067 25.8933 15.0427 25.8507 15 25.808C14.9573 25.7653 14.8827 25.7013 14.776 25.616C14.6907 25.5093 14.6373 25.4347 14.616 25.392C14.616 25.328 14.6053 25.232 14.584 25.104C14.5627 24.9547 14.5413 24.7947 14.52 24.624C14.4987 24.4533 14.4773 24.2933 14.456 24.144C14.4347 23.9947 14.4133 23.888 14.392 23.824C14.392 23.7813 14.3707 23.7067 14.328 23.6C14.2853 23.4933 14.2427 23.44 14.2 23.44C14.2 23.4187 14.168 23.408 14.104 23.408C14.0613 23.3867 14.0187 23.376 13.976 23.376C13.9547 23.376 13.9227 23.3867 13.88 23.408C13.8373 23.408 13.816 23.4187 13.816 23.44L13.208 26H3.256V22.928H0.184ZM26.0753 18.096C26.0326 18.0747 25.9366 18.0427 25.7873 18C25.6379 17.9573 25.5313 17.9253 25.4673 17.904C25.4246 17.904 25.3179 17.8827 25.1473 17.84C24.9766 17.7973 24.7846 17.7547 24.5713 17.712C24.3793 17.6693 24.1979 17.6373 24.0273 17.616C23.8566 17.5733 23.7499 17.5413 23.7073 17.52L22.9073 16.72C22.8646 16.6773 22.8219 16.6133 22.7793 16.528C22.7366 16.4213 22.7153 16.3573 22.7153 16.336V0.911999L41.8833 0.911999V15.248H39.7073V16.432H41.8833V26H33.6913V16.912H30.9073V26H27.8033C27.8033 25.9573 27.8033 25.8613 27.8033 25.712C27.8246 25.5627 27.8353 25.456 27.8353 25.392C27.8566 25.3707 27.8993 25.2853 27.9633 25.136C28.0273 24.9653 28.0593 24.8587 28.0593 24.816V23.696V22.448C28.0593 22.3627 28.0486 22.192 28.0273 21.936C28.0059 21.68 27.9846 21.424 27.9633 21.168C27.9419 20.8907 27.9206 20.6347 27.8993 20.4C27.8779 20.144 27.8566 19.9733 27.8353 19.888C27.8353 19.8453 27.8139 19.7173 27.7713 19.504C27.7286 19.2907 27.6859 19.152 27.6433 19.088C27.6433 19.0453 27.6113 18.9813 27.5473 18.896C27.5046 18.7893 27.4726 18.7253 27.4513 18.704V23.824C27.4513 23.8667 27.4299 23.984 27.3873 24.176C27.3446 24.368 27.3019 24.5173 27.2593 24.624C27.2379 24.6667 27.2059 24.7413 27.1633 24.848C27.1206 24.9333 27.0886 24.9867 27.0673 25.008C27.0033 25.072 26.9179 25.168 26.8113 25.296C26.7046 25.4027 26.5979 25.5093 26.4913 25.616C26.3846 25.7227 26.2886 25.8187 26.2033 25.904C26.1179 25.968 26.0753 26 26.0753 26H22.7153V18.896C22.7153 18.8747 22.7899 18.8427 22.9393 18.8C23.0886 18.7573 23.2166 18.7253 23.3233 18.704C23.3446 18.704 23.4086 18.6933 23.5153 18.672C23.6433 18.6507 23.7713 18.6293 23.8993 18.608C24.0273 18.5653 24.1446 18.5333 24.2513 18.512C24.3793 18.4907 24.4646 18.48 24.5073 18.48C24.5713 18.48 24.6779 18.4587 24.8273 18.416C24.9766 18.3733 25.1259 18.3307 25.2753 18.288C25.4459 18.2453 25.6059 18.2133 25.7552 18.192C25.9046 18.1493 26.0113 18.1173 26.0753 18.096ZM31.0033 10H33.6913V8.912H37.5312C37.4673 8.86933 37.3073 8.816 37.0513 8.752C36.7953 8.66667 36.6246 8.624 36.5393 8.624C36.4966 8.624 36.4006 8.61333 36.2513 8.592C36.1019 8.57067 35.9313 8.54933 35.7393 8.528C35.5686 8.50667 35.4086 8.48533 35.2593 8.464C35.1099 8.44267 35.0139 8.432 34.9713 8.432C34.8646 8.41067 34.7366 8.4 34.5873 8.4C34.4379 8.37867 34.2993 8.34667 34.1713 8.304C34.0219 8.28267 33.8619 8.25067 33.6913 8.208V7.632H31.0033V10ZM46.898 14.64V12.272H44.242V10.096H47.794C47.73 10.0533 47.57 10 47.314 9.936C47.058 9.85067 46.8873 9.808 46.802 9.808C46.7593 9.808 46.6633 9.79733 46.514 9.776C46.3647 9.75467 46.194 9.73333 46.002 9.712C45.8313 9.69067 45.6713 9.66933 45.522 9.648C45.3727 9.62667 45.2767 9.616 45.234 9.616C45.0847 9.57333 44.882 9.53067 44.626 9.488C44.37 9.44533 44.242 9.41333 44.242 9.392V0.911999H52.434V10H55.122C55.122 9.936 55.122 9.81867 55.122 9.648C55.1433 9.47733 55.1647 9.296 55.186 9.104C55.2073 8.912 55.2287 8.73067 55.25 8.56C55.2713 8.38933 55.2927 8.272 55.314 8.208C55.314 8.16533 55.3353 8.10133 55.378 8.016C55.442 7.90933 55.4847 7.84533 55.506 7.824C55.5273 7.80267 55.5807 7.77067 55.666 7.728C55.7727 7.68533 55.8473 7.65333 55.89 7.632C55.954 7.61067 56.082 7.62133 56.274 7.664C56.4873 7.68533 56.626 7.696 56.69 7.696V7.248C56.626 7.22667 56.4873 7.19467 56.274 7.152C56.082 7.10933 55.954 7.06667 55.89 7.024C55.8473 7.024 55.794 7.01333 55.73 6.992C55.666 6.97067 55.602 6.94933 55.538 6.928C55.4527 6.90667 55.378 6.87467 55.314 6.832V0.911999H63.41V2.768C63.3673 2.768 63.2927 2.75733 63.186 2.736C63.1007 2.71467 63.0367 2.704 62.994 2.704C62.9727 2.68267 62.8767 2.61867 62.706 2.512C62.5567 2.384 62.4607 2.30933 62.418 2.288C62.3753 2.26667 62.3327 2.24533 62.29 2.224C62.2687 2.20267 62.2367 2.18133 62.194 2.16C62.13 2.13866 62.0767 2.11733 62.034 2.096C61.9913 2.096 61.906 2.10667 61.778 2.128C61.6713 2.14933 61.554 2.17067 61.426 2.192C61.298 2.21333 61.17 2.23467 61.042 2.256C60.9353 2.27733 60.8713 2.288 60.85 2.288C60.7433 2.30933 60.6153 2.33067 60.466 2.352C60.3167 2.37333 60.1673 2.39467 60.018 2.416C59.8687 2.43733 59.7407 2.45867 59.634 2.48C59.5273 2.48 59.4633 2.48 59.442 2.48C59.3567 2.48 59.1967 2.49067 58.962 2.512C58.7487 2.512 58.514 2.512 58.258 2.512C58.002 2.512 57.7567 2.512 57.522 2.512C57.3087 2.49067 57.1593 2.48 57.074 2.48C57.0953 2.52267 57.1273 2.56533 57.17 2.608C57.2127 2.65067 57.2447 2.68267 57.266 2.704C57.3087 2.72533 57.4047 2.75733 57.554 2.8C57.7033 2.84267 57.81 2.87466 57.874 2.896C57.9167 2.91733 57.9913 2.93867 58.098 2.96C58.2047 2.98133 58.3113 3.00267 58.418 3.024C58.5247 3.04533 58.6207 3.06667 58.706 3.088C58.7913 3.088 58.8447 3.088 58.866 3.088C58.994 3.088 59.2073 3.09867 59.506 3.12C59.826 3.14133 60.1673 3.16267 60.53 3.184C60.8927 3.20533 61.234 3.22667 61.554 3.248C61.874 3.26933 62.098 3.28 62.226 3.28C62.2687 3.32267 62.3327 3.38667 62.418 3.472C62.5247 3.55733 62.6207 3.65333 62.706 3.76C62.8127 3.86666 62.9087 3.97333 62.994 4.08C63.1007 4.16533 63.1753 4.22933 63.218 4.272C63.2393 4.31467 63.2713 4.37867 63.314 4.464C63.378 4.54933 63.41 4.61333 63.41 4.656V12.272L60.722 12.272V14.64H58.162V26H55.506L55.314 25.808C55.2927 25.7867 55.2287 25.712 55.122 25.584C55.0367 25.456 54.93 25.328 54.802 25.2C54.6953 25.072 54.5887 24.9547 54.482 24.848C54.3967 24.72 54.3433 24.6453 54.322 24.624C54.3007 24.6027 54.2793 24.5813 54.258 24.56C54.258 24.5387 54.2473 24.5173 54.226 24.496C54.2047 24.4747 54.1727 24.4533 54.13 24.432H54.034C54.0127 24.432 53.9913 24.4427 53.97 24.464C53.97 24.5067 53.9593 24.5707 53.938 24.656C53.9167 24.72 53.906 24.7733 53.906 24.816C53.9273 24.9013 53.9593 25.0507 54.002 25.264C54.0447 25.456 54.0873 25.5733 54.13 25.616L54.322 25.808V25.904V25.968C54.322 25.9893 54.3327 26 54.354 26H49.874V14.64H46.898ZM68.919 18.096C68.8763 18.0747 68.7803 18.0427 68.631 18C68.4817 17.9573 68.375 17.9253 68.311 17.904C68.2683 17.904 68.1617 17.8827 67.991 17.84C67.8203 17.7973 67.6283 17.7547 67.415 17.712C67.223 17.6693 67.0417 17.6373 66.871 17.616C66.7003 17.5733 66.5937 17.5413 66.551 17.52L65.751 16.72C65.7083 16.6773 65.6657 16.6133 65.623 16.528C65.5803 16.4213 65.559 16.3573 65.559 16.336V0.911999L84.727 0.911999V18.8H73.751V26H70.647C70.647 25.9573 70.647 25.8613 70.647 25.712C70.6683 25.5627 70.679 25.456 70.679 25.392C70.7003 25.3707 70.743 25.2853 70.807 25.136C70.871 24.9653 70.903 24.8587 70.903 24.816V23.696V22.448C70.903 22.3627 70.8923 22.192 70.871 21.936C70.8497 21.68 70.8283 21.424 70.807 21.168C70.7857 20.8907 70.7643 20.6347 70.743 20.4C70.7217 20.144 70.7003 19.9733 70.679 19.888C70.679 19.8453 70.6577 19.7173 70.615 19.504C70.5723 19.2907 70.5297 19.152 70.487 19.088C70.487 19.0453 70.455 18.9813 70.391 18.896C70.3483 18.7893 70.3163 18.7253 70.295 18.704V23.824C70.295 23.8667 70.2737 23.984 70.231 24.176C70.1883 24.368 70.1457 24.5173 70.103 24.624C70.0817 24.6667 70.0497 24.7413 70.007 24.848C69.9643 24.9333 69.9323 24.9867 69.911 25.008C69.847 25.072 69.7617 25.168 69.655 25.296C69.5483 25.4027 69.4417 25.5093 69.335 25.616C69.2283 25.7227 69.1323 25.8187 69.047 25.904C68.9617 25.968 68.919 26 68.919 26H65.559V18.896C65.559 18.8747 65.6337 18.8427 65.783 18.8C65.9323 18.7573 66.0603 18.7253 66.167 18.704C66.1883 18.704 66.2523 18.6933 66.359 18.672C66.487 18.6507 66.615 18.6293 66.743 18.608C66.871 18.5653 66.9883 18.5333 67.095 18.512C67.223 18.4907 67.3083 18.48 67.351 18.48C67.415 18.48 67.5217 18.4587 67.671 18.416C67.8203 18.3733 67.9697 18.3307 68.119 18.288C68.2897 18.2453 68.4497 18.2133 68.599 18.192C68.7483 18.1493 68.855 18.1173 68.919 18.096ZM73.847 12.752H76.535V8.912H80.375C80.311 8.86933 80.151 8.816 79.895 8.752C79.639 8.66667 79.4683 8.624 79.383 8.624C79.3403 8.624 79.2443 8.61333 79.095 8.592C78.9457 8.57067 78.775 8.54933 78.583 8.528C78.4123 8.50667 78.2523 8.48533 78.103 8.464C77.9537 8.44267 77.8577 8.432 77.815 8.432C77.7083 8.41067 77.5803 8.4 77.431 8.4C77.2817 8.37867 77.143 8.34667 77.015 8.304C76.8657 8.28267 76.7057 8.25067 76.535 8.208V6.832H73.847V12.752ZM93.6228 11.568C93.6441 11.568 93.6548 11.536 93.6548 11.472V11.44C93.6548 11.4187 93.6441 11.3973 93.6228 11.376C93.6014 11.376 93.5161 11.3547 93.3668 11.312C93.2174 11.248 93.1108 11.2053 93.0468 11.184C92.9614 11.1627 92.8014 11.1307 92.5668 11.088C92.3534 11.024 92.2148 10.992 92.1508 10.992V7.536H86.7108V0.911999L105.879 0.911999V7.44H103.895C103.873 7.44 103.831 7.36533 103.767 7.216C103.724 7.06667 103.703 6.93867 103.703 6.832C103.703 6.81067 103.703 6.75733 103.703 6.672C103.703 6.56533 103.703 6.45867 103.703 6.352C103.703 6.224 103.703 6.11733 103.703 6.032C103.703 5.92533 103.703 5.86133 103.703 5.84L103.607 5.744C103.543 5.72267 103.511 5.69067 103.511 5.648C103.489 5.62667 103.457 5.56267 103.415 5.456C103.372 5.34933 103.34 5.28533 103.319 5.264C103.276 5.24267 103.201 5.21067 103.095 5.168C102.988 5.12533 102.924 5.09333 102.903 5.072C102.881 5.02933 102.849 4.96533 102.807 4.88C102.764 4.77333 102.732 4.69867 102.711 4.656C102.689 4.656 102.647 4.63467 102.583 4.592C102.54 4.528 102.519 4.48533 102.519 4.464C102.497 4.42133 102.433 4.32533 102.327 4.176C102.22 4.00533 102.145 3.90933 102.103 3.888C102.06 3.824 102.007 3.74933 101.943 3.664C101.879 3.57867 101.815 3.49333 101.751 3.408C101.665 3.32267 101.591 3.216 101.527 3.088H101.335C101.335 3.152 101.356 3.29067 101.399 3.504C101.463 3.696 101.505 3.824 101.527 3.888C101.548 3.888 101.58 3.92 101.623 3.984C101.687 4.02667 101.719 4.05866 101.719 4.08C101.74 4.10133 101.772 4.16533 101.815 4.272C101.879 4.37867 101.911 4.44267 101.911 4.464L102.103 4.656C102.124 4.69867 102.124 4.80533 102.103 4.976C102.103 5.12533 102.103 5.22133 102.103 5.264C102.145 5.30667 102.241 5.41333 102.391 5.584C102.561 5.73333 102.668 5.81867 102.711 5.84C102.753 5.88267 102.796 5.95733 102.839 6.064C102.881 6.14933 102.903 6.21333 102.903 6.256C102.924 6.36267 102.945 6.576 102.967 6.896C102.988 7.216 102.999 7.42933 102.999 7.536H100.439V26H98.7748C98.7534 25.8933 98.7214 25.7013 98.6788 25.424C98.6361 25.1253 98.5934 24.9227 98.5508 24.816C98.5508 24.7733 98.5188 24.656 98.4548 24.464C98.4121 24.2507 98.3801 24.1013 98.3588 24.016C98.3374 23.9307 98.3054 23.8133 98.2628 23.664C98.2201 23.5147 98.1881 23.44 98.1668 23.44L98.1028 23.408C98.0814 23.408 98.0601 23.4187 98.0388 23.44C98.0388 23.44 98.0281 23.44 98.0068 23.44H97.9748C97.9534 23.44 97.9108 23.472 97.8468 23.536C97.8041 23.5787 97.7828 23.6107 97.7828 23.632C97.7828 23.696 97.7721 23.8027 97.7508 23.952C97.7294 24.1013 97.7081 24.2613 97.6868 24.432C97.6654 24.5813 97.6441 24.7307 97.6228 24.88C97.6014 25.0293 97.5908 25.136 97.5908 25.2C97.5908 25.2427 97.5588 25.3173 97.4948 25.424C97.4521 25.5093 97.4094 25.5733 97.3668 25.616C97.3668 25.6373 97.3348 25.6693 97.2708 25.712C97.2281 25.7547 97.1961 25.7867 97.1748 25.808C97.1321 25.8507 97.0574 25.8933 96.9508 25.936C96.8654 25.9787 96.8121 26 96.7908 26H92.2468V12.176C92.2468 12.1333 92.2894 12.0693 92.3748 11.984C92.4814 11.8773 92.5668 11.8133 92.6308 11.792C92.7161 11.7493 92.8761 11.7067 93.1108 11.664C93.3668 11.6 93.5374 11.568 93.6228 11.568ZM109.404 22.448C109.404 22.448 109.414 22.4267 109.436 22.384V22.352C109.436 22.288 109.425 22.256 109.404 22.256C109.404 22.2347 109.329 22.2027 109.18 22.16C109.03 22.1173 108.913 22.0853 108.828 22.064C108.764 22.0213 108.625 21.9787 108.412 21.936C108.22 21.8933 108.092 21.8613 108.028 21.84V0.911999H117.5C117.542 0.911999 117.606 0.965332 117.692 1.072C117.798 1.17867 117.873 1.25333 117.916 1.296C117.937 1.33867 117.969 1.43467 118.012 1.584C118.054 1.73333 118.086 1.84 118.108 1.904C118.108 1.94667 118.118 2.032 118.14 2.16C118.161 2.288 118.182 2.43733 118.204 2.608C118.225 2.75733 118.246 2.90667 118.268 3.056C118.289 3.184 118.3 3.25867 118.3 3.28C118.3 3.30133 118.321 3.344 118.364 3.408C118.406 3.45067 118.449 3.472 118.492 3.472L118.588 3.504H118.652C118.673 3.504 118.684 3.49333 118.684 3.472C118.705 3.408 118.726 3.30133 118.748 3.152C118.79 3.00267 118.833 2.85333 118.876 2.704C118.94 2.53333 118.982 2.37333 119.004 2.224C119.046 2.07467 119.078 1.968 119.1 1.904C119.121 1.84 119.153 1.68 119.196 1.424C119.238 1.168 119.27 0.997332 119.292 0.911999H122.236L123.836 2.288C123.857 2.30933 123.942 2.30933 124.092 2.288C124.262 2.24533 124.454 2.192 124.668 2.128C124.881 2.064 125.094 2 125.308 1.936C125.521 1.85067 125.692 1.776 125.82 1.712C125.841 1.69066 125.894 1.648 125.98 1.584C126.065 1.49867 126.15 1.41333 126.236 1.328C126.321 1.24267 126.396 1.168 126.46 1.104C126.524 1.01866 126.566 0.954665 126.588 0.911999H129.756V11.792L129.564 11.984C129.521 12.0267 129.446 12.0693 129.34 12.112C129.254 12.1547 129.19 12.176 129.148 12.176C129.126 12.1973 129.03 12.1973 128.86 12.176C128.71 12.1547 128.614 12.1547 128.572 12.176C128.55 12.1973 128.508 12.2293 128.444 12.272C128.401 12.3147 128.38 12.3467 128.38 12.368C128.422 12.3893 128.486 12.432 128.572 12.496C128.657 12.5387 128.721 12.56 128.764 12.56C128.806 12.5813 128.934 12.6133 129.148 12.656C129.382 12.6987 129.521 12.7307 129.564 12.752C129.606 12.7733 129.649 12.8053 129.692 12.848C129.734 12.8907 129.756 12.9333 129.756 12.976V26L108.028 26V23.024C108.028 23.0027 108.081 22.9493 108.188 22.864C108.294 22.7573 108.369 22.6827 108.412 22.64C108.497 22.5973 108.657 22.5547 108.892 22.512C109.148 22.4693 109.318 22.448 109.404 22.448ZM116.124 19.28H121.756V17.168C121.777 17.168 121.82 17.1573 121.884 17.136C121.969 17.1147 122.022 17.104 122.044 17.104C122.086 17.1253 122.214 17.2 122.428 17.328C122.662 17.4347 122.801 17.4987 122.844 17.52H123.196H123.644C123.665 17.52 123.729 17.5093 123.836 17.488C123.964 17.4453 124.092 17.4133 124.22 17.392C124.348 17.3707 124.465 17.3493 124.572 17.328C124.7 17.3067 124.785 17.296 124.828 17.296C124.956 17.296 125.169 17.296 125.468 17.296C125.766 17.2747 126.086 17.264 126.428 17.264C126.79 17.264 127.121 17.264 127.42 17.264C127.718 17.2427 127.932 17.232 128.06 17.232C128.06 17.1893 128.028 17.1467 127.964 17.104C127.942 17.0827 127.878 17.0507 127.772 17.008C127.686 16.9653 127.622 16.9333 127.58 16.912C127.494 16.8907 127.324 16.8587 127.068 16.816C126.812 16.752 126.652 16.72 126.588 16.72C126.46 16.72 126.225 16.7093 125.884 16.688C125.564 16.6667 125.212 16.6453 124.828 16.624C124.444 16.6027 124.081 16.5813 123.74 16.56C123.398 16.5387 123.164 16.528 123.036 16.528L121.756 15.344V7.632H116.124V19.28ZM1.752 46.352C1.70933 46.352 1.61333 46.3307 1.464 46.288C1.336 46.2453 1.19733 46.2027 1.048 46.16C0.92 46.1173 0.781333 46.0747 0.632 46.032C0.504 45.9893 0.418667 45.9573 0.376 45.936C0.333333 45.936 0.290667 45.9147 0.248 45.872C0.205333 45.8293 0.184 45.7867 0.184 45.744L0.184 32.912H20.728V39.536H8.376V41.808C8.29067 41.7653 8.10933 41.6693 7.832 41.52C7.576 41.3493 7.39467 41.2427 7.288 41.2H7.128H6.904C6.86133 41.2 6.78667 41.2107 6.68 41.232C6.57333 41.2533 6.44533 41.2747 6.296 41.296C6.168 41.3173 6.04 41.3387 5.912 41.36C5.80533 41.3813 5.74133 41.392 5.72 41.392C5.656 41.4133 5.54933 41.4347 5.4 41.456C5.272 41.4773 5.13333 41.4987 4.984 41.52C4.856 41.5413 4.728 41.5627 4.6 41.584C4.472 41.6053 4.38667 41.616 4.344 41.616H4.248H4.12C4.056 41.616 3.93867 41.6053 3.768 41.584C3.59733 41.5627 3.416 41.5413 3.224 41.52C3.05333 41.4987 2.88267 41.4773 2.712 41.456C2.54133 41.4347 2.424 41.4133 2.36 41.392L2.168 41.616C2.168 41.6373 2.18933 41.6693 2.232 41.712C2.296 41.7547 2.33867 41.7867 2.36 41.808C2.40267 41.808 2.52 41.84 2.712 41.904C2.904 41.9467 3.05333 41.9787 3.16 42C3.224 42 3.30933 42.0107 3.416 42.032C3.544 42.0533 3.672 42.0747 3.8 42.096C3.928 42.1173 4.03467 42.1387 4.12 42.16C4.22667 42.1813 4.30133 42.192 4.344 42.192C4.45067 42.192 4.64267 42.2027 4.92 42.224C5.19733 42.2453 5.48533 42.2667 5.784 42.288C6.104 42.3093 6.40267 42.3307 6.68 42.352C6.97867 42.3733 7.18133 42.384 7.288 42.384L8.376 43.376V51.376H20.728V58H15.576C15.5547 58 15.4907 57.9787 15.384 57.936C15.2987 57.8933 15.2347 57.8507 15.192 57.808C15.1493 57.7653 15.0853 57.7013 15 57.616C14.9147 57.5093 14.8507 57.4347 14.808 57.392C14.808 57.328 14.7973 57.232 14.776 57.104C14.7547 56.9547 14.7333 56.7947 14.712 56.624C14.6907 56.4533 14.6693 56.2933 14.648 56.144C14.6267 55.9947 14.616 55.888 14.616 55.824C14.5947 55.7813 14.5627 55.7067 14.52 55.6C14.4773 55.4933 14.4347 55.44 14.392 55.44C14.392 55.4187 14.36 55.408 14.296 55.408C14.2533 55.3867 14.2107 55.376 14.168 55.376C14.1467 55.376 14.1147 55.3867 14.072 55.408C14.0293 55.408 14.008 55.4187 14.008 55.44L13.432 58H0.184L0.184 47.728C0.184 47.7067 0.237333 47.6 0.344 47.408C0.450667 47.1947 0.525333 47.0347 0.568 46.928C0.610667 46.8853 0.642667 46.8427 0.664 46.8C0.706667 46.7573 0.749333 46.736 0.792 46.736C0.856 46.7147 1.00533 46.6827 1.24 46.64C1.496 46.5973 1.66667 46.5653 1.752 46.544V46.352ZM26.2628 50.096C26.2201 50.0747 26.1241 50.0427 25.9748 50C25.8254 49.9573 25.7188 49.9253 25.6548 49.904C25.6121 49.904 25.5054 49.8827 25.3348 49.84C25.1641 49.7973 24.9721 49.7547 24.7588 49.712C24.5668 49.6693 24.3854 49.6373 24.2148 49.616C24.0441 49.5733 23.9374 49.5413 23.8948 49.52L23.0948 48.72C23.0521 48.6773 23.0094 48.6133 22.9668 48.528C22.9241 48.4213 22.9028 48.3573 22.9028 48.336V32.912H42.0708V47.248H39.8948V48.432H42.0708V58H33.8788V48.912H31.0948V58H27.9908C27.9908 57.9573 27.9908 57.8613 27.9908 57.712C28.0121 57.5627 28.0228 57.456 28.0228 57.392C28.0441 57.3707 28.0868 57.2853 28.1508 57.136C28.2148 56.9653 28.2468 56.8587 28.2468 56.816V55.696V54.448C28.2468 54.3627 28.2361 54.192 28.2148 53.936C28.1934 53.68 28.1721 53.424 28.1508 53.168C28.1294 52.8907 28.1081 52.6347 28.0868 52.4C28.0654 52.144 28.0441 51.9733 28.0228 51.888C28.0228 51.8453 28.0014 51.7173 27.9588 51.504C27.9161 51.2907 27.8734 51.152 27.8308 51.088C27.8308 51.0453 27.7988 50.9813 27.7348 50.896C27.6921 50.7893 27.6601 50.7253 27.6388 50.704V55.824C27.6388 55.8667 27.6174 55.984 27.5748 56.176C27.5321 56.368 27.4894 56.5173 27.4468 56.624C27.4254 56.6667 27.3934 56.7413 27.3508 56.848C27.3081 56.9333 27.2761 56.9867 27.2548 57.008C27.1908 57.072 27.1054 57.168 26.9988 57.296C26.8921 57.4027 26.7854 57.5093 26.6788 57.616C26.5721 57.7227 26.4761 57.8187 26.3908 57.904C26.3054 57.968 26.2628 58 26.2628 58H22.9028V50.896C22.9028 50.8747 22.9774 50.8427 23.1268 50.8C23.2761 50.7573 23.4041 50.7253 23.5108 50.704C23.5321 50.704 23.5961 50.6933 23.7028 50.672C23.8308 50.6507 23.9588 50.6293 24.0868 50.608C24.2148 50.5653 24.3321 50.5333 24.4388 50.512C24.5668 50.4907 24.6521 50.48 24.6948 50.48C24.7588 50.48 24.8654 50.4587 25.0148 50.416C25.1641 50.3733 25.3134 50.3307 25.4628 50.288C25.6334 50.2453 25.7934 50.2133 25.9427 50.192C26.0921 50.1493 26.1988 50.1173 26.2628 50.096ZM31.1908 42H33.8788V40.912H37.7188C37.6548 40.8693 37.4948 40.816 37.2388 40.752C36.9828 40.6667 36.8121 40.624 36.7268 40.624C36.6841 40.624 36.5881 40.6133 36.4388 40.592C36.2894 40.5707 36.1188 40.5493 35.9268 40.528C35.7561 40.5067 35.5961 40.4853 35.4468 40.464C35.2974 40.4427 35.2014 40.432 35.1588 40.432C35.0521 40.4107 34.9241 40.4 34.7748 40.4C34.6254 40.3787 34.4868 40.3467 34.3588 40.304C34.2094 40.2827 34.0494 40.2507 33.8788 40.208V39.632H31.1908V42ZM58.2535 32.912C58.2962 32.976 58.3815 33.0613 58.5095 33.168C58.6588 33.2533 58.7655 33.296 58.8295 33.296C58.9148 33.296 59.0535 33.2533 59.2455 33.168C59.4588 33.0613 59.5868 32.976 59.6295 32.912H63.7895V52.56C63.7468 52.56 63.6402 52.5493 63.4695 52.528C63.3202 52.5067 63.2242 52.4853 63.1815 52.464C63.1388 52.464 63.0108 52.4 62.7975 52.272C62.5842 52.144 62.4562 52.08 62.4135 52.08C62.3495 52.08 62.2215 52.0693 62.0295 52.048C61.8375 52.0267 61.6242 52.0053 61.3895 51.984C61.1762 51.9627 60.9522 51.9413 60.7175 51.92C60.5042 51.8987 60.3442 51.888 60.2375 51.888C60.2162 51.888 60.1415 51.888 60.0135 51.888C59.9068 51.888 59.7788 51.888 59.6295 51.888C59.5015 51.8667 59.3628 51.856 59.2135 51.856C59.0855 51.856 58.9788 51.856 58.8935 51.856C58.8082 51.856 58.6908 51.856 58.5415 51.856C58.4135 51.856 58.2855 51.8667 58.1575 51.888C58.0295 51.888 57.9122 51.888 57.8055 51.888C57.7202 51.888 57.6668 51.888 57.6455 51.888C57.6242 51.888 57.5388 51.9093 57.3895 51.952C57.2402 51.9947 57.1335 52.0373 57.0695 52.08C57.0055 52.1227 56.8668 52.1867 56.6535 52.272C56.4402 52.3573 56.3122 52.4213 56.2695 52.464L56.0775 52.656C56.0562 52.6987 56.0455 52.7307 56.0455 52.752V52.88C56.0455 52.9013 56.0455 52.9333 56.0455 52.976C56.0668 53.0187 56.0775 53.0507 56.0775 53.072C56.0988 53.0293 56.1308 52.9867 56.1735 52.944C56.2162 52.9013 56.2482 52.88 56.2695 52.88C56.3122 52.8373 56.3762 52.7947 56.4615 52.752C56.5682 52.7093 56.6428 52.6773 56.6855 52.656C56.7495 52.6133 56.8775 52.5707 57.0695 52.528C57.2828 52.4853 57.4108 52.464 57.4535 52.464H58.6375H59.8215C59.8428 52.464 59.9068 52.4747 60.0135 52.496C60.1202 52.496 60.2375 52.5067 60.3655 52.528C60.4935 52.5493 60.6108 52.5707 60.7175 52.592C60.8455 52.6133 60.9415 52.6347 61.0055 52.656C61.0482 52.6773 61.1442 52.7093 61.2935 52.752C61.4642 52.7947 61.5708 52.8373 61.6135 52.88C61.6562 52.9013 61.7522 52.9653 61.9015 53.072C62.0722 53.1787 62.1682 53.2427 62.1895 53.264C62.2322 53.2853 62.3602 53.3173 62.5735 53.36C62.8082 53.4027 62.9468 53.4347 62.9895 53.456C63.0322 53.4987 63.0962 53.5413 63.1815 53.584C63.2882 53.6053 63.3842 53.6373 63.4695 53.68C63.5548 53.744 63.6615 53.7973 63.7895 53.84V58H55.5975V51.28H52.8135V58.064C52.7282 58.064 52.5895 58.064 52.3975 58.064C52.2055 58.064 51.9922 58.0533 51.7575 58.032C51.5442 58.032 51.3415 58.0213 51.1495 58C50.9575 58 50.8188 58 50.7335 58C50.6268 57.9787 50.4242 57.9467 50.1255 57.904C49.8268 57.8613 49.6348 57.8293 49.5495 57.808C49.5068 57.7867 49.3788 57.712 49.1655 57.584C48.9522 57.456 48.8242 57.392 48.7815 57.392C48.6748 57.4133 48.5255 57.4987 48.3335 57.648C48.1415 57.7973 48.0242 57.9147 47.9815 58H44.6215V32.912H58.2535ZM52.9095 45.168H55.5015V38.832H52.9095V45.168ZM85.3163 32.912V39.44H80.3563V37.84C80.3349 37.84 80.3029 37.8187 80.2603 37.776C80.2176 37.712 80.1856 37.6693 80.1643 37.648C80.1429 37.6267 80.1109 37.5627 80.0683 37.456C80.0256 37.3493 79.9936 37.2853 79.9723 37.264C79.9509 37.2427 79.8869 37.2107 79.7803 37.168C79.6736 37.1253 79.6096 37.0933 79.5883 37.072C79.5456 37.0293 79.5029 36.9653 79.4603 36.88C79.4176 36.7733 79.3856 36.6987 79.3643 36.656L79.1723 36.464C79.1509 36.4213 79.0869 36.3253 78.9803 36.176C78.8736 36.0053 78.8096 35.9093 78.7883 35.888C78.7456 35.824 78.6816 35.7493 78.5963 35.664C78.5323 35.5787 78.4683 35.4933 78.4043 35.408C78.3189 35.3227 78.2443 35.216 78.1803 35.088H77.9883C78.0096 35.152 78.0416 35.2907 78.0843 35.504C78.1269 35.696 78.1589 35.824 78.1803 35.888C78.2016 35.888 78.2336 35.92 78.2763 35.984C78.3403 36.0267 78.3829 36.0587 78.4043 36.08C78.4043 36.1013 78.4256 36.1653 78.4683 36.272C78.5323 36.3787 78.5749 36.4427 78.5963 36.464C78.5963 36.5067 78.6283 36.5387 78.6923 36.56L78.7883 36.656C78.8096 36.6987 78.8096 36.8053 78.7883 36.976C78.7669 37.1253 78.7669 37.2213 78.7883 37.264C78.8096 37.3067 78.9056 37.4133 79.0763 37.584C79.2469 37.7333 79.3429 37.8187 79.3643 37.84C79.4069 37.8827 79.4496 37.9573 79.4923 38.064C79.5563 38.1493 79.5883 38.2133 79.5883 38.256V38.832V39.248L79.1723 39.536H74.6283V42.096H85.3163V48.72H79.3323C79.3323 48.6773 79.3323 48.6133 79.3323 48.528C79.3536 48.4213 79.3643 48.3573 79.3643 48.336C79.3856 48.272 79.4176 48.1333 79.4603 47.92C79.5243 47.7067 79.5883 47.4827 79.6523 47.248C79.7376 46.992 79.8016 46.7573 79.8443 46.544C79.9083 46.3307 79.9509 46.2027 79.9723 46.16C79.9723 46.1387 79.9723 46.1067 79.9723 46.064C79.9936 46.0213 80.0043 45.9787 80.0043 45.936C80.0043 45.9147 79.9936 45.8827 79.9723 45.84C79.9723 45.7973 79.9723 45.7653 79.9723 45.744C79.9083 45.7867 79.8016 45.8827 79.6523 46.032C79.5029 46.1813 79.4069 46.288 79.3643 46.352C79.3216 46.4373 79.2363 46.5973 79.1083 46.832C79.0016 47.0667 78.8843 47.312 78.7563 47.568C78.6283 47.824 78.5109 48.08 78.4043 48.336C78.2976 48.5707 78.2229 48.7307 78.1803 48.816H74.5323V58H66.3403V32.912H85.3163ZM94.1853 43.568C94.2066 43.568 94.2173 43.536 94.2173 43.472V43.44C94.2173 43.4187 94.2066 43.3973 94.1853 43.376C94.1639 43.376 94.0786 43.3547 93.9293 43.312C93.7799 43.248 93.6733 43.2053 93.6093 43.184C93.5239 43.1627 93.3639 43.1307 93.1293 43.088C92.9159 43.024 92.7773 42.992 92.7133 42.992V39.536H87.2733V32.912H106.441V39.44H104.457C104.436 39.44 104.393 39.3653 104.329 39.216C104.287 39.0667 104.265 38.9387 104.265 38.832C104.265 38.8107 104.265 38.7573 104.265 38.672C104.265 38.5653 104.265 38.4587 104.265 38.352C104.265 38.224 104.265 38.1173 104.265 38.032C104.265 37.9253 104.265 37.8613 104.265 37.84L104.169 37.744C104.105 37.7227 104.073 37.6907 104.073 37.648C104.052 37.6267 104.02 37.5627 103.977 37.456C103.935 37.3493 103.903 37.2853 103.881 37.264C103.839 37.2427 103.764 37.2107 103.657 37.168C103.551 37.1253 103.487 37.0933 103.465 37.072C103.444 37.0293 103.412 36.9653 103.369 36.88C103.327 36.7733 103.295 36.6987 103.273 36.656C103.252 36.656 103.209 36.6347 103.145 36.592C103.103 36.528 103.081 36.4853 103.081 36.464C103.06 36.4213 102.996 36.3253 102.889 36.176C102.783 36.0053 102.708 35.9093 102.665 35.888C102.623 35.824 102.569 35.7493 102.505 35.664C102.441 35.5787 102.377 35.4933 102.313 35.408C102.228 35.3227 102.153 35.216 102.089 35.088H101.897C101.897 35.152 101.919 35.2907 101.961 35.504C102.025 35.696 102.068 35.824 102.089 35.888C102.111 35.888 102.143 35.92 102.185 35.984C102.249 36.0267 102.281 36.0587 102.281 36.08C102.303 36.1013 102.335 36.1653 102.377 36.272C102.441 36.3787 102.473 36.4427 102.473 36.464L102.665 36.656C102.687 36.6987 102.687 36.8053 102.665 36.976C102.665 37.1253 102.665 37.2213 102.665 37.264C102.708 37.3067 102.804 37.4133 102.953 37.584C103.124 37.7333 103.231 37.8187 103.273 37.84C103.316 37.8827 103.359 37.9573 103.401 38.064C103.444 38.1493 103.465 38.2133 103.465 38.256C103.487 38.3627 103.508 38.576 103.529 38.896C103.551 39.216 103.561 39.4293 103.561 39.536H101.001V58H99.3373C99.3159 57.8933 99.2839 57.7013 99.2413 57.424C99.1986 57.1253 99.1559 56.9227 99.1133 56.816C99.1133 56.7733 99.0813 56.656 99.0173 56.464C98.9746 56.2507 98.9426 56.1013 98.9213 56.016C98.8999 55.9307 98.8679 55.8133 98.8253 55.664C98.7826 55.5147 98.7506 55.44 98.7293 55.44L98.6653 55.408C98.6439 55.408 98.6226 55.4187 98.6013 55.44C98.6013 55.44 98.5906 55.44 98.5693 55.44H98.5373C98.5159 55.44 98.4733 55.472 98.4093 55.536C98.3666 55.5787 98.3453 55.6107 98.3453 55.632C98.3453 55.696 98.3346 55.8027 98.3133 55.952C98.2919 56.1013 98.2706 56.2613 98.2493 56.432C98.2279 56.5813 98.2066 56.7307 98.1853 56.88C98.1639 57.0293 98.1533 57.136 98.1533 57.2C98.1533 57.2427 98.1213 57.3173 98.0573 57.424C98.0146 57.5093 97.9719 57.5733 97.9293 57.616C97.9293 57.6373 97.8973 57.6693 97.8333 57.712C97.7906 57.7547 97.7586 57.7867 97.7373 57.808C97.6946 57.8507 97.6199 57.8933 97.5133 57.936C97.4279 57.9787 97.3746 58 97.3533 58H92.8093V44.176C92.8093 44.1333 92.8519 44.0693 92.9373 43.984C93.0439 43.8773 93.1293 43.8133 93.1933 43.792C93.2786 43.7493 93.4386 43.7067 93.6733 43.664C93.9293 43.6 94.0999 43.568 94.1853 43.568Z" fill="#F0F0F0"/>
</svg>
