<svg width="20" height="20" viewBox="0 0 20 20" fill="none" xmlns="http://www.w3.org/2000/svg">
<g id="logos:metamask-icon" clip-path="url(#clip0_6515_1020)">
<path id="Vector" d="M19.5332 0L10.9541 6.77325L12.5495 2.78158L19.5332 0Z" fill="#E17726"/>
<path id="Vector_2" d="M0.486453 0.00799561L7.45154 2.78208L8.96638 6.82608L0.486453 0.00799561ZM16.0807 14.4048L19.8726 14.4818L18.5474 19.2853L13.9205 17.9261L16.0807 14.4048ZM3.91882 14.4048L6.07103 17.9261L1.45193 19.2854L0.134766 14.4818L3.91882 14.4048Z" fill="#E27625"/>
<path id="Vector_3" d="M8.76028 5.79597L8.91523 11.1362L4.27832 10.9111L5.59728 8.78797L5.614 8.76756L8.76028 5.79597ZM11.191 5.73639L14.3853 8.76772L14.4019 8.78806L15.7208 10.9112L11.0849 11.1362L11.191 5.73639ZM6.2067 14.4203L8.73857 16.5252L5.79745 18.0403L6.2067 14.4203ZM13.7931 14.42L14.1938 18.0404L11.2609 16.5251L13.7931 14.42Z" fill="#E27625"/>
<path id="Vector_4" d="M11.3257 16.3268L14.3019 17.8645L11.5335 19.2683L11.5622 18.3405L11.3257 16.3268ZM8.6729 16.3275L8.4457 18.3253L8.46437 19.2673L5.68945 17.8645L8.6729 16.3275Z" fill="#D5BFB2"/>
<path id="Vector_5" d="M7.81348 11.8333L8.5912 13.5773L5.94336 12.7496L7.81348 11.8333ZM12.1859 11.8334L14.0649 12.7496L11.4084 13.577L12.1859 11.8334Z" fill="#233447"/>
<path id="Vector_6" d="M6.40954 14.4025L5.98155 18.1558L3.6875 14.4846L6.40954 14.4025ZM13.5909 14.4026L16.313 14.4846L14.0104 18.156L13.5909 14.4026ZM15.7883 10.6989L13.8073 12.8532L12.2799 12.1084L11.5486 13.7487L11.0693 10.928L15.7883 10.6989ZM4.21093 10.6989L8.93094 10.928L8.45148 13.7487L7.72007 12.1087L6.20078 12.8532L4.21093 10.6989Z" fill="#CC6228"/>
<path id="Vector_7" d="M4.07715 10.2568L6.31848 12.6836L6.39611 15.0793L4.07715 10.2568ZM15.9248 10.2525L13.6016 15.0836L13.6891 12.6836L15.9248 10.2525ZM8.82106 10.4047L8.91126 11.0105L9.13416 12.5198L8.99085 17.1552L8.31332 13.4314L8.31309 13.3929L8.82106 10.4047ZM11.1774 10.3963L11.6867 13.3929L11.6865 13.4314L11.0072 17.1645L10.9804 16.2308L10.8744 12.4923L11.1774 10.3963Z" fill="#E27525"/>
<path id="Vector_8" d="M13.8889 12.5872L13.813 14.6687L11.4486 16.6342L10.9706 16.2739L11.5064 13.3293L13.8889 12.5872ZM6.12012 12.5872L8.4943 13.3293L9.03007 16.2739L8.55209 16.6342L6.1876 14.6685L6.12012 12.5872Z" fill="#F5841F"/>
<path id="Vector_9" d="M5.2373 17.4048L8.2623 18.9342L8.24949 18.2811L8.50261 18.044H11.4965L11.7588 18.2803L11.7394 18.9328L14.7453 17.4087L13.2826 18.6983L11.514 19.9944H8.47832L6.71091 18.693L5.2373 17.4048Z" fill="#C0AC9D"/>
<path id="Vector_10" d="M11.1097 16.1232L11.5374 16.4456L11.788 18.5793L11.4253 18.2526H8.57653L8.2207 18.5859L8.46313 16.4458L8.89096 16.1232H11.1097Z" fill="#161616"/>
<path id="Vector_11" d="M18.9668 0.1875L19.9967 3.48392L19.3535 6.817L19.8115 7.19392L19.1918 7.69842L19.6576 8.08225L19.0408 8.6815L19.4194 8.97408L18.4146 10.2262L14.2932 8.94583L14.2575 8.92542L11.2876 6.25225L18.9668 0.1875ZM1.03276 0.1875L8.71208 6.25225L5.74207 8.92542L5.70638 8.94583L1.58501 10.2262L0.580171 8.97408L0.95849 8.68175L0.342121 8.08225L0.806975 7.69883L0.177953 7.19292L0.653195 6.81575L0.00292969 3.48408L1.03276 0.1875Z" fill="#763E1A"/>
<path id="Vector_12" d="M14.0922 8.66584L18.459 10.0224L19.8777 14.6879H16.1348L13.556 14.7226L15.4315 10.8219L14.0922 8.66584ZM5.90851 8.66584L4.569 10.8219L6.44475 14.7226L3.86704 14.6879H0.130859L1.54159 10.0225L5.90851 8.66584ZM12.7639 2.75934L11.5424 6.27925L11.2832 11.0343L11.184 12.5247L11.1762 16.332H8.82447L8.81682 12.5318L8.71732 11.033L8.45802 6.27925L7.23676 2.75934H12.7639Z" fill="#F5841F"/>
</g>
<defs>
<clipPath id="clip0_6515_1020">
<rect width="20" height="20" fill="white"/>
</clipPath>
</defs>
</svg>
