<svg width="20" height="20" viewBox="0 0 20 20" fill="none" xmlns="http://www.w3.org/2000/svg">
<g id="simple-icons:walletconnect" clip-path="url(#clip0_6515_1773)">
<path id="Vector" d="M4.09419 6.26583C7.35669 3.07333 12.6442 3.07333 15.9059 6.26583L16.2984 6.65C16.3371 6.68753 16.3679 6.73247 16.389 6.78214C16.41 6.83182 16.4209 6.88522 16.4209 6.93917C16.4209 6.99312 16.41 7.04652 16.389 7.09619C16.3679 7.14587 16.3371 7.19081 16.2984 7.22833L14.9559 8.5425C14.9166 8.58128 14.8636 8.60302 14.8084 8.60302C14.7531 8.60302 14.7002 8.58128 14.6609 8.5425L14.12 8.01417C11.845 5.78667 8.15585 5.78667 5.88085 8.01417L5.30252 8.58083C5.26287 8.61927 5.20982 8.64077 5.1546 8.64077C5.09938 8.64077 5.04633 8.61927 5.00669 8.58083L3.66419 7.26583C3.62545 7.22838 3.59465 7.18351 3.57361 7.13391C3.55257 7.0843 3.54173 7.03097 3.54173 6.97709C3.54173 6.9232 3.55257 6.86987 3.57361 6.82026C3.59465 6.77066 3.62545 6.72579 3.66419 6.68833L4.09419 6.26583ZM18.6825 8.985L19.8775 10.155C19.9163 10.1925 19.9471 10.2375 19.9681 10.2871C19.9892 10.3368 20 10.3902 20 10.4442C20 10.4981 19.9892 10.5515 19.9681 10.6012C19.9471 10.6509 19.9163 10.6958 19.8775 10.7333L14.4892 16.0092C14.4101 16.0862 14.3041 16.1293 14.1938 16.1293C14.0834 16.1293 13.9774 16.0862 13.8984 16.0092L10.075 12.265C10.0553 12.2454 10.0287 12.2343 10.0009 12.2343C9.97304 12.2343 9.94637 12.2454 9.92669 12.265L6.10252 16.0092C6.02347 16.0862 5.91747 16.1293 5.8071 16.1293C5.69674 16.1293 5.59074 16.0862 5.51169 16.0092L0.12252 10.7333C0.0837604 10.6958 0.0529411 10.6509 0.0318936 10.6012C0.0108461 10.5515 0 10.4981 0 10.4442C0 10.3902 0.0108461 10.3368 0.0318936 10.2871C0.0529411 10.2375 0.0837604 10.1925 0.12252 10.155L1.31752 8.985C1.39657 8.90798 1.50257 8.86488 1.61294 8.86488C1.7233 8.86488 1.8293 8.90798 1.90835 8.985L5.73252 12.7292C5.77419 12.7692 5.84002 12.7692 5.88085 12.7292L9.70502 8.985C9.78407 8.90798 9.89007 8.86488 10.0004 8.86488C10.1108 8.86488 10.2168 8.90798 10.2959 8.985L14.12 12.7292C14.1617 12.7692 14.2267 12.7692 14.2684 12.7292L18.0925 8.985C18.1714 8.90804 18.2773 8.86496 18.3875 8.86496C18.4977 8.86496 18.6036 8.90804 18.6825 8.985Z" fill="#5570FF"/>
</g>
<defs>
<clipPath id="clip0_6515_1773">
<rect width="20" height="20" fill="white"/>
</clipPath>
</defs>
</svg>
