<svg width="1058" height="76" viewBox="0 0 1058 76" fill="none" xmlns="http://www.w3.org/2000/svg">
<g filter="url(#filter0_d_5477_35903)">
<path d="M37.5819 68V20.96H20.7819V68H37.5819ZM44.3019 54.56H57.7419L77.9019 34.4L57.7419 14.24H17.4219L4.26987 0.799995H64.4619L98.0619 34.4L64.4619 68H44.3019V54.56ZM165.247 14.24L178.687 0.799995H85.0869L98.0469 14.24H165.247ZM101.407 20.96H118.207V24.32H151.807L138.367 37.76H118.207V54.56H148.447L161.887 68H101.407V20.96ZM242.561 14.24H172.001L185.441 0.799995H256.001L242.561 14.24ZM185.441 54.56H239.201L225.761 68H172.001L185.441 54.56ZM172.001 20.96L192.161 41.12H212.321L219.041 47.84H239.201L219.041 27.68H198.881L192.161 20.96H172.001ZM306.434 14.24L319.874 0.799995H226.274L239.234 14.24H306.434ZM242.594 20.96H259.394V24.32H292.994L279.554 37.76H259.394V54.56H289.634L303.074 68H242.594V20.96ZM323.238 68H306.438V20.96H323.238V68ZM303.078 14.24L290.118 0.799995H340.038L360.198 20.96L350.118 31.04H329.958L340.038 20.96L333.318 14.24H303.078ZM329.958 37.76V51.2H343.398L360.198 68H380.358L350.118 37.76H329.958ZM400.492 68H383.692V20.96H400.492V68ZM424.012 14.24H360.172L347.116 0.799995H437.452L424.012 14.24ZM508.961 54.56H498.881L488.801 44.48V0.799995H472.001V47.84L492.161 68H522.401L508.961 54.56ZM508.961 0.799995H525.761V44.48L535.841 54.56H545.921V0.799995H562.721V68H529.121L508.961 47.84V0.799995ZM582.926 14.24H562.766L549.614 0.799995H589.646L656.846 68H636.686L582.926 14.24ZM566.126 20.96V68H582.926V51.2H613.166L599.726 37.76H582.926V20.96H566.126ZM656.894 68H640.094V20.96H656.894V68ZM636.734 14.24L623.87 0.799995H673.694L693.854 20.96L683.774 31.04H663.614L673.694 20.96L666.974 14.24H636.734ZM663.614 37.76V51.2H677.054L693.854 68H714.014L683.774 37.76H663.614ZM713.988 68H697.188V20.96H713.988V68ZM693.828 14.24L680.868 0.799995H730.788L750.948 20.96L740.868 31.04H720.708L730.788 20.96L724.068 14.24H693.828ZM720.708 37.76V51.2H734.148L750.948 68H771.108L740.868 37.76H720.708ZM841.642 14.24H750.922L738.058 0.799995H855.082L841.642 14.24ZM781.162 54.56V68H754.282L767.722 54.56H781.162ZM787.882 20.96V68H838.282L824.842 54.56H804.682V20.96H787.882ZM848.381 14.24L861.821 0.799995H888.701L908.861 20.96V68H848.381L821.501 41.12L841.661 20.96H861.821L841.661 41.12L855.101 54.56H892.061V24.32L881.981 14.24H848.381ZM929.051 68H912.251V20.96H929.051V68ZM908.891 14.24L896.027 0.799995H945.851L966.011 20.96L955.931 31.04H935.771L945.851 20.96L939.131 14.24H908.891ZM935.771 37.76V51.2H949.211L966.011 68H986.171L955.931 37.76H935.771ZM1039.9 14.24H969.344L982.784 0.799995H1053.34L1039.9 14.24ZM982.784 54.56H1036.54L1023.1 68H969.344L982.784 54.56ZM969.344 20.96L989.504 41.12H1009.66L1016.38 47.84H1036.54L1016.38 27.68H996.224L989.504 20.96H969.344Z" fill="#F0F0F0"/>
</g>
<defs>
<filter id="filter0_d_5477_35903" x="0.27002" y="0.799988" width="1057.07" height="75.2" filterUnits="userSpaceOnUse" color-interpolation-filters="sRGB">
<feFlood flood-opacity="0" result="BackgroundImageFix"/>
<feColorMatrix in="SourceAlpha" type="matrix" values="0 0 0 0 0 0 0 0 0 0 0 0 0 0 0 0 0 0 127 0" result="hardAlpha"/>
<feOffset dy="4"/>
<feGaussianBlur stdDeviation="2"/>
<feComposite in2="hardAlpha" operator="out"/>
<feColorMatrix type="matrix" values="0 0 0 0 0 0 0 0 0 0 0 0 0 0 0 0 0 0 0.25 0"/>
<feBlend mode="normal" in2="BackgroundImageFix" result="effect1_dropShadow_5477_35903"/>
<feBlend mode="normal" in="SourceGraphic" in2="effect1_dropShadow_5477_35903" result="shape"/>
</filter>
</defs>
</svg>
