<svg width="42" height="48" viewBox="0 0 42 48" fill="none" xmlns="http://www.w3.org/2000/svg">
<path d="M16.5949 3.51641L4.8481 10.3107L8.59494 12.4748L16.5949 7.9453V3.51641Z" fill="#F0F0F0"/>
<path d="M4.74684 14.5886L1 12.4748V35.2232L4.74684 33.0088V14.5886Z" fill="#F0F0F0"/>
<path d="M9.20253 35.8271L5.35443 37.9409L17 44.7856V40.558L9.20253 35.8271Z" fill="#F0F0F0"/>
<path d="M21.0506 5.32823V1L40.7975 12.3742L37.0506 14.5886L21.0506 5.32823Z" fill="#F0F0F0"/>
<path d="M41 30.4923V16.7024L37.2532 18.8162V28.3786L41 30.4923Z" fill="#F0F0F0"/>
<path d="M40.5949 36.0788L37.0506 33.9147L20.8481 42.7724V47L40.5949 36.0788Z" fill="#F0F0F0"/>
<path d="M18.4177 13.3807V8.64989L31.6329 16.1991V26.1641L27.5316 23.849V18.6149L18.4177 13.3807Z" fill="#F0F0F0"/>
<path d="M17.6076 19.1182V14.3873L9.10127 19.2188V34.2166L13.2532 31.9015V21.5339L17.6076 19.1182Z" fill="#F0F0F0"/>
<path d="M14.1646 32.7068L18.2658 30.291L22.8228 32.9081L31.8354 27.7746L35.8861 30.0897L22.8228 37.639L14.1646 32.7068Z" fill="#F0F0F0"/>
<path d="M16.5949 3.51641L4.8481 10.3107L8.59494 12.4748L16.5949 7.9453V3.51641Z" stroke="#F0F0F0"/>
<path d="M4.74684 14.5886L1 12.4748V35.2232L4.74684 33.0088V14.5886Z" stroke="#F0F0F0"/>
<path d="M9.20253 35.8271L5.35443 37.9409L17 44.7856V40.558L9.20253 35.8271Z" stroke="#F0F0F0"/>
<path d="M21.0506 5.32823V1L40.7975 12.3742L37.0506 14.5886L21.0506 5.32823Z" stroke="#F0F0F0"/>
<path d="M41 30.4923V16.7024L37.2532 18.8162V28.3786L41 30.4923Z" stroke="#F0F0F0"/>
<path d="M40.5949 36.0788L37.0506 33.9147L20.8481 42.7724V47L40.5949 36.0788Z" stroke="#F0F0F0"/>
<path d="M18.4177 13.3807V8.64989L31.6329 16.1991V26.1641L27.5316 23.849V18.6149L18.4177 13.3807Z" stroke="#F0F0F0"/>
<path d="M17.6076 19.1182V14.3873L9.10127 19.2188V34.2166L13.2532 31.9015V21.5339L17.6076 19.1182Z" stroke="#F0F0F0"/>
<path d="M14.1646 32.7068L18.2658 30.291L22.8228 32.9081L31.8354 27.7746L35.8861 30.0897L22.8228 37.639L14.1646 32.7068Z" stroke="#F0F0F0"/>
</svg>
