<svg width="160" height="45" viewBox="0 0 160 45" fill="none" xmlns="http://www.w3.org/2000/svg">
<path d="M11.44 45H0.24V0.199997H11.44V45ZM24.8775 9.16L15.9175 0.199997H47.2775L60.7175 13.64V42.76L49.5175 31.56V15.88L42.7975 9.16H24.8775ZM49.5175 36.04L58.4775 45H27.1175L13.6775 31.56V2.44L24.8775 13.64V29.32L31.5975 36.04H49.5175ZM74.1275 9.16L65.1675 0.199997H96.5275L109.968 13.64V42.76L98.7675 31.56V15.88L92.0475 9.16H74.1275ZM98.7675 36.04L107.728 45H76.3675L62.9275 31.56V2.44L74.1275 13.64V29.32L80.8475 36.04H98.7675ZM123.378 9.16L114.418 0.199997H145.778L159.218 13.64V42.76L148.018 31.56V15.88L141.298 9.16H123.378ZM148.018 36.04L156.978 45H125.618L112.178 31.56V2.44L123.378 13.64V29.32L130.098 36.04H148.018Z" fill="#F0F0F0"/>
</svg>
