<svg width="330" height="110" viewBox="0 0 330 110" fill="none" xmlns="http://www.w3.org/2000/svg">
<path d="M22.44 45V13.64H11.24V45H22.44ZM26.92 36.04H35.88L49.32 22.6L35.88 9.16H9L0.231999 0.199997H40.36L62.76 22.6L40.36 45H26.92V36.04ZM107.55 9.16L116.51 0.199997H54.11L62.75 9.16H107.55ZM64.99 13.64H76.19V15.88H98.59L89.63 24.84H76.19V36.04H96.35L105.31 45H64.99V13.64ZM159.093 9.16H112.053L121.013 0.199997H168.053L159.093 9.16ZM121.013 36.04H156.853L147.893 45H112.053L121.013 36.04ZM112.053 13.64L125.493 27.08H138.933L143.413 31.56H156.853L143.413 18.12H129.973L125.493 13.64H112.053ZM201.675 9.16L210.635 0.199997H148.235L156.875 9.16H201.675ZM159.115 13.64H170.315V15.88H192.715L183.755 24.84H170.315V36.04H190.475L199.435 45H159.115V13.64ZM212.878 45H201.678V13.64H212.878V45ZM199.438 9.16L190.797 0.199997H224.078L237.518 13.64L230.798 20.36H217.358L224.078 13.64L219.598 9.16H199.438ZM217.358 24.84V33.8H226.318L237.518 45H250.958L230.798 24.84H217.358ZM264.38 45H253.18V13.64H264.38V45ZM280.06 9.16H237.5L228.796 0.199997H289.02L280.06 9.16ZM35.88 101.04H29.16L22.44 94.32V65.2H11.24V96.56L24.68 110H44.84L35.88 101.04ZM35.88 65.2H47.08V94.32L53.8 101.04H60.52V65.2H71.72V110H49.32L35.88 96.56V65.2ZM85.19 74.16H71.75L62.982 65.2H89.67L134.47 110H121.03L85.19 74.16ZM73.99 78.64V110H85.19V98.8H105.35L96.39 89.84H85.19V78.64H73.99ZM134.503 110H123.303V78.64H134.503V110ZM121.062 74.16L112.422 65.2H145.703L159.143 78.64L152.423 85.36H138.983L145.703 78.64L141.223 74.16H121.062ZM138.983 89.84V98.8H147.943L159.143 110H172.583L152.423 89.84H138.983ZM172.565 110H161.365V78.64H172.565V110ZM172.565 74.16H161.365V65.2H172.565V74.16ZM192.723 74.16L201.683 65.2H219.603L233.043 78.64V107.76L221.843 96.56V80.88L215.123 74.16H192.723ZM174.803 92.08L188.243 78.64H201.683L188.243 92.08L197.203 101.04H221.843L230.803 110H192.723L174.803 92.08ZM246.503 110H235.303V78.64H246.503V110ZM233.062 74.16L224.422 65.2H257.703L271.143 78.64L264.423 85.36H250.983L257.703 78.64L253.223 74.16H233.062ZM250.983 89.84V98.8H259.943L271.143 110H284.583L264.423 89.84H250.983ZM320.405 74.16H273.365L282.325 65.2H329.365L320.405 74.16ZM282.325 101.04H318.165L309.205 110H273.365L282.325 101.04ZM273.365 78.64L286.805 92.08H300.245L304.725 96.56H318.165L304.725 83.12H291.285L286.805 78.64H273.365Z" fill="#F0F0F0"/>
</svg>
