<svg width="38" height="43" viewBox="0 0 38 43" fill="none" xmlns="http://www.w3.org/2000/svg">
<g id="Vector 2">
<path d="M15.0354 3.24289L4.46329 9.29869L7.83544 11.2276L15.0354 7.19037V3.24289Z" fill="#F0F0F0"/>
<path d="M4.37215 13.1116L1 11.2276V31.5033L4.37215 29.5295V13.1116Z" fill="#F0F0F0"/>
<path d="M8.38228 32.0416L4.91899 33.9256L15.4 40.0263V36.2582L8.38228 32.0416Z" fill="#F0F0F0"/>
<path d="M19.0456 4.85777V1L36.8177 11.1379L33.4456 13.1116L19.0456 4.85777Z" fill="#F0F0F0"/>
<path d="M37 27.2867V14.9956L33.6278 16.8796V25.4026L37 27.2867Z" fill="#F0F0F0"/>
<path d="M36.6354 32.2659L33.4456 30.337L18.8633 38.2319V42L36.6354 32.2659Z" fill="#F0F0F0"/>
<path d="M16.676 12.035V7.81838L28.5696 14.547V23.4289L24.8785 21.3654V16.7002L16.676 12.035Z" fill="#F0F0F0"/>
<path d="M15.9468 17.1488V12.9322L8.29114 17.2385V30.6061L12.0278 28.5427V19.302L15.9468 17.1488Z" fill="#F0F0F0"/>
<path d="M12.8481 29.2604L16.5392 27.1072L20.6405 29.4398L28.7519 24.8643L32.3975 26.9278L20.6405 33.6565L12.8481 29.2604Z" fill="#F0F0F0"/>
<path d="M15.0354 3.24289L4.46329 9.29869L7.83544 11.2276L15.0354 7.19037V3.24289Z" stroke="#F0F0F0"/>
<path d="M4.37215 13.1116L1 11.2276V31.5033L4.37215 29.5295V13.1116Z" stroke="#F0F0F0"/>
<path d="M8.38228 32.0416L4.91899 33.9256L15.4 40.0263V36.2582L8.38228 32.0416Z" stroke="#F0F0F0"/>
<path d="M19.0456 4.85777V1L36.8177 11.1379L33.4456 13.1116L19.0456 4.85777Z" stroke="#F0F0F0"/>
<path d="M37 27.2867V14.9956L33.6278 16.8796V25.4026L37 27.2867Z" stroke="#F0F0F0"/>
<path d="M36.6354 32.2659L33.4456 30.337L18.8633 38.2319V42L36.6354 32.2659Z" stroke="#F0F0F0"/>
<path d="M16.676 12.035V7.81838L28.5696 14.547V23.4289L24.8785 21.3654V16.7002L16.676 12.035Z" stroke="#F0F0F0"/>
<path d="M15.9468 17.1488V12.9322L8.29114 17.2385V30.6061L12.0278 28.5427V19.302L15.9468 17.1488Z" stroke="#F0F0F0"/>
<path d="M12.8481 29.2604L16.5392 27.1072L20.6405 29.4398L28.7519 24.8643L32.3975 26.9278L20.6405 33.6565L12.8481 29.2604Z" stroke="#F0F0F0"/>
</g>
</svg>
