<svg width="16" height="16" viewBox="0 0 16 16" fill="none" xmlns="http://www.w3.org/2000/svg">
<g clip-path="url(#clip0_5019_12274)">
<path d="M11.6553 0.779298C11.3844 0.784548 11.0986 0.893173 10.8212 1.10055C10.4269 1.39555 10.0689 1.88814 9.86812 2.50192C9.66737 3.11574 9.66563 3.72442 9.80956 4.19433C9.95356 4.6642 10.2275 4.98261 10.5899 5.10058C10.9522 5.21845 11.3625 5.12308 11.7568 4.82808C12.1512 4.53308 12.5092 4.03952 12.71 3.42574C12.9107 2.81192 12.9135 2.20324 12.7695 1.73336C12.6255 1.26342 12.3506 0.945985 11.9882 0.828048C11.8976 0.798548 11.8045 0.782267 11.7089 0.779204C11.691 0.778642 11.6733 0.778892 11.6552 0.779204L11.6553 0.779298ZM6.79 2.95992C6.112 2.96067 5.43394 3.02877 4.75584 3.18161C3.97741 4.11361 3.38559 5.06458 3.1035 6.2588L4.2715 6.81542C4.53003 5.85495 4.94291 5.13364 5.62697 4.40917C6.33653 4.16405 7.04628 4.21427 7.75588 4.45605C5.43587 6.49158 6.15681 8.22717 5.24512 11.5332C3.91222 12.0916 2.58581 12.1748 1.39356 11.5332L0.71875 12.9883C2.57556 13.8348 4.648 13.9201 6.68262 12.9883C7.31912 11.6307 7.53306 10.2194 7.46387 8.83495C9.22844 11.0832 10.0972 12.4437 10.5869 15.58H12.3975C12.3 15.1204 12.2034 14.6927 12.1055 14.2919C11.4017 11.4128 10.6285 9.92849 8.97359 8.09174C9.27656 6.96267 9.66556 6.2272 10.6123 5.77042C10.9613 6.38814 11.5493 6.91674 12.209 7.29874L15.2519 7.34758L15.2666 6.06539L12.5625 5.99899C12.3109 5.82536 12.0961 5.63242 11.9141 5.42667C11.4489 5.71042 10.9133 5.81927 10.4092 5.6552C9.8335 5.4678 9.43597 4.96889 9.25097 4.36514C9.14216 4.00983 9.10278 3.61358 9.13578 3.20108C8.354 3.04845 7.57181 2.95902 6.79006 2.95983L6.79 2.95992Z" fill="white"/>
</g>
<defs>
<clipPath id="clip0_5019_12274">
<rect width="16" height="16" fill="white"/>
</clipPath>
</defs>
</svg>
