<svg width="16" height="16" viewBox="0 0 16 16" fill="none" xmlns="http://www.w3.org/2000/svg">
<g clip-path="url(#clip0_5019_12272)">
<path d="M11.5333 0.663147C10.9333 0.663147 10.402 0.995334 10.0364 1.49033C9.67078 1.98533 9.45516 2.64752 9.45516 3.37502C9.45516 4.0344 9.63328 4.64065 9.93953 5.11565C9.76141 5.16565 9.59578 5.23752 9.44266 5.3219C9.12391 5.05627 8.73641 4.8969 8.32078 4.8969C7.71766 4.8969 7.18641 5.22815 6.82078 5.7219C6.67391 5.9219 6.55203 6.1469 6.45828 6.39377C6.30828 6.31877 6.14891 6.2594 5.97391 6.21877C6.26766 5.7469 6.43641 5.15315 6.43641 4.5094C6.43641 3.7844 6.22078 3.12096 5.85516 2.62596C5.48953 2.13096 4.95828 1.79783 4.35828 1.79783C3.75828 1.79783 3.22703 2.13096 2.86016 2.62596C2.49484 3.12096 2.28016 3.7844 2.28016 4.5094C2.28016 5.16877 2.45797 5.77502 2.76359 6.25315C1.76141 6.53752 1.19203 7.41252 0.906094 8.44065C0.600156 9.54065 0.566406 10.8563 0.566406 12.0531V12.3469H1.98828L2.20016 15.45H2.78609L2.55859 12.1219L2.43047 9.6219L1.84766 9.65315L1.95609 11.7625H1.15422C1.16172 10.6625 1.21578 9.5094 1.46953 8.60002C1.74391 7.61252 2.19828 6.95002 3.07109 6.78127L3.21766 6.77815C3.53953 7.05315 3.93328 7.2219 4.35828 7.2219C4.79891 7.2219 5.19891 7.04377 5.52703 6.75315H5.67078C5.91453 6.79065 6.12078 6.86252 6.29891 6.96252C6.26141 7.16877 6.23953 7.3844 6.23953 7.60627C6.23953 8.26565 6.41766 8.8719 6.72391 9.35002C5.72078 9.6344 5.15203 10.5125 4.86766 11.5375C4.56141 12.6375 4.52703 13.9531 4.52703 15.15V15.4438C5.20516 15.4344 5.86453 15.45 6.53641 15.45L6.52078 15.2219L6.39266 12.7219L5.80828 12.75L5.91453 14.8594H5.11453C5.12391 13.7594 5.17703 12.6063 5.43016 11.6969C5.70203 10.7094 6.15828 10.05 7.02703 9.87815L7.18016 9.87502C7.50203 10.15 7.89266 10.3188 8.31766 10.3188C8.75828 10.3188 9.16141 10.1406 9.48953 9.85002H9.62703C10.1083 9.92502 10.4427 10.1281 10.7052 10.4313C10.9708 10.7344 11.1583 11.1563 11.2833 11.6563C11.5114 12.5781 11.5239 13.7469 11.5239 14.8594H10.7927L10.902 12.75L10.3177 12.7219L10.1864 15.2844L10.177 15.45C10.827 15.45 11.5302 15.4406 12.1114 15.4438V15.15C12.1114 13.9594 12.127 12.6313 11.8489 11.5156C11.7114 10.9594 11.4958 10.45 11.1489 10.0469C10.8458 9.70002 10.4395 9.44065 9.93641 9.31565C10.2302 8.84377 10.3958 8.25002 10.3958 7.60627C10.3958 6.90315 10.1958 6.25627 9.84891 5.76877C9.97078 5.71252 10.102 5.6719 10.2458 5.64377H10.3927C10.7145 5.91877 11.1083 6.08752 11.5333 6.08752C11.9739 6.08752 12.377 5.90627 12.702 5.61877L12.8458 5.61565C13.327 5.69377 13.6583 5.89377 13.9208 6.1969C14.1864 6.50315 14.3739 6.92502 14.4989 7.42502C14.727 8.34377 14.7395 9.51252 14.7395 10.625H14.0083L14.1177 8.51877L13.5333 8.48752L13.4052 10.9781L13.1364 15.45H13.7208L13.977 11.2094H15.3239V10.9188C15.3239 9.72502 15.3427 8.3969 15.0645 7.2844C14.9239 6.72502 14.7083 6.21565 14.3614 5.81565C14.0614 5.46565 13.6552 5.20627 13.1489 5.08127C13.4427 4.6094 13.6114 4.01877 13.6114 3.37502C13.6114 2.64752 13.3958 1.98533 13.0302 1.49033C12.6677 1.01252 12.0458 0.673772 11.5333 0.663147ZM11.5333 1.24721C11.9208 1.24721 12.2802 1.45627 12.5614 1.8369C12.8427 2.21783 13.027 2.76408 13.027 3.37502C13.027 3.9844 12.8427 4.53127 12.5614 4.91252C12.2802 5.29377 11.9208 5.50315 11.5333 5.50315C11.1489 5.50315 10.7864 5.29377 10.5052 4.91252C10.2239 4.53127 10.0395 3.9844 10.0395 3.37502C10.0395 2.76408 10.2239 2.21783 10.5052 1.8369C10.7864 1.45627 11.1489 1.24721 11.5333 1.24721ZM4.35828 2.3819C4.74578 2.3819 5.10516 2.5919 5.38641 2.97252C5.66766 3.35315 5.85203 3.90002 5.85203 4.5094C5.85203 5.11877 5.66766 5.66565 5.38641 6.0469C5.10516 6.42815 4.74578 6.63752 4.35828 6.63752C3.97078 6.63752 3.61141 6.42815 3.33016 6.0469C3.04984 5.66565 2.86422 5.11877 2.86422 4.5094C2.86422 3.90002 3.04984 3.35315 3.33016 2.97283C3.61141 2.5919 3.97078 2.3819 4.35828 2.3819ZM10.5395 3.08002V3.66252H11.2427V3.08002H10.5395ZM11.8239 3.08002V3.66252H12.527V3.08002H11.8239ZM3.36453 4.21565V4.80002H4.06766V4.21565H3.36453ZM4.64891 4.21565V4.80002H5.35203V4.21565H4.64891ZM8.32078 5.47815C8.70516 5.47815 9.06453 5.68752 9.34578 6.06877C9.62703 6.45002 9.81453 6.9969 9.81453 7.60627C9.81453 8.21877 9.62703 8.76252 9.34578 9.14377C9.06453 9.52502 8.70516 9.7344 8.32078 9.7344C7.93328 9.7344 7.57078 9.52502 7.28953 9.14377C7.01141 8.76252 6.82391 8.21877 6.82391 7.60627C6.82391 6.9969 7.01141 6.45002 7.28953 6.06877C7.57078 5.68752 7.93328 5.47815 8.32078 5.47815ZM7.32703 7.31252V7.8969H8.02703V7.31252H7.32703ZM8.61141 7.31252V7.8969H9.31141V7.31252H8.61141Z" fill="white"/>
</g>
<defs>
<clipPath id="clip0_5019_12272">
<rect width="16" height="16" fill="white"/>
</clipPath>
</defs>
</svg>
