<svg width="16" height="16" viewBox="0 0 16 16" fill="none" xmlns="http://www.w3.org/2000/svg">
<path d="M2.86206 2.00075C2.324 2.01312 1.80934 2.54578 1.74909 3.28062C1.68687 4.03912 2.14091 4.62215 2.69738 4.64437C3.25388 4.66659 3.80034 4.12353 3.86256 3.365C3.92475 2.6065 3.47069 2.02347 2.91419 2.00125C2.89682 2.00053 2.87944 2.00037 2.86206 2.00075ZM8.06462 2.37815C7.77072 2.38309 7.50181 2.74831 7.34556 3.15603L7.36731 3.35165C7.40622 3.70178 7.51266 4.094 7.66012 4.48934C7.82553 4.39272 7.99719 4.23303 8.25037 4.01956C7.83447 3.73403 7.75309 3.45128 7.85225 3.27781C7.98313 3.04881 8.49694 2.68672 8.82616 2.95859C9.03278 2.47644 8.35856 2.37322 8.06462 2.37815ZM6.87416 3.81878C6.51009 3.98378 6.06309 4.10587 5.58581 4.20572C5.49853 4.22394 5.41102 4.2411 5.32331 4.25719C5.62141 4.56969 5.74759 4.98656 5.89888 5.35094C6.32619 5.44025 6.76888 5.65456 7.17688 5.81978C7.39775 5.90925 7.60194 5.98122 7.76734 6.01878C7.37297 5.34947 7.02888 4.56478 6.87416 3.81878ZM12.0365 3.90159L12.0009 6.14884L10.0377 5.13394L9.31519 7.08097L11.6032 7.16878L10.9975 8.8199L8.23109 9.14518L7.149 12.2411C7.81094 12.4591 8.47284 12.7163 9.11603 12.9985C10.2383 13.4909 11.302 14.059 12.2063 14.6307L13.7278 11.1564L11.9542 9.24328L12.5975 7.57362L14.3204 8.99131L15.1524 6.93637L13.0289 6.48337L14.3649 4.77243L12.0365 3.90159ZM4.14128 4.30097C3.82181 4.85603 3.27116 5.23 2.65138 5.20522C2.32038 5.192 2.02778 5.06706 1.79219 4.866C1.39078 5.13315 1.00169 5.64131 0.969781 6.05837C0.957281 6.27722 1.00756 6.57531 1.11534 6.8345C1.22316 7.09369 1.38728 7.30872 1.79919 7.6149C2.21109 7.92109 3.12697 8.38297 4.07622 8.21694C3.74075 7.80106 3.54834 7.28593 3.46191 6.77762C2.91169 6.81081 2.49034 6.47334 2.02416 6.28281L2.23237 5.76031C2.6765 5.94228 3.17409 6.32465 3.61309 6.18581L3.774 6.13218C3.91581 5.74709 4.27016 5.48128 4.61163 5.40531C4.73584 5.37765 5.25653 5.52562 5.48041 5.81143C5.35831 5.51765 5.23813 5.22459 5.11547 4.93465C4.86019 4.52609 4.53306 4.36128 4.14128 4.30097ZM5.58228 6.05472C5.58934 6.14244 5.56747 6.238 5.50562 6.34097C5.21716 6.03843 4.65244 6.15859 4.45941 6.33834C4.31319 6.47453 4.46062 6.81256 4.77287 7.20878C4.53162 7.31043 4.36875 7.37359 4.23375 7.40065C4.48178 7.91581 4.74594 8.10781 5.17103 8.44272L4.71216 8.62112C3.90222 8.93606 3.11028 8.83487 2.43716 8.5715C2.93731 9.52328 3.05222 10.5531 2.99269 11.5267C4.23959 11.4903 5.52681 11.7545 6.61181 12.0732L7.52612 9.45718C6.627 8.41672 6.078 7.23431 5.58228 6.05472ZM2.99219 11.9563C2.06866 11.9493 1.23269 12.1146 0.5625 12.5306V12.6825L0.568656 13.2005C3.249 11.8592 7.96788 13.5054 11.2185 15.4375H12.4096C11.3997 14.7443 10.1215 14.0336 8.75666 13.4347C7.27663 12.7853 5.69744 12.2676 4.24697 12.0577C3.88431 12.0052 3.52891 11.9714 3.18462 11.9602C3.12009 11.9581 3.05594 11.9568 2.99219 11.9563ZM14.6461 14.2271C14.0614 14.2288 13.4754 14.2744 12.9411 14.3548L12.6602 14.9276C13.6337 14.8526 14.5859 14.8106 15.4375 14.8485V14.2527C15.1741 14.2346 14.9101 14.2261 14.6461 14.2271Z" fill="white"/>
</svg>
