<svg width="16" height="16" viewBox="0 0 16 16" fill="none" xmlns="http://www.w3.org/2000/svg">
<path d="M12.7878 1.56196C12.7378 1.5612 12.6878 1.56647 12.639 1.57765C12.4367 1.62452 12.261 1.77809 12.1906 2.06156C11.9955 2.84627 11.7637 3.60537 11.4893 4.33124L12.7551 4.98434C13.267 4.48568 13.8133 4.02474 14.3871 3.60793C15.3427 2.9139 14.2093 1.7564 13.3826 2.90046C13.8016 2.11406 13.275 1.56834 12.7878 1.56196ZM9.94202 4.26134C9.68818 5.70427 8.03837 9.49396 6.06946 10.2446L2.4173 10.2786C1.13068 9.35659 -0.0979457 10.6854 1.39699 11.4303L3.53815 12.4723C5.00296 12.5964 6.38737 12.8823 7.22474 14.2655L7.83099 14.5609C8.92177 15.1043 9.89543 14.9756 10.121 13.1578C10.4384 10.6006 11.9741 7.75056 13.7419 6.14187L12.0202 5.28981C11.9734 5.41512 11.9126 5.55318 11.8396 5.69559C11.597 6.16874 11.3141 6.50868 11.2081 6.45434C11.1021 6.39996 11.2129 5.97181 11.4555 5.49862C11.5274 5.35824 11.603 5.22971 11.6763 5.11959L11.0898 4.82931C11.0152 5.01026 10.9361 5.18933 10.8527 5.36637C10.4487 6.22399 10.0259 6.87537 9.90893 6.82027C9.79202 6.76518 10.025 6.0244 10.429 5.16677C10.5135 4.98714 10.6025 4.80965 10.696 4.63449L9.94202 4.26134Z" fill="white"/>
</svg>
