<svg width="16" height="16" viewBox="0 0 16 16" fill="none" xmlns="http://www.w3.org/2000/svg">
<path d="M2.47559 3.6178L1.58466 5.73852H14.2768L14.2683 3.61783H6.02362V5.35549H5.55487V3.61783H5.03363V5.35549H4.56503V3.61783H4.02022V5.35549H3.55147V3.61783L2.47559 3.6178ZM14.5954 4.11655V5.38717H15.1794V4.11655H14.5954ZM1.77341 6.20724L2.41609 7.2077L0.902344 12.7032L4.07984 12.9274L4.75297 9.86499H8.36984L8.82809 7.35711L14.2828 7.23608L14.2787 6.20727H1.77337L1.77341 6.20724ZM8.23191 7.37036L7.88284 9.28105H4.88128L5.28691 7.43574L5.67847 7.42705L5.60897 8.53642L6.05466 8.96067L6.086 7.90911L6.85756 7.40086L8.23194 7.37036H8.23191Z" fill="white"/>
</svg>
