<svg width="16" height="16" viewBox="0 0 16 16" fill="none" xmlns="http://www.w3.org/2000/svg">
<path d="M1.98712 0.588623L1.30256 0.751748L1.433 1.29887L2.1175 1.13575L1.98712 0.588623ZM3.71869 0.887873C3.38081 0.888436 3.11578 1.00244 2.95291 1.21112C2.77916 1.43372 2.73831 1.74275 2.84372 2.09809C2.94909 2.4534 3.20628 2.83703 3.59288 3.13834C3.9795 3.43959 4.41444 3.59537 4.78506 3.611C5.15556 3.62662 5.44556 3.51169 5.61931 3.28912C5.79306 3.0665 5.83388 2.7575 5.72847 2.40219C5.71754 2.36599 5.70533 2.3302 5.69184 2.29487C5.41716 2.50594 5.23459 2.87519 5.00391 2.72125C4.94078 2.67915 5.13531 2.18112 5.42547 1.81562C5.33777 1.69848 5.23932 1.58978 5.13141 1.49094L4.33991 1.87125L3.91191 1.47612C3.97528 1.42159 4.48113 1.33665 4.89753 1.30103C4.53222 1.03972 4.13181 0.903779 3.78716 0.889279C3.76433 0.888311 3.74148 0.887842 3.71863 0.887873H3.71869ZM7.94416 1.24334L7.28391 1.48678L7.47847 2.01453L8.13878 1.77109L7.94419 1.24334H7.94416ZM9.59828 1.9395L9.17653 2.31169L9.64206 2.83928L10.0639 2.46715L9.59825 1.93947L9.59828 1.9395ZM1.29203 2.71231L0.804688 2.99337L1.15625 3.60294L1.6435 3.32194L1.29194 2.7124L1.29203 2.71231ZM6.15266 3.50387C6.12551 3.54934 6.09559 3.59309 6.06306 3.63487C5.75838 4.02528 5.26703 4.19409 4.76125 4.17278C4.57459 4.1649 4.38375 4.13231 4.19356 4.07603C4.17194 4.34797 4.17287 4.62362 4.193 4.90019L4.42112 4.79487L4.43675 5.32253L4.84019 5.40019L4.60744 5.86575L5.15056 6.34684L4.63844 6.54862L4.90231 6.84347L4.68459 7.04503C5.01888 7.95056 5.47262 8.78009 5.90341 9.41865C6.42778 10.1961 6.94737 11.6201 6.96922 12.4922L5.79441 15.4702L9.34363 15.5073L9.36841 14.8647L9.13163 14.8234L8.73559 15.2085L8.40966 14.9291H8.13028L8.08928 14.6418L7.42428 14.5259L8.31084 12.5475C8.35253 11.3838 7.9925 10.5731 7.72584 9.40944C8.26772 9.7809 8.79241 10.1443 9.29522 10.518C9.40116 10.4193 9.53741 10.3408 9.75991 10.3198C9.90928 10.5695 9.91763 10.779 9.89781 10.9803C10.6849 11.6072 11.4069 12.2819 12.0396 13.0852L13.7709 10.07L13.2592 9.78672L11.8417 11.1328C11.0504 10.0584 9.90275 9.25809 8.65747 8.36528C8.56328 8.06669 8.42959 7.78678 8.27634 7.51981C8.17144 7.66969 8.03031 7.8049 7.913 7.89872C7.68444 8.08153 7.279 7.96565 7.18363 7.77456C7.08831 7.58344 7.53031 7.47275 7.43194 7.29347C7.33356 7.11415 6.89591 7.39215 6.74906 7.23137C6.60228 7.07059 6.56078 6.822 6.74906 6.61059C6.86681 6.47847 7.13719 6.42256 7.3975 6.4245C7.44935 6.42492 7.50115 6.4277 7.55275 6.43281C7.27734 6.04009 7.02416 5.66006 6.88037 5.27006C7.80119 5.37037 8.72184 5.47106 9.59387 5.81512C9.77094 6.29065 9.631 6.76622 9.44025 7.24175C9.58138 7.27028 9.74456 7.27322 9.89056 7.06994C10.2698 6.54181 10.5261 5.88444 10.3402 5.2445C10.297 5.09587 9.08937 4.80025 7.90906 4.54994C8.77812 4.44065 9.72125 4.36844 10.7061 4.31706C11.1546 4.47237 11.3707 4.92456 11.3883 5.57537C11.8751 5.33965 12.0101 5.09247 12.0291 4.73881C12.0583 4.19256 11.6406 3.71778 11.3463 3.6289C11.2288 3.59015 7.05138 3.63712 6.15266 3.50375V3.50387ZM13.3425 4.26062L12.8014 4.71044L13.161 5.143L13.7021 4.69312L13.3425 4.26062H13.3425ZM2.61922 4.40469L2.44869 4.94075L3.11931 5.15412L3.28981 4.61803L2.61919 4.40472L2.61922 4.40469ZM12.562 8.26606L12.0604 8.75959L12.4548 9.16059L12.9565 8.66703L12.562 8.26603V8.26606ZM4.49703 9.20025L4.32656 9.73628L4.99719 9.94962L5.16762 9.41359L4.497 9.20028L4.49703 9.20025Z" fill="white"/>
</svg>
