<svg width="16" height="16" viewBox="0 0 16 16" fill="none" xmlns="http://www.w3.org/2000/svg">
<path d="M12.9692 0.766846L12.6087 1.26291L12.3967 0.870721L12.2076 1.5046L11.8695 1.16641V1.86216L12.0234 1.70816C12.0636 1.668 12.1047 1.63091 12.1465 1.59653L12.1949 1.5481L12.2496 1.51853C12.3457 1.45166 12.4447 1.39885 12.545 1.35891L12.5938 1.33256L12.637 1.32569C12.7702 1.28325 12.9045 1.26266 13.0358 1.26213C13.1689 1.2615 13.2988 1.28169 13.4213 1.31963L13.4612 1.32556L13.484 1.34081C13.6285 1.39394 13.761 1.47263 13.8738 1.57294L13.8744 1.572L13.8769 1.57563C13.8929 1.58994 13.9086 1.6046 13.9237 1.61975C14.2273 1.92325 14.3617 2.39538 14.2316 2.86006L14.2295 2.88391L14.2325 2.88416L14.2118 2.92463C14.1683 3.05463 14.1037 3.18338 14.0156 3.30706L14.0156 3.30713L14.4604 3.53541L14.2513 2.88588L14.7275 2.92791L14.2857 2.40063L14.7541 2.26719L14.1712 1.94269L14.5559 1.67316L13.8857 1.55525L14.1386 1.17756L13.4757 1.3086L13.547 0.832814L13.039 1.2085L12.9691 0.766846H12.9692ZM11.5159 1.51997V2.21572L11.8638 1.86781L11.5159 1.51997ZM13.0441 1.80069C12.8549 1.79931 12.6422 1.88497 12.4212 2.10594L9.59509 4.932L7.67028 6.85681L8.68678 7.87328L13.4376 3.12241C13.8796 2.68047 13.7802 2.27166 13.526 2.01753C13.399 1.8905 13.2333 1.8021 13.0441 1.80069ZM11.1623 1.87356V2.56925L11.5102 2.22144L11.1623 1.87356ZM10.8088 2.2271V2.92278L11.1566 2.57497L10.8088 2.2271ZM12.9779 2.31053C13.0138 2.31054 13.0493 2.31761 13.0825 2.33135C13.1157 2.34509 13.1458 2.36523 13.1712 2.39062C13.1965 2.41601 13.2167 2.44614 13.2304 2.47931C13.2441 2.51247 13.2512 2.54801 13.2512 2.58391C13.2511 2.65638 13.2224 2.72587 13.1711 2.77712C13.1199 2.82836 13.0504 2.85715 12.9779 2.85716C12.9054 2.85715 12.8359 2.82836 12.7847 2.77712C12.7335 2.72587 12.7047 2.65638 12.7047 2.58391C12.7046 2.54802 12.7117 2.51248 12.7254 2.47932C12.7392 2.44615 12.7593 2.41602 12.7847 2.39064C12.81 2.36526 12.8402 2.34512 12.8733 2.33138C12.9065 2.31764 12.942 2.31054 12.9779 2.31053ZM10.4552 2.58066V3.27641L10.8031 2.9285L10.4552 2.58066ZM10.1017 2.93419V3.62991L10.4495 3.2821L10.1017 2.93419H10.1017ZM9.74813 3.28775V3.98347L10.0959 3.63566L9.74813 3.28775ZM14.0126 3.31119C13.9614 3.38275 13.9028 3.45275 13.8354 3.5201L13.6816 3.67394L14.0127 4.00506V3.31122L14.0126 3.31119ZM5.74625 3.53056L5.26344 3.819L6.29569 5.54669L6.288 6.43091H5.55844C5.70612 6.631 5.84953 6.83403 5.98844 7.03941L6.17606 6.77669L6.69475 7.29538L6.84944 6.83138L6.84694 6.82888L6.85953 5.39372L5.74628 3.53053L5.74625 3.53056ZM9.39456 3.64128V4.33703L9.74247 3.98913L9.39456 3.64128ZM13.6591 3.69641L13.328 4.02747L13.6591 4.35863V3.69641ZM9.04106 3.99485V4.6906L9.19737 4.53428L9.38888 4.34272L9.04106 3.99485ZM13.3056 4.04994L12.9745 4.38103L13.3055 4.71216V4.04997L13.3056 4.04994ZM8.68744 4.34838V5.04413L9.03537 4.69622L8.68747 4.34841L8.68744 4.34838ZM12.952 4.4035L12.6209 4.73463L12.952 5.06572V4.40353V4.4035ZM8.33397 4.70194V5.39766L8.68178 5.04985L8.33397 4.70194ZM12.5984 4.7571L12.2674 5.0881L12.5984 5.41922V4.75703V4.7571ZM7.98038 5.05544V5.75119L8.32822 5.40341L7.98034 5.0556L7.98038 5.05544ZM12.2449 5.11056L11.9138 5.44172L12.2449 5.77281V5.11063V5.11056ZM3.73084 5.13947L3.42153 5.44872C5.021 7.10803 6.3405 9.21622 7.07684 11.1931L7.34659 10.9233C6.66441 8.97119 5.33359 6.8056 3.73081 5.1395L3.73084 5.13947ZM7.62678 5.40906V6.10478L7.97472 5.75691L7.62681 5.4091L7.62678 5.40906ZM11.8913 5.46416L11.5602 5.79528L11.8913 6.12644V5.46419L11.8913 5.46416ZM7.27322 5.7626V6.45831L7.62109 6.1105L7.27328 5.76256L7.27322 5.7626ZM11.5377 5.81775L11.2067 6.14881L11.5377 6.47991V5.81772V5.81775ZM3.01441 5.82844C2.78034 6.24335 2.73159 6.67844 2.84041 7.083C2.90369 7.31838 3.01122 7.54119 3.14997 7.75319L3.56097 7.34216C3.47956 7.2045 3.41903 7.0686 3.38359 6.93691C3.32191 6.70747 3.31809 6.487 3.41203 6.25753C3.2815 6.11128 3.14897 5.96797 3.01441 5.82844ZM11.1842 6.17125L10.8531 6.50238L11.1842 6.8335V6.17125ZM10.8306 6.52485L10.4995 6.85597L10.8307 7.187V6.52481L10.8306 6.52485ZM10.4771 6.87835L10.146 7.20944L10.4771 7.54056V6.87838L10.4771 6.87835ZM10.1235 7.23191L9.79241 7.56303L10.1235 7.89413V7.23194V7.23191ZM7.29416 7.27603L7.13941 7.74003L7.99347 8.5941L7.36738 9.47066C7.50613 9.77103 7.63256 10.0705 7.74634 10.3672C8.11684 9.80741 8.43469 9.20747 8.69744 8.67935L8.48791 8.46981L7.29416 7.27606V7.27603ZM4.32409 7.37453L3.30212 8.3965L3.274 8.7525L3.80884 8.78781L3.73003 9.97985L3.17994 9.94347L3.15963 10.2003C3.35156 10.797 3.60494 11.3424 3.91494 11.7265C4.23344 12.1211 4.58734 12.3432 5.02984 12.3556C5.6165 12.3721 6.15984 12.1049 6.65694 11.6674C6.56787 11.4102 6.46756 11.1491 6.35662 10.8856L6.08719 11.2629L6.09494 11.2515C5.93044 11.5074 5.63475 11.6313 5.36963 11.6073C5.10456 11.5834 4.8635 11.4512 4.65825 11.2645C4.24769 10.8912 3.95856 10.2523 4.17731 9.59622L4.19066 9.55613L5.02672 8.3855C4.80531 8.04197 4.57028 7.70381 4.32403 7.3745L4.32409 7.37453ZM9.76997 7.58547L9.43884 7.9166L9.76997 8.24766V7.58547ZM9.41644 7.939L9.08534 8.27013L9.41644 8.60125V7.93906V7.939ZM6.58331 7.97944C6.76237 8.28288 6.93041 8.58888 7.08706 8.89531L7.25878 8.65491L6.58331 7.97941V7.97944ZM1.73122 8.57578L1.64778 9.98753L2.20928 10.0207L2.23438 9.59563L3.188 9.65203L3.22509 9.09069L2.26759 9.03413L2.29272 8.60894L1.73122 8.57581V8.57578ZM5.34784 8.90378L4.70347 9.80597C4.58847 10.2008 4.77297 10.6086 5.03669 10.8483C5.17213 10.9715 5.32225 11.0383 5.42037 11.0472C5.5185 11.0561 5.55803 11.0466 5.62181 10.9473L5.62556 10.9416L6.09037 10.2908C5.87109 9.82853 5.62209 9.36335 5.34787 8.90381L5.34784 8.90378ZM2.73028 10.6868L1.24609 12.5421L2.74116 15.2331L5.05609 12.9182C5.04203 12.918 5.02812 12.9183 5.01403 12.9178C4.84131 12.913 4.677 12.8837 4.52137 12.8341L2.98981 14.3657L1.95669 12.3886L2.94362 11.202C2.86612 11.0359 2.79512 10.8636 2.73031 10.6867L2.73028 10.6868Z" fill="white"/>
</svg>
