<svg width="16" height="16" viewBox="0 0 16 16" fill="none" xmlns="http://www.w3.org/2000/svg">
<path d="M12.0288 1.42409C11.9261 1.43172 11.7825 1.49918 11.5571 1.87865C11.3991 2.37731 11.547 2.66259 11.7152 3.08165L11.7873 3.26115L10.0386 4.88209C10.1753 5.15065 10.27 5.45165 10.3129 5.77084L12.8209 3.26415C12.6923 2.93125 12.5499 2.68525 12.4413 2.41515C12.3393 2.16153 12.2925 1.86843 12.3539 1.53015C12.2181 1.46559 12.1013 1.41878 12.0288 1.42412L12.0288 1.42409ZM8.29116 4.27253C7.50704 4.27581 6.81823 5.08947 6.82376 6.16047C6.82932 7.2314 7.52648 8.03922 8.31063 8.03587C9.09476 8.03259 9.78354 7.219 9.77801 6.148C9.77248 5.077 9.07535 4.26925 8.2912 4.27253H8.29116ZM14.2303 6.90678C14.0438 6.90412 13.8608 6.93365 13.7008 6.99647C13.3844 7.47147 13.4431 7.60793 13.3549 8.13453L13.3327 8.26734L13.2153 8.33328C12.538 8.71365 11.8888 9.03772 11.2487 9.56187L11.1352 9.65481L10.9941 9.61497C10.9941 9.61497 10.5943 9.50206 10.1877 9.383C9.98441 9.32347 9.77951 9.26243 9.61998 9.21253C9.54019 9.18753 9.47216 9.1655 9.41841 9.14672C9.39154 9.13734 9.36873 9.129 9.34598 9.11962C9.33463 9.11493 9.32348 9.11018 9.30857 9.10262C9.29388 9.09518 9.28007 9.09581 9.2316 9.0485L9.2286 9.05162L8.82479 8.51962C8.66244 8.57003 8.49135 8.59753 8.31354 8.59828C7.64916 8.60109 7.07426 8.23253 6.70323 7.66922C4.92554 8.82725 3.0551 10.15 2.00594 11.5217L2.26479 12.2892L3.98432 11.7946L4.6316 13.2545C5.9681 12.4397 7.2691 11.6376 8.28263 10.9222C8.08044 10.8597 7.89751 10.7859 7.74013 10.6983L8.0137 10.2069C8.32276 10.3789 8.93066 10.5297 9.61382 10.604C10.268 10.6752 10.9954 10.6836 11.6374 10.6302C12.3969 9.97725 13.3258 9.18009 13.9136 8.56784C13.9529 8.34884 14.0242 8.14003 14.1603 7.95009L14.174 7.93081L14.1909 7.91415C14.3075 7.79853 14.4614 7.71715 14.6201 7.71815C14.7789 7.71915 14.9019 7.79025 14.9941 7.85896C15.0781 7.92153 15.1477 7.98771 15.2127 8.04928L15.4838 7.63884C15.3746 7.3589 15.1155 7.13584 14.7823 7.01009C14.6074 6.94415 14.417 6.90931 14.2304 6.90665L14.2303 6.90678ZM1.14935 11.9094L1.06935 12.4663C1.05201 12.4638 1.0441 12.4623 1.03544 12.4609C1.03894 12.4618 1.04273 12.4626 1.04544 12.4637C1.06473 12.472 1.0957 12.4862 1.13413 12.5045C1.21101 12.541 1.31866 12.594 1.44507 12.6573C1.56901 12.7194 1.71557 12.794 1.86757 12.8717L1.61123 12.1119C1.52104 12.067 1.43879 12.0265 1.37541 11.9964C1.3336 11.9766 1.2986 11.9604 1.2686 11.9474C1.2386 11.9345 1.25841 11.9251 1.14935 11.9094ZM3.28604 12.5808L2.01416 12.9467L2.01498 12.9471L1.54326 13.3607C1.38879 13.2808 1.24044 13.2045 1.11519 13.1412C1.01032 13.0881 0.920632 13.0435 0.851851 13.0105C0.817476 12.994 0.788539 12.9805 0.763101 12.9693C0.737632 12.9582 0.760695 12.9501 0.65257 12.9342L0.570601 13.4907C0.554882 13.4883 0.548257 13.4871 0.539476 13.4856C0.55432 13.4922 0.578226 13.5031 0.608539 13.5176C0.670632 13.5474 0.758226 13.5911 0.861226 13.6431C0.92857 13.6772 1.0101 13.7192 1.08848 13.7594L0.649039 14.1447L1.01988 14.5676L1.62519 14.0369C2.14723 14.3089 2.65332 14.5764 2.65332 14.5764L2.91623 14.0791C2.91623 14.0791 2.5196 13.87 2.07866 13.6394L2.55235 13.2241C3.1211 13.5183 3.64266 13.7909 3.64266 13.7909L3.90366 13.2926C3.90366 13.2926 3.4861 13.0747 3.00648 12.826L3.28604 12.5808ZM0.539476 13.4856L0.53782 13.4848C0.525476 13.4794 0.49382 13.4777 0.539476 13.4856Z" fill="white"/>
</svg>
