<?xml version="1.0" encoding="utf-8"?>
<!-- Generator: Adobe Illustrator 26.0.0, SVG Export Plug-In . SVG Version: 6.00 Build 0)  -->
<svg version="1.1" id="Layer_1" xmlns="http://www.w3.org/2000/svg" xmlns:xlink="http://www.w3.org/1999/xlink" x="0px" y="0px"
	 viewBox="0 0 2000 2000" style="enable-background:new 0 0 2000 2000;" xml:space="preserve">
<style type="text/css">
	.st0{fill:#FFFFFF;}
</style>
<rect width="2000" height="2000"/>
<g>
	<g>
		<g>
			<path class="st0" d="M750.5,1041.88h-69.25c-11.35,0-13.04-6.54-13.04-10.43V955.7c0-17.14-8.14-25.13-25.63-25.13h-7.72
				c-0.97,0-1.89,0-1.89,2.89l-0.01,117.9l0.47,5.7c3.17,7.63,9.53,11.34,19.46,11.34h113.63c0.73,0,1.73,0,1.89-2.99
				c0-3.22-0.29-5.68-0.85-7.33C763.81,1047.18,758.23,1041.88,750.5,1041.88z"/>
			<path class="st0" d="M941.97,930.27h-8.62c-1.97,0-4.01,0.15-6.05,0.43c-10.95,3.94-16.27,9.44-16.27,16.78v80.25
				c0,7.52-4.17,11.84-11.44,11.84h-57.73c-3.49,0-9.33-1.54-9.33-11.84v-75.64c0-1.89-0.62-4.7-1.82-8.24
				c-3.53-9.14-10.4-13.59-21.01-13.59h-9.72c-1.35,0-3.39,0-3.39,4.89v106.3c0,9.74,2.06,13.8,3.79,15.49l0.36,0.35l0.21,0.46
				c3.29,7.16,10.34,10.64,21.57,10.64h98c2.98,0,5.7-0.15,8.1-0.44c12-4.18,17.83-11.5,17.83-22.38V933.16
				C946.47,932.01,946.47,930.27,941.97,930.27z"/>
			<path class="st0" d="M1123.73,930.57H1010.1c-2.49,0-5.29,0.92-8.48,2.81c-5.88,3-8.73,8.89-8.73,18.01V957
				c0,0.74,0,1.39,2.39,1.39h114.63c0.73,0,1.04-0.09,1.06-0.09c0,0,0,0,0,0l0.16-0.1l0.18-0.08c10.3-4.51,15.3-10.9,15.3-19.55
				v-6.61C1126.62,931.37,1126.62,930.57,1123.73,930.57z"/>
			<path class="st0" d="M1099.68,1039.08h-63.44c-2.66,0-7.29-1.03-8.4-7.9l-0.03-0.22v-37.09c0-2.88-0.93-3.39-2.89-3.39h-9.21
				c-15.58,0-22.83,7.09-22.83,22.32v35.27c0,3.2,0.62,6.49,1.73,9.53c3.54,7.26,11.3,10.79,23.71,10.79h103.31
				c3.31,0,4.99-0.64,4.99-1.89v-7.95C1123.95,1045.45,1115.13,1039.08,1099.68,1039.08z"/>
			<path class="st0" d="M1205.48,930.27h-29.76c-2.99,0-2.99,0.96-2.99,1.89v133.85c0,0.65,0,2.39,5.49,2.39h25.15
				c3.31,0,4.99-0.64,4.99-1.89V931.66C1208.36,931.07,1208.36,930.27,1205.48,930.27z"/>
			<path class="st0" d="M1377.91,930.27h-116.93c-2.39,0-2.39,0.64-2.39,1.38v8.22c0,1.97,0.57,4.29,1.68,6.9
				c5.14,7.57,10.57,11.41,16.14,11.41h73.86c3.9,0,10.43,1.62,10.43,12.44v55.91c0,10.82-5.28,12.44-8.43,12.44h-49.71
				c-5.68,0-8.93-3.22-8.93-8.83v-34.37c0-5.49-1.95-5.49-2.89-5.49h-9.22c-3.29,0-7.22,0.77-11.69,2.27
				c-7.56,4.43-11.24,9.68-11.24,16.04v57.91c0,1.64,3.44,1.89,5.49,1.89h107.72c2.65,0,6-0.31,9.95-0.92
				c10.08-4.43,14.98-10.45,14.98-18.4v-98.99c0-1.35-0.14-2.81-0.41-4.34C1392.01,935.33,1385.98,930.27,1377.91,930.27z"/>
			<path class="st0" d="M1477.69,930.27h-29.76c-2.99,0-2.99,0.96-2.99,1.89v133.85c0,0.65,0,2.39,5.49,2.39h25.15
				c3.31,0,4.99-0.64,4.99-1.89V931.66C1480.58,931.07,1480.58,930.27,1477.69,930.27z"/>
			<path class="st0" d="M1698.49,1066.7l-0.52-0.38l-0.29-0.57c-15.87-30.88-26.91-51.74-32.86-62.11
				c-20.32-39.31-31.67-60.95-33.76-64.34l-0.2-0.33l-0.1-0.38c-2.03-7.45-5.88-8.31-8.6-8.31H1596c-8.33,0-15.95,7.74-22.74,23.2
				c-43.12,81.44-56.9,108.09-60.06,114.7c0.77,0.12,1.99,0.23,3.85,0.23h16.33c10.53,0,17.82-3.22,22.28-9.85
				c4.22-8.75,15.77-30.64,34.24-64.87c9.63-21.86,12.98-23.67,15.82-23.67h0.5c2.88,0,5.52,2.8,9.13,9.68
				c16.14,31.05,16.14,31.54,16.14,32.51v1.5c0,2.37-1.09,4.38-3.16,5.84l-0.52,0.37l-0.63,0.1c-6.53,1-9.41,2.26-10.68,3.15
				l-0.7,0.49h-0.86c-2.65,0-8.1,2.57-15.12,19.63c10.23,0.38,18.42,0.58,24.34,0.58c2.95,0,6.32-0.2,10.03-0.59l0.75-0.01l0.58,0.2
				c0.11,0.04,1.27,0.39,6.57,0.39h1.1c4.08,0,7.83,3.93,12.23,12.9c3.24,7.83,11.3,11.64,24.64,11.64h15.43
				c1.82,0,2.84-0.14,3.39-0.27v-0.01C1698.88,1067.6,1698.81,1066.94,1698.49,1066.7z"/>
		</g>
		<g>
			<g>
				<polygon class="st0" points="411.1,935.25 354.84,967.73 354.84,1067.76 382.18,1051.98 382.18,983.51 411.1,966.81 				"/>
				<polygon class="st0" points="476.72,998.8 504.06,1014.58 504.06,947.95 415.98,897.09 415.98,928.66 476.72,963.73 				"/>
				<polygon class="st0" points="532.19,1040.38 504.85,1024.6 445.56,1058.84 415.19,1041.3 387.85,1057.09 445.56,1090.4 				"/>
				<polygon class="st0" points="564.93,922.37 539.74,936.86 433.53,875.53 433.53,846.49 				"/>
				<polygon class="st0" points="565.93,950.37 565.93,1043.57 540.79,1029.06 540.79,964.85 				"/>
				<polygon class="st0" points="301.43,922.76 326.56,937.3 326.27,937.47 326.27,1059.78 301.12,1074.3 301.12,922.94 				"/>
				<polygon class="st0" points="404.26,863.39 404.26,892.43 351.3,923.01 326.19,908.47 				"/>
				<polygon class="st0" points="431.61,1153.32 432.14,1124.3 432.42,1124.46 539.39,1065.14 564.29,1080.1 431.92,1153.51 				"/>
				<polygon class="st0" points="329.82,1092.19 355.22,1078.1 407.65,1109.59 407.1,1138.6 				"/>
			</g>
		</g>
	</g>
</g>
</svg>
