<svg width="137" height="72" viewBox="0 0 137 72" fill="none" xmlns="http://www.w3.org/2000/svg">
<path d="M18.016 12L18.4 10.56L18.144 10.304H5.728C5.344 10.304 5.00267 10.1973 4.704 9.984C4.40533 9.74933 4.14933 9.472 3.936 9.152C3.72267 8.81067 3.56267 8.448 3.456 8.064C3.37067 7.68 3.33867 7.328 3.36 7.008L3.808 5.408C3.95733 4.832 4.17067 4.256 4.448 3.68C4.74667 3.104 5.09867 2.592 5.504 2.144C5.93067 1.67467 6.41067 1.29067 6.944 0.992C7.49867 0.693333 8.11733 0.544 8.8 0.544H25.184L25.056 1.024C24.9493 1.30133 24.8107 1.64267 24.64 2.048C24.4693 2.432 24.3093 2.816 24.16 3.2C24.0107 3.56267 23.872 3.88267 23.744 4.16C23.6373 4.416 23.584 4.544 23.584 4.544H8.448L8.064 4.768L7.648 6.272H19.904C20.288 6.272 20.672 6.368 21.056 6.56C21.44 6.752 21.7707 7.008 22.048 7.328C22.3467 7.648 22.56 8 22.688 8.384C22.8373 8.768 22.8693 9.152 22.784 9.536L21.92 12.768C21.8133 13.1307 21.6 13.504 21.28 13.888C20.9813 14.272 20.6293 14.624 20.224 14.944C19.8187 15.2427 19.4027 15.4987 18.976 15.712C18.5493 15.904 18.1653 16 17.824 16H1.6C1.64267 15.808 1.73867 15.4987 1.888 15.072C2.05867 14.624 2.24 14.176 2.432 13.728C2.624 13.28 2.79467 12.8853 2.944 12.544C3.09333 12.1813 3.17867 12 3.2 12H18.016ZM22.5745 16L34.3185 3.072C34.5958 2.79467 34.9052 2.50667 35.2465 2.208C35.5878 1.90933 35.9398 1.64267 36.3025 1.408C36.6865 1.152 37.0705 0.949333 37.4545 0.799999C37.8598 0.629333 38.2652 0.544 38.6705 0.544H47.8545L43.7585 16H39.7585L40.7825 12.128H30.9585L27.3105 16H22.5745ZM42.7985 4.608H37.9665C37.9025 4.608 37.6998 4.768 37.3585 5.088C37.0385 5.38667 36.6865 5.73867 36.3025 6.144C35.9398 6.528 35.5878 6.912 35.2465 7.296C34.9052 7.65867 34.6812 7.91467 34.5745 8.064H41.8705L42.7985 4.608ZM49.7748 0.544H53.8068L63.2468 10.56L65.9028 0.544H69.8708L65.7748 16H61.6788L52.4308 5.984L49.7748 16H45.6788L49.7748 0.544ZM71.806 0.544H88.67C88.99 0.544 89.31 0.639999 89.63 0.831999C89.9713 1.024 90.2593 1.26933 90.494 1.568C90.75 1.86667 90.942 2.19733 91.07 2.56C91.198 2.90133 91.2193 3.24267 91.134 3.584L88.67 12.768C88.5633 13.1947 88.3287 13.6107 87.966 14.016C87.6247 14.4 87.23 14.7413 86.782 15.04C86.334 15.3387 85.8647 15.5733 85.374 15.744C84.8833 15.9147 84.446 16 84.062 16H67.71L71.806 0.544ZM72.862 12H84.766L86.75 4.64H74.846L72.862 12ZM18.016 40L18.4 38.56L18.144 38.304H5.728C5.344 38.304 5.00267 38.1973 4.704 37.984C4.40533 37.7493 4.14933 37.472 3.936 37.152C3.72267 36.8107 3.56267 36.448 3.456 36.064C3.37067 35.68 3.33867 35.328 3.36 35.008L3.808 33.408C3.95733 32.832 4.17067 32.256 4.448 31.68C4.74667 31.104 5.09867 30.592 5.504 30.144C5.93067 29.6747 6.41067 29.2907 6.944 28.992C7.49867 28.6933 8.11733 28.544 8.8 28.544H25.184L25.056 29.024C24.9493 29.3013 24.8107 29.6427 24.64 30.048C24.4693 30.432 24.3093 30.816 24.16 31.2C24.0107 31.5627 23.872 31.8827 23.744 32.16C23.6373 32.416 23.584 32.544 23.584 32.544H8.448L8.064 32.768L7.648 34.272H19.904C20.288 34.272 20.672 34.368 21.056 34.56C21.44 34.752 21.7707 35.008 22.048 35.328C22.3467 35.648 22.56 36 22.688 36.384C22.8373 36.768 22.8693 37.152 22.784 37.536L21.92 40.768C21.8133 41.1307 21.6 41.504 21.28 41.888C20.9813 42.272 20.6293 42.624 20.224 42.944C19.8187 43.2427 19.4027 43.4987 18.976 43.712C18.5493 43.904 18.1653 44 17.824 44H1.6C1.64267 43.808 1.73867 43.4987 1.888 43.072C2.05867 42.624 2.24 42.176 2.432 41.728C2.624 41.28 2.79467 40.8853 2.944 40.544C3.09333 40.1813 3.17867 40 3.2 40H18.016ZM33.9985 32.544H26.0625L27.1185 28.544H47.2145L46.1585 32.544H38.0945L35.0545 44H30.9585L33.9985 32.544ZM49.1498 28.544H66.0138C66.3338 28.544 66.6538 28.64 66.9738 28.832C67.3151 29.024 67.6031 29.2693 67.8378 29.568C68.0938 29.8667 68.2858 30.1973 68.4138 30.56C68.5418 30.9013 68.5631 31.2427 68.4778 31.584L66.0138 40.768C65.9071 41.1947 65.6724 41.6107 65.3098 42.016C64.9684 42.4 64.5738 42.7413 64.1258 43.04C63.6778 43.3387 63.2084 43.5733 62.7178 43.744C62.2271 43.9147 61.7898 44 61.4058 44H48.7977C48.3711 44 47.9658 43.904 47.5818 43.712C47.1978 43.52 46.8671 43.2747 46.5898 42.976C46.3124 42.656 46.1098 42.2933 45.9818 41.888C45.8538 41.4827 45.8431 41.056 45.9498 40.608L49.1498 28.544ZM50.3018 39.648L50.5578 40H62.1098L64.0938 32.64H52.1898L50.3018 39.648ZM71.181 28.544H87.597C88.3437 28.544 88.9197 28.6933 89.325 28.992C89.7303 29.2907 90.0077 29.6747 90.157 30.144C90.3063 30.592 90.3597 31.104 90.317 31.68C90.2743 32.256 90.1783 32.832 90.029 33.408L89.581 35.008C89.4957 35.3067 89.3143 35.648 89.037 36.032C88.7597 36.416 88.429 36.7787 88.045 37.12C87.661 37.44 87.2343 37.7173 86.765 37.952C86.317 38.1867 85.8797 38.304 85.453 38.304H83.149L87.181 44H81.901L77.965 38.304H72.685L71.181 44H67.085L71.181 28.544ZM74.221 32.544L73.773 34.304H85.293L85.837 33.92L86.157 32.768L85.805 32.544H74.221ZM93.2123 28.544H97.5642L101.916 40.16L112.348 28.544H116.7L112.604 44H108.604L110.844 35.68L103.228 44H98.5243L95.3883 35.68L93.1483 44H89.1163L93.2123 28.544ZM5.056 56.544H21.472C22.2187 56.544 22.7947 56.6933 23.2 56.992C23.6053 57.2907 23.8827 57.6747 24.032 58.144C24.1813 58.592 24.2347 59.104 24.192 59.68C24.1493 60.256 24.0533 60.832 23.904 61.408L23.456 63.008C23.3707 63.3067 23.1893 63.648 22.912 64.032C22.6347 64.416 22.304 64.7787 21.92 65.12C21.536 65.44 21.1093 65.7173 20.64 65.952C20.192 66.1867 19.7547 66.304 19.328 66.304H17.024L21.056 72H15.776L11.84 66.304H6.56L5.056 72H0.96L5.056 56.544ZM8.096 60.544L7.648 62.304H19.168L19.712 61.92L20.032 60.768L19.68 60.544H8.096ZM22.5433 72L34.2873 59.072C34.5646 58.7947 34.8739 58.5067 35.2153 58.208C35.5566 57.9093 35.9086 57.6427 36.2713 57.408C36.6553 57.152 37.0393 56.9493 37.4233 56.8C37.8286 56.6293 38.2339 56.544 38.6393 56.544H47.8233L43.7273 72H39.7273L40.7513 68.128H30.9273L27.2793 72H22.5433ZM42.7673 60.608H37.9353C37.8713 60.608 37.6686 60.768 37.3273 61.088C37.0073 61.3867 36.6553 61.7387 36.2713 62.144C35.9086 62.528 35.5566 62.912 35.2153 63.296C34.8739 63.6587 34.6499 63.9147 34.5433 64.064H41.8393L42.7673 60.608ZM49.7435 56.544H69.9035C69.8608 56.736 69.7542 57.056 69.5835 57.504C69.4128 57.952 69.2315 58.4 69.0395 58.848C68.8688 59.296 68.6982 59.6907 68.5275 60.032C68.3782 60.3733 68.2928 60.544 68.2715 60.544H52.7835L50.9275 67.552L51.0555 68H66.2875C66.3302 68 66.3302 68.1707 66.2875 68.512C66.2662 68.8533 66.2235 69.248 66.1595 69.696C66.0955 70.144 66.0315 70.592 65.9675 71.04C65.9035 71.4667 65.8502 71.7867 65.8075 72H49.3915C48.9435 72 48.5168 71.8933 48.1115 71.68C47.7275 71.4667 47.4075 71.1893 47.1515 70.848C46.8955 70.4853 46.7142 70.08 46.6075 69.632C46.5008 69.184 46.5115 68.7253 46.6395 68.256L49.7435 56.544ZM71.8373 56.544H91.9973C91.9546 56.736 91.8479 57.056 91.6773 57.504C91.5066 57.952 91.3253 58.4 91.1333 58.848C90.9626 59.296 90.7919 59.6907 90.6213 60.032C90.4719 60.3733 90.3866 60.544 90.3653 60.544H74.8773L74.4293 62.304H89.2453C89.2026 62.496 89.0959 62.816 88.9253 63.264C88.7546 63.6907 88.5733 64.1387 88.3813 64.608C88.1893 65.056 88.0186 65.4507 87.8693 65.792C87.7199 66.1333 87.6346 66.304 87.6133 66.304H73.3413L73.0213 67.552L73.1493 68H88.3813C88.4239 68 88.4239 68.1707 88.3813 68.512C88.3599 68.8533 88.3173 69.248 88.2533 69.696C88.1893 70.144 88.1253 70.592 88.0613 71.04C87.9973 71.4667 87.9439 71.7867 87.9013 72H71.4852C71.0373 72 70.6106 71.8933 70.2053 71.68C69.8213 71.4667 69.5013 71.1893 69.2453 70.848C68.9893 70.4853 68.8079 70.08 68.7013 69.632C68.5946 69.184 68.6053 68.7253 68.7333 68.256L71.8373 56.544ZM93.931 56.544H110.347C111.094 56.544 111.67 56.6933 112.075 56.992C112.48 57.2907 112.758 57.6747 112.907 58.144C113.056 58.592 113.11 59.104 113.067 59.68C113.024 60.256 112.928 60.832 112.779 61.408L112.331 63.008C112.246 63.3067 112.064 63.648 111.787 64.032C111.51 64.416 111.179 64.7787 110.795 65.12C110.411 65.44 109.984 65.7173 109.515 65.952C109.067 66.1867 108.63 66.304 108.203 66.304H105.899L109.931 72H104.651L100.715 66.304H95.435L93.931 72H89.835L93.931 56.544ZM96.971 60.544L96.523 62.304H108.043L108.587 61.92L108.907 60.768L108.555 60.544H96.971ZM128.922 68L129.306 66.56L129.05 66.304H116.634C116.25 66.304 115.909 66.1973 115.61 65.984C115.312 65.7493 115.056 65.472 114.842 65.152C114.629 64.8107 114.469 64.448 114.362 64.064C114.277 63.68 114.245 63.328 114.266 63.008L114.714 61.408C114.864 60.832 115.077 60.256 115.354 59.68C115.653 59.104 116.005 58.592 116.41 58.144C116.837 57.6747 117.317 57.2907 117.85 56.992C118.405 56.6933 119.024 56.544 119.706 56.544H136.09L135.962 57.024C135.856 57.3013 135.717 57.6427 135.546 58.048C135.376 58.432 135.216 58.816 135.066 59.2C134.917 59.5627 134.778 59.8827 134.65 60.16C134.544 60.416 134.49 60.544 134.49 60.544H119.354L118.97 60.768L118.554 62.272H130.81C131.194 62.272 131.578 62.368 131.962 62.56C132.346 62.752 132.677 63.008 132.954 63.328C133.253 63.648 133.466 64 133.594 64.384C133.744 64.768 133.776 65.152 133.69 65.536L132.826 68.768C132.72 69.1307 132.506 69.504 132.186 69.888C131.888 70.272 131.536 70.624 131.13 70.944C130.725 71.2427 130.309 71.4987 129.882 71.712C129.456 71.904 129.072 72 128.73 72H112.506C112.549 71.808 112.645 71.4987 112.794 71.072C112.965 70.624 113.146 70.176 113.338 69.728C113.53 69.28 113.701 68.8853 113.85 68.544C114 68.1813 114.085 68 114.106 68H128.922Z" fill="#F0F0F0"/>
</svg>
