<svg width="70" height="70" viewBox="0 0 70 70" fill="none" xmlns="http://www.w3.org/2000/svg">
<circle cx="35" cy="35" r="35" fill="#060606"/>
<circle cx="35.5" cy="35.5" r="23.5" stroke="#E5E5E5" stroke-width="2"/>
<path d="M45.7703 35.5C45.7703 42.1576 44.5539 48.1366 42.6292 52.4137C40.6622 56.7848 38.1511 59 35.7453 59C33.3394 59 30.8283 56.7848 28.8613 52.4137C26.9366 48.1366 25.7203 42.1576 25.7203 35.5C25.7203 28.8424 26.9366 22.8634 28.8613 18.5862C30.8283 14.2152 33.3394 12 35.7453 12C38.1511 12 40.6622 14.2152 42.6292 18.5862C44.5539 22.8634 45.7703 28.8424 45.7703 35.5Z" stroke="#E5E5E5" stroke-width="2"/>
<line x1="12.47" y1="27.64" x2="58.53" y2="27.64" stroke="#E5E5E5" stroke-width="2"/>
<line x1="12.47" y1="42.34" x2="58.53" y2="42.34" stroke="#E5E5E5" stroke-width="2"/>
</svg>
