<svg xmlns="http://www.w3.org/2000/svg" width="323" height="40" viewBox="0 0 323 40" fill="none">
  <path d="M1.28976 0.0837404H3.4487C8.73857 0.0837404 11.3835 2.67039 11.3835 7.84368V28.9463C11.3835 30.3792 12.3462 31.0956 14.2714 31.0956H40.0946C42.5994 31.0956 44.4312 32.7704 45.5901 36.12C45.777 36.6597 45.8705 37.4227 45.8705 38.4089C45.8144 39.4696 45.3845 40 44.5807 40H6.33663C3.19635 40 1.13087 38.7532 0.140191 36.2596L0 34.5569V1.64689C0 0.604792 0.429919 0.0837404 1.28976 0.0837404Z" fill="#8A36F8"/>
  <path d="M53.5249 0H56.2446C59.5344 0 61.7308 1.42359 62.8336 4.27076C63.2074 5.36869 63.3944 6.2247 63.3944 6.8388V27.9135C63.3944 29.6069 64.0112 30.4536 65.2449 30.4536H87.8437C89.4699 30.4536 90.283 29.6069 90.283 27.9135V5.55478C90.283 3.15422 91.9933 1.34915 95.414 0.139567C96.0495 0.0465224 96.6757 0 97.2925 0H99.7038C101.05 0 101.723 0.521051 101.723 1.56315V32.8821C101.723 36.2689 99.8627 38.595 96.143 39.8604C95.414 39.9535 94.6009 40 93.7036 40H59.8335C56.3942 40 54.1511 38.8649 53.1043 36.5946C52.2445 35.7572 51.8146 34.1382 51.8146 31.7376V2.12142C51.8146 0.707141 52.3847 0 53.5249 0Z" fill="#8A36F8"/>
  <path d="M118.349 0.0837404H156.593C157.64 0.0837404 158.163 0.465225 158.163 1.22819V3.07048C158.163 5.78739 156.584 7.83438 153.425 9.21144C153.275 9.30449 153.042 9.35101 152.724 9.35101H114.2C113.246 9.35101 112.77 8.96953 112.77 8.20656V6.64341C112.77 3.81484 113.723 1.91672 115.63 0.949058C116.602 0.37218 117.508 0.0837404 118.349 0.0837404ZM119.919 16.776H122.499C123.546 16.776 124.069 17.3436 124.069 18.4787V28.7509C124.237 29.793 124.77 30.314 125.667 30.314H149.864C154.593 30.314 157.36 32.3517 158.163 36.4271V38.716C158.163 39.572 157.444 40 156.005 40H120.648C116.891 40 114.452 38.8555 113.33 36.5666C112.957 35.5618 112.77 34.5662 112.77 33.5799V23.7544C112.77 19.1021 115.153 16.776 119.919 16.776Z" fill="#8A36F8"/>
  <path d="M170.697 0H179.024C180.071 0 180.594 0.381484 180.594 1.14445V38.716C180.594 39.572 179.874 40 178.435 40H171.397C169.865 40 169.098 39.5255 169.098 38.5764V1.28402C169.098 0.428007 169.631 0 170.697 0Z" fill="#8A36F8"/>
  <path d="M194.108 0H233.278C235.876 0 237.839 1.61898 239.166 4.85694C239.259 5.35939 239.306 5.83392 239.306 6.28053V33.859C239.306 36.4085 237.727 38.3624 234.568 39.7209C233.371 39.907 232.371 40 231.567 40H194.978C193.445 40 192.678 39.572 192.678 38.716V22.582C192.678 20.5164 193.875 18.7951 196.267 17.418C197.632 16.9528 198.828 16.7202 199.856 16.7202H202.436C203.483 16.7202 204.006 17.4831 204.006 19.0091V28.5834C204.006 29.7185 204.585 30.2861 205.744 30.2861H226.1C227.165 30.2861 227.698 29.3836 227.698 27.5785V12.0028C227.698 10.1977 226.979 9.29519 225.539 9.29519H198.426C196.576 9.29519 194.847 8.10421 193.239 5.72226C192.865 4.86625 192.678 4.10328 192.678 3.43336V1.14445C192.678 0.381484 193.155 0 194.108 0Z" fill="#8A36F8"/>
  <path d="M252.456 0H260.783C261.83 0 262.353 0.381484 262.353 1.14445V38.716C262.353 39.572 261.634 40 260.194 40H253.157C251.624 40 250.858 39.5255 250.858 38.5764V1.28402C250.858 0.428007 251.39 0 252.456 0Z" fill="#8A36F8"/>
  <path d="M293.448 0H300.766C302.336 0 303.383 0.958362 303.906 2.87509C304.504 3.84275 307.663 9.83485 313.383 20.8514C315.046 23.7358 318.112 29.5045 322.579 38.1577C322.86 38.3624 323 38.6974 323 39.1626V39.4417C323 39.8139 322.43 40 321.29 40H316.972C312.934 40 310.401 38.7625 309.373 36.2875C308.345 34.2033 307.439 33.1612 306.654 33.1612H306.345C305.186 33.1612 304.476 33.1054 304.214 32.9937C303.149 33.1054 302.186 33.1612 301.326 33.1612C299.607 33.1612 297.27 33.1054 294.317 32.9937C293.924 32.8635 293.728 32.7239 293.728 32.575V32.1563C295.392 28.0623 297.065 26.0154 298.747 26.0154C299.364 25.5873 300.467 25.2524 302.055 25.0105C302.429 24.7499 302.616 24.415 302.616 24.0056V23.5869C302.616 23.438 301.14 20.535 298.186 14.8779C297.382 13.3519 296.756 12.589 296.308 12.589H296.167C295.495 12.589 294.251 14.636 292.438 18.7299C287.186 28.4252 283.98 34.4731 282.821 36.8737C281.438 38.9579 279.139 40 275.924 40H271.354C270.008 40 269.335 39.8139 269.335 39.4417C269.335 39.1254 275.027 28.267 286.41 6.86671C288.429 2.2889 290.775 0 293.448 0Z" fill="#8A36F8"/>
</svg>
