<svg width="20" height="15" viewBox="0 0 20 15" fill="none" xmlns="http://www.w3.org/2000/svg">
<g id="&#240;&#159;&#166;&#134; icon &#34;United States&#34;">
<g id="Group">
<path id="Vector" fill-rule="evenodd" clip-rule="evenodd" d="M0 0H20V14.2857H0V0Z" fill="url(#paint0_linear_5811_5242)"/>
<path id="Vector_2" fill-rule="evenodd" clip-rule="evenodd" d="M0 0H20V0.952381H0V0ZM0 1.90476H20V2.85714H0V1.90476ZM0 3.80952H20V4.7619H0V3.80952ZM0 5.71429H20V6.66667H0V5.71429ZM0 7.61905H20V8.57143H0V7.61905ZM0 9.52381H20V10.4762H0V9.52381ZM0 11.4286H20V12.381H0V11.4286ZM0 13.3333H20V14.2857H0V13.3333Z" fill="url(#paint1_linear_5811_5242)"/>
<path id="Vector_3" fill-rule="evenodd" clip-rule="evenodd" d="M0 0H8.57143V6.66667H0V0Z" fill="url(#paint2_linear_5811_5242)"/>
<path id="Vector_4" fill-rule="evenodd" clip-rule="evenodd" d="M1.42834 1.90277C1.16535 1.90277 0.952148 1.68958 0.952148 1.42658C0.952148 1.16359 1.16535 0.950394 1.42834 0.950394C1.69133 0.950394 1.90453 1.16359 1.90453 1.42658C1.90453 1.68958 1.69133 1.90277 1.42834 1.90277ZM3.3331 1.90277C3.07011 1.90277 2.85691 1.68958 2.85691 1.42658C2.85691 1.16359 3.07011 0.950394 3.3331 0.950394C3.59609 0.950394 3.80929 1.16359 3.80929 1.42658C3.80929 1.68958 3.59609 1.90277 3.3331 1.90277ZM5.23786 1.90277C4.97487 1.90277 4.76167 1.68958 4.76167 1.42658C4.76167 1.16359 4.97487 0.950394 5.23786 0.950394C5.50086 0.950394 5.71405 1.16359 5.71405 1.42658C5.71405 1.68958 5.50086 1.90277 5.23786 1.90277ZM7.14262 1.90277C6.87963 1.90277 6.66643 1.68958 6.66643 1.42658C6.66643 1.16359 6.87963 0.950394 7.14262 0.950394C7.40562 0.950394 7.61881 1.16359 7.61881 1.42658C7.61881 1.68958 7.40562 1.90277 7.14262 1.90277ZM2.38072 2.85516C2.11773 2.85516 1.90453 2.64196 1.90453 2.37896C1.90453 2.11597 2.11773 1.90277 2.38072 1.90277C2.64371 1.90277 2.85691 2.11597 2.85691 2.37896C2.85691 2.64196 2.64371 2.85516 2.38072 2.85516ZM4.28548 2.85516C4.02249 2.85516 3.80929 2.64196 3.80929 2.37896C3.80929 2.11597 4.02249 1.90277 4.28548 1.90277C4.54847 1.90277 4.76167 2.11597 4.76167 2.37896C4.76167 2.64196 4.54847 2.85516 4.28548 2.85516ZM6.19024 2.85516C5.92725 2.85516 5.71405 2.64196 5.71405 2.37896C5.71405 2.11597 5.92725 1.90277 6.19024 1.90277C6.45324 1.90277 6.66643 2.11597 6.66643 2.37896C6.66643 2.64196 6.45324 2.85516 6.19024 2.85516ZM7.14262 3.80754C6.87963 3.80754 6.66643 3.59434 6.66643 3.33135C6.66643 3.06835 6.87963 2.85516 7.14262 2.85516C7.40562 2.85516 7.61881 3.06835 7.61881 3.33135C7.61881 3.59434 7.40562 3.80754 7.14262 3.80754ZM5.23786 3.80754C4.97487 3.80754 4.76167 3.59434 4.76167 3.33135C4.76167 3.06835 4.97487 2.85516 5.23786 2.85516C5.50086 2.85516 5.71405 3.06835 5.71405 3.33135C5.71405 3.59434 5.50086 3.80754 5.23786 3.80754ZM3.3331 3.80754C3.07011 3.80754 2.85691 3.59434 2.85691 3.33135C2.85691 3.06835 3.07011 2.85516 3.3331 2.85516C3.59609 2.85516 3.80929 3.06835 3.80929 3.33135C3.80929 3.59434 3.59609 3.80754 3.3331 3.80754ZM1.42834 3.80754C1.16535 3.80754 0.952148 3.59434 0.952148 3.33135C0.952148 3.06835 1.16535 2.85516 1.42834 2.85516C1.69133 2.85516 1.90453 3.06835 1.90453 3.33135C1.90453 3.59434 1.69133 3.80754 1.42834 3.80754ZM2.38072 4.75992C2.11773 4.75992 1.90453 4.54672 1.90453 4.28373C1.90453 4.02073 2.11773 3.80754 2.38072 3.80754C2.64371 3.80754 2.85691 4.02073 2.85691 4.28373C2.85691 4.54672 2.64371 4.75992 2.38072 4.75992ZM4.28548 4.75992C4.02249 4.75992 3.80929 4.54672 3.80929 4.28373C3.80929 4.02073 4.02249 3.80754 4.28548 3.80754C4.54847 3.80754 4.76167 4.02073 4.76167 4.28373C4.76167 4.54672 4.54847 4.75992 4.28548 4.75992ZM6.19024 4.75992C5.92725 4.75992 5.71405 4.54672 5.71405 4.28373C5.71405 4.02073 5.92725 3.80754 6.19024 3.80754C6.45324 3.80754 6.66643 4.02073 6.66643 4.28373C6.66643 4.54672 6.45324 4.75992 6.19024 4.75992ZM7.14262 5.7123C6.87963 5.7123 6.66643 5.4991 6.66643 5.23611C6.66643 4.97311 6.87963 4.75992 7.14262 4.75992C7.40562 4.75992 7.61881 4.97311 7.61881 5.23611C7.61881 5.4991 7.40562 5.7123 7.14262 5.7123ZM5.23786 5.7123C4.97487 5.7123 4.76167 5.4991 4.76167 5.23611C4.76167 4.97311 4.97487 4.75992 5.23786 4.75992C5.50086 4.75992 5.71405 4.97311 5.71405 5.23611C5.71405 5.4991 5.50086 5.7123 5.23786 5.7123ZM3.3331 5.7123C3.07011 5.7123 2.85691 5.4991 2.85691 5.23611C2.85691 4.97311 3.07011 4.75992 3.3331 4.75992C3.59609 4.75992 3.80929 4.97311 3.80929 5.23611C3.80929 5.4991 3.59609 5.7123 3.3331 5.7123ZM1.42834 5.7123C1.16535 5.7123 0.952148 5.4991 0.952148 5.23611C0.952148 4.97311 1.16535 4.75992 1.42834 4.75992C1.69133 4.75992 1.90453 4.97311 1.90453 5.23611C1.90453 5.4991 1.69133 5.7123 1.42834 5.7123Z" fill="url(#paint3_linear_5811_5242)"/>
</g>
</g>
<defs>
<linearGradient id="paint0_linear_5811_5242" x1="210" y1="0" x2="210" y2="214.286" gradientUnits="userSpaceOnUse">
<stop stop-color="white"/>
<stop offset="1" stop-color="#F0F0F0"/>
</linearGradient>
<linearGradient id="paint1_linear_5811_5242" x1="210" y1="0" x2="210" y2="214.286" gradientUnits="userSpaceOnUse">
<stop stop-color="#D02F44"/>
<stop offset="1" stop-color="#B12537"/>
</linearGradient>
<linearGradient id="paint2_linear_5811_5242" x1="90" y1="0" x2="90" y2="100" gradientUnits="userSpaceOnUse">
<stop stop-color="#46467F"/>
<stop offset="1" stop-color="#3C3C6D"/>
</linearGradient>
<linearGradient id="paint3_linear_5811_5242" x1="70.9521" y1="0.950394" x2="70.9521" y2="72.379" gradientUnits="userSpaceOnUse">
<stop stop-color="white"/>
<stop offset="1" stop-color="#F0F0F0"/>
</linearGradient>
</defs>
</svg>
