<svg width="166" height="55" viewBox="0 0 166 55" fill="none" xmlns="http://www.w3.org/2000/svg">
<path d="M11.72 23V7.32H6.12V23H11.72ZM13.96 18.52H18.44L25.16 11.8L18.44 5.08H5L0.616 0.599998H20.68L31.88 11.8L20.68 23H13.96V18.52ZM54.275 5.08L58.755 0.599998L27.555 0.599998L31.875 5.08H54.275ZM32.995 7.32H38.595V8.44H49.795L45.315 12.92H38.595V18.52H48.675L53.155 23H32.995V7.32ZM80.0463 5.08L56.5263 5.08L61.0063 0.599998H84.5263L80.0463 5.08ZM61.0063 18.52H78.9263L74.4463 23H56.5263L61.0063 18.52ZM56.5263 7.32L63.2463 14.04H69.9663L72.2063 16.28H78.9263L72.2063 9.56L65.4863 9.56L63.2463 7.32H56.5263ZM85.6575 23H80.0575V7.32H85.6575V23ZM78.9375 5.08L74.6175 0.599998L91.2575 0.599998L97.9775 7.32L94.6175 10.68H87.8975L91.2575 7.32L89.0175 5.08H78.9375ZM87.8975 12.92V17.4H92.3775L97.9775 23H104.698L94.6175 12.92H87.8975ZM111.409 23H105.809V7.32H111.409V23ZM119.249 5.08H97.9688L93.6167 0.599998L123.729 0.599998L119.249 5.08ZM18.44 50.52H15.08L11.72 47.16V32.6H6.12L6.12 48.28L12.84 55H22.92L18.44 50.52ZM18.44 32.6H24.04V47.16L27.4 50.52H30.76V32.6H36.36V55H25.16L18.44 48.28V32.6ZM43.095 37.08H36.375L31.991 32.6H45.335L67.735 55H61.015L43.095 37.08ZM37.495 39.32V55H43.095V49.4H53.175L48.695 44.92H43.095V39.32H37.495ZM67.7513 55H62.1513V39.32H67.7513V55ZM61.0312 37.08L56.7112 32.6H73.3513L80.0713 39.32L76.7113 42.68H69.9913L73.3513 39.32L71.1113 37.08H61.0312ZM69.9913 44.92V49.4H74.4713L80.0713 55H86.7913L76.7113 44.92H69.9913ZM86.7825 55H81.1825V39.32H86.7825V55ZM86.7825 37.08H81.1825V32.6H86.7825V37.08ZM96.8613 37.08L101.341 32.6H110.301L117.021 39.32V53.88L111.421 48.28V40.44L108.061 37.08H96.8613ZM87.9013 46.04L94.6213 39.32H101.341L94.6213 46.04L99.1013 50.52H111.421L115.901 55H96.8613L87.9013 46.04ZM123.751 55H118.151V39.32H123.751V55ZM117.031 37.08L112.711 32.6H129.351L136.071 39.32L132.711 42.68H125.991L129.351 39.32L127.111 37.08H117.031ZM125.991 44.92V49.4H130.471L136.071 55H142.791L132.711 44.92H125.991ZM160.703 37.08H137.183L141.663 32.6H165.183L160.703 37.08ZM141.663 50.52H159.583L155.103 55H137.183L141.663 50.52ZM137.183 39.32L143.903 46.04H150.623L152.863 48.28H159.583L152.863 41.56H146.143L143.903 39.32H137.183Z" fill="#F0F0F0"/>
</svg>
