<svg width="626" height="64" viewBox="0 0 626 64" fill="none" xmlns="http://www.w3.org/2000/svg">
<path d="M0.108 54.936V35.028C0.108 34.916 0.164 34.748 0.276 34.524C0.388 34.244 0.5 34.048 0.612 33.936C0.612 33.88 0.696 33.768 0.864 33.6C0.92 33.544 1.004 33.488 1.116 33.432C1.34 33.376 1.76 33.292 2.376 33.18C3.048 33.068 3.496 32.984 3.72 32.928V32.424L0.108 31.332V5.208H8.172V-2.856H53.532V14.532H21.108V20.496C20.884 20.384 20.408 20.132 19.68 19.74C19.008 19.292 18.532 19.012 18.252 18.9H17.748H17.244C17.132 18.9 16.908 18.928 16.572 18.984C16.292 19.04 15.984 19.096 15.648 19.152C15.312 19.208 14.976 19.264 14.64 19.32C14.36 19.376 14.192 19.404 14.136 19.404C13.968 19.46 13.688 19.516 13.296 19.572C12.96 19.628 12.596 19.684 12.204 19.74C11.812 19.796 11.448 19.852 11.112 19.908C10.776 19.964 10.552 19.992 10.44 19.992H10.188H9.936C9.768 19.992 9.46 19.964 9.012 19.908C8.564 19.852 8.088 19.796 7.584 19.74C7.136 19.684 6.688 19.628 6.24 19.572C5.792 19.516 5.484 19.46 5.316 19.404L4.812 19.992C4.812 20.048 4.868 20.132 4.98 20.244C5.092 20.356 5.204 20.44 5.316 20.496C5.428 20.496 5.736 20.58 6.24 20.748C6.744 20.86 7.108 20.944 7.332 21C7.5 21 7.724 21.028 8.004 21.084C8.34 21.14 8.676 21.196 9.012 21.252C9.348 21.308 9.656 21.364 9.936 21.42C10.216 21.476 10.384 21.504 10.44 21.504C10.72 21.504 11.224 21.532 11.952 21.588C12.736 21.644 13.52 21.7 14.304 21.756C15.144 21.812 15.928 21.868 16.656 21.924C17.44 21.98 17.972 22.008 18.252 22.008L21.108 24.612V45.612H53.532V63H40.008C39.952 63 39.784 62.944 39.504 62.832C39.28 62.72 39.112 62.608 39 62.496C38.888 62.384 38.692 62.216 38.412 61.992C38.188 61.712 38.048 61.516 37.992 61.404C37.992 61.236 37.964 60.984 37.908 60.648C37.852 60.256 37.796 59.836 37.74 59.388C37.684 58.94 37.628 58.52 37.572 58.128C37.516 57.736 37.46 57.456 37.404 57.288C37.404 57.176 37.348 56.98 37.236 56.7C37.124 56.42 37.012 56.28 36.9 56.28C36.9 56.224 36.816 56.196 36.648 56.196C36.536 56.14 36.424 56.112 36.312 56.112C36.256 56.112 36.172 56.14 36.06 56.196C35.948 56.196 35.892 56.224 35.892 56.28L34.296 63H8.172V54.936H0.108ZM68.0725 42.252C67.9605 42.196 67.7085 42.112 67.3165 42C66.9245 41.888 66.6445 41.804 66.4765 41.748C66.3645 41.748 66.0845 41.692 65.6365 41.58C65.1885 41.468 64.6845 41.356 64.1245 41.244C63.6205 41.132 63.1445 41.048 62.6965 40.992C62.2485 40.88 61.9685 40.796 61.8565 40.74L59.7565 38.64C59.6445 38.528 59.5325 38.36 59.4205 38.136C59.3085 37.856 59.2525 37.688 59.2525 37.632V-2.856H109.569V34.776H103.857V37.884H109.569V63H88.0645V39.144H80.7565V63H72.6085C72.6085 62.888 72.6085 62.636 72.6085 62.244C72.6645 61.852 72.6925 61.572 72.6925 61.404C72.7485 61.348 72.8605 61.124 73.0285 60.732C73.1965 60.284 73.2805 60.004 73.2805 59.892V56.952V53.676C73.2805 53.452 73.2525 53.004 73.1965 52.332C73.1405 51.66 73.0845 50.988 73.0285 50.316C72.9725 49.588 72.9165 48.916 72.8605 48.3C72.8045 47.628 72.7485 47.18 72.6925 46.956C72.6925 46.844 72.6365 46.508 72.5245 45.948C72.4125 45.388 72.3005 45.024 72.1885 44.856C72.1885 44.744 72.1045 44.576 71.9365 44.352C71.8245 44.072 71.7405 43.904 71.6845 43.848V57.288C71.6845 57.4 71.6285 57.708 71.5165 58.212C71.4045 58.716 71.2925 59.108 71.1805 59.388C71.1245 59.5 71.0405 59.696 70.9285 59.976C70.8165 60.2 70.7325 60.34 70.6765 60.396C70.5085 60.564 70.2845 60.816 70.0045 61.152C69.7245 61.432 69.4445 61.712 69.1645 61.992C68.8845 62.272 68.6325 62.524 68.4085 62.748C68.1845 62.916 68.0725 63 68.0725 63H59.2525V44.352C59.2525 44.296 59.4485 44.212 59.8405 44.1C60.2325 43.988 60.5685 43.904 60.8485 43.848C60.9045 43.848 61.0725 43.82 61.3525 43.764C61.6885 43.708 62.0245 43.652 62.3605 43.596C62.6965 43.484 63.0045 43.4 63.2845 43.344C63.6205 43.288 63.8445 43.26 63.9565 43.26C64.1245 43.26 64.4045 43.204 64.7965 43.092C65.1885 42.98 65.5805 42.868 65.9725 42.756C66.4205 42.644 66.8405 42.56 67.2325 42.504C67.6245 42.392 67.9045 42.308 68.0725 42.252ZM81.0085 21H88.0645V18.144H98.1445C97.9765 18.032 97.5565 17.892 96.8845 17.724C96.2125 17.5 95.7645 17.388 95.5405 17.388C95.4285 17.388 95.1765 17.36 94.7845 17.304C94.3925 17.248 93.9445 17.192 93.4405 17.136C92.9925 17.08 92.5725 17.024 92.1805 16.968C91.7885 16.912 91.5365 16.884 91.4245 16.884C91.1445 16.828 90.8085 16.8 90.4165 16.8C90.0245 16.744 89.6605 16.66 89.3245 16.548C88.9325 16.492 88.5125 16.408 88.0645 16.296V14.784H81.0085V21ZM122.732 33.18V26.964H115.76V21.252H125.084C124.916 21.14 124.496 21 123.824 20.832C123.152 20.608 122.704 20.496 122.48 20.496C122.368 20.496 122.116 20.468 121.724 20.412C121.332 20.356 120.884 20.3 120.38 20.244C119.932 20.188 119.512 20.132 119.12 20.076C118.728 20.02 118.476 19.992 118.364 19.992C117.972 19.88 117.44 19.768 116.768 19.656C116.096 19.544 115.76 19.46 115.76 19.404V-2.856H137.264V21H144.32C144.32 20.832 144.32 20.524 144.32 20.076C144.376 19.628 144.432 19.152 144.488 18.648C144.544 18.144 144.6 17.668 144.656 17.22C144.712 16.772 144.768 16.464 144.824 16.296C144.824 16.184 144.88 16.016 144.992 15.792C145.16 15.512 145.272 15.344 145.328 15.288C145.384 15.232 145.524 15.148 145.748 15.036C146.028 14.924 146.224 14.84 146.336 14.784C146.504 14.728 146.84 14.756 147.344 14.868C147.904 14.924 148.268 14.952 148.436 14.952V13.776C148.268 13.72 147.904 13.636 147.344 13.524C146.84 13.412 146.504 13.3 146.336 13.188C146.224 13.188 146.084 13.16 145.916 13.104C145.748 13.048 145.58 12.992 145.412 12.936C145.188 12.88 144.992 12.796 144.824 12.684V-2.856H166.076V2.016C165.964 2.016 165.768 1.988 165.488 1.932C165.264 1.876 165.096 1.848 164.984 1.848C164.928 1.792 164.676 1.624 164.228 1.344C163.836 1.008 163.584 0.811998 163.472 0.755995C163.36 0.699996 163.248 0.643997 163.136 0.587997C163.08 0.531998 162.996 0.475997 162.884 0.419995C162.716 0.363995 162.576 0.307996 162.464 0.251997C162.352 0.251997 162.128 0.279996 161.792 0.335996C161.512 0.391995 161.204 0.447996 160.868 0.503999C160.532 0.559998 160.196 0.615997 159.86 0.671996C159.58 0.727996 159.412 0.755995 159.356 0.755995C159.076 0.811998 158.74 0.867999 158.348 0.923998C157.956 0.979997 157.564 1.036 157.172 1.092C156.78 1.148 156.444 1.204 156.164 1.26C155.884 1.26 155.716 1.26 155.66 1.26C155.436 1.26 155.016 1.288 154.4 1.344C153.84 1.344 153.224 1.344 152.552 1.344C151.88 1.344 151.236 1.344 150.62 1.344C150.06 1.288 149.668 1.26 149.444 1.26C149.5 1.372 149.584 1.484 149.696 1.596C149.808 1.708 149.892 1.792 149.948 1.848C150.06 1.904 150.312 1.988 150.704 2.1C151.096 2.212 151.376 2.296 151.544 2.35199C151.656 2.408 151.852 2.464 152.132 2.52C152.412 2.576 152.692 2.632 152.972 2.688C153.252 2.744 153.504 2.8 153.728 2.856C153.952 2.856 154.092 2.856 154.148 2.856C154.484 2.856 155.044 2.884 155.828 2.94C156.668 2.996 157.564 3.052 158.516 3.108C159.468 3.164 160.364 3.22 161.204 3.276C162.044 3.332 162.632 3.36 162.968 3.36C163.08 3.472 163.248 3.64 163.472 3.864C163.752 4.088 164.004 4.34 164.228 4.62C164.508 4.9 164.76 5.18 164.984 5.45999C165.264 5.684 165.46 5.852 165.572 5.964C165.628 6.076 165.712 6.244 165.824 6.468C165.992 6.692 166.076 6.86 166.076 6.972V26.964H159.02V33.18H152.3V63H145.328L144.824 62.496C144.768 62.44 144.6 62.244 144.32 61.908C144.096 61.572 143.816 61.236 143.48 60.9C143.2 60.564 142.92 60.256 142.64 59.976C142.416 59.64 142.276 59.444 142.22 59.388C142.164 59.332 142.108 59.276 142.052 59.22C142.052 59.164 142.024 59.108 141.968 59.052C141.912 58.996 141.828 58.94 141.716 58.884H141.464C141.408 58.884 141.352 58.912 141.296 58.968C141.296 59.08 141.268 59.248 141.212 59.472C141.156 59.64 141.128 59.78 141.128 59.892C141.184 60.116 141.268 60.508 141.38 61.068C141.492 61.572 141.604 61.88 141.716 61.992L142.22 62.496V62.748V62.916C142.22 62.972 142.248 63 142.304 63H130.544V33.18H122.732ZM180.537 42.252C180.425 42.196 180.173 42.112 179.781 42C179.389 41.888 179.109 41.804 178.941 41.748C178.829 41.748 178.549 41.692 178.101 41.58C177.653 41.468 177.149 41.356 176.589 41.244C176.085 41.132 175.609 41.048 175.161 40.992C174.713 40.88 174.433 40.796 174.321 40.74L172.221 38.64C172.109 38.528 171.997 38.36 171.885 38.136C171.773 37.856 171.717 37.688 171.717 37.632V-2.856H222.033V44.1H193.221V63H185.073C185.073 62.888 185.073 62.636 185.073 62.244C185.129 61.852 185.157 61.572 185.157 61.404C185.213 61.348 185.325 61.124 185.493 60.732C185.661 60.284 185.745 60.004 185.745 59.892V56.952V53.676C185.745 53.452 185.717 53.004 185.661 52.332C185.605 51.66 185.549 50.988 185.493 50.316C185.437 49.588 185.381 48.916 185.325 48.3C185.269 47.628 185.213 47.18 185.157 46.956C185.157 46.844 185.101 46.508 184.989 45.948C184.877 45.388 184.765 45.024 184.653 44.856C184.653 44.744 184.569 44.576 184.401 44.352C184.289 44.072 184.205 43.904 184.149 43.848V57.288C184.149 57.4 184.093 57.708 183.981 58.212C183.869 58.716 183.757 59.108 183.645 59.388C183.589 59.5 183.505 59.696 183.393 59.976C183.281 60.2 183.197 60.34 183.141 60.396C182.973 60.564 182.749 60.816 182.469 61.152C182.189 61.432 181.909 61.712 181.629 61.992C181.349 62.272 181.097 62.524 180.873 62.748C180.649 62.916 180.537 63 180.537 63H171.717V44.352C171.717 44.296 171.913 44.212 172.305 44.1C172.697 43.988 173.033 43.904 173.313 43.848C173.369 43.848 173.537 43.82 173.817 43.764C174.153 43.708 174.489 43.652 174.825 43.596C175.161 43.484 175.469 43.4 175.749 43.344C176.085 43.288 176.309 43.26 176.421 43.26C176.589 43.26 176.869 43.204 177.261 43.092C177.653 42.98 178.045 42.868 178.437 42.756C178.885 42.644 179.305 42.56 179.697 42.504C180.089 42.392 180.369 42.308 180.537 42.252ZM193.473 28.224H200.529V18.144H210.609C210.441 18.032 210.021 17.892 209.349 17.724C208.677 17.5 208.229 17.388 208.005 17.388C207.893 17.388 207.641 17.36 207.249 17.304C206.857 17.248 206.409 17.192 205.905 17.136C205.457 17.08 205.037 17.024 204.645 16.968C204.253 16.912 204.001 16.884 203.889 16.884C203.609 16.828 203.273 16.8 202.881 16.8C202.489 16.744 202.125 16.66 201.789 16.548C201.397 16.492 200.977 16.408 200.529 16.296V12.684H193.473V28.224ZM245.385 25.116C245.441 25.116 245.469 25.032 245.469 24.864V24.78C245.469 24.724 245.441 24.668 245.385 24.612C245.329 24.612 245.105 24.556 244.713 24.444C244.321 24.276 244.041 24.164 243.873 24.108C243.649 24.052 243.229 23.968 242.613 23.856C242.053 23.688 241.689 23.604 241.521 23.604V14.532H227.241V-2.856H277.557V14.28H272.349C272.293 14.28 272.181 14.084 272.013 13.692C271.901 13.3 271.845 12.964 271.845 12.684C271.845 12.628 271.845 12.488 271.845 12.264C271.845 11.984 271.845 11.704 271.845 11.424C271.845 11.088 271.845 10.808 271.845 10.584C271.845 10.304 271.845 10.136 271.845 10.08L271.593 9.828C271.425 9.772 271.341 9.688 271.341 9.576C271.285 9.52 271.201 9.352 271.089 9.072C270.977 8.792 270.893 8.624 270.837 8.568C270.725 8.512 270.529 8.428 270.249 8.316C269.969 8.204 269.801 8.12 269.745 8.064C269.689 7.952 269.605 7.784 269.493 7.56C269.381 7.28 269.297 7.084 269.241 6.972C269.185 6.972 269.073 6.916 268.905 6.804C268.793 6.636 268.737 6.524 268.737 6.468C268.681 6.356 268.513 6.104 268.233 5.712C267.953 5.264 267.757 5.012 267.645 4.956C267.533 4.788 267.393 4.592 267.225 4.368C267.057 4.144 266.889 3.92 266.721 3.696C266.497 3.472 266.301 3.192 266.133 2.856H265.629C265.629 3.024 265.685 3.388 265.797 3.948C265.965 4.452 266.077 4.788 266.133 4.956C266.189 4.956 266.273 5.04 266.385 5.208C266.553 5.32 266.637 5.404 266.637 5.45999C266.693 5.516 266.777 5.684 266.889 5.964C267.057 6.244 267.141 6.412 267.141 6.468L267.645 6.972C267.701 7.084 267.701 7.364 267.645 7.812C267.645 8.204 267.645 8.456 267.645 8.568C267.757 8.68 268.009 8.96 268.401 9.408C268.849 9.8 269.129 10.024 269.241 10.08C269.353 10.192 269.465 10.388 269.577 10.668C269.689 10.892 269.745 11.06 269.745 11.172C269.801 11.452 269.857 12.012 269.913 12.852C269.969 13.692 269.997 14.252 269.997 14.532H263.277V63H258.909C258.853 62.72 258.769 62.216 258.657 61.488C258.545 60.704 258.433 60.172 258.321 59.892C258.321 59.78 258.237 59.472 258.069 58.968C257.957 58.408 257.873 58.016 257.817 57.792C257.761 57.568 257.677 57.26 257.565 56.868C257.453 56.476 257.369 56.28 257.313 56.28L257.145 56.196C257.089 56.196 257.033 56.224 256.977 56.28C256.977 56.28 256.949 56.28 256.893 56.28H256.809C256.753 56.28 256.641 56.364 256.473 56.532C256.361 56.644 256.305 56.728 256.305 56.784C256.305 56.952 256.277 57.232 256.221 57.624C256.165 58.016 256.109 58.436 256.053 58.884C255.997 59.276 255.941 59.668 255.885 60.06C255.829 60.452 255.801 60.732 255.801 60.9C255.801 61.012 255.717 61.208 255.549 61.488C255.437 61.712 255.325 61.88 255.213 61.992C255.213 62.048 255.129 62.132 254.961 62.244C254.849 62.356 254.765 62.44 254.709 62.496C254.597 62.608 254.401 62.72 254.121 62.832C253.897 62.944 253.757 63 253.701 63H241.773V26.712C241.773 26.6 241.885 26.432 242.109 26.208C242.389 25.928 242.613 25.76 242.781 25.704C243.005 25.592 243.425 25.48 244.041 25.368C244.713 25.2 245.161 25.116 245.385 25.116ZM286.81 53.676C286.81 53.676 286.838 53.62 286.894 53.508V53.424C286.894 53.256 286.866 53.172 286.81 53.172C286.81 53.116 286.614 53.032 286.222 52.92C285.83 52.808 285.522 52.724 285.298 52.668C285.13 52.556 284.766 52.444 284.206 52.332C283.702 52.22 283.366 52.136 283.198 52.08V-2.856H308.062C308.174 -2.856 308.342 -2.716 308.566 -2.436C308.846 -2.156 309.042 -1.96 309.154 -1.848C309.21 -1.736 309.294 -1.484 309.406 -1.092C309.518 -0.700003 309.602 -0.420003 309.658 -0.252002C309.658 -0.140003 309.686 0.0839956 309.742 0.419995C309.798 0.755997 309.854 1.148 309.91 1.596C309.966 1.988 310.022 2.38 310.078 2.772C310.134 3.108 310.162 3.304 310.162 3.36C310.162 3.416 310.218 3.528 310.33 3.696C310.442 3.808 310.554 3.864 310.666 3.864L310.918 3.948H311.086C311.142 3.948 311.17 3.92 311.17 3.864C311.226 3.696 311.282 3.416 311.338 3.024C311.45 2.632 311.562 2.24 311.674 1.848C311.842 1.4 311.954 0.979996 312.01 0.587997C312.122 0.195996 312.206 -0.0840039 312.262 -0.252002C312.318 -0.420003 312.402 -0.840003 312.514 -1.512C312.626 -2.184 312.71 -2.632 312.766 -2.856H320.494L324.694 0.755995C324.75 0.811998 324.974 0.811998 325.366 0.755995C325.814 0.643997 326.318 0.503997 326.878 0.335996C327.438 0.167998 327.998 -1.66893e-06 328.558 -0.168003C329.118 -0.392003 329.566 -0.588004 329.902 -0.756005C329.958 -0.812005 330.098 -0.924003 330.322 -1.092C330.546 -1.316 330.77 -1.54 330.994 -1.764C331.218 -1.988 331.414 -2.184 331.582 -2.352C331.75 -2.57601 331.862 -2.744 331.918 -2.856H340.234V25.704L339.73 26.208C339.618 26.32 339.422 26.432 339.142 26.544C338.918 26.656 338.75 26.712 338.638 26.712C338.582 26.768 338.33 26.768 337.882 26.712C337.49 26.656 337.238 26.656 337.126 26.712C337.07 26.768 336.958 26.852 336.79 26.964C336.678 27.076 336.622 27.16 336.622 27.216C336.734 27.272 336.902 27.384 337.126 27.552C337.35 27.664 337.518 27.72 337.63 27.72C337.742 27.776 338.078 27.86 338.638 27.972C339.254 28.084 339.618 28.168 339.73 28.224C339.842 28.28 339.954 28.364 340.066 28.476C340.178 28.588 340.234 28.7 340.234 28.812V63H283.198V55.188C283.198 55.132 283.338 54.992 283.618 54.768C283.898 54.488 284.094 54.292 284.206 54.18C284.43 54.068 284.85 53.956 285.466 53.844C286.138 53.732 286.586 53.676 286.81 53.676ZM304.45 45.36H319.234V39.816C319.29 39.816 319.402 39.788 319.57 39.732C319.794 39.676 319.934 39.648 319.99 39.648C320.102 39.704 320.438 39.9 320.998 40.236C321.614 40.516 321.978 40.684 322.09 40.74H323.014H324.19C324.246 40.74 324.414 40.712 324.694 40.656C325.03 40.544 325.366 40.46 325.702 40.404C326.038 40.348 326.346 40.292 326.626 40.236C326.962 40.18 327.186 40.152 327.298 40.152C327.634 40.152 328.194 40.152 328.978 40.152C329.762 40.096 330.602 40.068 331.498 40.068C332.45 40.068 333.318 40.068 334.102 40.068C334.886 40.012 335.446 39.984 335.782 39.984C335.782 39.872 335.698 39.76 335.53 39.648C335.474 39.592 335.306 39.508 335.026 39.396C334.802 39.284 334.634 39.2 334.522 39.144C334.298 39.088 333.85 39.004 333.178 38.892C332.506 38.724 332.086 38.64 331.918 38.64C331.582 38.64 330.966 38.612 330.07 38.556C329.23 38.5 328.306 38.444 327.298 38.388C326.29 38.332 325.338 38.276 324.442 38.22C323.546 38.164 322.93 38.136 322.594 38.136L319.234 35.028V14.784H304.45V45.36ZM346.936 54.936V35.028C346.936 34.916 346.992 34.748 347.104 34.524C347.216 34.244 347.328 34.048 347.44 33.936C347.44 33.88 347.524 33.768 347.692 33.6C347.748 33.544 347.832 33.488 347.944 33.432C348.168 33.376 348.588 33.292 349.204 33.18C349.876 33.068 350.324 32.984 350.548 32.928V32.424L346.936 31.332V5.208H355V-2.856H400.36V14.532H367.936V20.496C367.712 20.384 367.236 20.132 366.508 19.74C365.836 19.292 365.36 19.012 365.08 18.9H364.576H364.072C363.96 18.9 363.736 18.928 363.4 18.984C363.12 19.04 362.812 19.096 362.476 19.152C362.14 19.208 361.804 19.264 361.468 19.32C361.188 19.376 361.02 19.404 360.964 19.404C360.796 19.46 360.516 19.516 360.124 19.572C359.788 19.628 359.424 19.684 359.032 19.74C358.64 19.796 358.276 19.852 357.94 19.908C357.604 19.964 357.38 19.992 357.268 19.992H357.016H356.764C356.596 19.992 356.288 19.964 355.84 19.908C355.392 19.852 354.916 19.796 354.412 19.74C353.964 19.684 353.516 19.628 353.068 19.572C352.62 19.516 352.312 19.46 352.144 19.404L351.64 19.992C351.64 20.048 351.696 20.132 351.808 20.244C351.92 20.356 352.032 20.44 352.144 20.496C352.256 20.496 352.564 20.58 353.068 20.748C353.572 20.86 353.936 20.944 354.16 21C354.328 21 354.552 21.028 354.832 21.084C355.168 21.14 355.504 21.196 355.84 21.252C356.176 21.308 356.484 21.364 356.764 21.42C357.044 21.476 357.212 21.504 357.268 21.504C357.548 21.504 358.052 21.532 358.78 21.588C359.564 21.644 360.348 21.7 361.132 21.756C361.972 21.812 362.756 21.868 363.484 21.924C364.268 21.98 364.8 22.008 365.08 22.008L367.936 24.612V45.612H400.36V63H386.836C386.78 63 386.612 62.944 386.332 62.832C386.108 62.72 385.94 62.608 385.828 62.496C385.716 62.384 385.52 62.216 385.24 61.992C385.016 61.712 384.876 61.516 384.82 61.404C384.82 61.236 384.792 60.984 384.736 60.648C384.68 60.256 384.624 59.836 384.568 59.388C384.512 58.94 384.456 58.52 384.4 58.128C384.344 57.736 384.288 57.456 384.232 57.288C384.232 57.176 384.176 56.98 384.064 56.7C383.952 56.42 383.84 56.28 383.728 56.28C383.728 56.224 383.644 56.196 383.476 56.196C383.364 56.14 383.252 56.112 383.14 56.112C383.084 56.112 383 56.14 382.888 56.196C382.776 56.196 382.72 56.224 382.72 56.28L381.124 63H355V54.936H346.936ZM414.901 42.252C414.789 42.196 414.537 42.112 414.145 42C413.753 41.888 413.473 41.804 413.305 41.748C413.193 41.748 412.913 41.692 412.465 41.58C412.017 41.468 411.513 41.356 410.953 41.244C410.449 41.132 409.973 41.048 409.525 40.992C409.077 40.88 408.797 40.796 408.685 40.74L406.585 38.64C406.473 38.528 406.361 38.36 406.249 38.136C406.137 37.856 406.081 37.688 406.081 37.632V-2.856H456.397V34.776H450.685V37.884H456.397V63H434.893V39.144H427.585V63H419.437C419.437 62.888 419.437 62.636 419.437 62.244C419.493 61.852 419.521 61.572 419.521 61.404C419.577 61.348 419.689 61.124 419.857 60.732C420.025 60.284 420.109 60.004 420.109 59.892V56.952V53.676C420.109 53.452 420.081 53.004 420.025 52.332C419.969 51.66 419.913 50.988 419.857 50.316C419.801 49.588 419.745 48.916 419.689 48.3C419.633 47.628 419.577 47.18 419.521 46.956C419.521 46.844 419.465 46.508 419.353 45.948C419.241 45.388 419.129 45.024 419.017 44.856C419.017 44.744 418.933 44.576 418.765 44.352C418.653 44.072 418.569 43.904 418.513 43.848V57.288C418.513 57.4 418.457 57.708 418.345 58.212C418.233 58.716 418.121 59.108 418.009 59.388C417.953 59.5 417.869 59.696 417.757 59.976C417.645 60.2 417.561 60.34 417.505 60.396C417.337 60.564 417.113 60.816 416.833 61.152C416.553 61.432 416.273 61.712 415.993 61.992C415.713 62.272 415.461 62.524 415.237 62.748C415.013 62.916 414.901 63 414.901 63H406.081V44.352C406.081 44.296 406.277 44.212 406.669 44.1C407.061 43.988 407.397 43.904 407.677 43.848C407.733 43.848 407.901 43.82 408.181 43.764C408.517 43.708 408.853 43.652 409.189 43.596C409.525 43.484 409.833 43.4 410.113 43.344C410.449 43.288 410.673 43.26 410.785 43.26C410.953 43.26 411.233 43.204 411.625 43.092C412.017 42.98 412.409 42.868 412.801 42.756C413.249 42.644 413.669 42.56 414.061 42.504C414.453 42.392 414.733 42.308 414.901 42.252ZM427.837 21H434.893V18.144H444.973C444.805 18.032 444.385 17.892 443.713 17.724C443.041 17.5 442.593 17.388 442.369 17.388C442.257 17.388 442.005 17.36 441.613 17.304C441.221 17.248 440.773 17.192 440.269 17.136C439.821 17.08 439.401 17.024 439.009 16.968C438.617 16.912 438.365 16.884 438.253 16.884C437.973 16.828 437.637 16.8 437.245 16.8C436.853 16.744 436.489 16.66 436.153 16.548C435.761 16.492 435.341 16.408 434.893 16.296V14.784H427.837V21ZM498.876 -2.856C498.988 -2.688 499.212 -2.464 499.548 -2.184C499.94 -1.96 500.22 -1.848 500.388 -1.848C500.612 -1.848 500.976 -1.96 501.48 -2.184C502.04 -2.464 502.376 -2.688 502.488 -2.856H513.408V48.72C513.296 48.72 513.016 48.692 512.568 48.636C512.176 48.58 511.924 48.524 511.812 48.468C511.7 48.468 511.364 48.3 510.804 47.964C510.244 47.628 509.908 47.46 509.796 47.46C509.628 47.46 509.292 47.432 508.788 47.376C508.284 47.32 507.724 47.264 507.108 47.208C506.548 47.152 505.96 47.096 505.344 47.04C504.784 46.984 504.364 46.956 504.084 46.956C504.028 46.956 503.832 46.956 503.496 46.956C503.216 46.956 502.88 46.956 502.488 46.956C502.152 46.9 501.788 46.872 501.396 46.872C501.06 46.872 500.78 46.872 500.556 46.872C500.332 46.872 500.024 46.872 499.632 46.872C499.296 46.872 498.96 46.9 498.624 46.956C498.288 46.956 497.98 46.956 497.7 46.956C497.476 46.956 497.336 46.956 497.28 46.956C497.224 46.956 497 47.012 496.608 47.124C496.216 47.236 495.936 47.348 495.768 47.46C495.6 47.572 495.236 47.74 494.676 47.964C494.116 48.188 493.78 48.356 493.668 48.468L493.164 48.972C493.108 49.084 493.08 49.168 493.08 49.224V49.56C493.08 49.616 493.08 49.7 493.08 49.812C493.136 49.924 493.164 50.008 493.164 50.064C493.22 49.952 493.304 49.84 493.416 49.728C493.528 49.616 493.612 49.56 493.668 49.56C493.78 49.448 493.948 49.336 494.172 49.224C494.452 49.112 494.648 49.028 494.76 48.972C494.928 48.86 495.264 48.748 495.768 48.636C496.328 48.524 496.664 48.468 496.776 48.468H499.884H502.992C503.048 48.468 503.216 48.496 503.496 48.552C503.776 48.552 504.084 48.58 504.42 48.636C504.756 48.692 505.064 48.748 505.344 48.804C505.68 48.86 505.932 48.916 506.1 48.972C506.212 49.028 506.464 49.112 506.856 49.224C507.304 49.336 507.584 49.448 507.696 49.56C507.808 49.616 508.06 49.784 508.452 50.064C508.9 50.344 509.152 50.512 509.208 50.568C509.32 50.624 509.656 50.708 510.216 50.82C510.832 50.932 511.196 51.016 511.308 51.072C511.42 51.184 511.588 51.296 511.812 51.408C512.092 51.464 512.344 51.548 512.568 51.66C512.792 51.828 513.072 51.968 513.408 52.08V63H491.904V45.36H484.596V63.168C484.372 63.168 484.008 63.168 483.504 63.168C483 63.168 482.44 63.14 481.824 63.084C481.264 63.084 480.732 63.056 480.228 63C479.724 63 479.36 63 479.136 63C478.856 62.944 478.324 62.86 477.54 62.748C476.756 62.636 476.252 62.552 476.028 62.496C475.916 62.44 475.58 62.244 475.02 61.908C474.46 61.572 474.124 61.404 474.012 61.404C473.732 61.46 473.34 61.684 472.836 62.076C472.332 62.468 472.024 62.776 471.912 63H463.092V-2.856H498.876ZM484.848 29.316H491.652V12.684H484.848V29.316ZM569.916 -2.856V14.28H556.896V10.08C556.84 10.08 556.756 10.024 556.644 9.912C556.532 9.744 556.448 9.632 556.392 9.576C556.336 9.52 556.252 9.352 556.14 9.072C556.028 8.792 555.944 8.624 555.888 8.568C555.832 8.512 555.664 8.428 555.384 8.316C555.104 8.204 554.936 8.12 554.88 8.064C554.768 7.952 554.656 7.784 554.544 7.56C554.432 7.28 554.348 7.084 554.292 6.972L553.788 6.468C553.732 6.356 553.564 6.104 553.284 5.712C553.004 5.264 552.836 5.012 552.78 4.956C552.668 4.788 552.5 4.592 552.276 4.368C552.108 4.144 551.94 3.92 551.772 3.696C551.548 3.472 551.352 3.192 551.184 2.856H550.68C550.736 3.024 550.82 3.388 550.932 3.948C551.044 4.452 551.128 4.788 551.184 4.956C551.24 4.956 551.324 5.04 551.436 5.208C551.604 5.32 551.716 5.404 551.772 5.45999C551.772 5.516 551.828 5.684 551.94 5.964C552.108 6.244 552.22 6.412 552.276 6.468C552.276 6.58 552.36 6.664 552.528 6.72L552.78 6.972C552.836 7.084 552.836 7.364 552.78 7.812C552.724 8.204 552.724 8.456 552.78 8.568C552.836 8.68 553.088 8.96 553.536 9.408C553.984 9.8 554.236 10.024 554.292 10.08C554.404 10.192 554.516 10.388 554.628 10.668C554.796 10.892 554.88 11.06 554.88 11.172V12.684V13.776L553.788 14.532H541.86V21.252H569.916V38.64H554.208C554.208 38.528 554.208 38.36 554.208 38.136C554.264 37.856 554.292 37.688 554.292 37.632C554.348 37.464 554.432 37.1 554.544 36.54C554.712 35.98 554.88 35.392 555.048 34.776C555.272 34.104 555.44 33.488 555.552 32.928C555.72 32.368 555.832 32.032 555.888 31.92C555.888 31.864 555.888 31.78 555.888 31.668C555.944 31.556 555.972 31.444 555.972 31.332C555.972 31.276 555.944 31.192 555.888 31.08C555.888 30.968 555.888 30.884 555.888 30.828C555.72 30.94 555.44 31.192 555.048 31.584C554.656 31.976 554.404 32.256 554.292 32.424C554.18 32.648 553.956 33.068 553.62 33.684C553.34 34.3 553.032 34.944 552.696 35.616C552.36 36.288 552.052 36.96 551.772 37.632C551.492 38.248 551.296 38.668 551.184 38.892H541.608V63H520.104V-2.856H569.916ZM593.197 25.116C593.253 25.116 593.281 25.032 593.281 24.864V24.78C593.281 24.724 593.253 24.668 593.197 24.612C593.141 24.612 592.917 24.556 592.525 24.444C592.133 24.276 591.853 24.164 591.685 24.108C591.461 24.052 591.041 23.968 590.425 23.856C589.865 23.688 589.501 23.604 589.333 23.604V14.532H575.053V-2.856H625.369V14.28H620.161C620.105 14.28 619.993 14.084 619.825 13.692C619.713 13.3 619.657 12.964 619.657 12.684C619.657 12.628 619.657 12.488 619.657 12.264C619.657 11.984 619.657 11.704 619.657 11.424C619.657 11.088 619.657 10.808 619.657 10.584C619.657 10.304 619.657 10.136 619.657 10.08L619.405 9.828C619.237 9.772 619.153 9.688 619.153 9.576C619.097 9.52 619.013 9.352 618.901 9.072C618.789 8.792 618.705 8.624 618.649 8.568C618.537 8.512 618.341 8.428 618.061 8.316C617.781 8.204 617.613 8.12 617.557 8.064C617.501 7.952 617.417 7.784 617.305 7.56C617.193 7.28 617.109 7.084 617.053 6.972C616.997 6.972 616.885 6.916 616.717 6.804C616.605 6.636 616.549 6.524 616.549 6.468C616.493 6.356 616.325 6.104 616.045 5.712C615.765 5.264 615.569 5.012 615.457 4.956C615.345 4.788 615.205 4.592 615.037 4.368C614.869 4.144 614.701 3.92 614.533 3.696C614.309 3.472 614.113 3.192 613.945 2.856H613.441C613.441 3.024 613.497 3.388 613.609 3.948C613.777 4.452 613.889 4.788 613.945 4.956C614.001 4.956 614.085 5.04 614.197 5.208C614.365 5.32 614.449 5.404 614.449 5.45999C614.505 5.516 614.589 5.684 614.701 5.964C614.869 6.244 614.953 6.412 614.953 6.468L615.457 6.972C615.513 7.084 615.513 7.364 615.457 7.812C615.457 8.204 615.457 8.456 615.457 8.568C615.569 8.68 615.821 8.96 616.213 9.408C616.661 9.8 616.941 10.024 617.053 10.08C617.165 10.192 617.277 10.388 617.389 10.668C617.501 10.892 617.557 11.06 617.557 11.172C617.613 11.452 617.669 12.012 617.725 12.852C617.781 13.692 617.809 14.252 617.809 14.532H611.089V63H606.721C606.665 62.72 606.581 62.216 606.469 61.488C606.357 60.704 606.245 60.172 606.133 59.892C606.133 59.78 606.049 59.472 605.881 58.968C605.769 58.408 605.685 58.016 605.629 57.792C605.573 57.568 605.489 57.26 605.377 56.868C605.265 56.476 605.181 56.28 605.125 56.28L604.957 56.196C604.901 56.196 604.845 56.224 604.789 56.28C604.789 56.28 604.761 56.28 604.705 56.28H604.621C604.565 56.28 604.453 56.364 604.285 56.532C604.173 56.644 604.117 56.728 604.117 56.784C604.117 56.952 604.089 57.232 604.033 57.624C603.977 58.016 603.921 58.436 603.865 58.884C603.809 59.276 603.753 59.668 603.697 60.06C603.641 60.452 603.613 60.732 603.613 60.9C603.613 61.012 603.529 61.208 603.361 61.488C603.249 61.712 603.137 61.88 603.025 61.992C603.025 62.048 602.941 62.132 602.773 62.244C602.661 62.356 602.577 62.44 602.521 62.496C602.409 62.608 602.213 62.72 601.933 62.832C601.709 62.944 601.569 63 601.513 63H589.585V26.712C589.585 26.6 589.697 26.432 589.921 26.208C590.201 25.928 590.425 25.76 590.593 25.704C590.817 25.592 591.237 25.48 591.853 25.368C592.525 25.2 592.973 25.116 593.197 25.116Z" fill="#F0F0F0"/>
</svg>
