<svg width="442" height="168" viewBox="0 0 442 168" fill="none" xmlns="http://www.w3.org/2000/svg">
<path d="M37.8 67V27.8H23.8V67H37.8ZM43.4 55.8H54.6L71.4 39L54.6 22.2H21L10.04 11H60.2L88.2 39L60.2 67H43.4V55.8ZM144.188 22.2L155.388 11H77.3875L88.1875 22.2H144.188ZM90.9875 27.8H104.988V30.6H132.988L121.788 41.8H104.988V55.8H130.188L141.388 67H90.9875V27.8ZM208.616 22.2H149.816L161.016 11H219.816L208.616 22.2ZM161.016 55.8H205.816L194.616 67H149.816L161.016 55.8ZM149.816 27.8L166.616 44.6H183.416L189.016 50.2H205.816L189.016 33.4H172.216L166.616 27.8H149.816ZM261.844 22.2L273.044 11H195.044L205.844 22.2H261.844ZM208.644 27.8H222.644V30.6H250.644L239.444 41.8H222.644V55.8H247.844L259.044 67H208.644V27.8ZM275.847 67H261.847V27.8H275.847V67ZM259.047 22.2L248.247 11H289.847L306.647 27.8L298.247 36.2H281.447L289.847 27.8L284.247 22.2H259.047ZM281.447 41.8V53H292.647L306.647 67H323.447L298.247 41.8H281.447ZM340.225 67H326.225V27.8H340.225V67ZM359.825 22.2H306.625L295.745 11H371.025L359.825 22.2ZM54.6 136.8H46.2L37.8 128.4V92H23.8V131.2L40.6 148H65.8L54.6 136.8ZM54.6 92H68.6V128.4L77 136.8H85.4V92H99.4V148H71.4L54.6 131.2V92ZM116.238 103.2H99.4375L88.4775 92H121.838L177.838 148H161.038L116.238 103.2ZM102.238 108.8V148H116.238V134H141.438L130.238 122.8H116.238V108.8H102.238ZM177.878 148H163.878V108.8H177.878V148ZM161.078 103.2L150.278 92H191.878L208.678 108.8L200.278 117.2H183.478L191.878 108.8L186.278 103.2H161.078ZM183.478 122.8V134H194.678L208.678 148H225.478L200.278 122.8H183.478ZM225.456 148H211.456V108.8H225.456V148ZM225.456 103.2H211.456V92H225.456V103.2ZM250.653 103.2L261.853 92H284.253L301.053 108.8V145.2L287.053 131.2V111.6L278.653 103.2H250.653ZM228.253 125.6L245.053 108.8H261.853L245.053 125.6L256.253 136.8H287.053L298.253 148H250.653L228.253 125.6ZM317.878 148H303.878V108.8H317.878V148ZM301.078 103.2L290.278 92H331.878L348.678 108.8L340.278 117.2H323.478L331.878 108.8L326.278 103.2H301.078ZM323.478 122.8V134H334.678L348.678 148H365.478L340.278 122.8H323.478ZM410.256 103.2H351.456L362.656 92H421.456L410.256 103.2ZM362.656 136.8H407.456L396.256 148H351.456L362.656 136.8ZM351.456 108.8L368.256 125.6H385.056L390.656 131.2H407.456L390.656 114.4H373.856L368.256 108.8H351.456Z" fill="#F0F0F0"/>
<path d="M416 1H441V26" stroke="#F0F0F0"/>
<path d="M26 167H1V142" stroke="#F0F0F0"/>
</svg>
