<svg width="615" height="160" viewBox="0 0 615 160" fill="none" xmlns="http://www.w3.org/2000/svg">
<path d="M365.439 158.752H364.64L365.193 158.174L383.438 139.115L365.193 120.055L364.64 119.477H365.439H380.216H380.365L380.466 119.586L398.475 138.882L398.692 139.115L398.475 139.348L380.466 158.644L380.365 158.752H380.216H365.439Z" stroke="#F0F0F0" stroke-width="0.683038"/>
<path d="M386.273 158.752H385.474L386.027 158.174L404.272 139.115L386.027 120.055L385.474 119.477H386.273H401.05H401.199L401.3 119.586L419.309 138.882L419.526 139.115L419.309 139.348L401.3 158.644L401.199 158.752H401.05H386.273Z" stroke="#F0F0F0" stroke-width="0.683038"/>
<path d="M407.105 158.752H406.306L406.859 158.174L425.104 139.115L406.859 120.055L406.306 119.477H407.105H421.882H422.031L422.132 119.586L440.141 138.882L440.358 139.115L440.141 139.348L422.132 158.644L422.031 158.752H421.882H407.105Z" stroke="#F0F0F0" stroke-width="0.683038"/>
<path d="M427.938 158.752H427.138L427.691 158.174L445.936 139.115L427.691 120.055L427.138 119.477H427.938H442.714H442.863L442.964 119.586L460.973 138.882L461.19 139.115L460.973 139.348L442.964 158.644L442.863 158.752H442.714H427.938Z" stroke="#F0F0F0" stroke-width="0.683038"/>
<path d="M52.048 35L53.2 30.68L52.432 29.912H15.184C14.032 29.912 13.008 29.592 12.112 28.952C11.216 28.248 10.448 27.416 9.808 26.456C9.168 25.432 8.688 24.344 8.368 23.192C8.112 22.04 8.016 20.984 8.08 20.024L9.424 15.224C9.872 13.496 10.512 11.768 11.344 10.04C12.24 8.312 13.296 6.776 14.512 5.432C15.792 4.024 17.232 2.872 18.832 1.976C20.496 1.08 22.352 0.631999 24.4 0.631999H73.552L73.168 2.072C72.848 2.904 72.432 3.928 71.92 5.144C71.408 6.296 70.928 7.448 70.48 8.6C70.032 9.688 69.616 10.648 69.232 11.48C68.912 12.248 68.752 12.632 68.752 12.632H23.344L22.192 13.304L20.944 17.816H57.712C58.864 17.816 60.016 18.104 61.168 18.68C62.32 19.256 63.312 20.024 64.144 20.984C65.04 21.944 65.68 23 66.064 24.152C66.512 25.304 66.608 26.456 66.352 27.608L63.76 37.304C63.44 38.392 62.8 39.512 61.84 40.664C60.944 41.816 59.888 42.872 58.672 43.832C57.456 44.728 56.208 45.496 54.928 46.136C53.648 46.712 52.496 47 51.472 47H2.8C2.928 46.424 3.216 45.496 3.664 44.216C4.176 42.872 4.72 41.528 5.296 40.184C5.872 38.84 6.384 37.656 6.832 36.632C7.28 35.544 7.536 35 7.6 35H52.048ZM65.7235 47L100.956 8.216C101.788 7.384 102.716 6.52 103.74 5.624C104.764 4.728 105.82 3.928 106.908 3.224C108.06 2.456 109.212 1.848 110.364 1.4C111.58 0.887999 112.796 0.631999 114.012 0.631999H141.564L129.276 47H117.276L120.348 35.384H90.8755L79.9315 47H65.7235ZM126.396 12.824H111.9C111.708 12.824 111.1 13.304 110.076 14.264C109.116 15.16 108.06 16.216 106.908 17.432C105.82 18.584 104.764 19.736 103.74 20.888C102.716 21.976 102.044 22.744 101.724 23.192H123.612L126.396 12.824ZM147.324 0.631999H159.42L187.74 30.68L195.708 0.631999H207.612L195.324 47H183.036L155.292 16.952L147.324 47H135.036L147.324 0.631999ZM213.418 0.631999H264.01C264.97 0.631999 265.93 0.919998 266.89 1.496C267.914 2.072 268.778 2.808 269.482 3.704C270.25 4.6 270.826 5.592 271.21 6.68C271.594 7.704 271.658 8.728 271.402 9.752L264.01 37.304C263.69 38.584 262.986 39.832 261.898 41.048C260.874 42.2 259.69 43.224 258.346 44.12C257.002 45.016 255.594 45.72 254.122 46.232C252.65 46.744 251.338 47 250.186 47H201.13L213.418 0.631999ZM216.586 35H252.298L258.25 12.92H222.538L216.586 35ZM318.392 35L319.544 30.68L318.776 29.912H281.528C280.376 29.912 279.352 29.592 278.456 28.952C277.56 28.248 276.792 27.416 276.152 26.456C275.512 25.432 275.032 24.344 274.712 23.192C274.456 22.04 274.36 20.984 274.424 20.024L275.768 15.224C276.216 13.496 276.856 11.768 277.688 10.04C278.584 8.312 279.64 6.776 280.856 5.432C282.136 4.024 283.576 2.872 285.176 1.976C286.84 1.08 288.696 0.631999 290.744 0.631999H339.896L339.512 2.072C339.192 2.904 338.776 3.928 338.264 5.144C337.752 6.296 337.272 7.448 336.824 8.6C336.376 9.688 335.96 10.648 335.576 11.48C335.256 12.248 335.096 12.632 335.096 12.632H289.688L288.536 13.304L287.288 17.816H324.056C325.208 17.816 326.36 18.104 327.512 18.68C328.664 19.256 329.656 20.024 330.488 20.984C331.384 21.944 332.024 23 332.408 24.152C332.856 25.304 332.952 26.456 332.696 27.608L330.104 37.304C329.784 38.392 329.144 39.512 328.184 40.664C327.288 41.816 326.232 42.872 325.016 43.832C323.8 44.728 322.552 45.496 321.272 46.136C319.992 46.712 318.84 47 317.816 47H269.144C269.272 46.424 269.56 45.496 270.008 44.216C270.52 42.872 271.064 41.528 271.64 40.184C272.216 38.84 272.728 37.656 273.176 36.632C273.624 35.544 273.88 35 273.944 35H318.392ZM366.339 12.632H342.531L345.699 0.631999H405.987L402.819 12.632H378.627L369.507 47H357.219L366.339 12.632ZM411.793 0.631999H462.385C463.345 0.631999 464.305 0.919998 465.265 1.496C466.289 2.072 467.153 2.808 467.857 3.704C468.625 4.6 469.201 5.592 469.585 6.68C469.969 7.704 470.033 8.728 469.777 9.752L462.385 37.304C462.065 38.584 461.361 39.832 460.273 41.048C459.249 42.2 458.065 43.224 456.721 44.12C455.377 45.016 453.969 45.72 452.497 46.232C451.025 46.744 449.713 47 448.561 47H410.737C409.457 47 408.241 46.712 407.089 46.136C405.937 45.56 404.945 44.824 404.113 43.928C403.281 42.968 402.673 41.88 402.289 40.664C401.905 39.448 401.873 38.168 402.193 36.824L411.793 0.631999ZM415.249 33.944L416.017 35H450.673L456.625 12.92H420.913L415.249 33.944ZM477.887 0.631999H527.135C529.375 0.631999 531.103 1.08 532.319 1.976C533.535 2.872 534.367 4.024 534.815 5.432C535.263 6.776 535.423 8.312 535.295 10.04C535.167 11.768 534.879 13.496 534.431 15.224L533.087 20.024C532.831 20.92 532.287 21.944 531.455 23.096C530.623 24.248 529.631 25.336 528.479 26.36C527.327 27.32 526.047 28.152 524.639 28.856C523.295 29.56 521.983 29.912 520.703 29.912H513.791L525.887 47H510.047L498.239 29.912H482.399L477.887 47H465.599L477.887 0.631999ZM487.007 12.632L485.663 17.912H520.223L521.855 16.76L522.815 13.304L521.759 12.632H487.007ZM543.981 0.631999H557.036L570.093 35.48L601.389 0.631999H614.445L602.157 47H590.157L596.877 22.04L574.029 47H559.917L550.509 22.04L543.789 47H531.693L543.981 0.631999ZM13.168 83.632H62.416C64.656 83.632 66.384 84.08 67.6 84.976C68.816 85.872 69.648 87.024 70.096 88.432C70.544 89.776 70.704 91.312 70.576 93.04C70.448 94.768 70.16 96.496 69.712 98.224L68.368 103.024C68.112 103.92 67.568 104.944 66.736 106.096C65.904 107.248 64.912 108.336 63.76 109.36C62.608 110.32 61.328 111.152 59.92 111.856C58.576 112.56 57.264 112.912 55.984 112.912H49.072L61.168 130H45.328L33.52 112.912H17.68L13.168 130H0.88L13.168 83.632ZM22.288 95.632L20.944 100.912H55.504L57.136 99.76L58.096 96.304L57.04 95.632H22.288ZM65.6298 130L100.862 91.216C101.694 90.384 102.622 89.52 103.646 88.624C104.67 87.728 105.726 86.928 106.814 86.224C107.966 85.456 109.118 84.848 110.27 84.4C111.486 83.888 112.702 83.632 113.918 83.632H141.47L129.182 130H117.182L120.254 118.384H90.7818L79.8378 130H65.6298ZM126.302 95.824H111.806C111.614 95.824 111.006 96.304 109.982 97.264C109.022 98.16 107.966 99.216 106.814 100.432C105.726 101.584 104.67 102.736 103.646 103.888C102.622 104.976 101.95 105.744 101.63 106.192H123.518L126.302 95.824ZM147.231 83.632H207.711C207.583 84.208 207.263 85.168 206.751 86.512C206.239 87.856 205.695 89.2 205.119 90.544C204.607 91.888 204.095 93.072 203.583 94.096C203.135 95.12 202.879 95.632 202.815 95.632H156.351L150.783 116.656L151.167 118H196.863C196.991 118 196.991 118.512 196.863 119.536C196.799 120.56 196.671 121.744 196.479 123.088C196.287 124.432 196.095 125.776 195.903 127.12C195.711 128.4 195.551 129.36 195.423 130H146.174C144.831 130 143.551 129.68 142.335 129.04C141.183 128.4 140.223 127.568 139.455 126.544C138.687 125.456 138.143 124.24 137.823 122.896C137.503 121.552 137.535 120.176 137.919 118.768L147.231 83.632ZM213.512 83.632H273.992C273.864 84.208 273.544 85.168 273.032 86.512C272.52 87.856 271.976 89.2 271.4 90.544C270.888 91.888 270.376 93.072 269.864 94.096C269.416 95.12 269.16 95.632 269.096 95.632H222.632L221.288 100.912H265.736C265.608 101.488 265.288 102.448 264.776 103.792C264.264 105.072 263.72 106.416 263.144 107.824C262.568 109.168 262.056 110.352 261.608 111.376C261.16 112.4 260.904 112.912 260.84 112.912H218.024L217.064 116.656L217.448 118H263.144C263.272 118 263.272 118.512 263.144 119.536C263.08 120.56 262.952 121.744 262.76 123.088C262.568 124.432 262.376 125.776 262.184 127.12C261.992 128.4 261.832 129.36 261.704 130H212.456C211.112 130 209.832 129.68 208.616 129.04C207.464 128.4 206.504 127.568 205.736 126.544C204.968 125.456 204.424 124.24 204.104 122.896C203.784 121.552 203.816 120.176 204.2 118.768L213.512 83.632ZM279.793 83.632H329.041C331.281 83.632 333.009 84.08 334.225 84.976C335.441 85.872 336.273 87.024 336.721 88.432C337.169 89.776 337.329 91.312 337.201 93.04C337.073 94.768 336.785 96.496 336.337 98.224L334.993 103.024C334.737 103.92 334.193 104.944 333.361 106.096C332.529 107.248 331.537 108.336 330.385 109.36C329.233 110.32 327.953 111.152 326.545 111.856C325.201 112.56 323.889 112.912 322.609 112.912H315.697L327.793 130H311.953L300.145 112.912H284.305L279.793 130H267.505L279.793 83.632ZM288.913 95.632L287.569 100.912H322.129L323.761 99.76L324.721 96.304L323.665 95.632H288.913Z" fill="#F0F0F0"/>
</svg>
