<svg width="29" height="61" viewBox="0 0 29 61" fill="none" xmlns="http://www.w3.org/2000/svg">
<mask id="path-1-outside-1_5477_41309" maskUnits="userSpaceOnUse" x="-3" y="-2" width="34" height="65" fill="black">
<rect fill="white" x="-3" y="-8" width="34" height="68"/>
<path d="M28.0253 0.231998V61H15.4493V14.536C14.5533 15.112 13.2413 15.912 11.5133 16.936C9.01725 18.408 7.22525 19.528 6.13725 20.296C5.30525 18.888 3.89725 16.552 1.91325 13.288L1.33725 12.424C0.88925 11.592 0.53725 10.984 0.28125 10.6C2.32925 9.128 5.56125 6.92 9.97725 3.976C12.2813 2.44 14.1053 1.192 15.4493 0.231998H28.0253Z"/>
</mask>
<path d="M28.0252 0.231998H30.0252V-1.768H28.0252V0.231998ZM28.0252 61V63H30.0252V61H28.0252ZM15.4493 61H13.4493V63H15.4493V61ZM15.4493 14.536H17.4493V10.8727L14.3677 12.8536L15.4493 14.536ZM11.5133 16.936L12.5292 18.6587L12.5329 18.6566L11.5133 16.936ZM6.13725 20.296L4.4154 21.3135L5.51875 23.1807L7.29062 21.9299L6.13725 20.296ZM1.91325 13.288L3.62229 12.2492L3.60056 12.2134L3.57735 12.1786L1.91325 13.288ZM1.33725 12.424L-0.423692 13.3722L-0.379066 13.4551L-0.326852 13.5334L1.33725 12.424ZM0.28125 10.6L-0.886022 8.97597L-2.45388 10.1029L-1.38285 11.7094L0.28125 10.6ZM9.97725 3.976L8.86785 2.3119L9.97725 3.976ZM15.4493 0.231998V-1.768H14.8083L14.2868 -1.39547L15.4493 0.231998ZM26.0252 0.231998V61H30.0252V0.231998H26.0252ZM28.0252 59H15.4493V63H28.0252V59ZM17.4493 61V14.536H13.4493V61H17.4493ZM14.3677 12.8536C13.5027 13.4097 12.2156 14.195 10.4936 15.2154L12.5329 18.6566C14.2669 17.629 15.6038 16.8143 16.5308 16.2184L14.3677 12.8536ZM10.4973 15.2133C7.99557 16.6886 6.14338 17.8436 4.98388 18.6621L7.29062 21.9299C8.30712 21.2124 10.0389 20.1274 12.5292 18.6587L10.4973 15.2133ZM7.8591 19.2785C7.02017 17.8588 5.60646 15.5134 3.62229 12.2492L0.204206 14.3268C2.18804 17.5906 3.59033 19.9172 4.4154 21.3135L7.8591 19.2785ZM3.57735 12.1786L3.00135 11.3146L-0.326852 13.5334L0.249148 14.3974L3.57735 12.1786ZM3.09819 11.4758C2.64445 10.6331 2.25598 9.95654 1.94535 9.49059L-1.38285 11.7094C-1.18148 12.0115 -0.865948 12.5509 -0.423692 13.3722L3.09819 11.4758ZM1.44852 12.224C3.46632 10.7737 6.67381 8.58199 11.0867 5.6401L8.86785 2.3119C4.44869 5.258 1.19218 7.48226 -0.886022 8.97597L1.44852 12.224ZM11.0866 5.6401C13.3984 4.09896 15.2425 2.83748 16.6117 1.85947L14.2868 -1.39547C12.968 -0.453485 11.1642 0.781029 8.86785 2.3119L11.0866 5.6401ZM15.4493 2.232H28.0252V-1.768H15.4493V2.232Z" fill="#B38539" fill-opacity="0.52" mask="url(#path-1-outside-1_5477_41309)"/>
</svg>
