<svg width="39" height="63" viewBox="0 0 39 63" fill="none" xmlns="http://www.w3.org/2000/svg">
<mask id="path-1-outside-1_5477_31288" maskUnits="userSpaceOnUse" x="-3" y="-2" width="44" height="67" fill="black">
<rect fill="white" x="-3" y="-2" width="44" height="67"/>
<path d="M0.980625 63V52.344C2.51663 50.616 4.56463 48.28 7.12463 45.336C11.1566 40.856 14.1326 37.464 16.0526 35.16C20.3406 30.04 23.0286 26.552 24.1166 24.696C25.2046 22.776 25.7486 20.664 25.7486 18.36C25.7486 16.44 25.0446 14.84 23.6366 13.56C22.2286 12.28 20.4366 11.64 18.2606 11.64C14.4846 11.64 10.3246 13.176 5.78063 16.248L0.500625 8.568C6.90063 3.512 13.5886 0.983997 20.5646 0.983997C26.1326 0.983997 30.5806 2.488 33.9086 5.496C37.1726 8.44 38.8046 12.504 38.8046 17.688C38.8046 21.528 37.5246 25.56 34.9646 29.784C32.4686 33.944 27.5726 40.152 20.2766 48.408C18.4846 50.456 17.1726 51.96 16.3406 52.92H38.1326V63H0.980625Z"/>
</mask>
<path d="M0.980625 63H-1.01937V65H0.980625V63ZM0.980625 52.344L-0.514194 51.0153L-1.01937 51.5836V52.344H0.980625ZM7.12463 45.336L5.63804 43.9981L5.62662 44.0108L5.61541 44.0236L7.12463 45.336ZM16.0526 35.16L14.5193 33.8759L14.5162 33.8796L16.0526 35.16ZM24.1166 24.696L25.842 25.7074L25.8494 25.6948L25.8567 25.682L24.1166 24.696ZM23.6366 13.56L24.982 12.0801L24.982 12.0801L23.6366 13.56ZM5.78063 16.248L4.13254 17.3811L5.25678 19.0163L6.90077 17.9049L5.78063 16.248ZM0.500625 8.568L-0.739172 6.99863L-2.20775 8.15881L-1.14746 9.70105L0.500625 8.568ZM33.9086 5.496L32.5675 6.97974L32.5691 6.98114L33.9086 5.496ZM34.9646 29.784L33.2542 28.7474L33.2496 28.755L34.9646 29.784ZM20.2766 48.408L18.778 47.0836L18.7715 47.091L20.2766 48.408ZM16.3406 52.92L14.8292 51.6101L11.9607 54.92H16.3406V52.92ZM38.1326 52.92H40.1326V50.92H38.1326V52.92ZM38.1326 63V65H40.1326V63H38.1326ZM2.98063 63V52.344H-1.01937V63H2.98063ZM2.47544 53.6727C4.01842 51.9369 6.07182 49.5947 8.63384 46.6484L5.61541 44.0236C3.05743 46.9653 1.01483 49.2951 -0.514194 51.0153L2.47544 53.6727ZM8.61121 46.6739C12.6469 42.1898 15.6437 38.7748 17.5891 36.4404L14.5162 33.8796C12.6215 36.1532 9.66636 39.5222 5.63804 43.9981L8.61121 46.6739ZM17.5859 36.4441C21.8529 31.3492 24.6545 27.7331 25.842 25.7074L22.3912 23.6846C21.4027 25.3709 18.8283 28.7308 14.5193 33.8759L17.5859 36.4441ZM25.8567 25.682C27.1227 23.4479 27.7486 20.9938 27.7486 18.36H23.7486C23.7486 20.3342 23.2866 22.1041 22.3766 23.71L25.8567 25.682ZM27.7486 18.36C27.7486 15.8823 26.8112 13.743 24.982 12.0801L22.2913 15.0399C23.2781 15.9369 23.7486 16.9977 23.7486 18.36H27.7486ZM24.982 12.0801C23.1529 10.4173 20.8577 9.64 18.2606 9.64V13.64C20.0156 13.64 21.3043 14.1427 22.2913 15.0399L24.982 12.0801ZM18.2606 9.64C13.9425 9.64 9.39283 11.3918 4.66048 14.5911L6.90077 17.9049C11.2564 14.9602 15.0268 13.64 18.2606 13.64V9.64ZM7.42871 15.1149L2.14871 7.43494L-1.14746 9.70105L4.13254 17.3811L7.42871 15.1149ZM1.74042 10.1374C7.84969 5.31104 14.112 2.984 20.5646 2.984V-1.016C13.0652 -1.016 5.95156 1.71295 -0.739172 6.99863L1.74042 10.1374ZM20.5646 2.984C25.7617 2.984 29.6902 4.37908 32.5675 6.97974L35.2497 4.01225C31.471 0.596918 26.5035 -1.016 20.5646 -1.016V2.984ZM32.5691 6.98114C35.3366 9.47734 36.8046 12.9591 36.8046 17.688H40.8046C40.8046 12.0489 39.0086 7.40265 35.2482 4.01086L32.5691 6.98114ZM36.8046 17.688C36.8046 21.0718 35.6781 24.748 33.2542 28.7474L36.675 30.8206C39.3712 26.372 40.8046 21.9842 40.8046 17.688H36.8046ZM33.2496 28.755C30.8562 32.7441 26.0686 38.8337 18.778 47.0836L21.7753 49.7324C29.0767 41.4703 34.0811 35.1439 36.6796 30.813L33.2496 28.755ZM18.7715 47.091C16.9792 49.1393 15.6645 50.6463 14.8292 51.6101L17.852 54.2299C18.6807 53.2737 19.9901 51.7727 21.7818 49.725L18.7715 47.091ZM16.3406 54.92H38.1326V50.92H16.3406V54.92ZM36.1326 52.92V63H40.1326V52.92H36.1326ZM38.1326 61H0.980625V65H38.1326V61Z" fill="#B38539" fill-opacity="0.52" mask="url(#path-1-outside-1_5477_31288)"/>
</svg>
