<svg width="41" height="64" viewBox="0 0 41 64" fill="none" xmlns="http://www.w3.org/2000/svg">
<mask id="path-1-outside-1_5477_31289" maskUnits="userSpaceOnUse" x="-2" y="-2" width="45" height="68" fill="black">
<rect fill="white" x="-2" y="-2" width="45" height="68"/>
<path d="M18.1514 34.832H9.03137V24.656H18.1514C20.7114 24.656 22.4714 24.304 23.4314 23.6C24.9034 22.512 25.6394 20.56 25.6394 17.744C25.6394 15.568 24.9994 13.84 23.7194 12.56C22.4394 11.216 20.7114 10.544 18.5354 10.544C14.6314 10.544 10.5674 12.336 6.34338 15.92L1.73538 7.856C7.04738 2.672 13.0634 0.0799961 19.7834 0.0799961C25.4154 0.0799961 30.0234 1.648 33.6074 4.784C37.0634 7.856 38.7914 11.824 38.7914 16.688C38.7914 22.704 36.2954 26.736 31.3034 28.784C37.7674 31.28 40.9994 36.08 40.9994 43.184C40.9994 50.672 38.4394 56.112 33.3194 59.504C29.7354 61.872 25.2554 63.056 19.8794 63.056C16.9354 63.056 13.5754 62.288 9.79938 60.752C6.08738 59.152 3.04738 57.232 0.679375 54.992L5.76738 47.408C9.22338 50.544 13.6394 52.112 19.0154 52.112C21.7674 52.112 23.9434 51.344 25.5434 49.808C27.1434 48.208 27.9434 46.064 27.9434 43.376C27.9434 37.68 24.6794 34.832 18.1514 34.832Z"/>
</mask>
<path d="M9.03137 34.832H7.03137V36.832H9.03137V34.832ZM9.03137 24.656V22.656H7.03137V24.656H9.03137ZM23.4314 23.6L24.6141 25.2128L24.6202 25.2084L23.4314 23.6ZM23.7194 12.56L22.2711 13.9393L22.2879 13.957L22.3052 13.9742L23.7194 12.56ZM6.34338 15.92L4.60689 16.9123L5.80144 19.0027L7.63733 17.445L6.34338 15.92ZM1.73538 7.856L0.338512 6.42465L-0.768634 7.50511L-0.00111103 8.84828L1.73538 7.856ZM33.6074 4.784L34.9361 3.28918L34.9303 3.28399L34.9244 3.27885L33.6074 4.784ZM31.3034 28.784L30.5443 26.9337L25.8969 28.8403L30.5829 30.6497L31.3034 28.784ZM33.3194 59.504L34.4219 61.1727L34.424 61.1713L33.3194 59.504ZM9.79938 60.752L9.00772 62.5886L9.02667 62.5968L9.04578 62.6046L9.79938 60.752ZM0.679375 54.992L-0.981484 53.8778L-1.9239 55.2825L-0.695024 56.4449L0.679375 54.992ZM5.76738 47.408L7.11135 45.9269L5.39656 44.3709L4.10652 46.2938L5.76738 47.408ZM25.5434 49.808L26.9284 51.2508L26.9432 51.2366L26.9576 51.2222L25.5434 49.808ZM18.1514 32.832H9.03137V36.832H18.1514V32.832ZM11.0314 34.832V24.656H7.03137V34.832H11.0314ZM9.03137 26.656H18.1514V22.656H9.03137V26.656ZM18.1514 26.656C20.7431 26.656 23.0914 26.3295 24.6141 25.2128L22.2486 21.9872C21.8514 22.2785 20.6796 22.656 18.1514 22.656V26.656ZM24.6202 25.2084C26.8308 23.5744 27.6394 20.8431 27.6394 17.744H23.6394C23.6394 20.2769 22.9759 21.4496 22.2426 21.9916L24.6202 25.2084ZM27.6394 17.744C27.6394 15.1522 26.8626 12.8748 25.1336 11.1458L22.3052 13.9742C23.1361 14.8052 23.6394 15.9838 23.6394 17.744H27.6394ZM25.1677 11.1807C23.4448 9.37174 21.1562 8.544 18.5354 8.544V12.544C20.2666 12.544 21.4339 13.0603 22.2711 13.9393L25.1677 11.1807ZM18.5354 8.544C13.9928 8.544 9.48551 10.631 5.04942 14.395L7.63733 17.445C11.6492 14.041 15.27 12.544 18.5354 12.544V8.544ZM8.07986 14.9277L3.47186 6.86372L-0.00111103 8.84828L4.60689 16.9123L8.07986 14.9277ZM3.13224 9.28735C8.11335 4.42627 13.6421 2.08 19.7834 2.08V-1.92C12.4846 -1.92 5.9814 0.917727 0.338512 6.42465L3.13224 9.28735ZM19.7834 2.08C25.0242 2.08 29.1355 3.52864 32.2904 6.28915L34.9244 3.27885C30.9113 -0.232646 25.8066 -1.92 19.7834 -1.92V2.08ZM32.2786 6.27882C35.2832 8.9495 36.7914 12.3616 36.7914 16.688H40.7914C40.7914 11.2863 38.8436 6.7625 34.9361 3.28918L32.2786 6.27882ZM36.7914 16.688C36.7914 19.4229 36.2249 21.5462 35.2188 23.1713C34.2226 24.7806 32.7062 26.0467 30.5443 26.9337L32.0625 30.6343C34.8925 29.4733 37.1202 27.6994 38.6199 25.2767C40.1099 22.8698 40.7914 19.9691 40.7914 16.688H36.7914ZM30.5829 30.6497C33.5098 31.7799 35.5713 33.3754 36.9164 35.373C38.264 37.3745 38.9994 39.9386 38.9994 43.184H42.9994C42.9994 39.3254 42.1187 35.9375 40.2344 33.139C38.3474 30.3366 35.5609 28.2841 32.0238 26.9183L30.5829 30.6497ZM38.9994 43.184C38.9994 50.1695 36.6485 54.8993 32.2148 57.8367L34.424 61.1713C40.2302 57.3247 42.9994 51.1745 42.9994 43.184H38.9994ZM32.2169 57.8353C29.0335 59.9386 24.962 61.056 19.8794 61.056V65.056C25.5488 65.056 30.4372 63.8054 34.4219 61.1727L32.2169 57.8353ZM19.8794 61.056C17.2725 61.056 14.1754 60.373 10.553 58.8994L9.04578 62.6046C12.9753 64.203 16.5982 65.056 19.8794 65.056V61.056ZM10.591 58.9154C7.04453 57.3867 4.21617 55.5846 2.05377 53.5391L-0.695024 56.4449C1.87858 58.8794 5.13022 60.9173 9.00772 62.5886L10.591 58.9154ZM2.34023 56.1062L7.42824 48.5222L4.10652 46.2938L-0.981484 53.8778L2.34023 56.1062ZM4.4234 48.8891C8.30304 52.4095 13.2231 54.112 19.0154 54.112V50.112C14.0556 50.112 10.1437 48.6785 7.11135 45.9269L4.4234 48.8891ZM19.0154 54.112C22.1529 54.112 24.8712 53.2257 26.9284 51.2508L24.1583 48.3652C23.0155 49.4623 21.3819 50.112 19.0154 50.112V54.112ZM26.9576 51.2222C29.0021 49.1777 29.9434 46.4874 29.9434 43.376H25.9434C25.9434 45.6406 25.2846 47.2383 24.1292 48.3938L26.9576 51.2222ZM29.9434 43.376C29.9434 40.1434 29.0046 37.3756 26.8103 35.461C24.6681 33.5919 21.6618 32.832 18.1514 32.832V36.832C21.169 36.832 23.0586 37.4961 24.1805 38.475C25.2502 39.4084 25.9434 40.9126 25.9434 43.376H29.9434Z" fill="#B38539" fill-opacity="0.52" mask="url(#path-1-outside-1_5477_31289)"/>
</svg>
