<svg width="49" height="61" viewBox="0 0 49 61" fill="none" xmlns="http://www.w3.org/2000/svg">
<mask id="path-1-outside-1_5477_31290" maskUnits="userSpaceOnUse" x="-2" y="-2" width="53" height="65" fill="black">
<rect fill="white" x="-2" y="-2" width="53" height="65"/>
<path d="M0.525125 39.112C9.16513 25.928 17.6771 12.968 26.0611 0.231998H38.4451V39.112H48.4291V49.192H38.4451V61H25.9651V49.192H0.525125V39.112ZM11.3731 39.112H25.9651V16.36L11.3731 39.112Z"/>
</mask>
<path d="M0.525125 39.112L-1.14767 38.0158L-1.47487 38.515V39.112H0.525125ZM26.0611 0.231998V-1.768H24.9833L24.3906 -0.867697L26.0611 0.231998ZM38.4451 0.231998H40.4451V-1.768H38.4451V0.231998ZM38.4451 39.112H36.4451V41.112H38.4451V39.112ZM48.4291 39.112H50.4291V37.112H48.4291V39.112ZM48.4291 49.192V51.192H50.4291V49.192H48.4291ZM38.4451 49.192V47.192H36.4451V49.192H38.4451ZM38.4451 61V63H40.4451V61H38.4451ZM25.9651 61H23.9651V63H25.9651V61ZM25.9651 49.192H27.9651V47.192H25.9651V49.192ZM0.525125 49.192H-1.47487V51.192H0.525125V49.192ZM11.3731 39.112L9.68962 38.0323L7.71444 41.112H11.3731V39.112ZM25.9651 39.112V41.112H27.9651V39.112H25.9651ZM25.9651 16.36H27.9651V9.53691L24.2816 15.2803L25.9651 16.36ZM2.19792 40.2082C10.8372 27.0254 19.3484 14.0665 27.7317 1.33169L24.3906 -0.867697C16.0058 11.8695 7.49306 24.8306 -1.14767 38.0158L2.19792 40.2082ZM26.0611 2.232H38.4451V-1.768H26.0611V2.232ZM36.4451 0.231998V39.112H40.4451V0.231998H36.4451ZM38.4451 41.112H48.4291V37.112H38.4451V41.112ZM46.4291 39.112V49.192H50.4291V39.112H46.4291ZM48.4291 47.192H38.4451V51.192H48.4291V47.192ZM36.4451 49.192V61H40.4451V49.192H36.4451ZM38.4451 59H25.9651V63H38.4451V59ZM27.9651 61V49.192H23.9651V61H27.9651ZM25.9651 47.192H0.525125V51.192H25.9651V47.192ZM2.52513 49.192V39.112H-1.47487V49.192H2.52513ZM11.3731 41.112H25.9651V37.112H11.3731V41.112ZM27.9651 39.112V16.36H23.9651V39.112H27.9651ZM24.2816 15.2803L9.68962 38.0323L13.0566 40.1917L27.6486 17.4397L24.2816 15.2803Z" fill="#B38539" fill-opacity="0.52" mask="url(#path-1-outside-1_5477_31290)"/>
</svg>
