<svg width="16" height="16" viewBox="0 0 16 16" fill="none" xmlns="http://www.w3.org/2000/svg">
<g id="ep:calendar">
<path id="Vector" d="M2 6V14H14V3H12V3.5C12 3.63261 11.9473 3.75979 11.8536 3.85355C11.7598 3.94732 11.6326 4 11.5 4C11.3674 4 11.2402 3.94732 11.1464 3.85355C11.0527 3.75979 11 3.63261 11 3.5V3H5V3.5C5 3.63261 4.94732 3.75979 4.85355 3.85355C4.75979 3.94732 4.63261 4 4.5 4C4.36739 4 4.24021 3.94732 4.14645 3.85355C4.05268 3.75979 4 3.63261 4 3.5V3H2V5H14V6H2ZM5 2H11V1.5C11 1.36739 11.0527 1.24021 11.1464 1.14645C11.2402 1.05268 11.3674 1 11.5 1C11.6326 1 11.7598 1.05268 11.8536 1.14645C11.9473 1.24021 12 1.36739 12 1.5V2H14.5C14.6326 2 14.7598 2.05268 14.8536 2.14645C14.9473 2.24021 15 2.36739 15 2.5V14.5C15 14.6326 14.9473 14.7598 14.8536 14.8536C14.7598 14.9473 14.6326 15 14.5 15H1.5C1.36739 15 1.24021 14.9473 1.14645 14.8536C1.05268 14.7598 1 14.6326 1 14.5V2.5C1 2.36739 1.05268 2.24021 1.14645 2.14645C1.24021 2.05268 1.36739 2 1.5 2H4V1.5C4 1.36739 4.05268 1.24021 4.14645 1.14645C4.24021 1.05268 4.36739 1 4.5 1C4.63261 1 4.75979 1.05268 4.85355 1.14645C4.94732 1.24021 5 1.36739 5 1.5V2ZM4.5 8H5.5C5.63261 8 5.75979 8.05268 5.85355 8.14645C5.94732 8.24021 6 8.36739 6 8.5C6 8.63261 5.94732 8.75979 5.85355 8.85355C5.75979 8.94732 5.63261 9 5.5 9H4.5C4.36739 9 4.24021 8.94732 4.14645 8.85355C4.05268 8.75979 4 8.63261 4 8.5C4 8.36739 4.05268 8.24021 4.14645 8.14645C4.24021 8.05268 4.36739 8 4.5 8ZM4.5 11H5.5C5.63261 11 5.75979 11.0527 5.85355 11.1464C5.94732 11.2402 6 11.3674 6 11.5C6 11.6326 5.94732 11.7598 5.85355 11.8536C5.75979 11.9473 5.63261 12 5.5 12H4.5C4.36739 12 4.24021 11.9473 4.14645 11.8536C4.05268 11.7598 4 11.6326 4 11.5C4 11.3674 4.05268 11.2402 4.14645 11.1464C4.24021 11.0527 4.36739 11 4.5 11ZM7.5 8H8.5C8.63261 8 8.75979 8.05268 8.85355 8.14645C8.94732 8.24021 9 8.36739 9 8.5C9 8.63261 8.94732 8.75979 8.85355 8.85355C8.75979 8.94732 8.63261 9 8.5 9H7.5C7.36739 9 7.24021 8.94732 7.14645 8.85355C7.05268 8.75979 7 8.63261 7 8.5C7 8.36739 7.05268 8.24021 7.14645 8.14645C7.24021 8.05268 7.36739 8 7.5 8ZM7.5 11H8.5C8.63261 11 8.75979 11.0527 8.85355 11.1464C8.94732 11.2402 9 11.3674 9 11.5C9 11.6326 8.94732 11.7598 8.85355 11.8536C8.75979 11.9473 8.63261 12 8.5 12H7.5C7.36739 12 7.24021 11.9473 7.14645 11.8536C7.05268 11.7598 7 11.6326 7 11.5C7 11.3674 7.05268 11.2402 7.14645 11.1464C7.24021 11.0527 7.36739 11 7.5 11ZM10.5 8H11.5C11.6326 8 11.7598 8.05268 11.8536 8.14645C11.9473 8.24021 12 8.36739 12 8.5C12 8.63261 11.9473 8.75979 11.8536 8.85355C11.7598 8.94732 11.6326 9 11.5 9H10.5C10.3674 9 10.2402 8.94732 10.1464 8.85355C10.0527 8.75979 10 8.63261 10 8.5C10 8.36739 10.0527 8.24021 10.1464 8.14645C10.2402 8.05268 10.3674 8 10.5 8ZM10.5 11H11.5C11.6326 11 11.7598 11.0527 11.8536 11.1464C11.9473 11.2402 12 11.3674 12 11.5C12 11.6326 11.9473 11.7598 11.8536 11.8536C11.7598 11.9473 11.6326 12 11.5 12H10.5C10.3674 12 10.2402 11.9473 10.1464 11.8536C10.0527 11.7598 10 11.6326 10 11.5C10 11.3674 10.0527 11.2402 10.1464 11.1464C10.2402 11.0527 10.3674 11 10.5 11Z" fill="#F0F0F0"/>
</g>
</svg>
