<svg width="16" height="16" viewBox="0 0 16 16" fill="none" xmlns="http://www.w3.org/2000/svg">
<g id="fluent:people-team-28-regular">
<path id="Vector" d="M9.85915 6.28566C10.2001 6.28566 10.5272 6.42112 10.7683 6.66224C11.0094 6.90336 11.1449 7.23038 11.1449 7.57138V11.1422C11.1449 11.9759 10.8137 12.7755 10.2242 13.365C9.63467 13.9545 8.83512 14.2857 8.00144 14.2857C7.16775 14.2857 6.3682 13.9545 5.7787 13.365C5.18919 12.7755 4.85801 11.9759 4.85801 11.1422V7.57138C4.85801 7.23038 4.99347 6.90336 5.23458 6.66224C5.4757 6.42112 5.80273 6.28566 6.14372 6.28566H9.85915ZM9.85915 7.14281H6.14372C6.03006 7.14281 5.92105 7.18796 5.84068 7.26833C5.7603 7.3487 5.71515 7.45771 5.71515 7.57138V11.1422C5.71515 11.7486 5.95603 12.3301 6.38479 12.7589C6.81355 13.1876 7.39507 13.4285 8.00144 13.4285C8.6078 13.4285 9.18932 13.1876 9.61808 12.7589C10.0468 12.3301 10.2877 11.7486 10.2877 11.1422V7.57138C10.2877 7.45771 10.2426 7.3487 10.1622 7.26833C10.0818 7.18796 9.97281 7.14281 9.85915 7.14281ZM2.42829 6.28566H4.80315C4.57373 6.52453 4.41252 6.82051 4.33629 7.14281H2.42829C2.31463 7.14281 2.20562 7.18796 2.12525 7.26833C2.04487 7.3487 1.99972 7.45771 1.99972 7.57138V10.5708C1.99964 10.8575 2.07146 11.1397 2.20859 11.3915C2.34573 11.6433 2.54381 11.8567 2.78471 12.0121C3.02562 12.1676 3.30166 12.2602 3.58759 12.2814C3.87352 12.3026 4.16021 12.2518 4.42144 12.1337C4.49744 12.4137 4.60658 12.6799 4.74372 12.9291C4.35222 13.1 3.9243 13.1708 3.49862 13.1349C3.07293 13.099 2.66289 12.9577 2.30551 12.7236C1.94813 12.4896 1.65467 12.1702 1.45164 11.7944C1.2486 11.4185 1.14239 10.998 1.14258 10.5708V7.57138C1.14258 7.23038 1.27804 6.90336 1.51916 6.66224C1.76027 6.42112 2.0873 6.28566 2.42829 6.28566ZM13.5711 6.28566C13.9121 6.28566 14.2392 6.42112 14.4803 6.66224C14.7214 6.90336 14.8569 7.23038 14.8569 7.57138V10.5714C14.857 10.9983 14.7509 11.4186 14.548 11.7943C14.3451 12.1699 14.0519 12.4892 13.6948 12.7232C13.3377 12.9572 12.928 13.0986 12.5025 13.1347C12.0771 13.1707 11.6494 13.1003 11.258 12.9297L11.29 12.8714C11.4123 12.6394 11.5111 12.3931 11.582 12.1348C11.8431 12.2523 12.1294 12.3025 12.4149 12.2809C12.7004 12.2593 12.9759 12.1665 13.2163 12.011C13.4567 11.8556 13.6544 11.6424 13.7912 11.3909C13.9281 11.1394 13.9997 10.8577 13.9997 10.5714V7.57138C13.9997 7.45781 13.9546 7.34889 13.8744 7.26853C13.7941 7.18818 13.6853 7.14296 13.5717 7.14281H11.6671C11.5908 6.82044 11.4294 6.52444 11.1997 6.28566H13.5711ZM7.99972 1.71423C8.26236 1.71423 8.52244 1.76596 8.76509 1.86647C9.00774 1.96698 9.22822 2.1143 9.41394 2.30002C9.59965 2.48574 9.74697 2.70622 9.84748 2.94887C9.94799 3.19152 9.99972 3.45159 9.99972 3.71423C9.99972 3.97688 9.94799 4.23695 9.84748 4.4796C9.74697 4.72225 9.59965 4.94273 9.41394 5.12845C9.22822 5.31416 9.00774 5.46148 8.76509 5.56199C8.52244 5.6625 8.26236 5.71423 7.99972 5.71423C7.46929 5.71423 6.96058 5.50352 6.58551 5.12845C6.21043 4.75337 5.99972 4.24467 5.99972 3.71423C5.99972 3.1838 6.21043 2.67509 6.58551 2.30002C6.96058 1.92495 7.46929 1.71423 7.99972 1.71423ZM12.5729 2.28566C12.798 2.28566 13.0209 2.33 13.2289 2.41615C13.4369 2.50231 13.6259 2.62858 13.785 2.78776C13.9442 2.94695 14.0705 3.13593 14.1567 3.34392C14.2428 3.55191 14.2872 3.77482 14.2872 3.99995C14.2872 4.22507 14.2428 4.44799 14.1567 4.65598C14.0705 4.86396 13.9442 5.05294 13.785 5.21213C13.6259 5.37132 13.4369 5.49759 13.2289 5.58374C13.0209 5.66989 12.798 5.71423 12.5729 5.71423C12.1182 5.71423 11.6822 5.53362 11.3607 5.21213C11.0392 4.89064 10.8586 4.4546 10.8586 3.99995C10.8586 3.54529 11.0392 3.10926 11.3607 2.78776C11.6822 2.46627 12.1182 2.28566 12.5729 2.28566ZM3.42658 2.28566C3.6517 2.28566 3.87462 2.33 4.08261 2.41615C4.29059 2.50231 4.47958 2.62858 4.63876 2.78776C4.79795 2.94695 4.92422 3.13593 5.01037 3.34392C5.09652 3.55191 5.14086 3.77482 5.14086 3.99995C5.14086 4.22507 5.09652 4.44799 5.01037 4.65598C4.92422 4.86396 4.79795 5.05294 4.63876 5.21213C4.47958 5.37132 4.29059 5.49759 4.08261 5.58374C3.87462 5.66989 3.6517 5.71423 3.42658 5.71423C2.97192 5.71423 2.53589 5.53362 2.2144 5.21213C1.8929 4.89064 1.71229 4.4546 1.71229 3.99995C1.71229 3.54529 1.8929 3.10926 2.2144 2.78776C2.53589 2.46627 2.97192 2.28566 3.42658 2.28566ZM7.99972 2.57138C7.69662 2.57138 7.40593 2.69178 7.1916 2.90611C6.97727 3.12044 6.85686 3.41113 6.85686 3.71423C6.85686 4.01734 6.97727 4.30803 7.1916 4.52236C7.40593 4.73668 7.69662 4.85709 7.99972 4.85709C8.30283 4.85709 8.59352 4.73668 8.80784 4.52236C9.02217 4.30803 9.14258 4.01734 9.14258 3.71423C9.14258 3.41113 9.02217 3.12044 8.80784 2.90611C8.59352 2.69178 8.30283 2.57138 7.99972 2.57138ZM12.5729 3.1428C12.4603 3.1428 12.3488 3.16498 12.2448 3.20805C12.1409 3.25113 12.0464 3.31426 11.9668 3.39386C11.8872 3.47345 11.824 3.56794 11.781 3.67193C11.7379 3.77593 11.7157 3.88739 11.7157 3.99995C11.7157 4.11251 11.7379 4.22397 11.781 4.32796C11.824 4.43196 11.8872 4.52645 11.9668 4.60604C12.0464 4.68563 12.1409 4.74877 12.2448 4.79184C12.3488 4.83492 12.4603 4.85709 12.5729 4.85709C12.8002 4.85709 13.0182 4.76678 13.179 4.60604C13.3397 4.44529 13.43 4.22728 13.43 3.99995C13.43 3.77262 13.3397 3.5546 13.179 3.39386C13.0182 3.23311 12.8002 3.1428 12.5729 3.1428ZM3.42658 3.1428C3.31402 3.1428 3.20256 3.16498 3.09856 3.20805C2.99457 3.25113 2.90008 3.31426 2.82049 3.39386C2.74089 3.47345 2.67776 3.56794 2.63468 3.67193C2.59161 3.77593 2.56944 3.88739 2.56944 3.99995C2.56944 4.11251 2.59161 4.22397 2.63468 4.32796C2.67776 4.43196 2.74089 4.52645 2.82049 4.60604C2.90008 4.68563 2.99457 4.74877 3.09856 4.79184C3.20256 4.83492 3.31402 4.85709 3.42658 4.85709C3.65391 4.85709 3.87192 4.76678 4.03267 4.60604C4.19342 4.44529 4.28372 4.22728 4.28372 3.99995C4.28372 3.77262 4.19342 3.5546 4.03267 3.39386C3.87192 3.23311 3.65391 3.1428 3.42658 3.1428Z" fill="#F0F0F0"/>
</g>
</svg>
