<svg width="14" height="14" viewBox="0 0 14 14" fill="none" xmlns="http://www.w3.org/2000/svg">
<path d="M1 5V13H13V2H11V2.5C11 2.63261 10.9473 2.75979 10.8536 2.85355C10.7598 2.94732 10.6326 3 10.5 3C10.3674 3 10.2402 2.94732 10.1464 2.85355C10.0527 2.75979 10 2.63261 10 2.5V2H4V2.5C4 2.63261 3.94732 2.75979 3.85355 2.85355C3.75979 2.94732 3.63261 3 3.5 3C3.36739 3 3.24021 2.94732 3.14645 2.85355C3.05268 2.75979 3 2.63261 3 2.5V2H1V4H13V5H1ZM4 1H10V0.5C10 0.367392 10.0527 0.240215 10.1464 0.146447C10.2402 0.0526784 10.3674 0 10.5 0C10.6326 0 10.7598 0.0526784 10.8536 0.146447C10.9473 0.240215 11 0.367392 11 0.5V1H13.5C13.6326 1 13.7598 1.05268 13.8536 1.14645C13.9473 1.24021 14 1.36739 14 1.5V13.5C14 13.6326 13.9473 13.7598 13.8536 13.8536C13.7598 13.9473 13.6326 14 13.5 14H0.5C0.367392 14 0.240215 13.9473 0.146447 13.8536C0.0526784 13.7598 0 13.6326 0 13.5V1.5C0 1.36739 0.0526784 1.24021 0.146447 1.14645C0.240215 1.05268 0.367392 1 0.5 1H3V0.5C3 0.367392 3.05268 0.240215 3.14645 0.146447C3.24021 0.0526784 3.36739 0 3.5 0C3.63261 0 3.75979 0.0526784 3.85355 0.146447C3.94732 0.240215 4 0.367392 4 0.5V1ZM3.5 7H4.5C4.63261 7 4.75979 7.05268 4.85355 7.14645C4.94732 7.24021 5 7.36739 5 7.5C5 7.63261 4.94732 7.75979 4.85355 7.85355C4.75979 7.94732 4.63261 8 4.5 8H3.5C3.36739 8 3.24021 7.94732 3.14645 7.85355C3.05268 7.75979 3 7.63261 3 7.5C3 7.36739 3.05268 7.24021 3.14645 7.14645C3.24021 7.05268 3.36739 7 3.5 7ZM3.5 10H4.5C4.63261 10 4.75979 10.0527 4.85355 10.1464C4.94732 10.2402 5 10.3674 5 10.5C5 10.6326 4.94732 10.7598 4.85355 10.8536C4.75979 10.9473 4.63261 11 4.5 11H3.5C3.36739 11 3.24021 10.9473 3.14645 10.8536C3.05268 10.7598 3 10.6326 3 10.5C3 10.3674 3.05268 10.2402 3.14645 10.1464C3.24021 10.0527 3.36739 10 3.5 10ZM6.5 7H7.5C7.63261 7 7.75979 7.05268 7.85355 7.14645C7.94732 7.24021 8 7.36739 8 7.5C8 7.63261 7.94732 7.75979 7.85355 7.85355C7.75979 7.94732 7.63261 8 7.5 8H6.5C6.36739 8 6.24021 7.94732 6.14645 7.85355C6.05268 7.75979 6 7.63261 6 7.5C6 7.36739 6.05268 7.24021 6.14645 7.14645C6.24021 7.05268 6.36739 7 6.5 7ZM6.5 10H7.5C7.63261 10 7.75979 10.0527 7.85355 10.1464C7.94732 10.2402 8 10.3674 8 10.5C8 10.6326 7.94732 10.7598 7.85355 10.8536C7.75979 10.9473 7.63261 11 7.5 11H6.5C6.36739 11 6.24021 10.9473 6.14645 10.8536C6.05268 10.7598 6 10.6326 6 10.5C6 10.3674 6.05268 10.2402 6.14645 10.1464C6.24021 10.0527 6.36739 10 6.5 10ZM9.5 7H10.5C10.6326 7 10.7598 7.05268 10.8536 7.14645C10.9473 7.24021 11 7.36739 11 7.5C11 7.63261 10.9473 7.75979 10.8536 7.85355C10.7598 7.94732 10.6326 8 10.5 8H9.5C9.36739 8 9.24021 7.94732 9.14645 7.85355C9.05268 7.75979 9 7.63261 9 7.5C9 7.36739 9.05268 7.24021 9.14645 7.14645C9.24021 7.05268 9.36739 7 9.5 7ZM9.5 10H10.5C10.6326 10 10.7598 10.0527 10.8536 10.1464C10.9473 10.2402 11 10.3674 11 10.5C11 10.6326 10.9473 10.7598 10.8536 10.8536C10.7598 10.9473 10.6326 11 10.5 11H9.5C9.36739 11 9.24021 10.9473 9.14645 10.8536C9.05268 10.7598 9 10.6326 9 10.5C9 10.3674 9.05268 10.2402 9.14645 10.1464C9.24021 10.0527 9.36739 10 9.5 10Z" fill="#F0F0F0"/>
</svg>
