<svg width="16" height="16" viewBox="0 0 16 16" fill="none" xmlns="http://www.w3.org/2000/svg">
<g id="circum:mobile-2">
<path id="Vector" d="M8.00065 12.6247C8.36884 12.6247 8.66732 12.3262 8.66732 11.958C8.66732 11.5898 8.36884 11.2913 8.00065 11.2913C7.63246 11.2913 7.33398 11.5898 7.33398 11.958C7.33398 12.3262 7.63246 12.6247 8.00065 12.6247Z" fill="#F0F0F0"/>
<path id="Vector_2" d="M11.1509 14.6247H4.84821C4.42995 14.5997 4.03846 14.4106 3.75892 14.0985C3.47938 13.7864 3.33441 13.3765 3.35554 12.958V3.042C3.33441 2.62353 3.47938 2.21365 3.75892 1.90152C4.03846 1.5894 4.42995 1.40029 4.84821 1.37534H11.1509C11.5691 1.40029 11.9606 1.5894 12.2402 1.90152C12.5197 2.21365 12.6647 2.62353 12.6435 3.042V12.958C12.6647 13.3765 12.5197 13.7864 12.2402 14.0985C11.9606 14.4106 11.5691 14.5997 11.1509 14.6247ZM4.84821 2.042C4.60706 2.06747 4.38551 2.18645 4.23109 2.3734C4.07667 2.56036 4.00168 2.80039 4.02221 3.042V12.958C4.00168 13.1996 4.07667 13.4396 4.23109 13.6266C4.38551 13.8136 4.60706 13.9325 4.84821 13.958H11.1509C11.392 13.9325 11.6136 13.8136 11.768 13.6266C11.9224 13.4396 11.9974 13.1996 11.9769 12.958V3.042C11.9974 2.80039 11.9224 2.56036 11.768 2.3734C11.6136 2.18645 11.392 2.06747 11.1509 2.042H4.84821Z" fill="#F0F0F0"/>
</g>
</svg>
