<svg width="24" height="24" viewBox="0 0 24 24" fill="none" xmlns="http://www.w3.org/2000/svg">
<path d="M14.7897 9.42843C15.3012 9.42843 15.7917 9.63162 16.1534 9.9933C16.5151 10.355 16.7183 10.8455 16.7183 11.357V16.7133C16.7183 17.9638 16.2215 19.1631 15.3372 20.0474C14.453 20.9317 13.2537 21.4284 12.0031 21.4284C10.7526 21.4284 9.55328 20.9317 8.66902 20.0474C7.78476 19.1631 7.28799 17.9638 7.28799 16.7133V11.357C7.28799 10.8455 7.49118 10.355 7.85285 9.9933C8.21453 9.63162 8.70507 9.42843 9.21656 9.42843H14.7897ZM14.7897 10.7141H9.21656C9.04606 10.7141 8.88255 10.7819 8.76199 10.9024C8.64143 11.023 8.5737 11.1865 8.5737 11.357V16.7133C8.5737 17.6228 8.93501 18.4951 9.57816 19.1383C10.2213 19.7814 11.0936 20.1427 12.0031 20.1427C12.9127 20.1427 13.785 19.7814 14.4281 19.1383C15.0712 18.4951 15.4326 17.6228 15.4326 16.7133V11.357C15.4326 11.1865 15.3648 11.023 15.2443 10.9024C15.1237 10.7819 14.9602 10.7141 14.7897 10.7141ZM3.64342 9.42843H7.2057C6.86158 9.78673 6.61976 10.2307 6.50542 10.7141H3.64342C3.47292 10.7141 3.30941 10.7819 3.18885 10.9024C3.06829 11.023 3.00056 11.1865 3.00056 11.357V15.8561C3.00044 16.2862 3.10816 16.7095 3.31387 17.0872C3.51957 17.4648 3.81669 17.7849 4.17805 18.0181C4.53941 18.2513 4.95347 18.3902 5.38236 18.4221C5.81126 18.4539 6.24129 18.3777 6.63313 18.2004C6.74713 18.6204 6.91084 19.0199 7.11656 19.3936C6.5293 19.65 5.88743 19.7561 5.2489 19.7023C4.61038 19.6485 3.99531 19.4365 3.45924 19.0854C2.92317 18.7343 2.48298 18.2553 2.17843 17.6915C1.87388 17.1277 1.71456 16.4969 1.71484 15.8561V11.357C1.71484 10.8455 1.91803 10.355 2.27971 9.9933C2.64139 9.63162 3.13193 9.42843 3.64342 9.42843ZM20.3577 9.42843C20.8692 9.42843 21.3597 9.63162 21.7214 9.9933C22.0831 10.355 22.2863 10.8455 22.2863 11.357V15.857C22.2865 16.4974 22.1273 17.1278 21.823 17.6913C21.5187 18.2549 21.0789 18.7337 20.5432 19.0847C20.0075 19.4357 19.3929 19.6479 18.7548 19.7019C18.1166 19.756 17.4751 19.6503 16.888 19.3944L16.936 19.307C17.1194 18.959 17.2677 18.5896 17.374 18.2021C17.7656 18.3784 18.1951 18.4537 18.6233 18.4213C19.0516 18.3888 19.4648 18.2497 19.8254 18.0165C20.1861 17.7833 20.4825 17.4635 20.6878 17.0863C20.8931 16.7091 21.0006 16.2864 21.0006 15.857V11.357C21.0006 11.1867 20.9329 11.0233 20.8126 10.9027C20.6922 10.7822 20.5289 10.7144 20.3586 10.7141H17.5017C17.3872 10.2306 17.145 9.7866 16.8006 9.42843H20.3577ZM12.0006 2.57129C12.3945 2.57129 12.7846 2.64889 13.1486 2.79965C13.5126 2.95041 13.8433 3.17139 14.1219 3.44997C14.4005 3.72854 14.6214 4.05926 14.7722 4.42324C14.923 4.78722 15.0006 5.17732 15.0006 5.57129C15.0006 5.96525 14.923 6.35536 14.7722 6.71934C14.6214 7.08332 14.4005 7.41403 14.1219 7.69261C13.8433 7.97119 13.5126 8.19216 13.1486 8.34293C12.7846 8.49369 12.3945 8.57129 12.0006 8.57129C11.2049 8.57129 10.4418 8.25522 9.87924 7.69261C9.31663 7.13 9.00056 6.36694 9.00056 5.57129C9.00056 4.77564 9.31663 4.01258 9.87924 3.44997C10.4418 2.88736 11.2049 2.57129 12.0006 2.57129ZM18.8603 3.42843C19.198 3.42843 19.5323 3.49494 19.8443 3.62417C20.1563 3.7534 20.4398 3.94281 20.6785 4.18159C20.9173 4.42037 21.1067 4.70384 21.236 5.01582C21.3652 5.3278 21.4317 5.66218 21.4317 5.99986C21.4317 6.33755 21.3652 6.67192 21.236 6.9839C21.1067 7.29588 20.9173 7.57936 20.6785 7.81814C20.4398 8.05691 20.1563 8.24632 19.8443 8.37555C19.5323 8.50478 19.198 8.57129 18.8603 8.57129C18.1783 8.57129 17.5242 8.30037 17.042 7.81814C16.5598 7.3359 16.2888 6.68185 16.2888 5.99986C16.2888 5.31788 16.5598 4.66382 17.042 4.18159C17.5242 3.69935 18.1783 3.42843 18.8603 3.42843ZM5.14084 3.42843C5.47853 3.42843 5.81291 3.49494 6.12489 3.62417C6.43687 3.7534 6.72034 3.94281 6.95912 4.18159C7.1979 4.42037 7.38731 4.70384 7.51653 5.01582C7.64576 5.3278 7.71227 5.66218 7.71227 5.99986C7.71227 6.33755 7.64576 6.67192 7.51653 6.9839C7.38731 7.29588 7.1979 7.57936 6.95912 7.81814C6.72034 8.05691 6.43687 8.24632 6.12489 8.37555C5.81291 8.50478 5.47853 8.57129 5.14084 8.57129C4.45886 8.57129 3.80481 8.30037 3.32257 7.81814C2.84033 7.3359 2.56942 6.68185 2.56942 5.99986C2.56942 5.31788 2.84033 4.66382 3.32257 4.18159C3.80481 3.69935 4.45886 3.42843 5.14084 3.42843ZM12.0006 3.857C11.5459 3.857 11.1099 4.03762 10.7884 4.35911C10.4669 4.6806 10.2863 5.11663 10.2863 5.57129C10.2863 6.02595 10.4669 6.46198 10.7884 6.78347C11.1099 7.10496 11.5459 7.28557 12.0006 7.28557C12.4552 7.28557 12.8913 7.10496 13.2127 6.78347C13.5342 6.46198 13.7148 6.02595 13.7148 5.57129C13.7148 5.11663 13.5342 4.6806 13.2127 4.35911C12.8913 4.03762 12.4552 3.857 12.0006 3.857ZM18.8603 4.71415C18.6914 4.71415 18.5242 4.7474 18.3683 4.81202C18.2123 4.87663 18.0705 4.97133 17.9511 5.09072C17.8317 5.21011 17.737 5.35185 17.6724 5.50784C17.6078 5.66383 17.5746 5.83102 17.5746 5.99986C17.5746 6.1687 17.6078 6.33589 17.6724 6.49188C17.737 6.64787 17.8317 6.78961 17.9511 6.909C18.0705 7.02839 18.2123 7.12309 18.3683 7.18771C18.5242 7.25232 18.6914 7.28557 18.8603 7.28557C19.2013 7.28557 19.5283 7.15012 19.7694 6.909C20.0105 6.66788 20.146 6.34085 20.146 5.99986C20.146 5.65887 20.0105 5.33184 19.7694 5.09072C19.5283 4.8496 19.2013 4.71415 18.8603 4.71415ZM5.14084 4.71415C4.972 4.71415 4.80481 4.7474 4.64882 4.81202C4.49283 4.87663 4.3511 4.97133 4.23171 5.09072C4.11232 5.21011 4.01761 5.35185 3.953 5.50784C3.88839 5.66383 3.85513 5.83102 3.85513 5.99986C3.85513 6.1687 3.88839 6.33589 3.953 6.49188C4.01761 6.64787 4.11232 6.78961 4.23171 6.909C4.3511 7.02839 4.49283 7.12309 4.64882 7.18771C4.80481 7.25232 4.972 7.28557 5.14084 7.28557C5.48184 7.28557 5.80886 7.15012 6.04998 6.909C6.2911 6.66788 6.42656 6.34085 6.42656 5.99986C6.42656 5.65887 6.2911 5.33184 6.04998 5.09072C5.80886 4.8496 5.48184 4.71415 5.14084 4.71415Z" fill="#F0F0F0"/>
</svg>
