<svg width="20" height="20" viewBox="0 0 20 20" fill="none" xmlns="http://www.w3.org/2000/svg">
<path d="M18.1259 17.2411L13.4059 12.5211C14.5401 11.1595 15.1057 9.41291 14.985 7.64483C14.8643 5.87675 14.0666 4.22326 12.7579 3.02834C11.4491 1.83341 9.73008 1.18906 7.95834 1.22932C6.1866 1.26958 4.49859 1.99134 3.24545 3.24448C1.99232 4.49761 1.27055 6.18562 1.23029 7.95736C1.19004 9.7291 1.83439 11.4482 3.02931 12.7569C4.22423 14.0657 5.87772 14.8634 7.64581 14.9841C9.41389 15.1047 11.1604 14.5391 12.5221 13.4049L17.2421 18.1249L18.1259 17.2411ZM2.50087 8.12489C2.50087 7.01237 2.83077 5.92483 3.44885 4.99981C4.06693 4.07478 4.94544 3.35381 5.97327 2.92807C7.00111 2.50232 8.13211 2.39093 9.22325 2.60797C10.3144 2.82501 11.3167 3.36074 12.1033 4.14741C12.89 4.93408 13.4257 5.93636 13.6428 7.02751C13.8598 8.11865 13.7484 9.24965 13.3227 10.2775C12.8969 11.3053 12.176 12.1838 11.2509 12.8019C10.3259 13.42 9.23839 13.7499 8.12587 13.7499C6.63453 13.7482 5.20475 13.1551 4.15022 12.1005C3.09568 11.046 2.50252 9.61622 2.50087 8.12489Z" fill="#F0F0F0"/>
</svg>
