<svg width="24" height="24" viewBox="0 0 24 24" fill="none" xmlns="http://www.w3.org/2000/svg">
<path d="M20.4365 10.9999H3.5625C3.16468 10.9999 2.78314 10.8419 2.50184 10.5606C2.22054 10.2793 2.0625 9.89777 2.0625 9.49994V5.56494C2.0625 5.16712 2.22054 4.78559 2.50184 4.50428C2.78314 4.22298 3.16468 4.06494 3.5625 4.06494H20.4365C20.8343 4.06494 21.2159 4.22298 21.4972 4.50428C21.7785 4.78559 21.9365 5.16712 21.9365 5.56494V9.49494C21.9372 9.69234 21.8988 9.88794 21.8238 10.0705C21.7487 10.2531 21.6383 10.419 21.4989 10.5588C21.3596 10.6987 21.194 10.8096 21.0117 10.8853C20.8294 10.961 20.6339 10.9999 20.4365 10.9999ZM3.5625 5.06494C3.42989 5.06494 3.30271 5.11762 3.20895 5.21139C3.11518 5.30516 3.0625 5.43233 3.0625 5.56494V9.49494C3.0625 9.62755 3.11518 9.75473 3.20895 9.8485C3.30271 9.94226 3.42989 9.99494 3.5625 9.99494H20.4365C20.5691 9.99494 20.6963 9.94226 20.7901 9.8485C20.8838 9.75473 20.9365 9.62755 20.9365 9.49494V5.56494C20.9365 5.43233 20.8838 5.30516 20.7901 5.21139C20.6963 5.11762 20.5691 5.06494 20.4365 5.06494H3.5625ZM20.4365 19.9349H3.5625C3.16468 19.9349 2.78314 19.7769 2.50184 19.4956C2.22054 19.2143 2.0625 18.8328 2.0625 18.4349V14.5049C2.0625 14.1071 2.22054 13.7256 2.50184 13.4443C2.78314 13.163 3.16468 13.0049 3.5625 13.0049H20.4365C20.8343 13.0049 21.2159 13.163 21.4972 13.4443C21.7785 13.7256 21.9365 14.1071 21.9365 14.5049V18.4349C21.9365 18.8328 21.7785 19.2143 21.4972 19.4956C21.2159 19.7769 20.8343 19.9349 20.4365 19.9349ZM3.5625 14.0049C3.42989 14.0049 3.30271 14.0576 3.20895 14.1514C3.11518 14.2452 3.0625 14.3723 3.0625 14.5049V18.4349C3.0625 18.5675 3.11518 18.6947 3.20895 18.7885C3.30271 18.8823 3.42989 18.9349 3.5625 18.9349H20.4365C20.5691 18.9349 20.6963 18.8823 20.7901 18.7885C20.8838 18.6947 20.9365 18.5675 20.9365 18.4349V14.5049C20.9365 14.3723 20.8838 14.2452 20.7901 14.1514C20.6963 14.0576 20.5691 14.0049 20.4365 14.0049H3.5625Z" fill="#F0F0F0"/>
<path d="M5.5625 8.02978C5.83864 8.02978 6.0625 7.80593 6.0625 7.52979C6.0625 7.25364 5.83864 7.02979 5.5625 7.02979C5.28636 7.02979 5.0625 7.25364 5.0625 7.52979C5.0625 7.80593 5.28636 8.02978 5.5625 8.02978Z" fill="#F0F0F0"/>
<path d="M7.5625 8.02978C7.83864 8.02978 8.0625 7.80593 8.0625 7.52979C8.0625 7.25364 7.83864 7.02979 7.5625 7.02979C7.28636 7.02979 7.0625 7.25364 7.0625 7.52979C7.0625 7.80593 7.28636 8.02978 7.5625 8.02978Z" fill="#F0F0F0"/>
<path d="M13.4531 8.02978C13.3205 8.02978 13.1933 7.97711 13.0996 7.88334C13.0058 7.78957 12.9531 7.66239 12.9531 7.52979C12.9531 7.39718 13.0058 7.27 13.0996 7.17623C13.1933 7.08246 13.3205 7.02979 13.4531 7.02979H18.4531C18.5857 7.02979 18.7129 7.08246 18.8067 7.17623C18.9004 7.27 18.9531 7.39718 18.9531 7.52979C18.9531 7.66239 18.9004 7.78957 18.8067 7.88334C18.7129 7.97711 18.5857 8.02978 18.4531 8.02978H13.4531Z" fill="#F0F0F0"/>
<path d="M5.5625 16.9702C5.83864 16.9702 6.0625 16.7464 6.0625 16.4702C6.0625 16.1941 5.83864 15.9702 5.5625 15.9702C5.28636 15.9702 5.0625 16.1941 5.0625 16.4702C5.0625 16.7464 5.28636 16.9702 5.5625 16.9702Z" fill="#F0F0F0"/>
<path d="M7.5625 16.9702C7.83864 16.9702 8.0625 16.7464 8.0625 16.4702C8.0625 16.1941 7.83864 15.9702 7.5625 15.9702C7.28636 15.9702 7.0625 16.1941 7.0625 16.4702C7.0625 16.7464 7.28636 16.9702 7.5625 16.9702Z" fill="#F0F0F0"/>
<path d="M13.4531 16.9702C13.3205 16.9702 13.1933 16.9175 13.0996 16.8238C13.0058 16.73 12.9531 16.6028 12.9531 16.4702C12.9531 16.3376 13.0058 16.2104 13.0996 16.1167C13.1933 16.0229 13.3205 15.9702 13.4531 15.9702H18.4531C18.5857 15.9702 18.7129 16.0229 18.8067 16.1167C18.9004 16.2104 18.9531 16.3376 18.9531 16.4702C18.9531 16.6028 18.9004 16.73 18.8067 16.8238C18.7129 16.9175 18.5857 16.9702 18.4531 16.9702H13.4531Z" fill="#F0F0F0"/>
</svg>
