<svg width="515" height="44" viewBox="0 0 515 44" fill="none" xmlns="http://www.w3.org/2000/svg">
<path d="M0.40625 0.25H11.3438V15.875L14.4688 20.4062L17.5938 15.875V0.25H28.5312V19L19.9375 30.4688V44H9V30.4688L0.40625 19V0.25ZM31.6562 4.9375L36.3438 0.25H55.0938L59.7812 4.9375V39.3125L55.0938 44H36.3438L31.6562 39.3125V4.9375ZM42.5938 8.0625V36.1875L44.1562 37.75H47.2812L48.8438 36.1875V8.0625L47.2812 6.5H44.1562L42.5938 8.0625ZM62.9062 0.25H73.8438V36.1875L75.4062 37.75H78.5312L80.0938 36.1875V0.25H91.0312V39.3125L86.3438 44H67.5938L62.9062 39.3125V0.25ZM116.031 28.375V44H105.094V0.25H116.031V20.5625H122.281V0.25H133.219V44H122.281V28.375H116.031ZM159.781 0.25L164.469 4.9375V44H153.531V30.7188H147.281V44H136.344V4.9375L141.031 0.25H159.781ZM153.531 8.0625L151.969 6.5H148.844L147.281 8.0625V24.4688H153.531V8.0625ZM167.594 0.25H178.531V28.375L181.656 32.9062L184.781 28.375V0.25H195.719V31.5L186.344 44H176.969L167.594 31.5V0.25ZM222.281 0.25V8.0625H209.781V20.5625H220.719V28.375H209.781V36.1875H222.281V44H198.844V0.25H222.281ZM259.781 0.25V8.84375H253.531V44H242.594V8.84375H236.344V0.25H259.781ZM261.344 4.9375L266.031 0.25H284.781L289.469 4.9375V39.3125L284.781 44H266.031L261.344 39.3125V4.9375ZM272.281 8.0625V36.1875L273.844 37.75H276.969L278.531 36.1875V8.0625L276.969 6.5H273.844L272.281 8.0625ZM331.656 15.875H320.719V8.0625L319.156 6.5H316.031L314.469 8.0625V15.875L331.656 23.6875V39.3125L326.969 44H308.219L303.531 39.3125V28.375H314.469V36.1875L316.031 37.75H319.156L320.719 36.1875V28.375L303.531 20.5625V4.9375L308.219 0.25H326.969L331.656 4.9375V15.875ZM334.781 0.25H345.719V36.1875L347.281 37.75H350.406L351.969 36.1875V0.25H362.906V39.3125L358.219 44H339.469L334.781 39.3125V0.25ZM376.969 6.5V25.25H381.656L383.219 23.6875V8.0625L381.656 6.5H376.969ZM366.031 0.25H389.469L394.156 4.9375V25.25L391.031 28.375L394.156 31.5V44H383.219V33.0625L381.656 31.5H376.969V44H366.031V0.25ZM397.281 0.25H408.219V28.375L411.344 32.9062L414.469 28.375V0.25H425.406V31.5L416.031 44H406.656L397.281 31.5V0.25ZM441.031 44H428.531V0.25H441.031V44ZM444.156 0.25H455.094V28.375L458.219 32.9062L461.344 28.375V0.25H472.281V31.5L462.906 44H453.531L444.156 31.5V0.25ZM498.844 0.25V8.0625H486.344V20.5625H497.281V28.375H486.344V36.1875H498.844V44H475.406V0.25H498.844ZM514.469 44H501.969V36.1875H514.469V44ZM514.469 36.1875V44H501.969V36.1875H514.469ZM501.969 33.0625V0.25H514.469V33.0625H501.969Z" fill="#B38539"/>
</svg>
