<svg width="82" height="94" viewBox="0 0 82 94" fill="none" xmlns="http://www.w3.org/2000/svg">
<path d="M32.1899 6.03282L8.6962 19.6214L16.1899 23.9497L32.1899 14.8906V6.03282Z" fill="#F0F0F0"/>
<path d="M8.49367 28.1772L1 23.9497V69.4464L8.49367 65.0175V28.1772Z" fill="#F0F0F0"/>
<path d="M17.4051 70.6543L9.70886 74.8818L33 88.5711V80.116L17.4051 70.6543Z" fill="#F0F0F0"/>
<path d="M41.1013 9.65646V1L80.5949 23.7484L73.1013 28.1772L41.1013 9.65646Z" fill="#F0F0F0"/>
<path d="M81 59.9847V32.4048L73.5063 36.6324V55.7571L81 59.9847Z" fill="#F0F0F0"/>
<path d="M80.1899 71.1575L73.1013 66.8293L40.6962 84.5449V93L80.1899 71.1575Z" fill="#F0F0F0"/>
<path d="M35.8354 25.7615V16.2998L62.2658 31.3983V51.3282L54.0633 46.698V36.2298L35.8354 25.7615Z" fill="#F0F0F0"/>
<path d="M34.2152 37.2363V27.7746L17.2025 37.4376V67.4333L25.5063 62.8031V42.0678L34.2152 37.2363Z" fill="#F0F0F0"/>
<path d="M27.3291 64.4136L35.5316 59.5821L44.6456 64.8162L62.6709 54.5492L70.7722 59.1794L44.6456 74.2779L27.3291 64.4136Z" fill="#F0F0F0"/>
<path d="M32.1899 6.03282L8.6962 19.6214L16.1899 23.9497L32.1899 14.8906V6.03282Z" stroke="#F0F0F0"/>
<path d="M8.49367 28.1772L1 23.9497V69.4464L8.49367 65.0175V28.1772Z" stroke="#F0F0F0"/>
<path d="M17.4051 70.6543L9.70886 74.8818L33 88.5711V80.116L17.4051 70.6543Z" stroke="#F0F0F0"/>
<path d="M41.1013 9.65646V1L80.5949 23.7484L73.1013 28.1772L41.1013 9.65646Z" stroke="#F0F0F0"/>
<path d="M81 59.9847V32.4048L73.5063 36.6324V55.7571L81 59.9847Z" stroke="#F0F0F0"/>
<path d="M80.1899 71.1575L73.1013 66.8293L40.6962 84.5449V93L80.1899 71.1575Z" stroke="#F0F0F0"/>
<path d="M35.8354 25.7615V16.2998L62.2658 31.3983V51.3282L54.0633 46.698V36.2298L35.8354 25.7615Z" stroke="#F0F0F0"/>
<path d="M34.2152 37.2363V27.7746L17.2025 37.4376V67.4333L25.5063 62.8031V42.0678L34.2152 37.2363Z" stroke="#F0F0F0"/>
<path d="M27.3291 64.4136L35.5316 59.5821L44.6456 64.8162L62.6709 54.5492L70.7722 59.1794L44.6456 74.2779L27.3291 64.4136Z" stroke="#F0F0F0"/>
</svg>
