<svg width="32" height="32" viewBox="0 0 32 32" fill="none" xmlns="http://www.w3.org/2000/svg">
<path d="M16 2C13.2311 2 10.5243 2.82109 8.22202 4.35943C5.91973 5.89776 4.12532 8.08427 3.06569 10.6424C2.00607 13.2006 1.72882 16.0155 2.26901 18.7313C2.80921 21.447 4.14258 23.9416 6.10051 25.8995C8.05845 27.8574 10.553 29.1908 13.2687 29.731C15.9845 30.2712 18.7994 29.9939 21.3576 28.9343C23.9157 27.8747 26.1022 26.0803 27.6406 23.778C29.1789 21.4757 30 18.7689 30 16C29.9961 12.2882 28.5198 8.72949 25.8952 6.10483C23.2705 3.48017 19.7118 2.00392 16 2ZM12.4502 21.3846H19.5498C18.8269 23.8535 17.6154 26.0786 16 27.8313C14.3846 26.0786 13.1731 23.8535 12.4502 21.3846ZM11.9615 19.2308C11.6044 17.0917 11.6044 14.9083 11.9615 12.7692H20.0385C20.3956 14.9083 20.3956 17.0917 20.0385 19.2308H11.9615ZM4.15385 16C4.15292 14.9075 4.30378 13.8202 4.60212 12.7692H9.77943C9.45815 14.9111 9.45815 17.0889 9.77943 19.2308H4.60212C4.30378 18.1798 4.15292 17.0925 4.15385 16ZM19.5498 10.6154H12.4502C13.1731 8.14654 14.3846 5.92135 16 4.16865C17.6154 5.92135 18.8269 8.14654 19.5498 10.6154ZM22.2206 12.7692H27.3979C27.9956 14.8816 27.9956 17.1184 27.3979 19.2308H22.2206C22.5419 17.0889 22.5419 14.9111 22.2206 12.7692ZM26.5498 10.6154H21.7804C21.2308 8.4528 20.3078 6.40279 19.0531 4.55769C20.6561 4.98849 22.1513 5.75001 23.4424 6.79329C24.7335 7.83657 25.792 9.13851 26.5498 10.6154ZM12.9469 4.55769C11.6922 6.40279 10.7692 8.4528 10.2196 10.6154H5.4502C6.20798 9.13851 7.26647 7.83657 8.55758 6.79329C9.8487 5.75001 11.3439 4.98849 12.9469 4.55769ZM5.4502 21.3846H10.2196C10.7692 23.5472 11.6922 25.5972 12.9469 27.4423C11.3439 27.0115 9.8487 26.25 8.55758 25.2067C7.26647 24.1634 6.20798 22.8615 5.4502 21.3846ZM19.0531 27.4423C20.3078 25.5972 21.2308 23.5472 21.7804 21.3846H26.5498C25.792 22.8615 24.7335 24.1634 23.4424 25.2067C22.1513 26.25 20.6561 27.0115 19.0531 27.4423Z" fill="#F0F0F0"/>
</svg>
